<svg width="283" height="68" viewBox="0 0 283 68" fill="none" xmlns="http://www.w3.org/2000/svg">
<rect x="0.76001" y="0.720703" width="282.24" height="66.304" rx="33.152" fill="url(#paint0_linear_127_2868)"/>
<rect x="4.67993" y="3.63281" width="273.28" height="60.48" rx="30.24" fill="black"/>
<rect x="9.15991" y="6.99292" width="265.44" height="53.76" rx="26.88" fill="url(#paint1_linear_127_2868)"/>
<path d="M58.8708 47.3728V21.3073H80.3035V47.3728H74.8562V25.7873H64.3181V47.3728H58.8708ZM85.5503 21.3073H103.114V25.851H91.0612V32.0619H102.21L99.5885 36.6055H91.0612V42.8292H103.165V47.3728H85.5503V21.3073ZM107.495 47.3728V21.3073H117.779C123.697 21.3073 127.121 24.9601 127.121 30.1401C127.121 35.3455 123.634 38.9219 117.639 38.9219H113.006V47.3728H107.495ZM116.723 25.8128H113.006V34.5055H116.748C119.904 34.5055 121.444 32.7237 121.444 30.1401C121.444 27.5437 119.904 25.8128 116.723 25.8128ZM130.7 21.3073H148.264V25.851H136.211V32.0619H147.36L144.739 36.6055H136.211V42.8292H148.315V47.3728H130.7V21.3073ZM157.418 47.3728H152.658V19.7292L158.144 22.8983V37.7001H158.373L169.624 21.3073H174.46V47.3728H168.949V30.9673H168.758L157.418 47.3728ZM157.253 14.4855H161.007C160.994 15.6564 161.682 16.7637 163.54 16.7637C165.347 16.7637 166.06 15.6819 166.06 14.4855H169.84C169.827 17.5655 167.396 19.6273 163.54 19.6273C159.684 19.6273 157.253 17.5655 157.253 14.4855ZM178.008 21.3073H199.415L196.793 25.851H191.435V47.3728H185.988V25.851H178.008V21.3073ZM207.713 47.3728H202.953V19.7292L208.439 22.8983V37.7001H208.668L219.919 21.3073H224.755V47.3728H219.244V30.9673H219.053L207.713 47.3728Z" fill="black"/>
<defs>
<linearGradient id="paint0_linear_127_2868" x1="0.76001" y1="33.8727" x2="283" y2="33.8727" gradientUnits="userSpaceOnUse">
<stop stop-color="#F5B325"/>
<stop offset="0.5" stop-color="#E65A13"/>
<stop offset="1" stop-color="#D70000"/>
</linearGradient>
<linearGradient id="paint1_linear_127_2868" x1="9.15991" y1="33.8729" x2="274.6" y2="33.8729" gradientUnits="userSpaceOnUse">
<stop stop-color="#F5B325"/>
<stop offset="0.5" stop-color="#E65A13"/>
<stop offset="1" stop-color="#D70000"/>
</linearGradient>
</defs>
</svg>
