<svg width="864" height="110" viewBox="0 0 864 110" fill="none" xmlns="http://www.w3.org/2000/svg">
<rect width="864" height="110" rx="30" fill="#27A7E7"/>
<path d="M160.053 40.9091H183.945L181.019 45.9801H175.039V70H168.96V45.9801H160.053V40.9091ZM187.88 40.9091H207.482V45.9801H194.031V52.9119H206.474L203.548 57.983H194.031V64.929H207.539V70H187.88V40.9091ZM210.795 65.0568L211.619 64.9858C214.815 64.7159 216.009 61.9602 216.293 53.8494L216.776 40.9091H236.52V70H230.54V45.8381H222.486L222.031 55.9659C221.577 65.7244 219.389 70 212.386 70H210.795V65.0568ZM241.591 40.9091H261.193V45.9801H247.741V52.9119H260.185L257.259 57.983H247.741V64.929H261.25V70H241.591V40.9091ZM285.387 40.9091L282.461 45.9801H272.234V70H266.083V40.9091H285.387ZM289.325 70V40.9091H300.803C307.408 40.9091 311.229 44.9858 311.229 50.767C311.229 56.5767 307.337 60.5682 300.646 60.5682H295.476V70H289.325ZM299.624 45.9375H295.476V55.6392H299.652C303.175 55.6392 304.893 53.6506 304.893 50.767C304.893 47.8693 303.175 45.9375 299.624 45.9375ZM313.647 70L323.69 40.9091H331.616L341.644 70H335.053L332.894 63.3665H322.397L320.238 70H313.647ZM327.539 47.5568L323.96 58.5653H331.346L327.766 47.5568H327.539ZM351.112 70H345.146V40.9091H352.731L360.742 60.4545H361.083L369.094 40.9091H376.68V70H370.714V51.0653H370.472L362.944 69.858H358.881L351.353 50.9943H351.112V70ZM387.713 70H381.747V40.9091H389.332L397.344 60.4545H397.685L405.696 40.9091H413.281V70H407.315V51.0653H407.074L399.545 69.858H395.483L387.955 50.9943H387.713V70ZM427.607 70V42.6847L433.757 39.1335V52.5284H434.993L444.652 40.9091H452.308L440.959 54.4034L452.834 70H445.206L435.859 57.5994H433.757V70H427.607ZM454.35 70L464.393 40.9091H472.319L482.347 70H475.756L473.597 63.3665H463.1L460.941 70H454.35ZM468.242 47.5568L464.663 58.5653H472.049L468.469 47.5568H468.242ZM485.849 40.9091H491.999V52.9119H504.485V42.6705L510.621 39.1335V70H504.485V57.983H491.999V70H485.849V40.9091ZM514.116 70L524.158 40.9091H532.085L542.113 70H535.522L533.363 63.3665H522.866L520.707 70H514.116ZM528.008 47.5568L524.428 58.5653H531.815L528.235 47.5568H528.008ZM544.038 65.0568L544.862 64.9858C548.058 64.7159 549.251 61.9602 549.535 53.8494L550.018 40.9091H569.762V70H563.782V45.8381H555.728L555.273 55.9659C554.819 65.7244 552.631 70 545.629 70H544.038V65.0568ZM597.202 70.3977C589.446 70.3977 583.58 64.929 583.58 55.4545C583.58 45.9375 589.446 40.5114 597.202 40.5114C604.915 40.5114 610.824 45.9375 610.824 55.4545C610.824 64.9716 604.915 70.3977 597.202 70.3977ZM597.202 45.9517C592.727 45.9517 589.815 49.2898 589.815 55.4545C589.815 61.6193 592.727 64.9574 597.202 64.9574C601.662 64.9574 604.588 61.6193 604.588 55.4545C604.588 49.2898 601.662 45.9517 597.202 45.9517ZM614.869 55.483C614.869 46.0511 620.792 40.5114 628.477 40.5114C633.803 40.5114 638.136 43.1676 640.025 47.2301L634.67 50.3125C633.888 47.5852 631.744 45.9517 628.576 45.9517C624.13 45.9517 621.104 49.375 621.104 55.4261C621.104 61.5057 624.016 64.9574 628.633 64.9574C632.724 64.9574 635.181 62.6705 635.266 59.0625H629.016L631.687 54.4318H641.19V58.0966C641.19 65.7528 635.948 70.3977 628.604 70.3977C620.408 70.3977 614.869 64.6875 614.869 55.483ZM645.298 55.483C645.298 46.0511 651.222 40.5114 658.906 40.5114C664.233 40.5114 668.565 43.1676 670.455 47.2301L665.099 50.3125C664.318 47.5852 662.173 45.9517 659.006 45.9517C654.56 45.9517 651.534 49.375 651.534 55.4261C651.534 61.5057 654.446 64.9574 659.062 64.9574C663.153 64.9574 665.611 62.6705 665.696 59.0625H659.446L662.116 54.4318H671.619V58.0966C671.619 65.7528 666.378 70.3977 659.034 70.3977C650.838 70.3977 645.298 64.6875 645.298 55.483ZM689.35 70.3977C681.594 70.3977 675.728 64.929 675.728 55.4545C675.728 45.9375 681.594 40.5114 689.35 40.5114C697.063 40.5114 702.972 45.9375 702.972 55.4545C702.972 64.9716 697.063 70.3977 689.35 70.3977ZM689.35 45.9517C684.876 45.9517 681.964 49.2898 681.964 55.4545C681.964 61.6193 684.876 64.9574 689.35 64.9574C693.81 64.9574 696.737 61.6193 696.737 55.4545C696.737 49.2898 693.81 45.9517 689.35 45.9517Z" fill="white"/>
<path d="M758.326 39.726C758.876 39.1761 759.622 38.8672 760.4 38.8672C761.178 38.8672 761.924 39.1761 762.474 39.726L775.674 52.926C776.224 53.4761 776.533 54.2221 776.533 54.9999C776.533 55.7777 776.224 56.5237 775.674 57.0738L762.474 70.2738C761.921 70.8081 761.18 71.1038 760.411 71.0971C759.641 71.0904 758.906 70.7819 758.362 70.238C757.818 69.6942 757.51 68.9584 757.503 68.1893C757.496 67.4202 757.792 66.6793 758.326 66.126L766.267 57.9332H738.4C737.622 57.9332 736.876 57.6242 736.326 57.0741C735.776 56.524 735.467 55.7779 735.467 54.9999C735.467 54.2219 735.776 53.4758 736.326 52.9257C736.876 52.3756 737.622 52.0666 738.4 52.0666H766.267L758.326 43.8738C757.776 43.3237 757.467 42.5777 757.467 41.7999C757.467 41.0221 757.776 40.2761 758.326 39.726Z" fill="white"/>
<g clip-path="url(#clip0_127_2876)">
<path d="M59 18C49.1892 18 39.7716 21.9006 32.8398 28.837C25.901 35.7761 22.002 45.1868 22 55C22 64.809 25.9023 74.2267 32.8398 81.163C39.7716 88.0994 49.1892 92 59 92C68.8108 92 78.2284 88.0994 85.1602 81.163C92.0977 74.2267 96 64.809 96 55C96 45.191 92.0977 35.7733 85.1602 28.837C78.2284 21.9006 68.8108 18 59 18Z" fill="url(#paint0_linear_127_2876)"/>
<path d="M38.7483 54.6091C49.5361 49.9101 56.728 46.8122 60.3239 45.3152C70.603 41.0411 72.7363 40.2988 74.1295 40.2737C74.4359 40.2687 75.1181 40.3445 75.5633 40.7044C75.9333 41.0079 76.0373 41.4183 76.0894 41.7065C76.1356 41.9944 76.1992 42.6506 76.1472 43.1628C75.5922 49.0135 73.1814 63.2111 71.9558 69.7641C71.4413 72.5368 70.418 73.4664 69.4294 73.5572C67.2788 73.7549 65.6484 72.1373 63.5672 70.7735C60.3123 68.6385 58.4739 67.31 55.3116 65.227C51.6578 62.8197 54.0281 61.4963 56.1094 59.3341C56.6528 58.7682 66.1225 50.157 66.3017 49.3759C66.3248 49.2782 66.348 48.914 66.1283 48.7221C65.9144 48.5296 65.5964 48.5955 65.3652 48.6475C65.0356 48.7215 59.8383 52.1602 49.7558 58.963C48.2816 59.977 46.9461 60.4713 45.7436 60.4453C44.4255 60.417 41.8817 59.6984 39.9913 59.0844C37.6788 58.3311 35.8345 57.9328 35.9964 56.6534C36.0773 55.9874 36.9966 55.3058 38.7483 54.6091Z" fill="white"/>
</g>
<defs>
<linearGradient id="paint0_linear_127_2876" x1="3722" y1="18" x2="3722" y2="7418" gradientUnits="userSpaceOnUse">
<stop stop-color="#2AABEE"/>
<stop offset="1" stop-color="#229ED9"/>
</linearGradient>
<clipPath id="clip0_127_2876">
<rect width="74" height="74" fill="white" transform="translate(22 18)"/>
</clipPath>
</defs>
</svg>
