<svg width="309" height="47" viewBox="0 0 309 47" fill="none" xmlns="http://www.w3.org/2000/svg">
<path d="M2.6804 27V6.63636H19.4247V27H15.169V10.1364H6.93608V27H2.6804ZM23.4442 11.7273H27.6204V14.2926H27.8093C28.3761 13.0497 29.5991 11.5284 32.1545 11.5284C35.5053 11.5284 38.3391 14.1335 38.3391 19.3835C38.3391 24.4943 35.6246 27.2486 32.1445 27.2486C29.6786 27.2486 28.396 25.8267 27.8093 24.554H27.68V32.7273H23.4442V11.7273ZM30.8022 14.8991C28.744 14.8991 27.5906 16.6392 27.5906 19.3636C27.5906 22.0881 28.7638 23.8778 30.8022 23.8778C32.8803 23.8778 34.0138 22.0284 34.0138 19.3636C34.0138 16.7188 32.9002 14.8991 30.8022 14.8991ZM45.369 27H41.163V10.5639L45.2099 12.9006V21.4119L50.7085 11.7273H54.8846V27H50.8477V17.2855L45.369 27ZM65.1808 27.2983C60.4776 27.2983 57.6637 24.0668 57.6637 19.4233C57.6637 14.7401 60.5273 11.5284 65.1609 11.5284C68.3129 11.5284 70.6396 12.9702 71.5643 15.3168L68.0046 17.375C67.7759 15.8537 66.7816 14.8295 65.2305 14.8295C63.2617 14.8295 61.9691 16.4801 61.9691 19.3636C61.9691 22.2869 63.2518 23.9474 65.2305 23.9474C66.6822 23.9474 67.756 23.0327 68.0046 21.402L71.5742 23.4602C70.6594 25.8168 68.3924 27.2983 65.1808 27.2983ZM74.0973 19.4233C74.0973 14.6903 76.9808 11.5284 81.6143 11.5284C86.2479 11.5284 89.1314 14.6903 89.1314 19.4233C89.1314 24.1264 86.2479 27.2983 81.6143 27.2983C76.9808 27.2983 74.0973 24.1264 74.0973 19.4233ZM78.4027 19.3935C78.4027 22.0582 79.4964 24.017 81.6342 24.017C83.7322 24.017 84.826 22.0582 84.826 19.3935C84.826 16.7287 83.7322 14.7599 81.6342 14.7599C79.4964 14.7599 78.4027 16.7287 78.4027 19.3935ZM98.8459 27.2983C94.1428 27.2983 91.2692 24.2756 91.2692 19.4332C91.2692 14.7202 94.1825 11.5284 98.6768 11.5284C102.714 11.5284 105.856 14.0938 105.856 19.2841V20.4474H95.4553V20.4574C95.4553 22.7344 96.7976 24.1364 98.9155 24.1364C100.327 24.1364 101.421 23.5298 101.849 22.3665L105.14 24.2656C104.056 26.1449 101.839 27.2983 98.8459 27.2983ZM98.7464 14.6903C96.8672 14.6903 95.5447 16.0824 95.4553 17.8224H101.869C101.859 16.0028 100.586 14.6903 98.7464 14.6903ZM107.427 23.6392H108.6C109.933 22.794 110.221 19.7216 110.46 16.7188L110.857 11.7273H122.57V23.6392H124.937V31.4744H120.9V27H111.563V31.4744H107.427V23.6392ZM112.816 23.6392H118.573V14.9886H114.457L114.298 16.7188C114.069 19.9801 113.721 22.2173 112.816 23.6392ZM131.611 27H127.405V10.5639L131.452 12.9006V21.4119L136.951 11.7273H141.127V27H137.09V17.2855L131.611 27ZM144.522 27V11.7273H148.569V17.6733H153.789V12.9006L157.806 10.5838V27H153.789V21.0043H148.569V27H144.522ZM164.394 27H160.337L163.628 20.8452C161.809 20.0497 160.765 18.598 160.775 16.7386C160.755 13.7557 163.221 11.7273 167.178 11.7273H173.989V27H170.042V21.4915H167.327L164.394 27ZM164.811 16.858C164.792 17.8523 165.597 18.6278 167.138 18.6278H170.042V15.0483H167.178C165.617 15.0483 164.792 15.8835 164.811 16.858ZM177.28 10.5639L181.327 12.9006V21.4119L186.826 11.7273H191.002V27H186.965V17.2855L181.486 27H177.28V10.5639ZM184.131 10.4148C181.118 10.4148 179.219 8.80398 179.219 6.39773H182.152C182.142 7.3125 182.679 8.17756 184.131 8.17756C185.543 8.17756 186.1 7.33239 186.1 6.39773H189.053C189.043 8.80398 187.144 10.4148 184.131 10.4148ZM201.298 27.2983C196.595 27.2983 193.781 24.0668 193.781 19.4233C193.781 14.7401 196.645 11.5284 201.278 11.5284C204.43 11.5284 206.757 12.9702 207.681 15.3168L204.122 17.375C203.893 15.8537 202.899 14.8295 201.348 14.8295C199.379 14.8295 198.086 16.4801 198.086 19.3636C198.086 22.2869 199.369 23.9474 201.348 23.9474C202.799 23.9474 203.873 23.0327 204.122 21.402L207.691 23.4602C206.777 25.8168 204.51 27.2983 201.298 27.2983ZM214.132 27H210.075L213.366 20.8452C211.547 20.0497 210.503 18.598 210.513 16.7386C210.493 13.7557 212.959 11.7273 216.916 11.7273H223.727V27H219.78V21.4915H217.065L214.132 27ZM214.55 16.858C214.53 17.8523 215.335 18.6278 216.876 18.6278H219.78V15.0483H216.916C215.355 15.0483 214.53 15.8835 214.55 16.858ZM233.499 12.9503L237.735 10.5043V17.6534H238.928L243.084 11.7273H248.056L242.657 19.304L248.115 27H243.084L239.316 21.581H237.735V27H233.499V12.9503ZM256.386 27V11.7273H260.433V17.6733H265.653V12.9006L269.67 10.5838V27H265.653V21.0043H260.433V27H256.386ZM272.24 22.7344C272.24 19.3239 274.955 18.3097 277.977 18.0312C280.632 17.7727 281.676 17.6435 281.676 16.6591V16.5994C281.676 15.3466 280.851 14.6207 279.409 14.6207C277.888 14.6207 276.983 15.3665 276.695 16.3807L273.374 14.4716C274.418 12.6222 276.526 11.5284 279.429 11.5284C282.83 11.5284 285.912 13.0597 285.912 16.6989V27H281.895V24.8821H281.776C281.03 26.304 279.568 27.2884 277.311 27.2884C274.398 27.2884 272.24 25.7571 272.24 22.7344ZM278.763 20.6065C277.271 20.8153 276.287 21.402 276.287 22.5952C276.287 23.7585 277.222 24.3651 278.524 24.3651C280.384 24.3651 281.706 23.142 281.706 21.5412V19.9205C281.199 20.2585 279.688 20.4773 278.763 20.6065ZM289.198 27V11.7273H294.21L298.227 22.3168L302.363 11.7273H307.414V27H303.417V17.2855L299.629 27H296.815L293.245 17.6236V27H289.198Z" fill="white"/>
<rect x="1" y="44" width="307.3" height="2.8" fill="#D9D9D9"/>
</svg>
