<svg width="1088" height="1070" viewBox="0 0 1088 1070" fill="none" xmlns="http://www.w3.org/2000/svg" xmlns:xlink="http://www.w3.org/1999/xlink">
<rect width="1088" height="1070" rx="30" fill="#0F0F0F"/>
<rect width="1088" height="1070" rx="30"/>
<circle cx="536" cy="516" r="296" fill="url(#paint0_linear_2012_1002)"/>
<g filter="url(#filter0_d_2012_1002)">
<path d="M466.278 255.141L482.65 298.712L465.459 305.171C455.566 308.888 447.549 304.933 444.296 296.274C441.026 287.572 444.609 279.404 454.63 275.638L462.374 272.729L457.066 258.602L466.278 255.141ZM464.395 296.976L470.608 294.642L465.148 280.111L458.893 282.461C453.617 284.444 452.162 288.39 453.784 292.708C455.415 297.049 459.077 298.975 464.395 296.976ZM419.174 290.799L437.639 318.231L426.303 319.013L411.48 296.991C408.51 292.579 403.255 291.487 398.522 294.673C393.771 297.871 392.824 303.138 395.793 307.55L412.203 331.928L404.039 337.423L387.16 312.348C381.475 303.901 384.09 293.949 393.687 287.489C403.321 281.004 413.489 282.352 419.174 290.799ZM363.672 320.674L361.47 330.479C357.827 327.557 353.595 328.665 350.131 332.426C346.743 336.104 346.263 340.049 348.755 342.375C351.077 344.483 354.057 343.395 358.393 340.498L362.762 337.632C369.476 333.125 375.648 332.228 380.682 336.894C386.932 342.587 386.013 351.906 379.1 359.412C373.573 365.414 366.916 367.41 361.311 365.276L363.442 355.715C366.38 357.926 369.907 357.25 373.094 353.789C376.358 350.245 376.538 346.795 374.331 344.763C371.919 342.45 368.522 343.925 365.096 346.269L361.528 348.668C354.709 353.388 347.727 354.898 342.01 349.665C335.756 343.875 336.287 335.28 343.985 326.921C350.235 320.134 357.196 317.708 363.672 320.674ZM356.311 382.694L351.537 391.299L334.744 381.982L325.052 399.451L339.143 407.269L339.328 418.599L296.381 394.773L301.144 386.187L317.957 395.515L327.649 378.046L310.836 368.718L315.61 360.113L356.311 382.694ZM271.707 467.59L273.957 451.244L320.068 457.591L317.8 474.072C315.885 487.986 306.067 495.307 291.703 493.33C277.293 491.346 269.774 481.639 271.707 467.59ZM310.373 466.19L280.969 462.143L280.116 468.335C278.923 477.003 282.752 482.187 293.042 483.603C303.286 485.013 308.328 481.05 309.518 472.404L310.373 466.19ZM267.775 537.155C266.365 524.826 273.992 514.507 289.053 512.785C304.182 511.055 313.874 519.394 315.283 531.723C316.685 543.984 309.134 554.364 294.005 556.093C278.876 557.823 269.177 549.416 267.775 537.155ZM306.635 532.712C305.822 525.599 299.986 521.577 290.187 522.697C280.387 523.818 275.61 529.054 276.423 536.166C277.234 543.256 283.072 547.301 292.872 546.181C302.671 545.06 307.446 539.802 306.635 532.712ZM316.747 563.818L320.936 573.718L294.153 593.415L294.303 593.771L327.4 588.998L330.987 597.475L304.442 617.91L304.601 618.287L337.451 612.754L341.64 622.655L293.584 628.525L289.847 619.692L314.42 599.672L314.278 599.337L282.806 603.052L279.069 594.219L316.747 563.818ZM309.136 662.42L345.337 633.164L350.765 639.881L340.627 673.906L340.884 674.224L361.247 657.767L371.805 661.829L333.607 692.7L328.264 686.089L338.32 651.925L338.106 651.66L315.321 670.074L309.136 662.42ZM382.446 723.323C385.152 718.666 389.756 717.53 395.885 717.071C395.335 713.176 395.342 709.185 397.421 705.608C400.813 699.772 407.81 697.819 414.412 701.657C420.877 705.414 422.342 712.075 419.349 717.223C417.145 721.015 413.399 722.939 408.603 723.411L405.263 723.73L407.473 735.214C409.688 733.847 411.695 731.885 413.226 729.252L420.162 733.283C416.987 738.746 413.094 742.188 409.13 743.853L411.15 754.307L402.426 749.236L401.565 745.108C397.251 745.702 392.868 744.469 389.35 742.425C380.98 737.56 378.757 729.67 382.446 723.323ZM390.835 727.568C389.168 730.437 390.171 733.912 393.669 735.945C395.496 737.007 397.674 737.511 399.969 737.451L397.279 724.532L396.952 724.552C393.795 724.872 391.726 726.036 390.835 727.568ZM404.513 709.914C403.542 711.585 403.613 713.86 404.01 716.614L406.912 716.461C409.658 716.348 411.393 715.49 412.375 713.8C413.3 712.209 412.923 709.782 410.554 708.431C408.204 707.091 405.689 707.89 404.513 709.914ZM469.961 730.099L507.62 736.666L501.614 743.855L492.188 742.211L485.585 780.071L476.003 778.4L482.605 740.54L468.567 738.092L469.961 730.099ZM523.604 769.636L521.471 736.637L531.657 741.672L533.37 768.162C533.713 773.469 537.703 777.06 543.395 776.692C549.111 776.323 552.583 772.249 552.24 766.942L550.344 737.617L560.164 736.982L562.114 767.147C562.771 777.307 555.498 784.587 543.954 785.333C532.365 786.082 524.26 779.797 523.604 769.636ZM599.468 777.838L590.067 780.746L576.312 736.28L593.856 730.853C603.952 727.73 611.552 731.612 614.285 740.449C616.166 746.528 614.728 751.802 610.341 755.538L625.132 769.9L614.753 773.11L601.453 759.953L594.592 762.075L599.468 777.838ZM594.431 739.097L588.091 741.058L592.255 754.519L598.638 752.545C604.023 750.879 605.965 747.852 604.602 743.444C603.232 739.015 599.859 737.418 594.431 739.097ZM648.024 761.833L624.291 721.793L631.72 717.389L663.929 732.326L664.281 732.118L650.931 709.595L656.472 699.732L681.514 741.982L674.202 746.316L641.845 731.44L641.552 731.614L656.489 756.815L648.024 761.833Z" fill="#F5B325" fill-opacity="0.6" shape-rendering="crispEdges"/>
</g>
<circle cx="535.5" cy="516.5" r="103.5" fill="#EB7618"/>
<circle cx="535.5" cy="516.5" r="64.5" fill="url(#paint1_radial_2012_1002)" fill-opacity="0.45"/>
<circle cx="535.5" cy="516.5" r="24.5" fill="#EB7618" fill-opacity="0.2"/>
<g filter="url(#filter1_d_2012_1002)">
<path d="M590.248 261.143L591.487 245.551C591.487 245.551 573.67 246.574 553.668 253.815C533.667 261.056 519.556 270.176 519.556 270.176C519.556 270.176 536.735 275.781 554.752 283.945C572.768 292.109 587.07 301.141 587.07 301.141L588.13 287.799M590.248 261.143C611.52 263.929 659.5 273.331 674.995 297.891L664.137 323.805C651.938 310.993 619.658 285.854 588.13 287.799M590.248 261.143L588.13 287.799" stroke="#EA7217" stroke-width="7" shape-rendering="crispEdges"/>
</g>
<g filter="url(#filter2_d_2012_1002)">
<path d="M768.903 636.857L783.505 642.462C783.505 642.462 787.572 625.086 786.295 603.852C785.018 582.618 780.269 566.502 780.269 566.502C780.269 566.502 770.026 581.389 757.092 596.355C744.159 611.32 731.445 622.477 731.445 622.477L743.94 627.273M768.903 636.857C760.205 656.468 737.405 697.358 713.01 710.051L690.152 691.034C702.273 680.692 736.872 658.06 743.94 627.273M768.903 636.857L743.94 627.273" stroke="#DF340B" stroke-width="7" shape-rendering="crispEdges"/>
</g>
<path d="M317.6 77C207.4 77 118 171.8 118 288.8C118 405.8 207.4 500.6 317.6 500.6C427.8 500.6 517.2 405.8 517.2 288.8C517.2 171.8 427.8 77 317.6 77ZM317.6 410.9C264.8 410.9 221.9 356.3 221.9 288.9C221.9 221.5 264.7 166.9 317.6 166.9C370.5 166.9 413.3 221.5 413.3 288.9C413.3 356.2 370.4 410.9 317.6 410.9Z" fill="white"/>
<path d="M755.2 531.4C645 531.4 555.6 626.2 555.6 743.2C555.6 860.2 644.9 955 755.2 955C865.4 955 954.8 860.2 954.8 743.2C954.8 626.3 865.5 531.4 755.2 531.4ZM755.2 865.3C702.4 865.3 659.5 810.7 659.5 743.3C659.5 675.9 702.3 621.3 755.2 621.3C808 621.3 850.9 675.9 850.9 743.3C850.9 810.6 808.1 865.3 755.2 865.3Z" fill="white"/>
<path d="M934.1 418.1C897.6 468.3 840.4 500.7 776 500.7C665.8 500.7 576.4 405.9 576.4 288.9C576.4 171.9 665.8 77 776 77C830 77 879 99.8 914.9 136.7C918.5 140.4 918.7 146.1 915.4 150.1L871.1 203.2C867.3 207.7 860.5 208 856.3 203.9C844.6 192.2 833.2 183.5 821.5 177.5C807.3 170.2 792.5 166.8 776 166.8C723.2 166.8 680.3 221.4 680.3 288.8C680.3 356.2 723.1 410.8 776 410.8C800.4 410.8 822.3 398.9 839.1 379.6C842.4 375.8 844.1 371 844 366L843.7 347.3C843.6 341.8 839.2 337.5 833.7 337.5H796.8C791.3 337.5 786.8 333 786.8 327.5V274.9C786.8 269.4 791.3 264.9 796.8 264.9H924.1C929.6 264.9 934.1 269.4 934.1 274.9V418.1Z" fill="white"/>
<path d="M496.4 872.5C459.9 922.7 402.7 955.1 338.3 955.1C228.1 955.1 138.7 860.3 138.7 743.3C138.7 626.3 228.1 531.4 338.3 531.4C392.3 531.4 441.3 554.2 477.2 591.1C480.8 594.8 481 600.5 477.7 604.5L433.4 657.6C429.6 662.1 422.8 662.4 418.6 658.3C406.9 646.6 395.5 637.9 383.8 631.9C369.6 624.6 354.8 621.2 338.3 621.2C285.5 621.2 242.6 675.8 242.6 743.2C242.6 810.6 285.4 865.2 338.3 865.2C362.7 865.2 384.6 853.3 401.4 834C404.7 830.2 406.4 825.4 406.3 820.4L406 801.7C405.9 796.2 401.5 791.9 396 791.9H359.1C353.6 791.9 349.1 787.4 349.1 781.9V729.3C349.1 723.8 353.6 719.3 359.1 719.3H486.4C491.9 719.3 496.4 723.8 496.4 729.3V872.5Z" fill="white"/>
<defs>
<filter id="filter0_d_2012_1002" x="198.67" y="219.115" width="598.719" height="620.009" filterUnits="userSpaceOnUse" color-interpolation-filters="sRGB">
<feFlood flood-opacity="0" result="BackgroundImageFix"/>
<feColorMatrix in="SourceAlpha" type="matrix" values="0 0 0 0 0 0 0 0 0 0 0 0 0 0 0 0 0 0 127 0" result="hardAlpha"/>
<feOffset dy="4"/>
<feGaussianBlur stdDeviation="2"/>
<feComposite in2="hardAlpha" operator="out"/>
<feColorMatrix type="matrix" values="0 0 0 0 0 0 0 0 0 0 0 0 0 0 0 0 0 0 0.1 0"/>
<feBlend mode="normal" in2="BackgroundImageFix" result="effect1_dropShadow_2012_1002"/>
<feBlend mode="normal" in="SourceGraphic" in2="effect1_dropShadow_2012_1002" result="shape"/>
</filter>
<filter id="filter1_d_2012_1002" x="507.486" y="241.827" width="175.441" height="96.2703" filterUnits="userSpaceOnUse" color-interpolation-filters="sRGB">
<feFlood flood-opacity="0" result="BackgroundImageFix"/>
<feColorMatrix in="SourceAlpha" type="matrix" values="0 0 0 0 0 0 0 0 0 0 0 0 0 0 0 0 0 0 127 0" result="hardAlpha"/>
<feOffset dy="4"/>
<feGaussianBlur stdDeviation="2"/>
<feComposite in2="hardAlpha" operator="out"/>
<feColorMatrix type="matrix" values="0 0 0 0 0 0 0 0 0 0 0 0 0 0 0 0 0 0 0.1 0"/>
<feBlend mode="normal" in2="BackgroundImageFix" result="effect1_dropShadow_2012_1002"/>
<feBlend mode="normal" in="SourceGraphic" in2="effect1_dropShadow_2012_1002" result="shape"/>
</filter>
<filter id="filter2_d_2012_1002" x="680.72" y="558.466" width="113.323" height="163.764" filterUnits="userSpaceOnUse" color-interpolation-filters="sRGB">
<feFlood flood-opacity="0" result="BackgroundImageFix"/>
<feColorMatrix in="SourceAlpha" type="matrix" values="0 0 0 0 0 0 0 0 0 0 0 0 0 0 0 0 0 0 127 0" result="hardAlpha"/>
<feOffset dy="4"/>
<feGaussianBlur stdDeviation="2"/>
<feComposite in2="hardAlpha" operator="out"/>
<feColorMatrix type="matrix" values="0 0 0 0 0 0 0 0 0 0 0 0 0 0 0 0 0 0 0.1 0"/>
<feBlend mode="normal" in2="BackgroundImageFix" result="effect1_dropShadow_2012_1002"/>
<feBlend mode="normal" in="SourceGraphic" in2="effect1_dropShadow_2012_1002" result="shape"/>
</filter>
<linearGradient id="paint0_linear_2012_1002" x1="240" y1="516" x2="832" y2="516" gradientUnits="userSpaceOnUse">
<stop stop-color="#F5B325"/>
<stop offset="0.5" stop-color="#E65A13"/>
<stop offset="1" stop-color="#D70000"/>
</linearGradient>
<radialGradient id="paint1_radial_2012_1002" cx="0" cy="0" r="1" gradientUnits="userSpaceOnUse" gradientTransform="translate(535.5 516.5) rotate(90) scale(64.5)">
<stop stop-color="#920D00"/>
<stop offset="0.5" stop-color="#A71204"/>
<stop offset="1" stop-color="#DA1805"/>
</radialGradient>
</defs>
</svg>
