<svg width="321" height="75" viewBox="0 0 321 75" fill="none" xmlns="http://www.w3.org/2000/svg" xmlns:xlink="http://www.w3.org/1999/xlink">
<rect width="321" height="75" rx="24" fill="url(#paint0_linear_264_505)"/>
<rect x="4" y="3" width="313" height="69" rx="24" fill="#0B0B0B"/>
<rect x="4" y="3" width="313" height="69" rx="24"/>
<path d="M53.6182 28.3818H57.5545V36.0636H65.5455V29.5091L69.4727 27.2455V47H65.5455V39.3091H57.5545V47H53.6182V28.3818ZM72.7182 28.3818H85.2636V31.6273H76.6545V36.0636H84.6182L82.7455 39.3091H76.6545V43.7545H85.3V47H72.7182V28.3818ZM87.6841 28.3818H102.975L101.102 31.6273H97.275V47H93.3841V31.6273H87.6841V28.3818ZM105.302 51.5455C105.566 50.4818 106.275 47.9455 106.384 45.4727L106.43 44.4545H109.63L109.53 45.4545C109.284 47.8636 108.248 50.4455 107.811 51.5455H105.302ZM122.986 47H119.168V28.3818H124.023L129.15 40.8909H129.368L134.495 28.3818H139.35V47H135.532V34.8818H135.377L130.559 46.9091H127.959L123.141 34.8364H122.986V47ZM142.593 28.3818H146.53V36.0636H154.52V29.5091L158.448 27.2455V47H154.52V39.3091H146.53V47H142.593V28.3818ZM161.693 28.3818H174.239V31.6273H165.63V36.0636H173.593L171.72 39.3091H165.63V43.7545H174.275V47H161.693V28.3818ZM183.293 28.3818H187.23V36.0636H195.22V29.5091L199.148 27.2455V47H195.22V39.3091H187.23V47H183.293V28.3818ZM202.393 28.3818H214.939V31.6273H206.33V36.0636H214.293L212.42 39.3091H206.33V43.7545H214.975V47H202.393V28.3818ZM217.359 28.3818H232.65L230.777 31.6273H226.95V47H223.059V31.6273H217.359V28.3818ZM240.775 36.9182V33.1818L249.084 28.3818V47H245.148V34.3909L240.775 36.9182ZM253.236 41.9909C253.227 39.6636 255 37.7636 257.273 37.3909V37.2636C255.291 36.8636 253.918 35.1727 253.927 33.1364C253.918 30.2545 256.682 28.1273 260.455 28.1273C264.218 28.1273 266.982 30.2545 266.991 33.1364C266.982 35.1818 265.591 36.8636 263.645 37.2636V37.3909C265.882 37.7636 267.673 39.6636 267.682 41.9909C267.673 45.0091 264.655 47.2545 260.455 47.2545C256.255 47.2545 253.227 45.0091 253.236 41.9909ZM257.327 41.6818C257.327 43.2545 258.582 44.3636 260.455 44.3636C262.318 44.3636 263.582 43.2636 263.582 41.6818C263.582 40.0727 262.255 38.9091 260.455 38.9091C258.645 38.9091 257.327 40.0727 257.327 41.6818ZM260.455 31.0909C258.864 31.0909 257.764 32.0909 257.764 33.5455C257.764 35.0182 258.882 36.0455 260.455 36.0455C262.018 36.0455 263.145 35.0182 263.145 33.5455C263.145 32.1 262.036 31.0909 260.455 31.0909Z" fill="url(#paint1_linear_264_505)"/>
<defs>
<linearGradient id="paint0_linear_264_505" x1="0" y1="37.5" x2="321" y2="37.5" gradientUnits="userSpaceOnUse">
<stop stop-color="#F5B325"/>
<stop offset="0.5" stop-color="#E65A13"/>
<stop offset="1" stop-color="#D70000"/>
</linearGradient>
<linearGradient id="paint1_linear_264_505" x1="52" y1="37.5" x2="269" y2="37.5" gradientUnits="userSpaceOnUse">
<stop stop-color="#F5B325"/>
<stop offset="0.5" stop-color="#E65A13"/>
<stop offset="1" stop-color="#D70000"/>
</linearGradient>
</defs>
</svg>
