<svg width="2360" height="135" viewBox="0 0 2360 135" fill="none" xmlns="http://www.w3.org/2000/svg">
<mask id="path-1-outside-1_2026_392" maskUnits="userSpaceOnUse" x="0" y="0" width="2360" height="135" fill="black">
<rect fill="white" width="2360" height="135"/>
<path d="M5.15234 8.4209H36.207C44.6055 8.4209 51.0508 9.08008 55.543 10.3984C60.084 11.7168 63.4775 13.6211 65.7236 16.1113C68.0186 18.6016 69.5566 21.6289 70.3379 25.1934C71.168 28.709 71.583 34.1777 71.583 41.5996V51.9268C71.583 59.4951 70.8018 65.0127 69.2393 68.4795C67.6768 71.9463 64.7959 74.6074 60.5967 76.4629C56.4463 78.3184 51.002 79.2461 44.2637 79.2461H35.9873V127H5.15234V8.4209ZM35.9873 28.709V58.8848C36.8662 58.9336 37.623 58.958 38.2578 58.958C41.0898 58.958 43.043 58.2744 44.1172 56.9072C45.2402 55.4912 45.8018 52.5859 45.8018 48.1914V38.4502C45.8018 34.3975 45.167 31.7607 43.8975 30.54C42.6279 29.3193 39.9912 28.709 35.9873 28.709ZM80.4453 8.4209H131.861V32.1514H111.28V54.6367H130.543V77.1953H111.28V103.27H133.912V127H80.4453V8.4209ZM196.095 8.4209L213.746 127H182.179L180.641 105.687H169.581L167.75 127H135.816L151.49 8.4209H196.095ZM179.762 84.666C178.199 71.2383 176.637 54.6611 175.074 34.9346C171.949 57.5908 169.996 74.168 169.215 84.666H179.762ZM291.017 60.1299H260.182V39.4756C260.182 33.4697 259.84 29.7344 259.156 28.2695C258.521 26.7559 257.081 25.999 254.835 25.999C252.296 25.999 250.685 26.9023 250.001 28.709C249.317 30.5156 248.976 34.4219 248.976 40.4277V95.5059C248.976 101.268 249.317 105.027 250.001 106.785C250.685 108.543 252.223 109.422 254.615 109.422C256.91 109.422 258.399 108.543 259.083 106.785C259.815 105.027 260.182 100.901 260.182 94.4072V79.5391H291.017V84.1533C291.017 96.4092 290.138 105.101 288.38 110.228C286.671 115.354 282.838 119.847 276.881 123.704C270.973 127.562 263.673 129.49 254.981 129.49C245.948 129.49 238.502 127.854 232.643 124.583C226.783 121.312 222.901 116.795 220.997 111.033C219.093 105.223 218.141 96.5068 218.141 84.8857V50.2422C218.141 41.6973 218.434 35.3008 219.02 31.0527C219.605 26.7559 221.339 22.6299 224.22 18.6748C227.149 14.7197 231.178 11.6191 236.305 9.37305C241.48 7.07813 247.413 5.93066 254.103 5.93066C263.185 5.93066 270.68 7.68848 276.588 11.2041C282.496 14.7197 286.378 19.1143 288.233 24.3877C290.089 29.6123 291.017 37.7666 291.017 48.8506V60.1299ZM372.975 8.4209V127H342.14V77.1953H332.911V127H302.076V8.4209H332.911V50.8281H342.14V8.4209H372.975ZM507.081 8.4209V127H480.128V46.9463L469.361 127H450.245L438.893 48.7773V127H411.939V8.4209H451.856C453.028 15.5498 454.273 23.9482 455.592 33.6162L459.84 63.792L466.871 8.4209H507.081ZM572.706 8.4209L590.357 127H558.79L557.252 105.687H546.192L544.361 127H512.428L528.102 8.4209H572.706ZM556.373 84.666C554.811 71.2383 553.248 54.6611 551.686 34.9346C548.561 57.5908 546.607 74.168 545.826 84.666H556.373ZM664.479 8.4209V127H637.452L621.412 73.0938V127H595.631V8.4209H621.412L638.697 61.8145V8.4209H664.479ZM747.682 52.0732H716.847V41.3066C716.847 34.5195 716.554 30.2715 715.968 28.5625C715.382 26.8535 713.99 25.999 711.793 25.999C709.889 25.999 708.595 26.7314 707.911 28.1963C707.228 29.6611 706.886 33.4209 706.886 39.4756V96.3848C706.886 101.707 707.228 105.223 707.911 106.932C708.595 108.592 709.962 109.422 712.013 109.422C714.259 109.422 715.772 108.47 716.554 106.565C717.384 104.661 717.799 100.95 717.799 95.4326V81.3701H711.573V63.3525H747.682V127H728.272L725.416 118.504C723.316 122.166 720.655 124.925 717.433 126.78C714.259 128.587 710.499 129.49 706.153 129.49C700.978 129.49 696.119 128.245 691.578 125.755C687.086 123.216 683.668 120.091 681.324 116.38C678.98 112.669 677.516 108.787 676.93 104.734C676.344 100.633 676.051 94.5049 676.051 86.3506V51.1211C676.051 39.793 676.661 31.5654 677.882 26.4385C679.103 21.3115 682.594 16.624 688.355 12.376C694.166 8.0791 701.661 5.93066 710.841 5.93066C719.874 5.93066 727.369 7.78613 733.326 11.4971C739.283 15.208 743.165 19.627 744.972 24.7539C746.778 29.832 747.682 37.2295 747.682 46.9463V52.0732ZM830.152 77.8545C830.152 89.7686 829.859 98.2158 829.273 103.196C828.736 108.128 826.979 112.645 824 116.746C821.07 120.848 817.091 123.997 812.062 126.194C807.032 128.392 801.173 129.49 794.483 129.49C788.136 129.49 782.423 128.465 777.345 126.414C772.315 124.314 768.263 121.189 765.187 117.039C762.11 112.889 760.279 108.372 759.693 103.489C759.107 98.6064 758.814 90.0615 758.814 77.8545V57.5664C758.814 45.6523 759.083 37.2295 759.62 32.2979C760.206 27.3174 761.964 22.7764 764.894 18.6748C767.872 14.5732 771.876 11.4238 776.905 9.22656C781.935 7.0293 787.794 5.93066 794.483 5.93066C800.831 5.93066 806.52 6.98047 811.549 9.08008C816.627 11.1309 820.704 14.2314 823.78 18.3818C826.856 22.5322 828.688 27.0488 829.273 31.9316C829.859 36.8145 830.152 45.3594 830.152 57.5664V77.8545ZM799.317 38.8896C799.317 33.3721 799 29.8564 798.365 28.3428C797.779 26.7803 796.534 25.999 794.63 25.999C793.019 25.999 791.773 26.6338 790.895 27.9033C790.064 29.124 789.649 32.7861 789.649 38.8896V94.2607C789.649 101.146 789.918 105.394 790.455 107.005C791.041 108.616 792.359 109.422 794.41 109.422C796.51 109.422 797.853 108.494 798.438 106.639C799.024 104.783 799.317 100.364 799.317 93.3818V38.8896ZM941.7 8.4209L924.049 61.9609L943.385 127H911.524L899.073 76.1699V127H868.238V8.4209H899.073V54.4902L912.77 8.4209H941.7ZM979.64 8.4209V127H948.805V8.4209H979.64ZM1108.03 8.4209L1094.34 127H1055.81C1052.3 108.787 1049.2 88.084 1046.51 64.8906C1045.29 74.8027 1042.43 95.5059 1037.94 127H999.635L985.865 8.4209H1015.82L1018.97 49.8027L1022.19 89.7197C1023.32 69.0654 1026.15 41.9658 1030.69 8.4209H1062.77C1063.21 11.8877 1064.33 24.9248 1066.14 47.5322L1069.51 92.5762C1071.22 63.9141 1074.07 35.8623 1078.08 8.4209H1108.03ZM1145.02 8.4209V127H1114.19V8.4209H1145.02ZM1237.16 8.4209L1254.81 127H1223.24L1221.71 105.687H1210.65L1208.81 127H1176.88L1192.55 8.4209H1237.16ZM1220.83 84.666C1219.26 71.2383 1217.7 54.6611 1216.14 34.9346C1213.01 57.5908 1211.06 74.168 1210.28 84.666H1220.83ZM1260.08 8.4209H1291.14C1299.54 8.4209 1305.98 9.08008 1310.47 10.3984C1315.02 11.7168 1318.41 13.6211 1320.66 16.1113C1322.95 18.6016 1324.49 21.6289 1325.27 25.1934C1326.1 28.709 1326.51 34.1777 1326.51 41.5996V51.9268C1326.51 59.4951 1325.73 65.0127 1324.17 68.4795C1322.61 71.9463 1319.73 74.6074 1315.53 76.4629C1311.38 78.3184 1305.93 79.2461 1299.2 79.2461H1290.92V127H1260.08V8.4209ZM1290.92 28.709V58.8848C1291.8 58.9336 1292.55 58.958 1293.19 58.958C1296.02 58.958 1297.97 58.2744 1299.05 56.9072C1300.17 55.4912 1300.73 52.5859 1300.73 48.1914V38.4502C1300.73 34.3975 1300.1 31.7607 1298.83 30.54C1297.56 29.3193 1294.92 28.709 1290.92 28.709ZM1335.38 8.4209H1366.43C1374.83 8.4209 1381.28 9.08008 1385.77 10.3984C1390.31 11.7168 1393.7 13.6211 1395.95 16.1113C1398.24 18.6016 1399.78 21.6289 1400.56 25.1934C1401.39 28.709 1401.81 34.1777 1401.81 41.5996V51.9268C1401.81 59.4951 1401.03 65.0127 1399.46 68.4795C1397.9 71.9463 1395.02 74.6074 1390.82 76.4629C1386.67 78.3184 1381.23 79.2461 1374.49 79.2461H1366.21V127H1335.38V8.4209ZM1366.21 28.709V58.8848C1367.09 58.9336 1367.85 58.958 1368.48 58.958C1371.31 58.958 1373.27 58.2744 1374.34 56.9072C1375.46 55.4912 1376.03 52.5859 1376.03 48.1914V38.4502C1376.03 34.3975 1375.39 31.7607 1374.12 30.54C1372.85 29.3193 1370.22 28.709 1366.21 28.709ZM1441.5 8.4209V103.27H1460.25V127H1410.67V8.4209H1441.5ZM1467.8 8.4209H1519.21V32.1514H1498.63V54.6367H1517.9V77.1953H1498.63V103.27H1521.27V127H1467.8V8.4209ZM1622.05 44.3096H1593.41V35.5205C1593.41 31.4189 1593.04 28.8066 1592.31 27.6836C1591.58 26.5605 1590.36 25.999 1588.65 25.999C1586.79 25.999 1585.38 26.7559 1584.4 28.2695C1583.47 29.7832 1583.01 32.0781 1583.01 35.1543C1583.01 39.1094 1583.55 42.0879 1584.62 44.0898C1585.65 46.0918 1588.55 48.5088 1593.34 51.3408C1607.06 59.4951 1615.7 66.1846 1619.26 71.4092C1622.83 76.6338 1624.61 85.0566 1624.61 96.6777C1624.61 105.125 1623.61 111.351 1621.61 115.354C1619.65 119.358 1615.85 122.728 1610.18 125.462C1604.52 128.147 1597.93 129.49 1590.41 129.49C1582.15 129.49 1575.1 127.928 1569.24 124.803C1563.43 121.678 1559.62 117.698 1557.81 112.864C1556.01 108.03 1555.1 101.17 1555.1 92.2832V84.5195H1583.74V98.9482C1583.74 103.392 1584.13 106.248 1584.91 107.518C1585.74 108.787 1587.18 109.422 1589.23 109.422C1591.29 109.422 1592.8 108.616 1593.78 107.005C1594.8 105.394 1595.31 103.001 1595.31 99.8271C1595.31 92.8447 1594.36 88.2793 1592.46 86.1309C1590.5 83.9824 1585.69 80.3936 1578.03 75.3643C1570.36 70.2861 1565.28 66.5996 1562.79 64.3047C1560.3 62.0098 1558.23 58.8359 1556.57 54.7832C1554.96 50.7305 1554.15 45.5547 1554.15 39.2559C1554.15 30.1738 1555.3 23.5332 1557.59 19.334C1559.94 15.1348 1563.7 11.8633 1568.87 9.51953C1574.05 7.12695 1580.3 5.93066 1587.62 5.93066C1595.63 5.93066 1602.44 7.22461 1608.06 9.8125C1613.72 12.4004 1617.46 15.6719 1619.26 19.627C1621.12 23.5332 1622.05 30.1982 1622.05 39.6221V44.3096ZM1696.46 8.4209V32.1514H1678.15V127H1647.32V32.1514H1629.08V8.4209H1696.46ZM1703.49 8.4209H1725.32C1739.87 8.4209 1749.71 8.98242 1754.83 10.1055C1760.01 11.2285 1764.21 14.1094 1767.43 18.748C1770.7 23.3379 1772.34 30.6865 1772.34 40.7939C1772.34 50.0225 1771.19 56.2236 1768.9 59.3975C1766.6 62.5713 1762.09 64.4756 1755.35 65.1104C1761.45 66.624 1765.55 68.6504 1767.65 71.1895C1769.75 73.7285 1771.05 76.0723 1771.53 78.2207C1772.07 80.3203 1772.34 86.1553 1772.34 95.7256V127H1743.7V87.5957C1743.7 81.248 1743.19 77.3174 1742.16 75.8037C1741.19 74.29 1738.58 73.5332 1734.33 73.5332V127H1703.49V8.4209ZM1734.33 28.709V55.0762C1737.79 55.0762 1740.21 54.6123 1741.58 53.6846C1742.99 52.708 1743.7 49.6074 1743.7 44.3828V37.8643C1743.7 34.1045 1743.02 31.6387 1741.65 30.4668C1740.33 29.2949 1737.89 28.709 1734.33 28.709ZM1837.6 8.4209L1855.25 127H1823.68L1822.14 105.687H1811.08L1809.25 127H1777.32L1792.99 8.4209H1837.6ZM1821.27 84.666C1819.7 71.2383 1818.14 54.6611 1816.58 34.9346C1813.45 57.5908 1811.5 74.168 1810.72 84.666H1821.27ZM1973.76 8.4209L1960.06 127H1921.53C1918.02 108.787 1914.92 88.084 1912.23 64.8906C1911.01 74.8027 1908.16 95.5059 1903.66 127H1865.36L1851.59 8.4209H1881.54L1884.69 49.8027L1887.92 89.7197C1889.04 69.0654 1891.87 41.9658 1896.41 8.4209H1928.49C1928.93 11.8877 1930.05 24.9248 1931.86 47.5322L1935.23 92.5762C1936.94 63.9141 1939.8 35.8623 1943.8 8.4209H1973.76ZM1979.91 8.4209H2010.67C2020.39 8.4209 2027.74 9.17773 2032.72 10.6914C2037.75 12.2051 2041.8 15.2813 2044.87 19.9199C2047.95 24.5098 2049.49 31.9316 2049.49 42.1855C2049.49 49.1191 2048.39 53.9531 2046.19 56.6875C2044.04 59.4219 2039.77 61.5215 2033.38 62.9863C2040.5 64.5977 2045.34 67.2832 2047.88 71.043C2050.42 74.7539 2051.69 80.4668 2051.69 88.1816V99.168C2051.69 107.176 2050.76 113.108 2048.9 116.966C2047.1 120.823 2044.19 123.46 2040.19 124.876C2036.18 126.292 2027.98 127 2015.58 127H1979.91V8.4209ZM2010.74 28.709V55.0762C2012.06 55.0273 2013.09 55.0029 2013.82 55.0029C2016.85 55.0029 2018.78 54.2705 2019.61 52.8057C2020.44 51.292 2020.85 47.0195 2020.85 39.9883C2020.85 36.2773 2020.51 33.6895 2019.83 32.2246C2019.14 30.7109 2018.24 29.7588 2017.12 29.3682C2016.04 28.9775 2013.92 28.7578 2010.74 28.709ZM2010.74 73.5332V106.712C2015.09 106.565 2017.85 105.882 2019.02 104.661C2020.24 103.44 2020.85 100.438 2020.85 95.6523V84.5928C2020.85 79.5146 2020.31 76.4385 2019.24 75.3643C2018.17 74.29 2015.33 73.6797 2010.74 73.5332ZM2062.82 8.4209H2114.23V32.1514H2093.65V54.6367H2112.92V77.1953H2093.65V103.27H2116.29V127H2062.82V8.4209ZM2125.22 8.4209H2147.05C2161.6 8.4209 2171.44 8.98242 2176.56 10.1055C2181.74 11.2285 2185.94 14.1094 2189.16 18.748C2192.43 23.3379 2194.07 30.6865 2194.07 40.7939C2194.07 50.0225 2192.92 56.2236 2190.63 59.3975C2188.33 62.5713 2183.81 64.4756 2177.08 65.1104C2183.18 66.624 2187.28 68.6504 2189.38 71.1895C2191.48 73.7285 2192.77 76.0723 2193.26 78.2207C2193.8 80.3203 2194.07 86.1553 2194.07 95.7256V127H2165.43V87.5957C2165.43 81.248 2164.92 77.3174 2163.89 75.8037C2162.92 74.29 2160.3 73.5332 2156.06 73.5332V127H2125.22V8.4209ZM2156.06 28.709V55.0762C2159.52 55.0762 2161.94 54.6123 2163.31 53.6846C2164.72 52.708 2165.43 49.6074 2165.43 44.3828V37.8643C2165.43 34.1045 2164.75 31.6387 2163.38 30.4668C2162.06 29.2949 2159.62 28.709 2156.06 28.709ZM2206.08 8.4209H2227.91C2242.46 8.4209 2252.3 8.98242 2257.42 10.1055C2262.6 11.2285 2266.8 14.1094 2270.02 18.748C2273.29 23.3379 2274.93 30.6865 2274.93 40.7939C2274.93 50.0225 2273.78 56.2236 2271.49 59.3975C2269.19 62.5713 2264.67 64.4756 2257.94 65.1104C2264.04 66.624 2268.14 68.6504 2270.24 71.1895C2272.34 73.7285 2273.63 76.0723 2274.12 78.2207C2274.66 80.3203 2274.93 86.1553 2274.93 95.7256V127H2246.29V87.5957C2246.29 81.248 2245.78 77.3174 2244.75 75.8037C2243.78 74.29 2241.16 73.5332 2236.92 73.5332V127H2206.08V8.4209ZM2236.92 28.709V55.0762C2240.38 55.0762 2242.8 54.6123 2244.17 53.6846C2245.58 52.708 2246.29 49.6074 2246.29 44.3828V37.8643C2246.29 34.1045 2245.61 31.6387 2244.24 30.4668C2242.92 29.2949 2240.48 28.709 2236.92 28.709ZM2352.64 8.4209L2330.15 84.0801V127H2301.59V84.0801L2279.91 8.4209H2308.25C2312.7 31.5166 2315.19 47.0684 2315.72 55.0762C2317.43 42.4297 2320.29 26.8779 2324.29 8.4209H2352.64Z"/>
</mask>
<path d="M5.15234 8.4209V3.4209H0.152344V8.4209H5.15234ZM55.543 10.3984L54.135 15.1961L54.1419 15.1981L54.1489 15.2002L55.543 10.3984ZM65.7236 16.1113L62.0108 19.4602L62.0287 19.48L62.0469 19.4997L65.7236 16.1113ZM70.3379 25.1934L65.4538 26.2638L65.4624 26.3032L65.4717 26.3423L70.3379 25.1934ZM60.5967 76.4629L58.5759 71.8895L58.5659 71.8938L58.556 71.8983L60.5967 76.4629ZM35.9873 79.2461V74.2461H30.9873V79.2461H35.9873ZM35.9873 127V132H40.9873V127H35.9873ZM5.15234 127H0.152344V132H5.15234V127ZM35.9873 28.709V23.709H30.9873V28.709H35.9873ZM35.9873 58.8848H30.9873V63.6147L35.71 63.8771L35.9873 58.8848ZM44.1172 56.9072L40.1997 53.8003L40.1926 53.8092L40.1856 53.8181L44.1172 56.9072ZM5.15234 8.4209V13.4209H36.207V8.4209V3.4209H5.15234V8.4209ZM36.207 8.4209V13.4209C44.4427 13.4209 50.3263 14.0783 54.135 15.1961L55.543 10.3984L56.951 5.60078C51.7753 4.08182 44.7682 3.4209 36.207 3.4209V8.4209ZM55.543 10.3984L54.1489 15.2002C58.1461 16.3606 60.5928 17.8881 62.0108 19.4602L65.7236 16.1113L69.4365 12.7625C66.3622 9.35409 62.0219 7.07296 56.937 5.59671L55.543 10.3984ZM65.7236 16.1113L62.0469 19.4997C63.6945 21.2877 64.8472 23.4959 65.4538 26.2638L70.3379 25.1934L75.222 24.1229C74.2661 19.7619 72.3426 15.9155 69.4004 12.7229L65.7236 16.1113ZM70.3379 25.1934L65.4717 26.3423C66.1616 29.2643 66.583 34.2484 66.583 41.5996H71.583H76.583C76.583 34.107 76.1743 28.1537 75.2041 24.0444L70.3379 25.1934ZM71.583 41.5996H66.583V51.9268H71.583H76.583V41.5996H71.583ZM71.583 51.9268H66.583C66.583 59.351 65.7862 63.9724 64.6809 66.425L69.2393 68.4795L73.7977 70.534C75.8173 66.053 76.583 59.6393 76.583 51.9268H71.583ZM69.2393 68.4795L64.6809 66.425C63.7253 68.5452 61.8933 70.4236 58.5759 71.8895L60.5967 76.4629L62.6175 81.0363C67.6985 78.7912 71.6282 75.3474 73.7977 70.534L69.2393 68.4795ZM60.5967 76.4629L58.556 71.8983C55.2803 73.3627 50.6084 74.2461 44.2637 74.2461V79.2461V84.2461C51.3955 84.2461 57.6122 83.274 62.6373 81.0275L60.5967 76.4629ZM44.2637 79.2461V74.2461H35.9873V79.2461V84.2461H44.2637V79.2461ZM35.9873 79.2461H30.9873V127H35.9873H40.9873V79.2461H35.9873ZM35.9873 127V122H5.15234V127V132H35.9873V127ZM5.15234 127H10.1523V8.4209H5.15234H0.152344V127H5.15234ZM35.9873 28.709H30.9873V58.8848H35.9873H40.9873V28.709H35.9873ZM35.9873 58.8848L35.71 63.8771C36.6488 63.9292 37.503 63.958 38.2578 63.958V58.958V53.958C37.7431 53.958 37.0836 53.938 36.2647 53.8925L35.9873 58.8848ZM38.2578 58.958V63.958C41.6661 63.958 45.5608 63.1628 48.0488 59.9963L44.1172 56.9072L40.1856 53.8181C40.3415 53.6197 40.445 53.6385 40.1949 53.726C39.9049 53.8275 39.3041 53.958 38.2578 53.958V58.958ZM44.1172 56.9072L48.0347 60.0142C49.3165 58.398 49.9427 56.4109 50.2898 54.6151C50.6524 52.7389 50.8018 50.5697 50.8018 48.1914H45.8018H40.8018C40.8018 50.2076 40.6704 51.6884 40.4715 52.7174C40.257 53.8269 40.041 54.0004 40.1997 53.8003L44.1172 56.9072ZM45.8018 48.1914H50.8018V38.4502H45.8018H40.8018V48.1914H45.8018ZM45.8018 38.4502H50.8018C50.8018 36.2031 50.6297 34.1027 50.1868 32.2628C49.7576 30.4798 48.9632 28.4745 47.363 26.9359L43.8975 30.54L40.4319 34.1442C40.1012 33.8262 40.259 33.7497 40.4646 34.6034C40.6564 35.4002 40.8018 36.6445 40.8018 38.4502H45.8018ZM43.8975 30.54L47.363 26.9359C45.8178 25.4501 43.8591 24.7038 42.0954 24.2956C40.2769 23.8746 38.2063 23.709 35.9873 23.709V28.709V33.709C37.7722 33.709 39.022 33.8485 39.8402 34.0379C40.7132 34.24 40.7076 34.4092 40.4319 34.1442L43.8975 30.54ZM80.4453 8.4209V3.4209H75.4453V8.4209H80.4453ZM131.861 8.4209H136.861V3.4209H131.861V8.4209ZM131.861 32.1514V37.1514H136.861V32.1514H131.861ZM111.28 32.1514V27.1514H106.28V32.1514H111.28ZM111.28 54.6367H106.28V59.6367H111.28V54.6367ZM130.543 54.6367H135.543V49.6367H130.543V54.6367ZM130.543 77.1953V82.1953H135.543V77.1953H130.543ZM111.28 77.1953V72.1953H106.28V77.1953H111.28ZM111.28 103.27H106.28V108.27H111.28V103.27ZM133.912 103.27H138.912V98.2695H133.912V103.27ZM133.912 127V132H138.912V127H133.912ZM80.4453 127H75.4453V132H80.4453V127ZM80.4453 8.4209V13.4209H131.861V8.4209V3.4209H80.4453V8.4209ZM131.861 8.4209H126.861V32.1514H131.861H136.861V8.4209H131.861ZM131.861 32.1514V27.1514H111.28V32.1514V37.1514H131.861V32.1514ZM111.28 32.1514H106.28V54.6367H111.28H116.28V32.1514H111.28ZM111.28 54.6367V59.6367H130.543V54.6367V49.6367H111.28V54.6367ZM130.543 54.6367H125.543V77.1953H130.543H135.543V54.6367H130.543ZM130.543 77.1953V72.1953H111.28V77.1953V82.1953H130.543V77.1953ZM111.28 77.1953H106.28V103.27H111.28H116.28V77.1953H111.28ZM111.28 103.27V108.27H133.912V103.27V98.2695H111.28V103.27ZM133.912 103.27H128.912V127H133.912H138.912V103.27H133.912ZM133.912 127V122H80.4453V127V132H133.912V127ZM80.4453 127H85.4453V8.4209H80.4453H75.4453V127H80.4453ZM196.095 8.4209L201.04 7.68472L200.406 3.4209H196.095V8.4209ZM213.746 127V132H219.545L218.692 126.264L213.746 127ZM182.179 127L177.192 127.36L177.527 132H182.179V127ZM180.641 105.687L185.628 105.327L185.293 100.687H180.641V105.687ZM169.581 105.687V100.687H164.992L164.599 105.259L169.581 105.687ZM167.75 127V132H172.339L172.732 127.428L167.75 127ZM135.816 127L130.86 126.345L130.112 132H135.816V127ZM151.49 8.4209V3.4209H147.108L146.533 7.7657L151.49 8.4209ZM179.762 84.666V89.666H185.377L184.728 84.0881L179.762 84.666ZM175.074 34.9346L180.059 34.5398L170.121 34.2514L175.074 34.9346ZM169.215 84.666L164.229 84.2949L163.829 89.666H169.215V84.666ZM196.095 8.4209L191.149 9.15707L208.801 127.736L213.746 127L218.692 126.264L201.04 7.68472L196.095 8.4209ZM213.746 127V122H182.179V127V132H213.746V127ZM182.179 127L187.166 126.64L185.628 105.327L180.641 105.687L175.654 106.046L177.192 127.36L182.179 127ZM180.641 105.687V100.687H169.581V105.687V110.687H180.641V105.687ZM169.581 105.687L164.599 105.259L162.768 126.572L167.75 127L172.732 127.428L174.563 106.115L169.581 105.687ZM167.75 127V122H135.816V127V132H167.75V127ZM135.816 127L140.773 127.655L156.447 9.0761L151.49 8.4209L146.533 7.7657L130.86 126.345L135.816 127ZM151.49 8.4209V13.4209H196.095V8.4209V3.4209H151.49V8.4209ZM179.762 84.666L184.728 84.0881C183.175 70.7421 181.618 54.2304 180.059 34.5398L175.074 34.9346L170.09 35.3294C171.655 55.0919 173.223 71.7345 174.795 85.2439L179.762 84.666ZM175.074 34.9346L170.121 34.2514C166.994 56.9204 165.022 73.6296 164.229 84.2949L169.215 84.666L174.201 85.0371C174.97 74.7063 176.904 58.2612 180.027 35.6178L175.074 34.9346ZM169.215 84.666V89.666H179.762V84.666V79.666H169.215V84.666ZM291.017 60.1299V65.1299H296.017V60.1299H291.017ZM260.182 60.1299H255.182V65.1299H260.182V60.1299ZM259.156 28.2695L254.545 30.2032L254.584 30.2944L254.625 30.384L259.156 28.2695ZM259.083 106.785L254.468 104.862L254.445 104.917L254.423 104.973L259.083 106.785ZM260.182 79.5391V74.5391H255.182V79.5391H260.182ZM291.017 79.5391H296.017V74.5391H291.017V79.5391ZM288.38 110.228L283.65 108.606L283.643 108.626L283.636 108.646L288.38 110.228ZM276.881 123.704L274.163 119.507L274.155 119.512L274.147 119.517L276.881 123.704ZM220.997 111.033L216.246 112.59L216.25 112.602L220.997 111.033ZM219.02 31.0527L223.973 31.7359L223.974 31.7283L219.02 31.0527ZM224.22 18.6748L220.202 15.6987L220.19 15.7148L220.178 15.731L224.22 18.6748ZM236.305 9.37305L238.311 13.9528L238.321 13.9484L238.331 13.9439L236.305 9.37305ZM288.233 24.3877L283.517 26.0472L283.519 26.0541L283.522 26.061L288.233 24.3877ZM291.017 60.1299V55.1299H260.182V60.1299V65.1299H291.017V60.1299ZM260.182 60.1299H265.182V39.4756H260.182H255.182V60.1299H260.182ZM260.182 39.4756H265.182C265.182 36.3991 265.095 33.7952 264.904 31.7141C264.732 29.8307 264.432 27.7505 263.687 26.1551L259.156 28.2695L254.625 30.384C254.564 30.2534 254.777 30.7733 254.946 32.6253C255.097 34.2795 255.182 36.5462 255.182 39.4756H260.182ZM259.156 28.2695L263.767 26.3359C263.005 24.5182 261.684 23.0642 259.925 22.1404C258.268 21.2694 256.476 20.999 254.835 20.999V25.999V30.999C255.44 30.999 255.492 31.1071 255.274 30.9929C255.152 30.9285 254.992 30.8173 254.838 30.6494C254.685 30.482 254.593 30.3181 254.545 30.2032L259.156 28.2695ZM254.835 25.999V20.999C253.015 20.999 251.058 21.317 249.277 22.3151C247.396 23.3695 246.062 24.9913 245.325 26.9395L250.001 28.709L254.677 30.4784C254.664 30.5127 254.616 30.6221 254.503 30.7546C254.389 30.8897 254.264 30.9838 254.167 31.0379C254.079 31.0874 254.062 31.077 254.168 31.054C254.277 31.0302 254.491 30.999 254.835 30.999V25.999ZM250.001 28.709L245.325 26.9395C244.728 28.5163 244.43 30.5161 244.251 32.5578C244.063 34.7104 243.976 37.3469 243.976 40.4277H248.976H253.976C253.976 37.5027 254.059 35.1831 254.213 33.4295C254.376 31.565 254.59 30.7083 254.677 30.4784L250.001 28.709ZM248.976 40.4277H243.976V95.5059H248.976H253.976V40.4277H248.976ZM248.976 95.5059H243.976C243.976 98.4682 244.063 101.013 244.252 103.1C244.432 105.078 244.734 107.037 245.341 108.597L250.001 106.785L254.661 104.973C254.584 104.776 254.373 103.976 254.211 102.194C254.059 100.521 253.976 98.3052 253.976 95.5059H248.976ZM250.001 106.785L245.341 108.597C246.069 110.47 247.356 112.058 249.187 113.104C250.93 114.1 252.842 114.422 254.615 114.422V109.422V104.422C253.996 104.422 253.942 104.304 254.148 104.421C254.259 104.485 254.386 104.585 254.498 104.717C254.606 104.846 254.651 104.948 254.661 104.973L250.001 106.785ZM254.615 109.422V114.422C256.373 114.422 258.268 114.088 259.995 113.069C261.795 112.007 263.034 110.421 263.743 108.597L259.083 106.785L254.423 104.973C254.425 104.968 254.461 104.88 254.561 104.759C254.664 104.634 254.789 104.529 254.912 104.457C255.15 104.317 255.152 104.422 254.615 104.422V109.422ZM259.083 106.785L263.698 108.708C264.382 107.068 264.699 104.933 264.887 102.814C265.089 100.546 265.182 97.7293 265.182 94.4072H260.182H255.182C255.182 97.5793 255.091 100.072 254.927 101.93C254.844 102.858 254.748 103.574 254.649 104.105C254.544 104.667 254.462 104.875 254.468 104.862L259.083 106.785ZM260.182 94.4072H265.182V79.5391H260.182H255.182V94.4072H260.182ZM260.182 79.5391V84.5391H291.017V79.5391V74.5391H260.182V79.5391ZM291.017 79.5391H286.017V84.1533H291.017H296.017V79.5391H291.017ZM291.017 84.1533H286.017C286.017 96.3761 285.115 104.333 283.65 108.606L288.38 110.228L293.11 111.849C295.16 105.868 296.017 96.4422 296.017 84.1533H291.017ZM288.38 110.228L283.636 108.646C282.385 112.401 279.468 116.072 274.163 119.507L276.881 123.704L279.599 127.901C286.208 123.621 290.957 118.308 293.123 111.809L288.38 110.228ZM276.881 123.704L274.147 119.517C269.223 122.733 262.928 124.49 254.981 124.49V129.49V134.49C264.418 134.49 272.723 132.39 279.614 127.891L276.881 123.704ZM254.981 129.49V124.49C246.518 124.49 239.981 122.954 235.08 120.217L232.643 124.583L230.205 128.949C237.023 132.755 245.379 134.49 254.981 134.49V129.49ZM232.643 124.583L235.08 120.217C230.188 117.486 227.213 113.908 225.744 109.464L220.997 111.033L216.25 112.602C218.59 119.682 223.378 125.137 230.205 128.949L232.643 124.583ZM220.997 111.033L225.748 109.476C224.097 104.437 223.141 96.3641 223.141 84.8857H218.141H213.141C213.141 96.6496 214.089 106.009 216.246 112.59L220.997 111.033ZM218.141 84.8857H223.141V50.2422H218.141H213.141V84.8857H218.141ZM218.141 50.2422H223.141C223.141 41.7485 223.435 35.6319 223.973 31.7359L219.02 31.0527L214.066 30.3695C213.432 34.9697 213.141 41.6461 213.141 50.2422H218.141ZM219.02 31.0527L223.974 31.7283C224.434 28.3518 225.804 24.9918 228.261 21.6186L224.22 18.6748L220.178 15.731C216.873 20.268 214.777 25.1599 214.065 30.3772L219.02 31.0527ZM224.22 18.6748L228.238 21.6509C230.58 18.4884 233.872 15.8978 238.311 13.9528L236.305 9.37305L234.298 4.79326C228.484 7.3405 223.719 10.9511 220.202 15.6987L224.22 18.6748ZM236.305 9.37305L238.331 13.9439C242.764 11.9786 247.986 10.9307 254.103 10.9307V5.93066V0.930664C246.84 0.930664 240.197 2.17768 234.278 4.80221L236.305 9.37305ZM254.103 5.93066V10.9307C262.566 10.9307 269.107 12.5706 274.031 15.5009L276.588 11.2041L279.145 6.90727C272.253 2.80631 263.804 0.930664 254.103 0.930664V5.93066ZM276.588 11.2041L274.031 15.5009C279.172 18.56 282.134 22.1157 283.517 26.0472L288.233 24.3877L292.95 22.7282C290.622 16.1128 285.82 10.8795 279.145 6.90727L276.588 11.2041ZM288.233 24.3877L283.522 26.061C285.078 30.4438 286.017 37.8845 286.017 48.8506H291.017H296.017C296.017 37.6487 295.1 28.7808 292.945 22.7144L288.233 24.3877ZM291.017 48.8506H286.017V60.1299H291.017H296.017V48.8506H291.017ZM372.975 8.4209H377.975V3.4209H372.975V8.4209ZM372.975 127V132H377.975V127H372.975ZM342.14 127H337.14V132H342.14V127ZM342.14 77.1953H347.14V72.1953H342.14V77.1953ZM332.911 77.1953V72.1953H327.911V77.1953H332.911ZM332.911 127V132H337.911V127H332.911ZM302.076 127H297.076V132H302.076V127ZM302.076 8.4209V3.4209H297.076V8.4209H302.076ZM332.911 8.4209H337.911V3.4209H332.911V8.4209ZM332.911 50.8281H327.911V55.8281H332.911V50.8281ZM342.14 50.8281V55.8281H347.14V50.8281H342.14ZM342.14 8.4209V3.4209H337.14V8.4209H342.14ZM372.975 8.4209H367.975V127H372.975H377.975V8.4209H372.975ZM372.975 127V122H342.14V127V132H372.975V127ZM342.14 127H347.14V77.1953H342.14H337.14V127H342.14ZM342.14 77.1953V72.1953H332.911V77.1953V82.1953H342.14V77.1953ZM332.911 77.1953H327.911V127H332.911H337.911V77.1953H332.911ZM332.911 127V122H302.076V127V132H332.911V127ZM302.076 127H307.076V8.4209H302.076H297.076V127H302.076ZM302.076 8.4209V13.4209H332.911V8.4209V3.4209H302.076V8.4209ZM332.911 8.4209H327.911V50.8281H332.911H337.911V8.4209H332.911ZM332.911 50.8281V55.8281H342.14V50.8281V45.8281H332.911V50.8281ZM342.14 50.8281H347.14V8.4209H342.14H337.14V50.8281H342.14ZM342.14 8.4209V13.4209H372.975V8.4209V3.4209H342.14V8.4209ZM507.081 8.4209H512.081V3.4209H507.081V8.4209ZM507.081 127V132H512.081V127H507.081ZM480.128 127H475.128V132H480.128V127ZM480.128 46.9463H485.128L475.173 46.2798L480.128 46.9463ZM469.361 127V132H473.734L474.317 127.666L469.361 127ZM450.245 127L445.297 127.718L445.918 132H450.245V127ZM438.893 48.7773L443.841 48.0592L433.893 48.7773H438.893ZM438.893 127V132H443.893V127H438.893ZM411.939 127H406.939V132H411.939V127ZM411.939 8.4209V3.4209H406.939V8.4209H411.939ZM451.856 8.4209L456.79 7.60987L456.102 3.4209H451.856V8.4209ZM455.592 33.6162L450.638 34.2918L450.639 34.3025L450.641 34.3132L455.592 33.6162ZM459.84 63.792L454.889 64.489L464.8 64.4219L459.84 63.792ZM466.871 8.4209V3.4209H462.466L461.911 7.79104L466.871 8.4209ZM507.081 8.4209H502.081V127H507.081H512.081V8.4209H507.081ZM507.081 127V122H480.128V127V132H507.081V127ZM480.128 127H485.128V46.9463H480.128H475.128V127H480.128ZM480.128 46.9463L475.173 46.2798L464.406 126.334L469.361 127L474.317 127.666L485.083 47.6127L480.128 46.9463ZM469.361 127V122H450.245V127V132H469.361V127ZM450.245 127L455.193 126.282L443.841 48.0592L438.893 48.7773L433.944 49.4955L445.297 127.718L450.245 127ZM438.893 48.7773H433.893V127H438.893H443.893V48.7773H438.893ZM438.893 127V122H411.939V127V132H438.893V127ZM411.939 127H416.939V8.4209H411.939H406.939V127H411.939ZM411.939 8.4209V13.4209H451.856V8.4209V3.4209H411.939V8.4209ZM451.856 8.4209L446.923 9.23193C448.085 16.3033 449.323 24.6545 450.638 34.2918L455.592 33.6162L460.546 32.9406C459.223 23.2419 457.972 14.7963 456.79 7.60987L451.856 8.4209ZM455.592 33.6162L450.641 34.3132L454.889 64.489L459.84 63.792L464.791 63.095L460.543 32.9192L455.592 33.6162ZM459.84 63.792L464.8 64.4219L471.831 9.05076L466.871 8.4209L461.911 7.79104L454.88 63.1621L459.84 63.792ZM466.871 8.4209V13.4209H507.081V8.4209V3.4209H466.871V8.4209ZM572.706 8.4209L577.652 7.68472L577.017 3.4209H572.706V8.4209ZM590.357 127V132H596.157L595.303 126.264L590.357 127ZM558.79 127L553.803 127.36L554.138 132H558.79V127ZM557.252 105.687L562.239 105.327L561.904 100.687H557.252V105.687ZM546.192 105.687V100.687H541.604L541.211 105.259L546.192 105.687ZM544.361 127V132H548.95L549.343 127.428L544.361 127ZM512.428 127L507.471 126.345L506.723 132H512.428V127ZM528.102 8.4209V3.4209H523.719L523.145 7.7657L528.102 8.4209ZM556.373 84.666V89.666H561.989L561.34 84.0881L556.373 84.666ZM551.686 34.9346L556.67 34.5398L546.732 34.2514L551.686 34.9346ZM545.826 84.666L540.84 84.2949L540.44 89.666H545.826V84.666ZM572.706 8.4209L567.761 9.15707L585.412 127.736L590.357 127L595.303 126.264L577.652 7.68472L572.706 8.4209ZM590.357 127V122H558.79V127V132H590.357V127ZM558.79 127L563.777 126.64L562.239 105.327L557.252 105.687L552.265 106.046L553.803 127.36L558.79 127ZM557.252 105.687V100.687H546.192V105.687V110.687H557.252V105.687ZM546.192 105.687L541.211 105.259L539.38 126.572L544.361 127L549.343 127.428L551.174 106.115L546.192 105.687ZM544.361 127V122H512.428V127V132H544.361V127ZM512.428 127L517.385 127.655L533.058 9.0761L528.102 8.4209L523.145 7.7657L507.471 126.345L512.428 127ZM528.102 8.4209V13.4209H572.706V8.4209V3.4209H528.102V8.4209ZM556.373 84.666L561.34 84.0881C559.787 70.7421 558.23 54.2304 556.67 34.5398L551.686 34.9346L546.701 35.3294C548.267 55.0919 549.835 71.7345 551.407 85.2439L556.373 84.666ZM551.686 34.9346L546.732 34.2514C543.606 56.9204 541.634 73.6296 540.84 84.2949L545.826 84.666L550.812 85.0371C551.581 74.7063 553.515 58.2612 556.639 35.6178L551.686 34.9346ZM545.826 84.666V89.666H556.373V84.666V79.666H545.826V84.666ZM664.479 8.4209H669.479V3.4209H664.479V8.4209ZM664.479 127V132H669.479V127H664.479ZM637.452 127L632.66 128.426L633.723 132H637.452V127ZM621.412 73.0938L626.204 71.6678L616.412 73.0938H621.412ZM621.412 127V132H626.412V127H621.412ZM595.631 127H590.631V132H595.631V127ZM595.631 8.4209V3.4209H590.631V8.4209H595.631ZM621.412 8.4209L626.169 6.88093L625.049 3.4209H621.412V8.4209ZM638.697 61.8145L633.94 63.3544L643.697 61.8145H638.697ZM638.697 8.4209V3.4209H633.697V8.4209H638.697ZM664.479 8.4209H659.479V127H664.479H669.479V8.4209H664.479ZM664.479 127V122H637.452V127V132H664.479V127ZM637.452 127L642.244 125.574L626.204 71.6678L621.412 73.0938L616.62 74.5197L632.66 128.426L637.452 127ZM621.412 73.0938H616.412V127H621.412H626.412V73.0938H621.412ZM621.412 127V122H595.631V127V132H621.412V127ZM595.631 127H600.631V8.4209H595.631H590.631V127H595.631ZM595.631 8.4209V13.4209H621.412V8.4209V3.4209H595.631V8.4209ZM621.412 8.4209L616.655 9.96087L633.94 63.3544L638.697 61.8145L643.454 60.2745L626.169 6.88093L621.412 8.4209ZM638.697 61.8145H643.697V8.4209H638.697H633.697V61.8145H638.697ZM638.697 8.4209V13.4209H664.479V8.4209V3.4209H638.697V8.4209ZM747.682 52.0732V57.0732H752.682V52.0732H747.682ZM716.847 52.0732H711.847V57.0732H716.847V52.0732ZM707.911 106.932L703.269 108.789L703.278 108.812L703.288 108.835L707.911 106.932ZM716.554 106.565L711.97 104.568L711.949 104.617L711.928 104.668L716.554 106.565ZM717.799 81.3701H722.799V76.3701H717.799V81.3701ZM711.573 81.3701H706.573V86.3701H711.573V81.3701ZM711.573 63.3525V58.3525H706.573V63.3525H711.573ZM747.682 63.3525H752.682V58.3525H747.682V63.3525ZM747.682 127V132H752.682V127H747.682ZM728.272 127L723.533 128.593L724.678 132H728.272V127ZM725.416 118.504L730.155 116.911L726.611 106.368L721.078 116.017L725.416 118.504ZM717.433 126.78L719.906 131.126L719.917 131.12L719.927 131.113L717.433 126.78ZM691.578 125.755L689.118 130.108L689.146 130.124L689.174 130.139L691.578 125.755ZM676.93 104.734L671.98 105.441L671.981 105.45L676.93 104.734ZM688.355 12.376L691.323 16.4004L691.328 16.3962L688.355 12.376ZM744.972 24.7539L740.256 26.4157L740.258 26.4228L740.261 26.4298L744.972 24.7539ZM747.682 52.0732V47.0732H716.847V52.0732V57.0732H747.682V52.0732ZM716.847 52.0732H721.847V41.3066H716.847H711.847V52.0732H716.847ZM716.847 41.3066H721.847C721.847 37.8569 721.773 34.9713 721.615 32.6863C721.468 30.5548 721.224 28.4775 720.698 26.9409L715.968 28.5625L711.238 30.1841C711.233 30.1689 711.254 30.2285 711.289 30.3909C711.324 30.5477 711.364 30.7642 711.406 31.0501C711.491 31.6265 711.571 32.3932 711.639 33.3743C711.774 35.3373 711.847 37.9692 711.847 41.3066H716.847ZM715.968 28.5625L720.698 26.9409C720.071 25.1125 718.893 23.4794 717.101 22.379C715.391 21.3288 713.506 20.999 711.793 20.999V25.999V30.999C712.277 30.999 712.187 31.0964 711.868 30.9007C711.704 30.7997 711.545 30.6593 711.418 30.495C711.296 30.3362 711.248 30.2139 711.238 30.1841L715.968 28.5625ZM711.793 25.999V20.999C710.215 20.999 708.512 21.3023 706.931 22.1971C705.299 23.1207 704.122 24.4934 703.38 26.0819L707.911 28.1963L712.442 30.3107C712.423 30.351 712.368 30.4542 712.255 30.5798C712.139 30.7085 712 30.8187 711.857 30.8996C711.571 31.0619 711.467 30.999 711.793 30.999V25.999ZM707.911 28.1963L703.38 26.0819C702.634 27.6805 702.335 29.7709 702.163 31.6621C701.972 33.7543 701.886 36.3754 701.886 39.4756H706.886H711.886C711.886 36.521 711.97 34.235 712.122 32.5674C712.291 30.6988 712.504 30.1769 712.442 30.3107L707.911 28.1963ZM706.886 39.4756H701.886V96.3848H706.886H711.886V39.4756H706.886ZM706.886 96.3848H701.886C701.886 99.1354 701.973 101.52 702.166 103.497C702.348 105.378 702.656 107.258 703.269 108.789L707.911 106.932L712.554 105.075C712.482 104.896 712.278 104.164 712.119 102.529C711.969 100.991 711.886 98.9564 711.886 96.3848H706.886ZM707.911 106.932L703.288 108.835C703.984 110.525 705.149 112.038 706.854 113.073C708.512 114.08 710.326 114.422 712.013 114.422V109.422V104.422C711.648 104.422 711.754 104.349 712.044 104.525C712.187 104.612 712.314 104.724 712.412 104.843C712.506 104.957 712.537 105.034 712.535 105.028L707.911 106.932ZM712.013 109.422V114.422C713.838 114.422 715.759 114.032 717.495 112.94C719.262 111.828 720.455 110.228 721.18 108.463L716.554 106.565L711.928 104.668C711.893 104.754 711.884 104.744 711.933 104.684C711.956 104.654 711.989 104.618 712.032 104.579C712.076 104.541 712.122 104.506 712.17 104.475C712.271 104.412 712.338 104.395 712.332 104.396C712.321 104.399 712.224 104.422 712.013 104.422V109.422ZM716.554 106.565L721.137 108.563C721.852 106.925 722.23 104.933 722.457 102.91C722.692 100.805 722.799 98.2984 722.799 95.4326H717.799H712.799C712.799 98.0844 712.698 100.192 712.519 101.798C712.33 103.486 712.086 104.302 711.97 104.568L716.554 106.565ZM717.799 95.4326H722.799V81.3701H717.799H712.799V95.4326H717.799ZM717.799 81.3701V76.3701H711.573V81.3701V86.3701H717.799V81.3701ZM711.573 81.3701H716.573V63.3525H711.573H706.573V81.3701H711.573ZM711.573 63.3525V68.3525H747.682V63.3525V58.3525H711.573V63.3525ZM747.682 63.3525H742.682V127H747.682H752.682V63.3525H747.682ZM747.682 127V122H728.272V127V132H747.682V127ZM728.272 127L733.012 125.407L730.155 116.911L725.416 118.504L720.677 120.097L723.533 128.593L728.272 127ZM725.416 118.504L721.078 116.017C719.358 119.017 717.295 121.09 714.938 122.447L717.433 126.78L719.927 131.113C724.016 128.759 727.275 125.315 729.754 120.991L725.416 118.504ZM717.433 126.78L714.959 122.435C712.671 123.738 709.797 124.49 706.153 124.49V129.49V134.49C711.201 134.49 715.847 133.436 719.906 131.126L717.433 126.78ZM706.153 129.49V124.49C701.819 124.49 697.787 123.457 693.982 121.371L691.578 125.755L689.174 130.139C694.451 133.033 700.137 134.49 706.153 134.49V129.49ZM691.578 125.755L694.038 121.402C690.139 119.198 687.383 116.609 685.552 113.71L681.324 116.38L677.097 119.05C679.953 123.572 684.033 127.234 689.118 130.108L691.578 125.755ZM681.324 116.38L685.552 113.71C683.555 110.549 682.357 107.328 681.878 104.019L676.93 104.734L671.981 105.45C672.675 110.246 674.405 114.789 677.097 119.05L681.324 116.38ZM676.93 104.734L681.879 104.027C681.345 100.288 681.051 94.4484 681.051 86.3506H676.051H671.051C671.051 94.5613 671.342 100.977 671.98 105.441L676.93 104.734ZM676.051 86.3506H681.051V51.1211H676.051H671.051V86.3506H676.051ZM676.051 51.1211H681.051C681.051 39.8432 681.67 32.1156 682.746 27.5966L677.882 26.4385L673.018 25.2804C671.652 31.0153 671.051 39.7427 671.051 51.1211H676.051ZM677.882 26.4385L682.746 27.5966C683.608 23.9735 686.171 20.1988 691.323 16.4004L688.355 12.376L685.388 8.35155C679.017 13.0492 674.597 18.6495 673.018 25.2804L677.882 26.4385ZM688.355 12.376L691.328 16.3962C696.07 12.8895 702.44 10.9307 710.841 10.9307V5.93066V0.930664C700.882 0.930664 692.262 3.26866 685.383 8.3558L688.355 12.376ZM710.841 5.93066V10.9307C719.204 10.9307 725.717 12.6475 730.682 15.741L733.326 11.4971L735.97 7.25317C729.022 2.92479 720.544 0.930664 710.841 0.930664V5.93066ZM733.326 11.4971L730.682 15.741C735.96 19.0284 738.925 22.6377 740.256 26.4157L744.972 24.7539L749.687 23.0922C747.405 16.6162 742.607 11.3876 735.97 7.25317L733.326 11.4971ZM744.972 24.7539L740.261 26.4298C741.78 30.7003 742.682 37.4187 742.682 46.9463H747.682H752.682C752.682 37.0402 751.776 28.9638 749.682 23.078L744.972 24.7539ZM747.682 46.9463H742.682V52.0732H747.682H752.682V46.9463H747.682ZM829.273 103.196L824.308 102.612L824.305 102.633L824.303 102.655L829.273 103.196ZM824 116.746L819.954 113.808L819.943 113.824L819.931 113.84L824 116.746ZM777.345 126.414L775.418 131.028L775.445 131.039L775.472 131.05L777.345 126.414ZM759.62 32.2979L754.654 31.7136L754.652 31.7351L754.65 31.7565L759.62 32.2979ZM764.894 18.6748L760.848 15.7368L760.836 15.7527L760.825 15.7686L764.894 18.6748ZM811.549 9.08008L809.623 13.6941L809.649 13.7054L809.677 13.7163L811.549 9.08008ZM798.365 28.3428L793.684 30.0984L793.717 30.1881L793.754 30.2764L798.365 28.3428ZM790.895 27.9033L786.784 25.0573L786.772 25.0745L786.76 25.0918L790.895 27.9033ZM790.455 107.005L785.712 108.586L785.733 108.65L785.756 108.714L790.455 107.005ZM830.152 77.8545H825.152C825.152 89.7653 824.856 97.9516 824.308 102.612L829.273 103.196L834.239 103.78C834.863 98.48 835.152 89.7718 835.152 77.8545H830.152ZM829.273 103.196L824.303 102.655C823.862 106.701 822.433 110.395 819.954 113.808L824 116.746L828.046 119.684C831.524 114.894 833.611 109.555 834.244 103.738L829.273 103.196ZM824 116.746L819.931 113.84C817.573 117.142 814.337 119.744 810.06 121.613L812.062 126.194L814.063 130.776C819.844 128.25 824.568 124.553 828.069 119.652L824 116.746ZM812.062 126.194L810.06 121.613C805.784 123.481 800.631 124.49 794.483 124.49V129.49V134.49C801.715 134.49 808.28 133.303 814.063 130.776L812.062 126.194ZM794.483 129.49V124.49C788.677 124.49 783.613 123.553 779.217 121.778L777.345 126.414L775.472 131.05C781.232 133.376 787.595 134.49 794.483 134.49V129.49ZM777.345 126.414L779.271 121.8C775.026 120.028 771.713 117.448 769.203 114.062L765.187 117.039L761.17 120.016C764.812 124.931 769.605 128.601 775.418 131.028L777.345 126.414ZM765.187 117.039L769.203 114.062C766.618 110.573 765.135 106.87 764.658 102.894L759.693 103.489L754.729 104.085C755.424 109.875 757.603 115.205 761.17 120.016L765.187 117.039ZM759.693 103.489L764.658 102.894C764.111 98.3412 763.814 90.0685 763.814 77.8545H758.814H753.814C753.814 90.0546 754.103 98.8717 754.729 104.085L759.693 103.489ZM758.814 77.8545H763.814V57.5664H758.814H753.814V77.8545H758.814ZM758.814 57.5664H763.814C763.814 45.6531 764.086 37.4732 764.591 32.8392L759.62 32.2979L754.65 31.7565C754.08 36.9858 753.814 45.6516 753.814 57.5664H758.814ZM759.62 32.2979L764.586 32.8821C765.073 28.7433 766.52 25.0002 768.962 21.581L764.894 18.6748L760.825 15.7686C757.408 20.5525 755.339 25.8915 754.654 31.7136L759.62 32.2979ZM764.894 18.6748L768.939 21.6128C771.352 18.2905 774.624 15.6798 778.907 13.8084L776.905 9.22656L774.904 4.64476C769.128 7.16784 764.392 10.856 760.848 15.7368L764.894 18.6748ZM776.905 9.22656L778.907 13.8084C783.183 11.9403 788.336 10.9307 794.483 10.9307V5.93066V0.930664C787.252 0.930664 780.686 2.11827 774.904 4.64476L776.905 9.22656ZM794.483 5.93066V10.9307C800.277 10.9307 805.296 11.8877 809.623 13.6941L811.549 9.08008L813.475 4.46602C807.744 2.07324 801.385 0.930664 794.483 0.930664V5.93066ZM811.549 9.08008L809.677 13.7163C813.954 15.4438 817.269 17.9937 819.763 21.3591L823.78 18.3818L827.797 15.4046C824.139 10.4692 819.3 6.81792 813.421 4.44387L811.549 9.08008ZM823.78 18.3818L819.763 21.3591C822.349 24.8481 823.832 28.5514 824.309 32.5274L829.273 31.9316L834.238 31.3359C833.543 25.5463 831.364 20.2164 827.797 15.4046L823.78 18.3818ZM829.273 31.9316L824.309 32.5274C824.855 37.0797 825.152 45.3524 825.152 57.5664H830.152H835.152C835.152 45.3663 834.863 36.5492 834.238 31.3359L829.273 31.9316ZM830.152 57.5664H825.152V77.8545H830.152H835.152V57.5664H830.152ZM799.317 38.8896H804.317C804.317 36.0541 804.237 33.631 804.059 31.6652C803.895 29.8449 803.612 27.9258 802.976 26.4091L798.365 28.3428L793.754 30.2764C793.753 30.2734 793.947 30.8689 794.1 32.5643C794.24 34.1141 794.317 36.2076 794.317 38.8896H799.317ZM798.365 28.3428L803.047 26.5872C802.424 24.9253 801.324 23.4002 799.649 22.3496C798.027 21.3317 796.249 20.999 794.63 20.999V25.999V30.999C794.915 30.999 794.712 31.057 794.334 30.8203C794.148 30.7036 793.986 30.5544 793.862 30.3956C793.742 30.2424 793.694 30.1264 793.684 30.0984L798.365 28.3428ZM794.63 25.999V20.999C791.463 20.999 788.644 22.3704 786.784 25.0573L790.895 27.9033L795.005 30.7494C795.021 30.7272 795.009 30.7496 794.96 30.793C794.91 30.8381 794.841 30.8876 794.758 30.9296C794.677 30.9713 794.61 30.9911 794.575 30.999C794.542 31.0063 794.556 30.999 794.63 30.999V25.999ZM790.895 27.9033L786.76 25.0918C786.074 26.0999 785.717 27.2076 785.505 28.0411C785.274 28.9481 785.111 29.9537 784.992 31.0024C784.755 33.1015 784.649 35.7544 784.649 38.8896H789.649H794.649C794.649 35.9214 794.752 33.6915 794.929 32.1285C795.018 31.3461 795.115 30.8258 795.195 30.5121C795.293 30.1249 795.3 30.3171 795.029 30.7149L790.895 27.9033ZM789.649 38.8896H784.649V94.2607H789.649H794.649V38.8896H789.649ZM789.649 94.2607H784.649C784.649 97.7528 784.717 100.653 784.861 102.926C784.994 105.026 785.213 107.092 785.712 108.586L790.455 107.005L795.198 105.424C795.208 105.452 795.141 105.236 795.056 104.621C794.977 104.05 794.903 103.283 794.841 102.295C794.716 100.32 794.649 97.6534 794.649 94.2607H789.649ZM790.455 107.005L785.756 108.714C786.391 110.46 787.543 112.025 789.276 113.084C790.938 114.099 792.758 114.422 794.41 114.422V109.422V104.422C794.012 104.422 794.147 104.342 794.491 104.551C794.665 104.658 794.829 104.802 794.959 104.968C795.086 105.129 795.139 105.256 795.154 105.296L790.455 107.005ZM794.41 109.422V114.422C796.186 114.422 798.117 114.026 799.834 112.84C801.586 111.629 802.646 109.92 803.206 108.144L798.438 106.639L793.671 105.133C793.653 105.189 793.664 105.129 793.747 105.008C793.836 104.88 793.972 104.735 794.15 104.612C794.524 104.354 794.734 104.422 794.41 104.422V109.422ZM798.438 106.639L803.206 108.144C803.696 106.594 803.939 104.497 804.087 102.264C804.243 99.9002 804.317 96.9284 804.317 93.3818H799.317H794.317C794.317 96.8177 794.245 99.5465 794.109 101.602C793.964 103.788 793.767 104.828 793.671 105.133L798.438 106.639ZM799.317 93.3818H804.317V38.8896H799.317H794.317V93.3818H799.317ZM941.7 8.4209L946.449 9.98644L948.613 3.4209H941.7V8.4209ZM924.049 61.9609L919.3 60.3954L918.81 61.8837L919.256 63.3858L924.049 61.9609ZM943.385 127V132H950.088L948.177 125.575L943.385 127ZM911.524 127L906.668 128.19L907.601 132H911.524V127ZM899.073 76.1699L903.93 74.9803L894.073 76.1699H899.073ZM899.073 127V132H904.073V127H899.073ZM868.238 127H863.238V132H868.238V127ZM868.238 8.4209V3.4209H863.238V8.4209H868.238ZM899.073 8.4209H904.073V3.4209H899.073V8.4209ZM899.073 54.4902H894.073L903.866 55.9151L899.073 54.4902ZM912.77 8.4209V3.4209H909.04L907.977 6.99605L912.77 8.4209ZM941.7 8.4209L936.952 6.85536L919.3 60.3954L924.049 61.9609L928.797 63.5265L946.449 9.98644L941.7 8.4209ZM924.049 61.9609L919.256 63.3858L938.592 128.425L943.385 127L948.177 125.575L928.842 60.5361L924.049 61.9609ZM943.385 127V122H911.524V127V132H943.385V127ZM911.524 127L916.381 125.81L903.93 74.9803L899.073 76.1699L894.217 77.3595L906.668 128.19L911.524 127ZM899.073 76.1699H894.073V127H899.073H904.073V76.1699H899.073ZM899.073 127V122H868.238V127V132H899.073V127ZM868.238 127H873.238V8.4209H868.238H863.238V127H868.238ZM868.238 8.4209V13.4209H899.073V8.4209V3.4209H868.238V8.4209ZM899.073 8.4209H894.073V54.4902H899.073H904.073V8.4209H899.073ZM899.073 54.4902L903.866 55.9151L917.562 9.84575L912.77 8.4209L907.977 6.99605L894.281 53.0654L899.073 54.4902ZM912.77 8.4209V13.4209H941.7V8.4209V3.4209H912.77V8.4209ZM979.64 8.4209H984.64V3.4209H979.64V8.4209ZM979.64 127V132H984.64V127H979.64ZM948.805 127H943.805V132H948.805V127ZM948.805 8.4209V3.4209H943.805V8.4209H948.805ZM979.64 8.4209H974.64V127H979.64H984.64V8.4209H979.64ZM979.64 127V122H948.805V127V132H979.64V127ZM948.805 127H953.805V8.4209H948.805H943.805V127H948.805ZM948.805 8.4209V13.4209H979.64V8.4209V3.4209H948.805V8.4209ZM1108.03 8.4209L1113 8.9946L1113.64 3.4209H1108.03V8.4209ZM1094.34 127V132H1098.79L1099.3 127.574L1094.34 127ZM1055.81 127L1050.9 127.948L1051.68 132H1055.81V127ZM1046.51 64.8906L1051.48 64.3155L1041.55 64.2795L1046.51 64.8906ZM1037.94 127V132H1042.28L1042.89 127.706L1037.94 127ZM999.635 127L994.668 127.577L995.182 132H999.635V127ZM985.865 8.4209V3.4209H980.251L980.899 8.99763L985.865 8.4209ZM1015.82 8.4209L1020.81 8.04146L1020.46 3.4209H1015.82V8.4209ZM1018.97 49.8027L1013.99 50.1822L1013.99 50.1936L1013.99 50.2051L1018.97 49.8027ZM1022.19 89.7197L1017.21 90.1221L1027.19 89.9912L1022.19 89.7197ZM1030.69 8.4209V3.4209H1026.32L1025.73 7.75016L1030.69 8.4209ZM1062.77 8.4209L1067.73 7.79213L1067.18 3.4209H1062.77V8.4209ZM1066.14 47.5322L1071.12 47.1593L1071.12 47.1466L1071.12 47.1339L1066.14 47.5322ZM1069.51 92.5762L1064.52 92.9491L1074.5 92.8738L1069.51 92.5762ZM1078.08 8.4209V3.4209H1073.75L1073.13 7.699L1078.08 8.4209ZM1108.03 8.4209L1103.07 7.8472L1089.37 126.426L1094.34 127L1099.3 127.574L1113 8.9946L1108.03 8.4209ZM1094.34 127V122H1055.81V127V132H1094.34V127ZM1055.81 127L1060.72 126.052C1057.23 107.99 1054.15 87.4143 1051.48 64.3155L1046.51 64.8906L1041.54 65.4657C1044.24 88.7537 1047.36 109.585 1050.9 127.948L1055.81 127ZM1046.51 64.8906L1041.55 64.2795C1040.33 74.1355 1037.48 94.7898 1032.99 126.294L1037.94 127L1042.89 127.706C1047.38 96.2219 1050.24 75.47 1051.47 65.5018L1046.51 64.8906ZM1037.94 127V122H999.635V127V132H1037.94V127ZM999.635 127L1004.6 126.423L990.832 7.84417L985.865 8.4209L980.899 8.99763L994.668 127.577L999.635 127ZM985.865 8.4209V13.4209H1015.82V8.4209V3.4209H985.865V8.4209ZM1015.82 8.4209L1010.84 8.80033L1013.99 50.1822L1018.97 49.8027L1023.96 49.4233L1020.81 8.04146L1015.82 8.4209ZM1018.97 49.8027L1013.99 50.2051L1017.21 90.1221L1022.19 89.7197L1027.18 89.3174L1023.95 49.4004L1018.97 49.8027ZM1022.19 89.7197L1027.19 89.9912C1028.3 69.5272 1031.11 42.5758 1035.64 9.09164L1030.69 8.4209L1025.73 7.75016C1021.19 41.3558 1018.33 68.6037 1017.2 89.4483L1022.19 89.7197ZM1030.69 8.4209V13.4209H1062.77V8.4209V3.4209H1030.69V8.4209ZM1062.77 8.4209L1057.81 9.04967C1058.23 12.3686 1059.34 25.2458 1061.15 47.9305L1066.14 47.5322L1071.12 47.1339C1069.32 24.6038 1068.19 11.4067 1067.73 7.79213L1062.77 8.4209ZM1066.14 47.5322L1061.15 47.9052L1064.52 92.9491L1069.51 92.5762L1074.49 92.2032L1071.12 47.1593L1066.14 47.5322ZM1069.51 92.5762L1074.5 92.8738C1076.2 64.3487 1079.04 36.4386 1083.02 9.14279L1078.08 8.4209L1073.13 7.699C1069.1 35.286 1066.23 63.4795 1064.52 92.2786L1069.51 92.5762ZM1078.08 8.4209V13.4209H1108.03V8.4209V3.4209H1078.08V8.4209ZM1145.02 8.4209H1150.02V3.4209H1145.02V8.4209ZM1145.02 127V132H1150.02V127H1145.02ZM1114.19 127H1109.19V132H1114.19V127ZM1114.19 8.4209V3.4209H1109.19V8.4209H1114.19ZM1145.02 8.4209H1140.02V127H1145.02H1150.02V8.4209H1145.02ZM1145.02 127V122H1114.19V127V132H1145.02V127ZM1114.19 127H1119.19V8.4209H1114.19H1109.19V127H1114.19ZM1114.19 8.4209V13.4209H1145.02V8.4209V3.4209H1114.19V8.4209ZM1237.16 8.4209L1242.1 7.68472L1241.47 3.4209H1237.16V8.4209ZM1254.81 127V132H1260.61L1259.76 126.264L1254.81 127ZM1223.24 127L1218.26 127.36L1218.59 132H1223.24V127ZM1221.71 105.687L1226.69 105.327L1226.36 100.687H1221.71V105.687ZM1210.65 105.687V100.687H1206.06L1205.66 105.259L1210.65 105.687ZM1208.81 127V132H1213.4L1213.8 127.428L1208.81 127ZM1176.88 127L1171.92 126.345L1171.18 132H1176.88V127ZM1192.55 8.4209V3.4209H1188.17L1187.6 7.7657L1192.55 8.4209ZM1220.83 84.666V89.666H1226.44L1225.79 84.0881L1220.83 84.666ZM1216.14 34.9346L1221.12 34.5398L1211.19 34.2514L1216.14 34.9346ZM1210.28 84.666L1205.29 84.2949L1204.89 89.666H1210.28V84.666ZM1237.16 8.4209L1232.21 9.15707L1249.87 127.736L1254.81 127L1259.76 126.264L1242.1 7.68472L1237.16 8.4209ZM1254.81 127V122H1223.24V127V132H1254.81V127ZM1223.24 127L1228.23 126.64L1226.69 105.327L1221.71 105.687L1216.72 106.046L1218.26 127.36L1223.24 127ZM1221.71 105.687V100.687H1210.65V105.687V110.687H1221.71V105.687ZM1210.65 105.687L1205.66 105.259L1203.83 126.572L1208.81 127L1213.8 127.428L1215.63 106.115L1210.65 105.687ZM1208.81 127V122H1176.88V127V132H1208.81V127ZM1176.88 127L1181.84 127.655L1197.51 9.0761L1192.55 8.4209L1187.6 7.7657L1171.92 126.345L1176.88 127ZM1192.55 8.4209V13.4209H1237.16V8.4209V3.4209H1192.55V8.4209ZM1220.83 84.666L1225.79 84.0881C1224.24 70.7421 1222.68 54.2304 1221.12 34.5398L1216.14 34.9346L1211.15 35.3294C1212.72 55.0919 1214.29 71.7345 1215.86 85.2439L1220.83 84.666ZM1216.14 34.9346L1211.19 34.2514C1208.06 56.9204 1206.09 73.6296 1205.29 84.2949L1210.28 84.666L1215.27 85.0371C1216.03 74.7063 1217.97 58.2612 1221.09 35.6178L1216.14 34.9346ZM1210.28 84.666V89.666H1220.83V84.666V79.666H1210.28V84.666ZM1260.08 8.4209V3.4209H1255.08V8.4209H1260.08ZM1310.47 10.3984L1309.07 15.1961L1309.07 15.1981L1309.08 15.2002L1310.47 10.3984ZM1320.66 16.1113L1316.94 19.4602L1316.96 19.48L1316.98 19.4997L1320.66 16.1113ZM1325.27 25.1934L1320.39 26.2638L1320.39 26.3032L1320.4 26.3423L1325.27 25.1934ZM1315.53 76.4629L1313.51 71.8895L1313.5 71.8938L1313.49 71.8983L1315.53 76.4629ZM1290.92 79.2461V74.2461H1285.92V79.2461H1290.92ZM1290.92 127V132H1295.92V127H1290.92ZM1260.08 127H1255.08V132H1260.08V127ZM1290.92 28.709V23.709H1285.92V28.709H1290.92ZM1290.92 58.8848H1285.92V63.6147L1290.64 63.8771L1290.92 58.8848ZM1299.05 56.9072L1295.13 53.8003L1295.12 53.8092L1295.12 53.8181L1299.05 56.9072ZM1260.08 8.4209V13.4209H1291.14V8.4209V3.4209H1260.08V8.4209ZM1291.14 8.4209V13.4209C1299.37 13.4209 1305.26 14.0783 1309.07 15.1961L1310.47 10.3984L1311.88 5.60078C1306.71 4.08182 1299.7 3.4209 1291.14 3.4209V8.4209ZM1310.47 10.3984L1309.08 15.2002C1313.08 16.3606 1315.52 17.8881 1316.94 19.4602L1320.66 16.1113L1324.37 12.7625C1321.29 9.35409 1316.95 7.07296 1311.87 5.59671L1310.47 10.3984ZM1320.66 16.1113L1316.98 19.4997C1318.63 21.2877 1319.78 23.4959 1320.39 26.2638L1325.27 25.1934L1330.15 24.1229C1329.2 19.7619 1327.27 15.9155 1324.33 12.7229L1320.66 16.1113ZM1325.27 25.1934L1320.4 26.3423C1321.09 29.2643 1321.51 34.2484 1321.51 41.5996H1326.51H1331.51C1331.51 34.107 1331.11 28.1537 1330.14 24.0444L1325.27 25.1934ZM1326.51 41.5996H1321.51V51.9268H1326.51H1331.51V41.5996H1326.51ZM1326.51 51.9268H1321.51C1321.51 59.351 1320.72 63.9724 1319.61 66.425L1324.17 68.4795L1328.73 70.534C1330.75 66.053 1331.51 59.6393 1331.51 51.9268H1326.51ZM1324.17 68.4795L1319.61 66.425C1318.66 68.5452 1316.82 70.4236 1313.51 71.8895L1315.53 76.4629L1317.55 81.0363C1322.63 78.7912 1326.56 75.3474 1328.73 70.534L1324.17 68.4795ZM1315.53 76.4629L1313.49 71.8983C1310.21 73.3627 1305.54 74.2461 1299.2 74.2461V79.2461V84.2461C1306.33 84.2461 1312.54 83.274 1317.57 81.0275L1315.53 76.4629ZM1299.2 79.2461V74.2461H1290.92V79.2461V84.2461H1299.2V79.2461ZM1290.92 79.2461H1285.92V127H1290.92H1295.92V79.2461H1290.92ZM1290.92 127V122H1260.08V127V132H1290.92V127ZM1260.08 127H1265.08V8.4209H1260.08H1255.08V127H1260.08ZM1290.92 28.709H1285.92V58.8848H1290.92H1295.92V28.709H1290.92ZM1290.92 58.8848L1290.64 63.8771C1291.58 63.9292 1292.43 63.958 1293.19 63.958V58.958V53.958C1292.67 53.958 1292.02 53.938 1291.2 53.8925L1290.92 58.8848ZM1293.19 58.958V63.958C1296.6 63.958 1300.49 63.1628 1302.98 59.9963L1299.05 56.9072L1295.12 53.8181C1295.27 53.6197 1295.38 53.6385 1295.13 53.726C1294.84 53.8275 1294.24 53.958 1293.19 53.958V58.958ZM1299.05 56.9072L1302.97 60.0142C1304.25 58.398 1304.87 56.4109 1305.22 54.6151C1305.58 52.7389 1305.73 50.5697 1305.73 48.1914H1300.73H1295.73C1295.73 50.2076 1295.6 51.6884 1295.4 52.7174C1295.19 53.8269 1294.97 54.0004 1295.13 53.8003L1299.05 56.9072ZM1300.73 48.1914H1305.73V38.4502H1300.73H1295.73V48.1914H1300.73ZM1300.73 38.4502H1305.73C1305.73 36.2031 1305.56 34.1027 1305.12 32.2628C1304.69 30.4798 1303.89 28.4745 1302.29 26.9359L1298.83 30.54L1295.36 34.1442C1295.03 33.8262 1295.19 33.7497 1295.4 34.6034C1295.59 35.4002 1295.73 36.6445 1295.73 38.4502H1300.73ZM1298.83 30.54L1302.29 26.9359C1300.75 25.4501 1298.79 24.7038 1297.03 24.2956C1295.21 23.8746 1293.14 23.709 1290.92 23.709V28.709V33.709C1292.7 33.709 1293.95 33.8485 1294.77 34.0379C1295.64 34.24 1295.64 34.4092 1295.36 34.1442L1298.83 30.54ZM1335.38 8.4209V3.4209H1330.38V8.4209H1335.38ZM1385.77 10.3984L1384.36 15.1961L1384.37 15.1981L1384.37 15.2002L1385.77 10.3984ZM1395.95 16.1113L1392.24 19.4602L1392.25 19.48L1392.27 19.4997L1395.95 16.1113ZM1400.56 25.1934L1395.68 26.2638L1395.69 26.3032L1395.7 26.3423L1400.56 25.1934ZM1390.82 76.4629L1388.8 71.8895L1388.79 71.8938L1388.78 71.8983L1390.82 76.4629ZM1366.21 79.2461V74.2461H1361.21V79.2461H1366.21ZM1366.21 127V132H1371.21V127H1366.21ZM1335.38 127H1330.38V132H1335.38V127ZM1366.21 28.709V23.709H1361.21V28.709H1366.21ZM1366.21 58.8848H1361.21V63.6147L1365.93 63.8771L1366.21 58.8848ZM1374.34 56.9072L1370.42 53.8003L1370.42 53.8092L1370.41 53.8181L1374.34 56.9072ZM1335.38 8.4209V13.4209H1366.43V8.4209V3.4209H1335.38V8.4209ZM1366.43 8.4209V13.4209C1374.67 13.4209 1380.55 14.0783 1384.36 15.1961L1385.77 10.3984L1387.18 5.60078C1382 4.08182 1374.99 3.4209 1366.43 3.4209V8.4209ZM1385.77 10.3984L1384.37 15.2002C1388.37 16.3606 1390.82 17.8881 1392.24 19.4602L1395.95 16.1113L1399.66 12.7625C1396.59 9.35409 1392.25 7.07296 1387.16 5.59671L1385.77 10.3984ZM1395.95 16.1113L1392.27 19.4997C1393.92 21.2877 1395.07 23.4959 1395.68 26.2638L1400.56 25.1934L1405.45 24.1229C1404.49 19.7619 1402.57 15.9155 1399.63 12.7229L1395.95 16.1113ZM1400.56 25.1934L1395.7 26.3423C1396.39 29.2643 1396.81 34.2484 1396.81 41.5996H1401.81H1406.81C1406.81 34.107 1406.4 28.1537 1405.43 24.0444L1400.56 25.1934ZM1401.81 41.5996H1396.81V51.9268H1401.81H1406.81V41.5996H1401.81ZM1401.81 51.9268H1396.81C1396.81 59.351 1396.01 63.9724 1394.91 66.425L1399.46 68.4795L1404.02 70.534C1406.04 66.053 1406.81 59.6393 1406.81 51.9268H1401.81ZM1399.46 68.4795L1394.91 66.425C1393.95 68.5452 1392.12 70.4236 1388.8 71.8895L1390.82 76.4629L1392.84 81.0363C1397.92 78.7912 1401.85 75.3474 1404.02 70.534L1399.46 68.4795ZM1390.82 76.4629L1388.78 71.8983C1385.5 73.3627 1380.83 74.2461 1374.49 74.2461V79.2461V84.2461C1381.62 84.2461 1387.84 83.274 1392.86 81.0275L1390.82 76.4629ZM1374.49 79.2461V74.2461H1366.21V79.2461V84.2461H1374.49V79.2461ZM1366.21 79.2461H1361.21V127H1366.21H1371.21V79.2461H1366.21ZM1366.21 127V122H1335.38V127V132H1366.21V127ZM1335.38 127H1340.38V8.4209H1335.38H1330.38V127H1335.38ZM1366.21 28.709H1361.21V58.8848H1366.21H1371.21V28.709H1366.21ZM1366.21 58.8848L1365.93 63.8771C1366.87 63.9292 1367.73 63.958 1368.48 63.958V58.958V53.958C1367.97 53.958 1367.31 53.938 1366.49 53.8925L1366.21 58.8848ZM1368.48 58.958V63.958C1371.89 63.958 1375.79 63.1628 1378.27 59.9963L1374.34 56.9072L1370.41 53.8181C1370.57 53.6197 1370.67 53.6385 1370.42 53.726C1370.13 53.8275 1369.53 53.958 1368.48 53.958V58.958ZM1374.34 56.9072L1378.26 60.0142C1379.54 58.398 1380.17 56.4109 1380.51 54.6151C1380.88 52.7389 1381.03 50.5697 1381.03 48.1914H1376.03H1371.03C1371.03 50.2076 1370.89 51.6884 1370.7 52.7174C1370.48 53.8269 1370.27 54.0004 1370.42 53.8003L1374.34 56.9072ZM1376.03 48.1914H1381.03V38.4502H1376.03H1371.03V48.1914H1376.03ZM1376.03 38.4502H1381.03C1381.03 36.2031 1380.85 34.1027 1380.41 32.2628C1379.98 30.4798 1379.19 28.4745 1377.59 26.9359L1374.12 30.54L1370.66 34.1442C1370.33 33.8262 1370.48 33.7497 1370.69 34.6034C1370.88 35.4002 1371.03 36.6445 1371.03 38.4502H1376.03ZM1374.12 30.54L1377.59 26.9359C1376.04 25.4501 1374.08 24.7038 1372.32 24.2956C1370.5 23.8746 1368.43 23.709 1366.21 23.709V28.709V33.709C1368 33.709 1369.25 33.8485 1370.06 34.0379C1370.94 34.24 1370.93 34.4092 1370.66 34.1442L1374.12 30.54ZM1441.5 8.4209H1446.5V3.4209H1441.5V8.4209ZM1441.5 103.27H1436.5V108.27H1441.5V103.27ZM1460.25 103.27H1465.25V98.2695H1460.25V103.27ZM1460.25 127V132H1465.25V127H1460.25ZM1410.67 127H1405.67V132H1410.67V127ZM1410.67 8.4209V3.4209H1405.67V8.4209H1410.67ZM1441.5 8.4209H1436.5V103.27H1441.5H1446.5V8.4209H1441.5ZM1441.5 103.27V108.27H1460.25V103.27V98.2695H1441.5V103.27ZM1460.25 103.27H1455.25V127H1460.25H1465.25V103.27H1460.25ZM1460.25 127V122H1410.67V127V132H1460.25V127ZM1410.67 127H1415.67V8.4209H1410.67H1405.67V127H1410.67ZM1410.67 8.4209V13.4209H1441.5V8.4209V3.4209H1410.67V8.4209ZM1467.8 8.4209V3.4209H1462.8V8.4209H1467.8ZM1519.21 8.4209H1524.21V3.4209H1519.21V8.4209ZM1519.21 32.1514V37.1514H1524.21V32.1514H1519.21ZM1498.63 32.1514V27.1514H1493.63V32.1514H1498.63ZM1498.63 54.6367H1493.63V59.6367H1498.63V54.6367ZM1517.9 54.6367H1522.9V49.6367H1517.9V54.6367ZM1517.9 77.1953V82.1953H1522.9V77.1953H1517.9ZM1498.63 77.1953V72.1953H1493.63V77.1953H1498.63ZM1498.63 103.27H1493.63V108.27H1498.63V103.27ZM1521.27 103.27H1526.27V98.2695H1521.27V103.27ZM1521.27 127V132H1526.27V127H1521.27ZM1467.8 127H1462.8V132H1467.8V127ZM1467.8 8.4209V13.4209H1519.21V8.4209V3.4209H1467.8V8.4209ZM1519.21 8.4209H1514.21V32.1514H1519.21H1524.21V8.4209H1519.21ZM1519.21 32.1514V27.1514H1498.63V32.1514V37.1514H1519.21V32.1514ZM1498.63 32.1514H1493.63V54.6367H1498.63H1503.63V32.1514H1498.63ZM1498.63 54.6367V59.6367H1517.9V54.6367V49.6367H1498.63V54.6367ZM1517.9 54.6367H1512.9V77.1953H1517.9H1522.9V54.6367H1517.9ZM1517.9 77.1953V72.1953H1498.63V77.1953V82.1953H1517.9V77.1953ZM1498.63 77.1953H1493.63V103.27H1498.63H1503.63V77.1953H1498.63ZM1498.63 103.27V108.27H1521.27V103.27V98.2695H1498.63V103.27ZM1521.27 103.27H1516.27V127H1521.27H1526.27V103.27H1521.27ZM1521.27 127V122H1467.8V127V132H1521.27V127ZM1467.8 127H1472.8V8.4209H1467.8H1462.8V127H1467.8ZM1622.05 44.3096V49.3096H1627.05V44.3096H1622.05ZM1593.41 44.3096H1588.41V49.3096H1593.41V44.3096ZM1584.4 28.2695L1580.2 25.5589L1580.17 25.6075L1580.14 25.6567L1584.4 28.2695ZM1584.62 44.0898L1589.07 41.8105L1589.05 41.7679L1589.03 41.7258L1584.62 44.0898ZM1593.34 51.3408L1595.89 47.0426L1595.88 47.0379L1593.34 51.3408ZM1621.61 115.354L1617.14 113.118L1617.12 113.14L1617.11 113.162L1621.61 115.354ZM1610.18 125.462L1612.32 129.98L1612.34 129.972L1612.36 129.965L1610.18 125.462ZM1569.24 124.803L1566.87 129.206L1566.88 129.21L1566.89 129.214L1569.24 124.803ZM1555.1 84.5195V79.5195H1550.1V84.5195H1555.1ZM1583.74 84.5195H1588.74V79.5195H1583.74V84.5195ZM1584.91 107.518L1580.65 110.138L1580.69 110.196L1580.73 110.254L1584.91 107.518ZM1593.78 107.005L1589.56 104.321L1589.53 104.367L1589.5 104.413L1593.78 107.005ZM1592.46 86.1309L1596.2 82.8143L1596.18 82.7908L1596.16 82.7675L1592.46 86.1309ZM1578.03 75.3643L1575.27 79.5327L1575.28 79.5388L1575.29 79.5449L1578.03 75.3643ZM1556.57 54.7832L1551.92 56.6305L1551.93 56.6546L1551.94 56.6785L1556.57 54.7832ZM1557.59 19.334L1553.23 16.8972L1553.22 16.9166L1553.21 16.9362L1557.59 19.334ZM1568.87 9.51953L1570.94 14.0743L1570.95 14.0663L1570.97 14.0581L1568.87 9.51953ZM1608.06 9.8125L1605.96 14.3535L1605.97 14.3569L1605.98 14.3603L1608.06 9.8125ZM1619.26 19.627L1614.72 21.7044L1614.73 21.7384L1614.75 21.7722L1619.26 19.627ZM1622.05 44.3096V39.3096H1593.41V44.3096V49.3096H1622.05V44.3096ZM1593.41 44.3096H1598.41V35.5205H1593.41H1588.41V44.3096H1593.41ZM1593.41 35.5205H1598.41C1598.41 33.3497 1598.31 31.4165 1598.09 29.791C1597.88 28.328 1597.49 26.4757 1596.5 24.9523L1592.31 27.6836L1588.12 30.4149C1587.95 30.1488 1587.94 30.0253 1587.99 30.2159C1588.04 30.3824 1588.11 30.6897 1588.18 31.1793C1588.32 32.1661 1588.41 33.5897 1588.41 35.5205H1593.41ZM1592.31 27.6836L1596.5 24.9523C1594.59 22.0245 1591.52 20.999 1588.65 20.999V25.999V30.999C1588.97 30.999 1588.95 31.0536 1588.76 30.9626C1588.65 30.9155 1588.53 30.8408 1588.4 30.7328C1588.28 30.6248 1588.19 30.5117 1588.12 30.4149L1592.31 27.6836ZM1588.65 25.999V20.999C1585.16 20.999 1582.13 22.567 1580.2 25.5589L1584.4 28.2695L1588.6 30.9802C1588.65 30.9058 1588.67 30.8889 1588.66 30.903C1588.65 30.9096 1588.64 30.9212 1588.62 30.9353C1588.6 30.9495 1588.58 30.9636 1588.55 30.9763C1588.53 30.989 1588.51 30.9983 1588.49 31.0046C1588.47 31.0108 1588.46 31.0127 1588.47 31.0123C1588.47 31.0116 1588.52 30.999 1588.65 30.999V25.999ZM1584.4 28.2695L1580.14 25.6567C1578.49 28.3425 1578.01 31.7482 1578.01 35.1543H1583.01H1588.01C1588.01 32.4081 1588.45 31.224 1588.66 30.8823L1584.4 28.2695ZM1583.01 35.1543H1578.01C1578.01 39.4055 1578.56 43.3699 1580.21 46.4539L1584.62 44.0898L1589.03 41.7258C1588.53 40.8059 1588.01 38.8132 1588.01 35.1543H1583.01ZM1584.62 44.0898L1580.17 46.3692C1581.13 48.245 1582.7 49.8619 1584.37 51.2478C1586.1 52.6854 1588.26 54.1491 1590.79 55.6437L1593.34 51.3408L1595.88 47.0379C1593.62 45.7005 1591.94 44.5397 1590.77 43.5603C1589.53 42.5292 1589.13 41.9366 1589.07 41.8105L1584.62 44.0898ZM1593.34 51.3408L1590.78 55.639C1597.54 59.6547 1602.94 63.2504 1607.05 66.4276C1611.21 69.6492 1613.78 72.2507 1615.13 74.2271L1619.26 71.4092L1623.39 68.5913C1621.18 65.3431 1617.65 61.9875 1613.17 58.5197C1608.63 55.0074 1602.85 51.1812 1595.89 47.0426L1593.34 51.3408ZM1619.26 71.4092L1615.13 74.2271C1617.83 78.1754 1619.61 85.3359 1619.61 96.6777H1624.61H1629.61C1629.61 84.7774 1627.83 75.0922 1623.39 68.5913L1619.26 71.4092ZM1624.61 96.6777H1619.61C1619.61 104.92 1618.6 110.184 1617.14 113.118L1621.61 115.354L1626.08 117.591C1628.62 112.517 1629.61 105.33 1629.61 96.6777H1624.61ZM1621.61 115.354L1617.11 113.162C1615.82 115.815 1613.07 118.516 1608.01 120.959L1610.18 125.462L1612.36 129.965C1618.62 126.939 1623.49 122.902 1626.1 117.547L1621.61 115.354ZM1610.18 125.462L1608.04 120.944C1603.17 123.255 1597.33 124.49 1590.41 124.49V129.49V134.49C1598.52 134.49 1605.87 133.04 1612.32 129.98L1610.18 125.462ZM1590.41 129.49V124.49C1582.78 124.49 1576.57 123.047 1571.59 120.391L1569.24 124.803L1566.89 129.214C1573.62 132.808 1581.53 134.49 1590.41 134.49V129.49ZM1569.24 124.803L1571.61 120.399C1566.56 117.684 1563.77 114.524 1562.5 111.114L1557.81 112.864L1553.13 114.615C1555.47 120.872 1560.3 125.671 1566.87 129.206L1569.24 124.803ZM1557.81 112.864L1562.5 111.114C1561 107.103 1560.1 100.94 1560.1 92.2832H1555.1H1550.1C1550.1 101.4 1551.02 108.957 1553.13 114.615L1557.81 112.864ZM1555.1 92.2832H1560.1V84.5195H1555.1H1550.1V92.2832H1555.1ZM1555.1 84.5195V89.5195H1583.74V84.5195V79.5195H1555.1V84.5195ZM1583.74 84.5195H1578.74V98.9482H1583.74H1588.74V84.5195H1583.74ZM1583.74 98.9482H1578.74C1578.74 101.289 1578.84 103.362 1579.08 105.101C1579.3 106.694 1579.7 108.584 1580.65 110.138L1584.91 107.518L1589.17 104.897C1589.35 105.182 1589.16 105.009 1588.99 103.746C1588.84 102.628 1588.74 101.05 1588.74 98.9482H1583.74ZM1584.91 107.518L1580.73 110.254C1582.79 113.41 1586.15 114.422 1589.23 114.422V109.422V104.422C1588.98 104.422 1588.81 104.402 1588.71 104.384C1588.61 104.366 1588.59 104.352 1588.63 104.37C1588.68 104.39 1588.76 104.436 1588.86 104.52C1588.96 104.604 1589.04 104.698 1589.1 104.781L1584.91 107.518ZM1589.23 109.422V114.422C1592.85 114.422 1596.08 112.856 1598.05 109.596L1593.78 107.005L1589.5 104.413C1589.46 104.483 1589.44 104.493 1589.46 104.474C1589.48 104.453 1589.52 104.426 1589.56 104.404C1589.6 104.383 1589.61 104.385 1589.57 104.394C1589.53 104.404 1589.42 104.422 1589.23 104.422V109.422ZM1593.78 107.005L1597.99 109.689C1599.77 106.905 1600.31 103.388 1600.31 99.8271H1595.31H1590.31C1590.31 102.614 1589.84 103.882 1589.56 104.321L1593.78 107.005ZM1595.31 99.8271H1600.31C1600.31 96.1443 1600.07 92.8852 1599.49 90.1454C1598.94 87.487 1597.98 84.8274 1596.2 82.8143L1592.46 86.1309L1588.72 89.4474C1588.84 89.5827 1589.31 90.28 1589.7 92.1871C1590.09 94.0127 1590.31 96.5276 1590.31 99.8271H1595.31ZM1592.46 86.1309L1596.16 82.7675C1593.7 80.0654 1588.32 76.139 1580.77 71.1836L1578.03 75.3643L1575.29 79.5449C1583.06 84.6481 1587.31 87.8994 1588.76 89.4942L1592.46 86.1309ZM1578.03 75.3643L1580.79 71.1959C1573.09 66.097 1568.34 62.6139 1566.18 60.6279L1562.79 64.3047L1559.41 67.9815C1562.23 70.5853 1567.63 74.4753 1575.27 79.5327L1578.03 75.3643ZM1562.79 64.3047L1566.18 60.6279C1564.36 58.9521 1562.66 56.4543 1561.2 52.8879L1556.57 54.7832L1551.94 56.6785C1553.8 61.2175 1556.24 65.0674 1559.41 67.9815L1562.79 64.3047ZM1556.57 54.7832L1561.21 52.9359C1559.92 49.6705 1559.15 45.1797 1559.15 39.2559H1554.15H1549.15C1549.15 45.9297 1550 51.7904 1551.92 56.6305L1556.57 54.7832ZM1554.15 39.2559H1559.15C1559.15 30.385 1560.31 24.793 1561.98 21.7318L1557.59 19.334L1553.21 16.9362C1550.29 22.2734 1549.15 29.9627 1549.15 39.2559H1554.15ZM1557.59 19.334L1561.96 21.7708C1563.69 18.6668 1566.55 16.0593 1570.94 14.0743L1568.87 9.51953L1566.81 4.96476C1560.84 7.66723 1556.18 11.6028 1553.23 16.8972L1557.59 19.334ZM1568.87 9.51953L1570.97 14.0581C1575.33 12.043 1580.82 10.9307 1587.62 10.9307V5.93066V0.930664C1579.77 0.930664 1572.77 2.21086 1566.78 4.98099L1568.87 9.51953ZM1587.62 5.93066V10.9307C1595.11 10.9307 1601.17 12.1434 1605.96 14.3535L1608.06 9.8125L1610.15 5.27155C1603.72 2.30585 1596.15 0.930664 1587.62 0.930664V5.93066ZM1608.06 9.8125L1605.98 14.3603C1611.02 16.6613 1613.59 19.2328 1614.72 21.7044L1619.26 19.627L1623.81 17.5495C1621.33 12.1109 1616.43 8.13947 1610.14 5.2647L1608.06 9.8125ZM1619.26 19.627L1614.75 21.7722C1616.09 24.589 1617.05 30.2655 1617.05 39.6221H1622.05H1627.05C1627.05 30.131 1626.15 22.4774 1623.78 17.4817L1619.26 19.627ZM1622.05 39.6221H1617.05V44.3096H1622.05H1627.05V39.6221H1622.05ZM1696.46 8.4209H1701.46V3.4209H1696.46V8.4209ZM1696.46 32.1514V37.1514H1701.46V32.1514H1696.46ZM1678.15 32.1514V27.1514H1673.15V32.1514H1678.15ZM1678.15 127V132H1683.15V127H1678.15ZM1647.32 127H1642.32V132H1647.32V127ZM1647.32 32.1514H1652.32V27.1514H1647.32V32.1514ZM1629.08 32.1514H1624.08V37.1514H1629.08V32.1514ZM1629.08 8.4209V3.4209H1624.08V8.4209H1629.08ZM1696.46 8.4209H1691.46V32.1514H1696.46H1701.46V8.4209H1696.46ZM1696.46 32.1514V27.1514H1678.15V32.1514V37.1514H1696.46V32.1514ZM1678.15 32.1514H1673.15V127H1678.15H1683.15V32.1514H1678.15ZM1678.15 127V122H1647.32V127V132H1678.15V127ZM1647.32 127H1652.32V32.1514H1647.32H1642.32V127H1647.32ZM1647.32 32.1514V27.1514H1629.08V32.1514V37.1514H1647.32V32.1514ZM1629.08 32.1514H1634.08V8.4209H1629.08H1624.08V32.1514H1629.08ZM1629.08 8.4209V13.4209H1696.46V8.4209V3.4209H1629.08V8.4209ZM1703.49 8.4209V3.4209H1698.49V8.4209H1703.49ZM1754.83 10.1055L1753.77 14.9897L1753.77 14.9918L1754.83 10.1055ZM1767.43 18.748L1763.33 21.6008L1763.34 21.6256L1763.36 21.6501L1767.43 18.748ZM1755.35 65.1104L1754.88 60.1324L1754.14 69.9633L1755.35 65.1104ZM1771.53 78.2207L1766.66 79.3288L1766.67 79.3946L1766.69 79.4599L1771.53 78.2207ZM1772.34 127V132H1777.34V127H1772.34ZM1743.7 127H1738.7V132H1743.7V127ZM1742.16 75.8037L1737.96 78.5143L1737.99 78.5615L1738.02 78.608L1742.16 75.8037ZM1734.33 73.5332V68.5332H1729.33V73.5332H1734.33ZM1734.33 127V132H1739.33V127H1734.33ZM1703.49 127H1698.49V132H1703.49V127ZM1734.33 28.709V23.709H1729.33V28.709H1734.33ZM1734.33 55.0762H1729.33V60.0762H1734.33V55.0762ZM1741.58 53.6846L1744.39 57.8219L1744.4 57.8114L1744.42 57.8006L1741.58 53.6846ZM1741.65 30.4668L1738.33 34.2038L1738.36 34.2338L1738.4 34.2631L1741.65 30.4668ZM1703.49 8.4209V13.4209H1725.32V8.4209V3.4209H1703.49V8.4209ZM1725.32 8.4209V13.4209C1739.93 13.4209 1749.24 13.9994 1753.77 14.9897L1754.83 10.1055L1755.9 5.22127C1750.17 3.96548 1739.81 3.4209 1725.32 3.4209V8.4209ZM1754.83 10.1055L1753.77 14.9918C1757.63 15.8277 1760.77 17.9252 1763.33 21.6008L1767.43 18.748L1771.54 15.8953C1767.65 10.2936 1762.39 6.62933 1755.9 5.21917L1754.83 10.1055ZM1767.43 18.748L1763.36 21.6501C1765.71 24.9501 1767.34 31.0039 1767.34 40.7939H1772.34H1777.34C1777.34 30.3692 1775.7 21.7256 1771.5 15.846L1767.43 18.748ZM1772.34 40.7939H1767.34C1767.34 45.2294 1767.06 48.7588 1766.56 51.4565C1766.05 54.2225 1765.37 55.7389 1764.85 56.4677L1768.9 59.3975L1772.95 62.3272C1774.72 59.8822 1775.76 56.7111 1776.4 53.276C1777.04 49.7724 1777.34 45.587 1777.34 40.7939H1772.34ZM1768.9 59.3975L1764.85 56.4677C1763.84 57.8575 1761.17 59.5393 1754.88 60.1324L1755.35 65.1104L1755.82 70.0883C1763 69.4119 1769.36 67.2851 1772.95 62.3272L1768.9 59.3975ZM1755.35 65.1104L1754.14 69.9633C1760.02 71.4194 1762.77 73.1293 1763.8 74.3758L1767.65 71.1895L1771.51 68.0031C1768.34 64.1715 1762.89 61.8287 1756.55 60.2574L1755.35 65.1104ZM1767.65 71.1895L1763.8 74.3758C1765.63 76.5858 1766.41 78.2278 1766.66 79.3288L1771.53 78.2207L1776.41 77.1126C1775.68 73.9167 1773.88 70.8713 1771.51 68.0031L1767.65 71.1895ZM1771.53 78.2207L1766.69 79.4599C1766.81 79.944 1767.01 81.4379 1767.14 84.4015C1767.27 87.2098 1767.34 90.9755 1767.34 95.7256H1772.34H1777.34C1777.34 90.9054 1777.27 86.9684 1777.13 83.9417C1777 81.0704 1776.79 78.597 1776.38 76.9815L1771.53 78.2207ZM1772.34 95.7256H1767.34V127H1772.34H1777.34V95.7256H1772.34ZM1772.34 127V122H1743.7V127V132H1772.34V127ZM1743.7 127H1748.7V87.5957H1743.7H1738.7V127H1743.7ZM1743.7 87.5957H1748.7C1748.7 84.3175 1748.57 81.508 1748.28 79.2403C1748.01 77.2025 1747.53 74.8051 1746.3 72.9995L1742.16 75.8037L1738.02 78.608C1737.83 78.316 1738.11 78.6408 1738.36 80.5337C1738.58 82.1966 1738.7 84.5262 1738.7 87.5957H1743.7ZM1742.16 75.8037L1746.37 73.0931C1744.96 70.9157 1742.76 69.8471 1740.86 69.2983C1738.93 68.737 1736.69 68.5332 1734.33 68.5332V73.5332V78.5332C1736.21 78.5332 1737.41 78.7078 1738.08 78.9033C1738.8 79.1114 1738.39 79.178 1737.96 78.5143L1742.16 75.8037ZM1734.33 73.5332H1729.33V127H1734.33H1739.33V73.5332H1734.33ZM1734.33 127V122H1703.49V127V132H1734.33V127ZM1703.49 127H1708.49V8.4209H1703.49H1698.49V127H1703.49ZM1734.33 28.709H1729.33V55.0762H1734.33H1739.33V28.709H1734.33ZM1734.33 55.0762V60.0762C1737.91 60.0762 1741.68 59.6609 1744.39 57.8219L1741.58 53.6846L1738.77 49.5472C1738.86 49.4897 1738.64 49.657 1737.8 49.8179C1737 49.9716 1735.86 50.0762 1734.33 50.0762V55.0762ZM1741.58 53.6846L1744.42 57.8006C1746.73 56.203 1747.62 53.5875 1748.05 51.7398C1748.52 49.6669 1748.7 47.1635 1748.7 44.3828H1743.7H1738.7C1738.7 46.8268 1738.53 48.4859 1738.3 49.5136C1738.24 49.7554 1738.19 49.9349 1738.14 50.0616C1738.1 50.1895 1738.07 50.244 1738.07 50.2438C1738.07 50.2424 1738.08 50.223 1738.11 50.1896C1738.13 50.1561 1738.16 50.1059 1738.21 50.0441C1738.32 49.92 1738.49 49.7437 1738.74 49.5685L1741.58 53.6846ZM1743.7 44.3828H1748.7V37.8643H1743.7H1738.7V44.3828H1743.7ZM1743.7 37.8643H1748.7C1748.7 35.7234 1748.51 33.6789 1748.01 31.8593C1747.51 30.0554 1746.6 28.1222 1744.91 26.6705L1741.65 30.4668L1738.4 34.2631C1738.07 33.9832 1738.19 33.8689 1738.37 34.5308C1738.55 35.1771 1738.7 36.2453 1738.7 37.8643H1743.7ZM1741.65 30.4668L1744.97 26.7298C1742.17 24.2421 1738.05 23.709 1734.33 23.709V28.709V33.709C1735.87 33.709 1736.95 33.8385 1737.66 34.0104C1738.4 34.1876 1738.49 34.3467 1738.33 34.2038L1741.65 30.4668ZM1837.6 8.4209L1842.54 7.68472L1841.91 3.4209H1837.6V8.4209ZM1855.25 127V132H1861.05L1860.2 126.264L1855.25 127ZM1823.68 127L1818.7 127.36L1819.03 132H1823.68V127ZM1822.14 105.687L1827.13 105.327L1826.8 100.687H1822.14V105.687ZM1811.08 105.687V100.687H1806.5L1806.1 105.259L1811.08 105.687ZM1809.25 127V132H1813.84L1814.24 127.428L1809.25 127ZM1777.32 127L1772.36 126.345L1771.62 132H1777.32V127ZM1792.99 8.4209V3.4209H1788.61L1788.04 7.7657L1792.99 8.4209ZM1821.27 84.666V89.666H1826.88L1826.23 84.0881L1821.27 84.666ZM1816.58 34.9346L1821.56 34.5398L1811.63 34.2514L1816.58 34.9346ZM1810.72 84.666L1805.73 84.2949L1805.33 89.666H1810.72V84.666ZM1837.6 8.4209L1832.65 9.15707L1850.3 127.736L1855.25 127L1860.2 126.264L1842.54 7.68472L1837.6 8.4209ZM1855.25 127V122H1823.68V127V132H1855.25V127ZM1823.68 127L1828.67 126.64L1827.13 105.327L1822.14 105.687L1817.16 106.046L1818.7 127.36L1823.68 127ZM1822.14 105.687V100.687H1811.08V105.687V110.687H1822.14V105.687ZM1811.08 105.687L1806.1 105.259L1804.27 126.572L1809.25 127L1814.24 127.428L1816.07 106.115L1811.08 105.687ZM1809.25 127V122H1777.32V127V132H1809.25V127ZM1777.32 127L1782.28 127.655L1797.95 9.0761L1792.99 8.4209L1788.04 7.7657L1772.36 126.345L1777.32 127ZM1792.99 8.4209V13.4209H1837.6V8.4209V3.4209H1792.99V8.4209ZM1821.27 84.666L1826.23 84.0881C1824.68 70.7421 1823.12 54.2304 1821.56 34.5398L1816.58 34.9346L1811.59 35.3294C1813.16 55.0919 1814.73 71.7345 1816.3 85.2439L1821.27 84.666ZM1816.58 34.9346L1811.63 34.2514C1808.5 56.9204 1806.53 73.6296 1805.73 84.2949L1810.72 84.666L1815.7 85.0371C1816.47 74.7063 1818.41 58.2612 1821.53 35.6178L1816.58 34.9346ZM1810.72 84.666V89.666H1821.27V84.666V79.666H1810.72V84.666ZM1973.76 8.4209L1978.72 8.9946L1979.37 3.4209H1973.76V8.4209ZM1960.06 127V132H1964.52L1965.03 127.574L1960.06 127ZM1921.53 127L1916.62 127.948L1917.41 132H1921.53V127ZM1912.23 64.8906L1917.2 64.3155L1907.27 64.2795L1912.23 64.8906ZM1903.66 127V132H1908L1908.61 127.706L1903.66 127ZM1865.36 127L1860.39 127.577L1860.9 132H1865.36V127ZM1851.59 8.4209V3.4209H1845.97L1846.62 8.99763L1851.59 8.4209ZM1881.54 8.4209L1886.53 8.04146L1886.18 3.4209H1881.54V8.4209ZM1884.69 49.8027L1879.71 50.1822L1879.71 50.1936L1879.71 50.2051L1884.69 49.8027ZM1887.92 89.7197L1882.93 90.1221L1892.91 89.9912L1887.92 89.7197ZM1896.41 8.4209V3.4209H1892.04L1891.46 7.75016L1896.41 8.4209ZM1928.49 8.4209L1933.45 7.79213L1932.9 3.4209H1928.49V8.4209ZM1931.86 47.5322L1936.85 47.1593L1936.85 47.1466L1936.85 47.1339L1931.86 47.5322ZM1935.23 92.5762L1930.24 92.9491L1940.22 92.8738L1935.23 92.5762ZM1943.8 8.4209V3.4209H1939.48L1938.85 7.699L1943.8 8.4209ZM1973.76 8.4209L1968.79 7.8472L1955.09 126.426L1960.06 127L1965.03 127.574L1978.72 8.9946L1973.76 8.4209ZM1960.06 127V122H1921.53V127V132H1960.06V127ZM1921.53 127L1926.44 126.052C1922.96 107.99 1919.87 87.4143 1917.2 64.3155L1912.23 64.8906L1907.27 65.4657C1909.96 88.7537 1913.08 109.585 1916.62 127.948L1921.53 127ZM1912.23 64.8906L1907.27 64.2795C1906.06 74.1355 1903.21 94.7898 1898.71 126.294L1903.66 127L1908.61 127.706C1913.1 96.2219 1915.97 75.47 1917.19 65.5018L1912.23 64.8906ZM1903.66 127V122H1865.36V127V132H1903.66V127ZM1865.36 127L1870.32 126.423L1856.55 7.84417L1851.59 8.4209L1846.62 8.99763L1860.39 127.577L1865.36 127ZM1851.59 8.4209V13.4209H1881.54V8.4209V3.4209H1851.59V8.4209ZM1881.54 8.4209L1876.56 8.80033L1879.71 50.1822L1884.69 49.8027L1889.68 49.4233L1886.53 8.04146L1881.54 8.4209ZM1884.69 49.8027L1879.71 50.2051L1882.93 90.1221L1887.92 89.7197L1892.9 89.3174L1889.68 49.4004L1884.69 49.8027ZM1887.92 89.7197L1892.91 89.9912C1894.02 69.5272 1896.83 42.5758 1901.37 9.09164L1896.41 8.4209L1891.46 7.75016C1886.91 41.3558 1884.06 68.6037 1882.92 89.4483L1887.92 89.7197ZM1896.41 8.4209V13.4209H1928.49V8.4209V3.4209H1896.41V8.4209ZM1928.49 8.4209L1923.53 9.04967C1923.95 12.3686 1925.06 25.2458 1926.88 47.9305L1931.86 47.5322L1936.85 47.1339C1935.04 24.6038 1933.91 11.4067 1933.45 7.79213L1928.49 8.4209ZM1931.86 47.5322L1926.88 47.9052L1930.24 92.9491L1935.23 92.5762L1940.22 92.2032L1936.85 47.1593L1931.86 47.5322ZM1935.23 92.5762L1940.22 92.8738C1941.92 64.3487 1944.76 36.4386 1948.75 9.14279L1943.8 8.4209L1938.85 7.699C1934.83 35.286 1931.96 63.4795 1930.24 92.2786L1935.23 92.5762ZM1943.8 8.4209V13.4209H1973.76V8.4209V3.4209H1943.8V8.4209ZM1979.91 8.4209V3.4209H1974.91V8.4209H1979.91ZM2032.72 10.6914L2031.26 15.4754L2031.27 15.4793L2032.72 10.6914ZM2044.87 19.9199L2040.71 22.6833L2040.71 22.6935L2040.72 22.7036L2044.87 19.9199ZM2046.19 56.6875L2042.29 53.5555L2042.28 53.5769L2042.26 53.5984L2046.19 56.6875ZM2033.38 62.9863L2032.26 58.1125L2032.27 67.8633L2033.38 62.9863ZM2047.88 71.043L2043.73 73.8413L2043.74 73.8538L2043.75 73.8664L2047.88 71.043ZM2048.9 116.966L2044.4 114.798L2044.39 114.822L2044.37 114.845L2048.9 116.966ZM1979.91 127H1974.91V132H1979.91V127ZM2010.74 28.709L2010.82 23.7096L2005.74 23.6315V28.709H2010.74ZM2010.74 55.0762H2005.74V60.2648L2010.93 60.0727L2010.74 55.0762ZM2019.61 52.8057L2023.96 55.2707L2023.97 55.2404L2023.99 55.2098L2019.61 52.8057ZM2019.83 32.2246L2015.27 34.2825L2015.28 34.3109L2015.29 34.339L2019.83 32.2246ZM2017.12 29.3682L2015.41 34.0671L2015.44 34.0791L2015.47 34.0906L2017.12 29.3682ZM2010.74 73.5332L2010.9 68.5357L2005.74 68.3711V73.5332H2010.74ZM2010.74 106.712H2005.74V111.883L2010.91 111.709L2010.74 106.712ZM2019.02 104.661L2015.48 101.126L2015.45 101.162L2015.41 101.198L2019.02 104.661ZM1979.91 8.4209V13.4209H2010.67V8.4209V3.4209H1979.91V8.4209ZM2010.67 8.4209V13.4209C2020.24 13.4209 2027 14.1796 2031.26 15.4753L2032.72 10.6914L2034.17 5.90747C2028.47 4.17587 2020.53 3.4209 2010.67 3.4209V8.4209ZM2032.72 10.6914L2031.27 15.4793C2035.12 16.6357 2038.23 18.954 2040.71 22.6833L2044.87 19.9199L2049.04 17.1566C2045.36 11.6085 2040.37 7.77449 2034.16 5.90356L2032.72 10.6914ZM2044.87 19.9199L2040.72 22.7036C2042.95 26.0232 2044.49 32.196 2044.49 42.1855H2049.49H2054.49C2054.49 31.6673 2052.95 22.9963 2049.03 17.1362L2044.87 19.9199ZM2049.49 42.1855H2044.49C2044.49 48.9235 2043.35 52.2378 2042.29 53.5555L2046.19 56.6875L2050.09 59.8195C2053.43 55.6684 2054.49 49.3148 2054.49 42.1855H2049.49ZM2046.19 56.6875L2042.26 53.5984C2041.22 54.9248 2038.4 56.7064 2032.26 58.1125L2033.38 62.9863L2034.49 67.8602C2041.14 66.3366 2046.87 63.9189 2050.12 59.7766L2046.19 56.6875ZM2033.38 62.9863L2032.27 67.8633C2038.88 69.3571 2042.23 71.6208 2043.73 73.8413L2047.88 71.043L2052.02 68.2447C2048.44 62.9456 2042.13 59.8383 2034.48 58.1094L2033.38 62.9863ZM2047.88 71.043L2043.75 73.8664C2045.44 76.3392 2046.69 80.8327 2046.69 88.1816H2051.69H2056.69C2056.69 80.1009 2055.39 73.1686 2052 68.2195L2047.88 71.043ZM2051.69 88.1816H2046.69V99.168H2051.69H2056.69V88.1816H2051.69ZM2051.69 99.168H2046.69C2046.69 106.969 2045.75 111.978 2044.4 114.798L2048.9 116.966L2053.41 119.133C2055.76 114.239 2056.69 107.383 2056.69 99.168H2051.69ZM2048.9 116.966L2044.37 114.845C2043.13 117.494 2041.26 119.194 2038.52 120.162L2040.19 124.876L2041.85 129.59C2047.12 127.726 2051.06 124.152 2053.43 119.087L2048.9 116.966ZM2040.19 124.876L2038.52 120.162C2037.13 120.652 2034.6 121.143 2030.6 121.488C2026.69 121.825 2021.7 122 2015.58 122V127V132C2021.86 132 2027.16 131.821 2031.46 131.45C2035.67 131.087 2039.24 130.516 2041.85 129.59L2040.19 124.876ZM2015.58 127V122H1979.91V127V132H2015.58V127ZM1979.91 127H1984.91V8.4209H1979.91H1974.91V127H1979.91ZM2010.74 28.709H2005.74V55.0762H2010.74H2015.74V28.709H2010.74ZM2010.74 55.0762L2010.93 60.0727C2012.23 60.0247 2013.18 60.0029 2013.82 60.0029V55.0029V50.0029C2012.99 50.0029 2011.9 50.03 2010.56 50.0796L2010.74 55.0762ZM2013.82 55.0029V60.0029C2017.2 60.0029 2021.7 59.247 2023.96 55.2707L2019.61 52.8057L2015.26 50.3406C2015.38 50.1241 2015.53 49.9606 2015.66 49.8559C2015.78 49.759 2015.84 49.7494 2015.76 49.7793C2015.56 49.8545 2014.98 50.0029 2013.82 50.0029V55.0029ZM2019.61 52.8057L2023.99 55.2098C2024.95 53.4501 2025.31 51.0435 2025.52 48.9495C2025.75 46.5842 2025.85 43.5777 2025.85 39.9883H2020.85H2015.85C2015.85 43.4302 2015.75 46.0755 2015.56 47.9826C2015.35 50.1611 2015.09 50.6476 2015.22 50.4015L2019.61 52.8057ZM2020.85 39.9883H2025.85C2025.85 36.2565 2025.55 32.6693 2024.36 30.1102L2019.83 32.2246L2015.29 34.339C2015.29 34.339 2015.3 34.3412 2015.3 34.3458C2015.3 34.3504 2015.3 34.3572 2015.31 34.3663C2015.31 34.3847 2015.32 34.4114 2015.34 34.4473C2015.36 34.5201 2015.39 34.6228 2015.43 34.7602C2015.5 35.0391 2015.57 35.4193 2015.64 35.9189C2015.77 36.9265 2015.85 38.2686 2015.85 39.9883H2020.85ZM2019.83 32.2246L2024.38 30.1667C2023.36 27.9108 2021.62 25.6423 2018.76 24.6457L2017.12 29.3682L2015.47 34.0906C2015.35 34.0479 2015.24 33.9923 2015.15 33.9344C2015.07 33.8776 2015.02 33.831 2015.01 33.8165C2015 33.8035 2015.02 33.8249 2015.07 33.9005C2015.12 33.9767 2015.19 34.0996 2015.27 34.2825L2019.83 32.2246ZM2017.12 29.3682L2018.82 24.6692C2016.84 23.9487 2013.89 23.7568 2010.82 23.7096L2010.74 28.709L2010.67 33.7084C2012.17 33.7315 2013.34 33.7944 2014.2 33.8839C2015.14 33.9813 2015.45 34.0847 2015.41 34.0671L2017.12 29.3682ZM2010.74 73.5332H2005.74V106.712H2010.74H2015.74V73.5332H2010.74ZM2010.74 106.712L2010.91 111.709C2013.27 111.63 2015.43 111.4 2017.27 110.943C2019.02 110.511 2021.08 109.735 2022.63 108.124L2019.02 104.661L2015.41 101.198C2015.79 100.808 2015.89 100.984 2014.87 101.236C2013.96 101.462 2012.56 101.648 2010.57 101.715L2010.74 106.712ZM2019.02 104.661L2022.56 108.197C2024.21 106.537 2024.92 104.302 2025.29 102.489C2025.69 100.531 2025.85 98.2155 2025.85 95.6523H2020.85H2015.85C2015.85 97.8744 2015.71 99.4527 2015.49 100.498C2015.25 101.688 2015.05 101.564 2015.48 101.126L2019.02 104.661ZM2020.85 95.6523H2025.85V84.5928H2020.85H2015.85V95.6523H2020.85ZM2020.85 84.5928H2025.85C2025.85 81.9201 2025.71 79.559 2025.37 77.617C2025.08 75.9421 2024.48 73.5378 2022.77 71.8287L2019.24 75.3643L2015.7 78.8998C2015.31 78.5041 2015.23 78.2073 2015.28 78.3549C2015.33 78.4716 2015.42 78.7737 2015.52 79.3371C2015.72 80.4712 2015.85 82.1873 2015.85 84.5928H2020.85ZM2019.24 75.3643L2022.77 71.8287C2021.18 70.2316 2019 69.5659 2017.36 69.2131C2015.53 68.8189 2013.35 68.6137 2010.9 68.5357L2010.74 73.5332L2010.58 78.5307C2012.73 78.5992 2014.25 78.7724 2015.26 78.9886C2015.75 79.0955 2016.02 79.1917 2016.12 79.2368C2016.25 79.2899 2016.02 79.2187 2015.7 78.8998L2019.24 75.3643ZM2062.82 8.4209V3.4209H2057.82V8.4209H2062.82ZM2114.23 8.4209H2119.23V3.4209H2114.23V8.4209ZM2114.23 32.1514V37.1514H2119.23V32.1514H2114.23ZM2093.65 32.1514V27.1514H2088.65V32.1514H2093.65ZM2093.65 54.6367H2088.65V59.6367H2093.65V54.6367ZM2112.92 54.6367H2117.92V49.6367H2112.92V54.6367ZM2112.92 77.1953V82.1953H2117.92V77.1953H2112.92ZM2093.65 77.1953V72.1953H2088.65V77.1953H2093.65ZM2093.65 103.27H2088.65V108.27H2093.65V103.27ZM2116.29 103.27H2121.29V98.2695H2116.29V103.27ZM2116.29 127V132H2121.29V127H2116.29ZM2062.82 127H2057.82V132H2062.82V127ZM2062.82 8.4209V13.4209H2114.23V8.4209V3.4209H2062.82V8.4209ZM2114.23 8.4209H2109.23V32.1514H2114.23H2119.23V8.4209H2114.23ZM2114.23 32.1514V27.1514H2093.65V32.1514V37.1514H2114.23V32.1514ZM2093.65 32.1514H2088.65V54.6367H2093.65H2098.65V32.1514H2093.65ZM2093.65 54.6367V59.6367H2112.92V54.6367V49.6367H2093.65V54.6367ZM2112.92 54.6367H2107.92V77.1953H2112.92H2117.92V54.6367H2112.92ZM2112.92 77.1953V72.1953H2093.65V77.1953V82.1953H2112.92V77.1953ZM2093.65 77.1953H2088.65V103.27H2093.65H2098.65V77.1953H2093.65ZM2093.65 103.27V108.27H2116.29V103.27V98.2695H2093.65V103.27ZM2116.29 103.27H2111.29V127H2116.29H2121.29V103.27H2116.29ZM2116.29 127V122H2062.82V127V132H2116.29V127ZM2062.82 127H2067.82V8.4209H2062.82H2057.82V127H2062.82ZM2125.22 8.4209V3.4209H2120.22V8.4209H2125.22ZM2176.56 10.1055L2175.49 14.9897L2175.5 14.9918L2176.56 10.1055ZM2189.16 18.748L2185.05 21.6008L2185.07 21.6256L2185.09 21.6501L2189.16 18.748ZM2177.08 65.1104L2176.61 60.1324L2175.87 69.9633L2177.08 65.1104ZM2193.26 78.2207L2188.39 79.3288L2188.4 79.3946L2188.42 79.4599L2193.26 78.2207ZM2194.07 127V132H2199.07V127H2194.07ZM2165.43 127H2160.43V132H2165.43V127ZM2163.89 75.8037L2159.69 78.5143L2159.72 78.5615L2159.75 78.608L2163.89 75.8037ZM2156.06 73.5332V68.5332H2151.06V73.5332H2156.06ZM2156.06 127V132H2161.06V127H2156.06ZM2125.22 127H2120.22V132H2125.22V127ZM2156.06 28.709V23.709H2151.06V28.709H2156.06ZM2156.06 55.0762H2151.06V60.0762H2156.06V55.0762ZM2163.31 53.6846L2166.11 57.8219L2166.13 57.8114L2166.15 57.8006L2163.31 53.6846ZM2163.38 30.4668L2160.06 34.2038L2160.09 34.2338L2160.13 34.2631L2163.38 30.4668ZM2125.22 8.4209V13.4209H2147.05V8.4209V3.4209H2125.22V8.4209ZM2147.05 8.4209V13.4209C2161.66 13.4209 2170.97 13.9994 2175.49 14.9897L2176.56 10.1055L2177.63 5.22127C2171.9 3.96548 2161.54 3.4209 2147.05 3.4209V8.4209ZM2176.56 10.1055L2175.5 14.9918C2179.36 15.8277 2182.5 17.9252 2185.05 21.6008L2189.16 18.748L2193.27 15.8953C2189.38 10.2936 2184.12 6.62933 2177.62 5.21917L2176.56 10.1055ZM2189.16 18.748L2185.09 21.6501C2187.44 24.9501 2189.07 31.0039 2189.07 40.7939H2194.07H2199.07C2199.07 30.3692 2197.42 21.7256 2193.23 15.846L2189.16 18.748ZM2194.07 40.7939H2189.07C2189.07 45.2294 2188.79 48.7588 2188.29 51.4565C2187.78 54.2225 2187.1 55.7389 2186.57 56.4677L2190.63 59.3975L2194.68 62.3272C2196.45 59.8822 2197.49 56.7111 2198.12 53.276C2198.77 49.7724 2199.07 45.587 2199.07 40.7939H2194.07ZM2190.63 59.3975L2186.57 56.4677C2185.57 57.8575 2182.9 59.5393 2176.61 60.1324L2177.08 65.1104L2177.55 70.0883C2184.73 69.4119 2191.09 67.2851 2194.68 62.3272L2190.63 59.3975ZM2177.08 65.1104L2175.87 69.9633C2181.74 71.4194 2184.5 73.1293 2185.53 74.3758L2189.38 71.1895L2193.23 68.0031C2190.07 64.1715 2184.62 61.8287 2178.28 60.2574L2177.08 65.1104ZM2189.38 71.1895L2185.53 74.3758C2187.36 76.5858 2188.14 78.2278 2188.39 79.3288L2193.26 78.2207L2198.14 77.1126C2197.41 73.9167 2195.61 70.8713 2193.23 68.0031L2189.38 71.1895ZM2193.26 78.2207L2188.42 79.4599C2188.54 79.944 2188.74 81.4379 2188.87 84.4015C2189 87.2098 2189.07 90.9755 2189.07 95.7256H2194.07H2199.07C2199.07 90.9054 2199 86.9684 2198.86 83.9417C2198.73 81.0704 2198.52 78.597 2198.11 76.9815L2193.26 78.2207ZM2194.07 95.7256H2189.07V127H2194.07H2199.07V95.7256H2194.07ZM2194.07 127V122H2165.43V127V132H2194.07V127ZM2165.43 127H2170.43V87.5957H2165.43H2160.43V127H2165.43ZM2165.43 87.5957H2170.43C2170.43 84.3175 2170.3 81.508 2170 79.2403C2169.74 77.2025 2169.26 74.8051 2168.03 72.9995L2163.89 75.8037L2159.75 78.608C2159.56 78.316 2159.84 78.6408 2160.09 80.5337C2160.31 82.1966 2160.43 84.5262 2160.43 87.5957H2165.43ZM2163.89 75.8037L2168.09 73.0931C2166.69 70.9157 2164.49 69.8471 2162.59 69.2983C2160.65 68.737 2158.42 68.5332 2156.06 68.5332V73.5332V78.5332C2157.94 78.5332 2159.13 78.7078 2159.81 78.9033C2160.53 79.1114 2160.12 79.178 2159.69 78.5143L2163.89 75.8037ZM2156.06 73.5332H2151.06V127H2156.06H2161.06V73.5332H2156.06ZM2156.06 127V122H2125.22V127V132H2156.06V127ZM2125.22 127H2130.22V8.4209H2125.22H2120.22V127H2125.22ZM2156.06 28.709H2151.06V55.0762H2156.06H2161.06V28.709H2156.06ZM2156.06 55.0762V60.0762C2159.63 60.0762 2163.4 59.6609 2166.11 57.8219L2163.31 53.6846L2160.5 49.5472C2160.58 49.4897 2160.36 49.657 2159.53 49.8179C2158.73 49.9716 2157.59 50.0762 2156.06 50.0762V55.0762ZM2163.31 53.6846L2166.15 57.8006C2168.46 56.203 2169.35 53.5875 2169.77 51.7398C2170.25 49.6669 2170.43 47.1635 2170.43 44.3828H2165.43H2160.43C2160.43 46.8268 2160.26 48.4859 2160.03 49.5136C2159.97 49.7554 2159.92 49.9349 2159.87 50.0616C2159.83 50.1895 2159.8 50.244 2159.8 50.2438C2159.8 50.2424 2159.81 50.223 2159.83 50.1896C2159.86 50.1561 2159.89 50.1059 2159.94 50.0441C2160.04 49.92 2160.21 49.7437 2160.47 49.5685L2163.31 53.6846ZM2165.43 44.3828H2170.43V37.8643H2165.43H2160.43V44.3828H2165.43ZM2165.43 37.8643H2170.43C2170.43 35.7234 2170.24 33.6789 2169.74 31.8593C2169.24 30.0554 2168.33 28.1222 2166.63 26.6705L2163.38 30.4668L2160.13 34.2631C2159.8 33.9832 2159.92 33.8689 2160.1 34.5308C2160.28 35.1771 2160.43 36.2453 2160.43 37.8643H2165.43ZM2163.38 30.4668L2166.7 26.7298C2163.9 24.2421 2159.78 23.709 2156.06 23.709V28.709V33.709C2157.59 33.709 2158.68 33.8385 2159.39 34.0104C2160.13 34.1876 2160.22 34.3467 2160.06 34.2038L2163.38 30.4668ZM2206.08 8.4209V3.4209H2201.08V8.4209H2206.08ZM2257.42 10.1055L2256.35 14.9897L2256.36 14.9918L2257.42 10.1055ZM2270.02 18.748L2265.91 21.6008L2265.93 21.6256L2265.95 21.6501L2270.02 18.748ZM2257.94 65.1104L2257.47 60.1324L2256.73 69.9633L2257.94 65.1104ZM2274.12 78.2207L2269.25 79.3288L2269.26 79.3946L2269.28 79.4599L2274.12 78.2207ZM2274.93 127V132H2279.93V127H2274.93ZM2246.29 127H2241.29V132H2246.29V127ZM2244.75 75.8037L2240.55 78.5143L2240.58 78.5615L2240.61 78.608L2244.75 75.8037ZM2236.92 73.5332V68.5332H2231.92V73.5332H2236.92ZM2236.92 127V132H2241.92V127H2236.92ZM2206.08 127H2201.08V132H2206.08V127ZM2236.92 28.709V23.709H2231.92V28.709H2236.92ZM2236.92 55.0762H2231.92V60.0762H2236.92V55.0762ZM2244.17 53.6846L2246.97 57.8219L2246.99 57.8114L2247 57.8006L2244.17 53.6846ZM2244.24 30.4668L2240.92 34.2038L2240.95 34.2338L2240.99 34.2631L2244.24 30.4668ZM2206.08 8.4209V13.4209H2227.91V8.4209V3.4209H2206.08V8.4209ZM2227.91 8.4209V13.4209C2242.52 13.4209 2251.83 13.9994 2256.35 14.9897L2257.42 10.1055L2258.49 5.22127C2252.76 3.96548 2242.4 3.4209 2227.91 3.4209V8.4209ZM2257.42 10.1055L2256.36 14.9918C2260.22 15.8277 2263.36 17.9252 2265.91 21.6008L2270.02 18.748L2274.13 15.8953C2270.24 10.2936 2264.98 6.62933 2258.48 5.21917L2257.42 10.1055ZM2270.02 18.748L2265.95 21.6501C2268.3 24.9501 2269.93 31.0039 2269.93 40.7939H2274.93H2279.93C2279.93 30.3692 2278.28 21.7256 2274.09 15.846L2270.02 18.748ZM2274.93 40.7939H2269.93C2269.93 45.2294 2269.65 48.7588 2269.15 51.4565C2268.64 54.2225 2267.96 55.7389 2267.43 56.4677L2271.49 59.3975L2275.54 62.3272C2277.3 59.8822 2278.35 56.7111 2278.98 53.276C2279.63 49.7724 2279.93 45.587 2279.93 40.7939H2274.93ZM2271.49 59.3975L2267.43 56.4677C2266.43 57.8575 2263.76 59.5393 2257.47 60.1324L2257.94 65.1104L2258.4 70.0883C2265.59 69.4119 2271.95 67.2851 2275.54 62.3272L2271.49 59.3975ZM2257.94 65.1104L2256.73 69.9633C2262.6 71.4194 2265.36 73.1293 2266.39 74.3758L2270.24 71.1895L2274.09 68.0031C2270.92 64.1715 2265.47 61.8287 2259.14 60.2574L2257.94 65.1104ZM2270.24 71.1895L2266.39 74.3758C2268.21 76.5858 2269 78.2278 2269.25 79.3288L2274.12 78.2207L2279 77.1126C2278.27 73.9167 2276.47 70.8713 2274.09 68.0031L2270.24 71.1895ZM2274.12 78.2207L2269.28 79.4599C2269.4 79.944 2269.6 81.4379 2269.73 84.4015C2269.86 87.2098 2269.93 90.9755 2269.93 95.7256H2274.93H2279.93C2279.93 90.9054 2279.86 86.9684 2279.72 83.9417C2279.59 81.0704 2279.38 78.597 2278.97 76.9815L2274.12 78.2207ZM2274.93 95.7256H2269.93V127H2274.93H2279.93V95.7256H2274.93ZM2274.93 127V122H2246.29V127V132H2274.93V127ZM2246.29 127H2251.29V87.5957H2246.29H2241.29V127H2246.29ZM2246.29 87.5957H2251.29C2251.29 84.3175 2251.16 81.508 2250.86 79.2403C2250.6 77.2025 2250.11 74.8051 2248.89 72.9995L2244.75 75.8037L2240.61 78.608C2240.41 78.316 2240.7 78.6408 2240.95 80.5337C2241.16 82.1966 2241.29 84.5262 2241.29 87.5957H2246.29ZM2244.75 75.8037L2248.95 73.0931C2247.55 70.9157 2245.35 69.8471 2243.45 69.2983C2241.51 68.737 2239.28 68.5332 2236.92 68.5332V73.5332V78.5332C2238.8 78.5332 2239.99 78.7078 2240.67 78.9033C2241.39 79.1114 2240.98 79.178 2240.55 78.5143L2244.75 75.8037ZM2236.92 73.5332H2231.92V127H2236.92H2241.92V73.5332H2236.92ZM2236.92 127V122H2206.08V127V132H2236.92V127ZM2206.08 127H2211.08V8.4209H2206.08H2201.08V127H2206.08ZM2236.92 28.709H2231.92V55.0762H2236.92H2241.92V28.709H2236.92ZM2236.92 55.0762V60.0762C2240.49 60.0762 2244.26 59.6609 2246.97 57.8219L2244.17 53.6846L2241.36 49.5472C2241.44 49.4897 2241.22 49.657 2240.39 49.8179C2239.58 49.9716 2238.45 50.0762 2236.92 50.0762V55.0762ZM2244.17 53.6846L2247 57.8006C2249.32 56.203 2250.21 53.5875 2250.63 51.7398C2251.11 49.6669 2251.29 47.1635 2251.29 44.3828H2246.29H2241.29C2241.29 46.8268 2241.12 48.4859 2240.88 49.5136C2240.83 49.7554 2240.78 49.9349 2240.73 50.0616C2240.69 50.1895 2240.66 50.244 2240.66 50.2438C2240.66 50.2424 2240.67 50.223 2240.69 50.1896C2240.72 50.1561 2240.75 50.1059 2240.8 50.0441C2240.9 49.92 2241.07 49.7437 2241.33 49.5685L2244.17 53.6846ZM2246.29 44.3828H2251.29V37.8643H2246.29H2241.29V44.3828H2246.29ZM2246.29 37.8643H2251.29C2251.29 35.7234 2251.1 33.6789 2250.6 31.8593C2250.1 30.0554 2249.19 28.1222 2247.49 26.6705L2244.24 30.4668L2240.99 34.2631C2240.66 33.9832 2240.78 33.8689 2240.96 34.5308C2241.14 35.1771 2241.29 36.2453 2241.29 37.8643H2246.29ZM2244.24 30.4668L2247.56 26.7298C2244.76 24.2421 2240.64 23.709 2236.92 23.709V28.709V33.709C2238.45 33.709 2239.54 33.8385 2240.25 34.0104C2240.99 34.1876 2241.08 34.3467 2240.92 34.2038L2244.24 30.4668ZM2352.64 8.4209L2357.43 9.84529L2359.34 3.4209H2352.64V8.4209ZM2330.15 84.0801L2325.36 82.6557L2325.15 83.3528V84.0801H2330.15ZM2330.15 127V132H2335.15V127H2330.15ZM2301.59 127H2296.59V132H2301.59V127ZM2301.59 84.0801H2306.59V83.3778L2306.39 82.7028L2301.59 84.0801ZM2279.91 8.4209V3.4209H2273.27L2275.1 9.79819L2279.91 8.4209ZM2308.25 8.4209L2313.16 7.47628L2312.38 3.4209H2308.25V8.4209ZM2315.72 55.0762L2310.73 55.4108L2320.68 55.7458L2315.72 55.0762ZM2324.29 8.4209V3.4209H2320.26L2319.41 7.3609L2324.29 8.4209ZM2352.64 8.4209L2347.84 6.99651L2325.36 82.6557L2330.15 84.0801L2334.95 85.5045L2357.43 9.84529L2352.64 8.4209ZM2330.15 84.0801H2325.15V127H2330.15H2335.15V84.0801H2330.15ZM2330.15 127V122H2301.59V127V132H2330.15V127ZM2301.59 127H2306.59V84.0801H2301.59H2296.59V127H2301.59ZM2301.59 84.0801L2306.39 82.7028L2284.71 7.04361L2279.91 8.4209L2275.1 9.79819L2296.78 85.4574L2301.59 84.0801ZM2279.91 8.4209V13.4209H2308.25V8.4209V3.4209H2279.91V8.4209ZM2308.25 8.4209L2303.34 9.36552C2307.8 32.5068 2310.22 47.7599 2310.73 55.4108L2315.72 55.0762L2320.71 54.7416C2320.15 46.3769 2317.6 30.5264 2313.16 7.47628L2308.25 8.4209ZM2315.72 55.0762L2320.68 55.7458C2322.36 43.2761 2325.19 27.8637 2329.18 9.4809L2324.29 8.4209L2319.41 7.3609C2315.39 25.8922 2312.5 41.5833 2310.77 54.4066L2315.72 55.0762ZM2324.29 8.4209V13.4209H2352.64V8.4209V3.4209H2324.29V8.4209Z" fill="url(#paint0_linear_2026_392)" fill-opacity="0.8" mask="url(#path-1-outside-1_2026_392)"/>
<defs>
<linearGradient id="paint0_linear_2026_392" x1="1128.5" y1="175" x2="1128.5" y2="-47" gradientUnits="userSpaceOnUse">
<stop/>
<stop offset="1" stop-color="#DEDEDE"/>
</linearGradient>
</defs>
</svg>
