<svg width="2313" height="132" viewBox="0 0 2313 132" fill="none" xmlns="http://www.w3.org/2000/svg">
<mask id="path-1-outside-1_2026_391" maskUnits="userSpaceOnUse" x="0" y="0" width="2313" height="132" fill="black">
<rect fill="white" width="2313" height="132"/>
<path d="M5.15234 5.4209H36.207C44.6055 5.4209 51.0508 6.08008 55.543 7.39844C60.084 8.7168 63.4775 10.6211 65.7236 13.1113C68.0186 15.6016 69.5566 18.6289 70.3379 22.1934C71.168 25.709 71.583 31.1777 71.583 38.5996V48.9268C71.583 56.4951 70.8018 62.0127 69.2393 65.4795C67.6768 68.9463 64.7959 71.6074 60.5967 73.4629C56.4463 75.3184 51.002 76.2461 44.2637 76.2461H35.9873V124H5.15234V5.4209ZM35.9873 25.709V55.8848C36.8662 55.9336 37.623 55.958 38.2578 55.958C41.0898 55.958 43.043 55.2744 44.1172 53.9072C45.2402 52.4912 45.8018 49.5859 45.8018 45.1914V35.4502C45.8018 31.3975 45.167 28.7607 43.8975 27.54C42.6279 26.3193 39.9912 25.709 35.9873 25.709ZM80.4453 5.4209H102.271C116.822 5.4209 126.661 5.98242 131.788 7.10547C136.964 8.22852 141.163 11.1094 144.386 15.748C147.657 20.3379 149.293 27.6865 149.293 37.7939C149.293 47.0225 148.146 53.2236 145.851 56.3975C143.556 59.5713 139.039 61.4756 132.301 62.1104C138.404 63.624 142.506 65.6504 144.605 68.1895C146.705 70.7285 147.999 73.0723 148.487 75.2207C149.024 77.3203 149.293 83.1553 149.293 92.7256V124H120.655V84.5957C120.655 78.248 120.143 74.3174 119.117 72.8037C118.141 71.29 115.528 70.5332 111.28 70.5332V124H80.4453V5.4209ZM111.28 25.709V52.0762C114.747 52.0762 117.164 51.6123 118.531 50.6846C119.947 49.708 120.655 46.6074 120.655 41.3828V34.8643C120.655 31.1045 119.972 28.6387 118.604 27.4668C117.286 26.2949 114.845 25.709 111.28 25.709ZM161.305 5.4209H212.721V29.1514H192.14V51.6367H211.402V74.1953H192.14V100.27H214.771V124H161.305V5.4209ZM318.849 5.4209V124H291.896V43.9463L281.129 124H262.013L250.66 45.7773V124H223.707V5.4209H263.624C264.796 12.5498 266.041 20.9482 267.359 30.6162L271.607 60.792L278.639 5.4209H318.849ZM362.062 5.4209V124H331.227V5.4209H362.062ZM444.532 5.4209V84.6689C444.532 93.6533 444.239 99.9766 443.653 103.639C443.067 107.252 441.334 110.987 438.453 114.845C435.572 118.653 431.764 121.559 427.027 123.561C422.34 125.514 416.798 126.49 410.401 126.49C403.321 126.49 397.071 125.318 391.651 122.975C386.231 120.631 382.179 117.579 379.493 113.819C376.808 110.06 375.221 106.104 374.732 101.954C374.244 97.7549 374 88.9658 374 75.5869V5.4209H404.835V94.3369C404.835 99.5127 405.104 102.833 405.641 104.298C406.227 105.714 407.374 106.422 409.083 106.422C411.036 106.422 412.281 105.641 412.818 104.078C413.404 102.467 413.697 98.707 413.697 92.7988V5.4209H444.532ZM551.612 5.4209V124H524.659V43.9463L513.893 124H494.776L483.424 45.7773V124H456.471V5.4209H496.388C497.56 12.5498 498.805 20.9482 500.123 30.6162L504.371 60.792L511.402 5.4209H551.612ZM590.504 5.4209H621.559C629.957 5.4209 636.402 6.08008 640.895 7.39844C645.436 8.7168 648.829 10.6211 651.075 13.1113C653.37 15.6016 654.908 18.6289 655.689 22.1934C656.52 25.709 656.935 31.1777 656.935 38.5996V48.9268C656.935 56.4951 656.153 62.0127 654.591 65.4795C653.028 68.9463 650.147 71.6074 645.948 73.4629C641.798 75.3184 636.354 76.2461 629.615 76.2461H621.339V124H590.504V5.4209ZM621.339 25.709V55.8848C622.218 55.9336 622.975 55.958 623.609 55.958C626.441 55.958 628.395 55.2744 629.469 53.9072C630.592 52.4912 631.153 49.5859 631.153 45.1914V35.4502C631.153 31.3975 630.519 28.7607 629.249 27.54C627.979 26.3193 625.343 25.709 621.339 25.709ZM665.797 5.4209H687.623C702.174 5.4209 712.013 5.98242 717.14 7.10547C722.315 8.22852 726.515 11.1094 729.737 15.748C733.009 20.3379 734.645 27.6865 734.645 37.7939C734.645 47.0225 733.497 53.2236 731.202 56.3975C728.907 59.5713 724.391 61.4756 717.652 62.1104C723.756 63.624 727.857 65.6504 729.957 68.1895C732.057 70.7285 733.351 73.0723 733.839 75.2207C734.376 77.3203 734.645 83.1553 734.645 92.7256V124H706.007V84.5957C706.007 78.248 705.494 74.3174 704.469 72.8037C703.492 71.29 700.88 70.5332 696.632 70.5332V124H665.797V5.4209ZM696.632 25.709V52.0762C700.099 52.0762 702.516 51.6123 703.883 50.6846C705.299 49.708 706.007 46.6074 706.007 41.3828V34.8643C706.007 31.1045 705.323 28.6387 703.956 27.4668C702.638 26.2949 700.196 25.709 696.632 25.709ZM746.656 5.4209H798.072V29.1514H777.491V51.6367H796.754V74.1953H777.491V100.27H800.123V124H746.656V5.4209ZM904.2 5.4209V124H877.247V43.9463L866.48 124H847.364L836.012 45.7773V124H809.059V5.4209H848.976C850.147 12.5498 851.393 20.9482 852.711 30.6162L856.959 60.792L863.99 5.4209H904.2ZM947.413 5.4209V124H916.578V5.4209H947.413ZM1029.88 5.4209V84.6689C1029.88 93.6533 1029.59 99.9766 1029 103.639C1028.42 107.252 1026.69 110.987 1023.8 114.845C1020.92 118.653 1017.12 121.559 1012.38 123.561C1007.69 125.514 1002.15 126.49 995.753 126.49C988.673 126.49 982.423 125.318 977.003 122.975C971.583 120.631 967.53 117.579 964.845 113.819C962.159 110.06 960.572 106.104 960.084 101.954C959.596 97.7549 959.352 88.9658 959.352 75.5869V5.4209H990.187V94.3369C990.187 99.5127 990.455 102.833 990.992 104.298C991.578 105.714 992.726 106.422 994.435 106.422C996.388 106.422 997.633 105.641 998.17 104.078C998.756 102.467 999.049 98.707 999.049 92.7988V5.4209H1029.88ZM1136.96 5.4209V124H1110.01V43.9463L1099.24 124H1080.13L1068.78 45.7773V124H1041.82V5.4209H1081.74C1082.91 12.5498 1084.16 20.9482 1085.47 30.6162L1089.72 60.792L1096.75 5.4209H1136.96ZM1175.86 5.4209H1206.91C1215.31 5.4209 1221.75 6.08008 1226.25 7.39844C1230.79 8.7168 1234.18 10.6211 1236.43 13.1113C1238.72 15.6016 1240.26 18.6289 1241.04 22.1934C1241.87 25.709 1242.29 31.1777 1242.29 38.5996V48.9268C1242.29 56.4951 1241.5 62.0127 1239.94 65.4795C1238.38 68.9463 1235.5 71.6074 1231.3 73.4629C1227.15 75.3184 1221.71 76.2461 1214.97 76.2461H1206.69V124H1175.86V5.4209ZM1206.69 25.709V55.8848C1207.57 55.9336 1208.33 55.958 1208.96 55.958C1211.79 55.958 1213.75 55.2744 1214.82 53.9072C1215.94 52.4912 1216.5 49.5859 1216.5 45.1914V35.4502C1216.5 31.3975 1215.87 28.7607 1214.6 27.54C1213.33 26.3193 1210.69 25.709 1206.69 25.709ZM1251.15 5.4209H1272.97C1287.53 5.4209 1297.36 5.98242 1302.49 7.10547C1307.67 8.22852 1311.87 11.1094 1315.09 15.748C1318.36 20.3379 1320 27.6865 1320 37.7939C1320 47.0225 1318.85 53.2236 1316.55 56.3975C1314.26 59.5713 1309.74 61.4756 1303 62.1104C1309.11 63.624 1313.21 65.6504 1315.31 68.1895C1317.41 70.7285 1318.7 73.0723 1319.19 75.2207C1319.73 77.3203 1320 83.1553 1320 92.7256V124H1291.36V84.5957C1291.36 78.248 1290.85 74.3174 1289.82 72.8037C1288.84 71.29 1286.23 70.5332 1281.98 70.5332V124H1251.15V5.4209ZM1281.98 25.709V52.0762C1285.45 52.0762 1287.87 51.6123 1289.23 50.6846C1290.65 49.708 1291.36 46.6074 1291.36 41.3828V34.8643C1291.36 31.1045 1290.67 28.6387 1289.31 27.4668C1287.99 26.2949 1285.55 25.709 1281.98 25.709ZM1332.01 5.4209H1383.42V29.1514H1362.84V51.6367H1382.11V74.1953H1362.84V100.27H1385.47V124H1332.01V5.4209ZM1489.55 5.4209V124H1462.6V43.9463L1451.83 124H1432.72L1421.36 45.7773V124H1394.41V5.4209H1434.33C1435.5 12.5498 1436.74 20.9482 1438.06 30.6162L1442.31 60.792L1449.34 5.4209H1489.55ZM1532.76 5.4209V124H1501.93V5.4209H1532.76ZM1615.24 5.4209V84.6689C1615.24 93.6533 1614.94 99.9766 1614.36 103.639C1613.77 107.252 1612.04 110.987 1609.16 114.845C1606.28 118.653 1602.47 121.559 1597.73 123.561C1593.04 125.514 1587.5 126.49 1581.1 126.49C1574.02 126.49 1567.77 125.318 1562.35 122.975C1556.93 120.631 1552.88 117.579 1550.2 113.819C1547.51 110.06 1545.92 106.104 1545.44 101.954C1544.95 97.7549 1544.7 88.9658 1544.7 75.5869V5.4209H1575.54V94.3369C1575.54 99.5127 1575.81 102.833 1576.34 104.298C1576.93 105.714 1578.08 106.422 1579.79 106.422C1581.74 106.422 1582.98 105.641 1583.52 104.078C1584.11 102.467 1584.4 98.707 1584.4 92.7988V5.4209H1615.24ZM1722.32 5.4209V124H1695.36V43.9463L1684.6 124H1665.48L1654.13 45.7773V124H1627.17V5.4209H1667.09C1668.26 12.5498 1669.51 20.9482 1670.83 30.6162L1675.07 60.792L1682.11 5.4209H1722.32ZM1761.21 5.4209H1792.26C1800.66 5.4209 1807.11 6.08008 1811.6 7.39844C1816.14 8.7168 1819.53 10.6211 1821.78 13.1113C1824.07 15.6016 1825.61 18.6289 1826.39 22.1934C1827.22 25.709 1827.64 31.1777 1827.64 38.5996V48.9268C1827.64 56.4951 1826.86 62.0127 1825.29 65.4795C1823.73 68.9463 1820.85 71.6074 1816.65 73.4629C1812.5 75.3184 1807.06 76.2461 1800.32 76.2461H1792.04V124H1761.21V5.4209ZM1792.04 25.709V55.8848C1792.92 55.9336 1793.68 55.958 1794.31 55.958C1797.14 55.958 1799.1 55.2744 1800.17 53.9072C1801.29 52.4912 1801.86 49.5859 1801.86 45.1914V35.4502C1801.86 31.3975 1801.22 28.7607 1799.95 27.54C1798.68 26.3193 1796.05 25.709 1792.04 25.709ZM1836.5 5.4209H1858.33C1872.88 5.4209 1882.72 5.98242 1887.84 7.10547C1893.02 8.22852 1897.22 11.1094 1900.44 15.748C1903.71 20.3379 1905.35 27.6865 1905.35 37.7939C1905.35 47.0225 1904.2 53.2236 1901.91 56.3975C1899.61 59.5713 1895.09 61.4756 1888.36 62.1104C1894.46 63.624 1898.56 65.6504 1900.66 68.1895C1902.76 70.7285 1904.05 73.0723 1904.54 75.2207C1905.08 77.3203 1905.35 83.1553 1905.35 92.7256V124H1876.71V84.5957C1876.71 78.248 1876.2 74.3174 1875.17 72.8037C1874.2 71.29 1871.58 70.5332 1867.33 70.5332V124H1836.5V5.4209ZM1867.33 25.709V52.0762C1870.8 52.0762 1873.22 51.6123 1874.59 50.6846C1876 49.708 1876.71 46.6074 1876.71 41.3828V34.8643C1876.71 31.1045 1876.03 28.6387 1874.66 27.4668C1873.34 26.2949 1870.9 25.709 1867.33 25.709ZM1917.36 5.4209H1968.78V29.1514H1948.19V51.6367H1967.46V74.1953H1948.19V100.27H1970.83V124H1917.36V5.4209ZM2074.9 5.4209V124H2047.95V43.9463L2037.18 124H2018.07L2006.71 45.7773V124H1979.76V5.4209H2019.68C2020.85 12.5498 2022.1 20.9482 2023.41 30.6162L2027.66 60.792L2034.69 5.4209H2074.9ZM2118.12 5.4209V124H2087.28V5.4209H2118.12ZM2200.59 5.4209V84.6689C2200.59 93.6533 2200.29 99.9766 2199.71 103.639C2199.12 107.252 2197.39 110.987 2194.51 114.845C2191.63 118.653 2187.82 121.559 2183.08 123.561C2178.39 125.514 2172.85 126.49 2166.46 126.49C2159.38 126.49 2153.13 125.318 2147.71 122.975C2142.29 120.631 2138.23 117.579 2135.55 113.819C2132.86 110.06 2131.28 106.104 2130.79 101.954C2130.3 97.7549 2130.05 88.9658 2130.05 75.5869V5.4209H2160.89V94.3369C2160.89 99.5127 2161.16 102.833 2161.7 104.298C2162.28 105.714 2163.43 106.422 2165.14 106.422C2167.09 106.422 2168.34 105.641 2168.87 104.078C2169.46 102.467 2169.75 98.707 2169.75 92.7988V5.4209H2200.59ZM2307.67 5.4209V124H2280.71V43.9463L2269.95 124H2250.83L2239.48 45.7773V124H2212.53V5.4209H2252.44C2253.61 12.5498 2254.86 20.9482 2256.18 30.6162L2260.43 60.792L2267.46 5.4209H2307.67Z"/>
</mask>
<path d="M5.15234 5.4209V0.420898H0.152344V5.4209H5.15234ZM55.543 7.39844L54.135 12.1961L54.1419 12.1981L54.1489 12.2002L55.543 7.39844ZM65.7236 13.1113L62.0108 16.4602L62.0287 16.48L62.0469 16.4997L65.7236 13.1113ZM70.3379 22.1934L65.4538 23.2638L65.4624 23.3032L65.4717 23.3423L70.3379 22.1934ZM60.5967 73.4629L58.5759 68.8895L58.5659 68.8938L58.556 68.8983L60.5967 73.4629ZM35.9873 76.2461V71.2461H30.9873V76.2461H35.9873ZM35.9873 124V129H40.9873V124H35.9873ZM5.15234 124H0.152344V129H5.15234V124ZM35.9873 25.709V20.709H30.9873V25.709H35.9873ZM35.9873 55.8848H30.9873V60.6147L35.71 60.8771L35.9873 55.8848ZM44.1172 53.9072L40.1997 50.8003L40.1926 50.8092L40.1856 50.8181L44.1172 53.9072ZM5.15234 5.4209V10.4209H36.207V5.4209V0.420898H5.15234V5.4209ZM36.207 5.4209V10.4209C44.4427 10.4209 50.3263 11.0783 54.135 12.1961L55.543 7.39844L56.951 2.60078C51.7753 1.08182 44.7682 0.420898 36.207 0.420898V5.4209ZM55.543 7.39844L54.1489 12.2002C58.1461 13.3606 60.5928 14.8881 62.0108 16.4602L65.7236 13.1113L69.4365 9.76248C66.3622 6.35409 62.0219 4.07296 56.937 2.59671L55.543 7.39844ZM65.7236 13.1113L62.0469 16.4997C63.6945 18.2877 64.8472 20.4959 65.4538 23.2638L70.3379 22.1934L75.222 21.1229C74.2661 16.7619 72.3426 12.9155 69.4004 9.72292L65.7236 13.1113ZM70.3379 22.1934L65.4717 23.3423C66.1616 26.2643 66.583 31.2484 66.583 38.5996H71.583H76.583C76.583 31.107 76.1743 25.1537 75.2041 21.0444L70.3379 22.1934ZM71.583 38.5996H66.583V48.9268H71.583H76.583V38.5996H71.583ZM71.583 48.9268H66.583C66.583 56.351 65.7862 60.9724 64.6809 63.425L69.2393 65.4795L73.7977 67.534C75.8173 63.053 76.583 56.6393 76.583 48.9268H71.583ZM69.2393 65.4795L64.6809 63.425C63.7253 65.5452 61.8933 67.4236 58.5759 68.8895L60.5967 73.4629L62.6175 78.0363C67.6985 75.7912 71.6282 72.3474 73.7977 67.534L69.2393 65.4795ZM60.5967 73.4629L58.556 68.8983C55.2803 70.3627 50.6084 71.2461 44.2637 71.2461V76.2461V81.2461C51.3955 81.2461 57.6122 80.274 62.6373 78.0275L60.5967 73.4629ZM44.2637 76.2461V71.2461H35.9873V76.2461V81.2461H44.2637V76.2461ZM35.9873 76.2461H30.9873V124H35.9873H40.9873V76.2461H35.9873ZM35.9873 124V119H5.15234V124V129H35.9873V124ZM5.15234 124H10.1523V5.4209H5.15234H0.152344V124H5.15234ZM35.9873 25.709H30.9873V55.8848H35.9873H40.9873V25.709H35.9873ZM35.9873 55.8848L35.71 60.8771C36.6488 60.9292 37.503 60.958 38.2578 60.958V55.958V50.958C37.7431 50.958 37.0836 50.938 36.2647 50.8925L35.9873 55.8848ZM38.2578 55.958V60.958C41.6661 60.958 45.5608 60.1628 48.0488 56.9963L44.1172 53.9072L40.1856 50.8181C40.3415 50.6197 40.445 50.6385 40.1949 50.726C39.9049 50.8275 39.3041 50.958 38.2578 50.958V55.958ZM44.1172 53.9072L48.0347 57.0142C49.3165 55.398 49.9427 53.4109 50.2898 51.6151C50.6524 49.7389 50.8018 47.5697 50.8018 45.1914H45.8018H40.8018C40.8018 47.2076 40.6704 48.6884 40.4715 49.7174C40.257 50.8269 40.041 51.0004 40.1997 50.8003L44.1172 53.9072ZM45.8018 45.1914H50.8018V35.4502H45.8018H40.8018V45.1914H45.8018ZM45.8018 35.4502H50.8018C50.8018 33.2031 50.6297 31.1027 50.1868 29.2628C49.7576 27.4798 48.9632 25.4745 47.363 23.9359L43.8975 27.54L40.4319 31.1442C40.1012 30.8262 40.259 30.7497 40.4646 31.6034C40.6564 32.4002 40.8018 33.6445 40.8018 35.4502H45.8018ZM43.8975 27.54L47.363 23.9359C45.8178 22.4501 43.8591 21.7038 42.0954 21.2956C40.2769 20.8746 38.2063 20.709 35.9873 20.709V25.709V30.709C37.7722 30.709 39.022 30.8485 39.8402 31.0379C40.7132 31.24 40.7076 31.4092 40.4319 31.1442L43.8975 27.54ZM80.4453 5.4209V0.420898H75.4453V5.4209H80.4453ZM131.788 7.10547L130.718 11.9897L130.728 11.9918L131.788 7.10547ZM144.386 15.748L140.279 18.6008L140.297 18.6256L140.314 18.6501L144.386 15.748ZM132.301 62.1104L131.832 57.1324L131.097 66.9633L132.301 62.1104ZM148.487 75.2207L143.612 76.3288L143.627 76.3946L143.643 76.4599L148.487 75.2207ZM149.293 124V129H154.293V124H149.293ZM120.655 124H115.655V129H120.655V124ZM119.117 72.8037L114.916 75.5143L114.946 75.5615L114.978 75.608L119.117 72.8037ZM111.28 70.5332V65.5332H106.28V70.5332H111.28ZM111.28 124V129H116.28V124H111.28ZM80.4453 124H75.4453V129H80.4453V124ZM111.28 25.709V20.709H106.28V25.709H111.28ZM111.28 52.0762H106.28V57.0762H111.28V52.0762ZM118.531 50.6846L121.339 54.8219L121.354 54.8114L121.37 54.8006L118.531 50.6846ZM118.604 27.4668L115.283 31.2038L115.316 31.2338L115.351 31.2631L118.604 27.4668ZM80.4453 5.4209V10.4209H102.271V5.4209V0.420898H80.4453V5.4209ZM102.271 5.4209V10.4209C116.883 10.4209 126.197 10.9994 130.718 11.9897L131.788 7.10547L132.858 2.22127C127.125 0.965483 116.761 0.420898 102.271 0.420898V5.4209ZM131.788 7.10547L130.728 11.9918C134.58 12.8277 137.726 14.9252 140.279 18.6008L144.386 15.748L148.492 12.8953C144.6 7.29358 139.347 3.62933 132.848 2.21917L131.788 7.10547ZM144.386 15.748L140.314 18.6501C142.666 21.9501 144.293 28.0039 144.293 37.7939H149.293H154.293C154.293 27.3692 152.648 18.7256 148.457 12.846L144.386 15.748ZM149.293 37.7939H144.293C144.293 42.2294 144.015 45.7588 143.516 48.4565C143.004 51.2225 142.326 52.7389 141.799 53.4677L145.851 56.3975L149.902 59.3272C151.67 56.8822 152.713 53.7111 153.349 50.276C153.997 46.7724 154.293 42.587 154.293 37.7939H149.293ZM145.851 56.3975L141.799 53.4677C140.794 54.8575 138.128 56.5393 131.832 57.1324L132.301 62.1104L132.77 67.0883C139.95 66.4119 146.317 64.2851 149.902 59.3272L145.851 56.3975ZM132.301 62.1104L131.097 66.9633C136.968 68.4194 139.721 70.1293 140.752 71.3758L144.605 68.1895L148.459 65.0031C145.29 61.1715 139.84 58.8287 133.504 57.2574L132.301 62.1104ZM144.605 68.1895L140.752 71.3758C142.58 73.5858 143.361 75.2278 143.612 76.3288L148.487 75.2207L153.363 74.1126C152.637 70.9167 150.83 67.8713 148.459 65.0031L144.605 68.1895ZM148.487 75.2207L143.643 76.4599C143.767 76.944 143.96 78.4379 144.097 81.4015C144.226 84.2098 144.293 87.9755 144.293 92.7256H149.293H154.293C154.293 87.9054 154.226 83.9684 154.086 80.9417C153.954 78.0704 153.745 75.597 153.331 73.9815L148.487 75.2207ZM149.293 92.7256H144.293V124H149.293H154.293V92.7256H149.293ZM149.293 124V119H120.655V124V129H149.293V124ZM120.655 124H125.655V84.5957H120.655H115.655V124H120.655ZM120.655 84.5957H125.655C125.655 81.3175 125.525 78.508 125.229 76.2403C124.963 74.2025 124.48 71.8051 123.257 69.9995L119.117 72.8037L114.978 75.608C114.78 75.316 115.066 75.6408 115.313 77.5337C115.53 79.1966 115.655 81.5262 115.655 84.5957H120.655ZM119.117 72.8037L123.319 70.0931C121.914 67.9157 119.711 66.8471 117.817 66.2983C115.879 65.737 113.643 65.5332 111.28 65.5332V70.5332V75.5332C113.166 75.5332 114.359 75.7078 115.034 75.9033C115.752 76.1114 115.344 76.178 114.916 75.5143L119.117 72.8037ZM111.28 70.5332H106.28V124H111.28H116.28V70.5332H111.28ZM111.28 124V119H80.4453V124V129H111.28V124ZM80.4453 124H85.4453V5.4209H80.4453H75.4453V124H80.4453ZM111.28 25.709H106.28V52.0762H111.28H116.28V25.709H111.28ZM111.28 52.0762V57.0762C114.86 57.0762 118.629 56.6609 121.339 54.8219L118.531 50.6846L115.724 46.5472C115.809 46.4897 115.589 46.657 114.751 46.8179C113.95 46.9716 112.815 47.0762 111.28 47.0762V52.0762ZM118.531 50.6846L121.37 54.8006C123.687 53.203 124.577 50.5875 124.999 48.7398C125.472 46.6669 125.655 44.1635 125.655 41.3828H120.655H115.655C115.655 43.8268 115.484 45.4859 115.25 46.5136C115.195 46.7554 115.142 46.9349 115.098 47.0616C115.054 47.1895 115.026 47.244 115.026 47.2438C115.027 47.2424 115.037 47.223 115.059 47.1896C115.08 47.1561 115.115 47.1059 115.166 47.0441C115.268 46.92 115.439 46.7437 115.693 46.5685L118.531 50.6846ZM120.655 41.3828H125.655V34.8643H120.655H115.655V41.3828H120.655ZM120.655 34.8643H125.655C125.655 32.7234 125.465 30.6789 124.961 28.8593C124.461 27.0554 123.552 25.1222 121.858 23.6705L118.604 27.4668L115.351 31.2631C115.024 30.9832 115.141 30.8689 115.324 31.5308C115.503 32.1771 115.655 33.2453 115.655 34.8643H120.655ZM118.604 27.4668L121.926 23.7298C119.128 21.2421 115.008 20.709 111.28 20.709V25.709V30.709C112.819 30.709 113.902 30.8385 114.618 31.0104C115.356 31.1876 115.443 31.3467 115.283 31.2038L118.604 27.4668ZM161.305 5.4209V0.420898H156.305V5.4209H161.305ZM212.721 5.4209H217.721V0.420898H212.721V5.4209ZM212.721 29.1514V34.1514H217.721V29.1514H212.721ZM192.14 29.1514V24.1514H187.14V29.1514H192.14ZM192.14 51.6367H187.14V56.6367H192.14V51.6367ZM211.402 51.6367H216.402V46.6367H211.402V51.6367ZM211.402 74.1953V79.1953H216.402V74.1953H211.402ZM192.14 74.1953V69.1953H187.14V74.1953H192.14ZM192.14 100.27H187.14V105.27H192.14V100.27ZM214.771 100.27H219.771V95.2695H214.771V100.27ZM214.771 124V129H219.771V124H214.771ZM161.305 124H156.305V129H161.305V124ZM161.305 5.4209V10.4209H212.721V5.4209V0.420898H161.305V5.4209ZM212.721 5.4209H207.721V29.1514H212.721H217.721V5.4209H212.721ZM212.721 29.1514V24.1514H192.14V29.1514V34.1514H212.721V29.1514ZM192.14 29.1514H187.14V51.6367H192.14H197.14V29.1514H192.14ZM192.14 51.6367V56.6367H211.402V51.6367V46.6367H192.14V51.6367ZM211.402 51.6367H206.402V74.1953H211.402H216.402V51.6367H211.402ZM211.402 74.1953V69.1953H192.14V74.1953V79.1953H211.402V74.1953ZM192.14 74.1953H187.14V100.27H192.14H197.14V74.1953H192.14ZM192.14 100.27V105.27H214.771V100.27V95.2695H192.14V100.27ZM214.771 100.27H209.771V124H214.771H219.771V100.27H214.771ZM214.771 124V119H161.305V124V129H214.771V124ZM161.305 124H166.305V5.4209H161.305H156.305V124H161.305ZM318.849 5.4209H323.849V0.420898H318.849V5.4209ZM318.849 124V129H323.849V124H318.849ZM291.896 124H286.896V129H291.896V124ZM291.896 43.9463H296.896L286.94 43.2798L291.896 43.9463ZM281.129 124V129H285.501L286.084 124.666L281.129 124ZM262.013 124L257.065 124.718L257.686 129H262.013V124ZM250.66 45.7773L255.608 45.0592L245.66 45.7773H250.66ZM250.66 124V129H255.66V124H250.66ZM223.707 124H218.707V129H223.707V124ZM223.707 5.4209V0.420898H218.707V5.4209H223.707ZM263.624 5.4209L268.558 4.60987L267.869 0.420898H263.624V5.4209ZM267.359 30.6162L262.405 31.2918L262.407 31.3025L262.408 31.3132L267.359 30.6162ZM271.607 60.792L266.656 61.489L276.568 61.4219L271.607 60.792ZM278.639 5.4209V0.420898H274.233L273.679 4.79104L278.639 5.4209ZM318.849 5.4209H313.849V124H318.849H323.849V5.4209H318.849ZM318.849 124V119H291.896V124V129H318.849V124ZM291.896 124H296.896V43.9463H291.896H286.896V124H291.896ZM291.896 43.9463L286.94 43.2798L276.174 123.334L281.129 124L286.084 124.666L296.851 44.6127L291.896 43.9463ZM281.129 124V119H262.013V124V129H281.129V124ZM262.013 124L266.961 123.282L255.608 45.0592L250.66 45.7773L245.712 46.4955L257.065 124.718L262.013 124ZM250.66 45.7773H245.66V124H250.66H255.66V45.7773H250.66ZM250.66 124V119H223.707V124V129H250.66V124ZM223.707 124H228.707V5.4209H223.707H218.707V124H223.707ZM223.707 5.4209V10.4209H263.624V5.4209V0.420898H223.707V5.4209ZM263.624 5.4209L258.69 6.23193C259.853 13.3033 261.091 21.6545 262.405 31.2918L267.359 30.6162L272.314 29.9406C270.991 20.2419 269.739 11.7963 268.558 4.60987L263.624 5.4209ZM267.359 30.6162L262.408 31.3132L266.656 61.489L271.607 60.792L276.559 60.095L272.311 29.9192L267.359 30.6162ZM271.607 60.792L276.568 61.4219L283.599 6.05076L278.639 5.4209L273.679 4.79104L266.647 60.1621L271.607 60.792ZM278.639 5.4209V10.4209H318.849V5.4209V0.420898H278.639V5.4209ZM362.062 5.4209H367.062V0.420898H362.062V5.4209ZM362.062 124V129H367.062V124H362.062ZM331.227 124H326.227V129H331.227V124ZM331.227 5.4209V0.420898H326.227V5.4209H331.227ZM362.062 5.4209H357.062V124H362.062H367.062V5.4209H362.062ZM362.062 124V119H331.227V124V129H362.062V124ZM331.227 124H336.227V5.4209H331.227H326.227V124H331.227ZM331.227 5.4209V10.4209H362.062V5.4209V0.420898H331.227V5.4209ZM444.532 5.4209H449.532V0.420898H444.532V5.4209ZM443.653 103.639L448.589 104.439L448.591 104.429L443.653 103.639ZM438.453 114.845L442.441 117.861L442.45 117.849L442.459 117.837L438.453 114.845ZM427.027 123.561L428.95 128.176L428.962 128.171L428.974 128.166L427.027 123.561ZM374.732 101.954L369.766 102.532L369.767 102.538L374.732 101.954ZM374 5.4209V0.420898H369V5.4209H374ZM404.835 5.4209H409.835V0.420898H404.835V5.4209ZM405.641 104.298L400.946 106.019L400.981 106.115L401.021 106.21L405.641 104.298ZM412.818 104.078L408.119 102.369L408.104 102.411L408.09 102.453L412.818 104.078ZM413.697 5.4209V0.420898H408.697V5.4209H413.697ZM444.532 5.4209H439.532V84.6689H444.532H449.532V5.4209H444.532ZM444.532 84.6689H439.532C439.532 93.6555 439.233 99.6206 438.716 102.849L443.653 103.639L448.591 104.429C449.246 100.333 449.532 93.6512 449.532 84.6689H444.532ZM443.653 103.639L438.718 102.838C438.295 105.446 436.992 108.445 434.447 111.853L438.453 114.845L442.459 117.837C445.675 113.53 447.84 109.058 448.589 104.439L443.653 103.639ZM438.453 114.845L434.465 111.828C432.154 114.884 429.073 117.268 425.081 118.955L427.027 123.561L428.974 128.166C434.454 125.85 438.99 122.423 442.441 117.861L438.453 114.845ZM427.027 123.561L425.104 118.945C421.162 120.588 416.303 121.49 410.401 121.49V126.49V131.49C417.293 131.49 423.518 130.44 428.95 128.176L427.027 123.561ZM410.401 126.49V121.49C403.871 121.49 398.318 120.41 393.636 118.385L391.651 122.975L389.667 127.564C395.825 130.227 402.772 131.49 410.401 131.49V126.49ZM391.651 122.975L393.636 118.385C388.822 116.304 385.591 113.753 383.562 110.913L379.493 113.819L375.424 116.726C378.767 121.405 383.641 124.958 389.667 127.564L391.651 122.975ZM379.493 113.819L383.562 110.913C381.313 107.765 380.078 104.597 379.698 101.37L374.732 101.954L369.767 102.538C370.364 107.612 372.302 112.354 375.424 116.726L379.493 113.819ZM374.732 101.954L379.699 101.377C379.25 97.5169 379 89.0261 379 75.5869H374H369C369 88.9055 369.238 97.9929 369.766 102.532L374.732 101.954ZM374 75.5869H379V5.4209H374H369V75.5869H374ZM374 5.4209V10.4209H404.835V5.4209V0.420898H374V5.4209ZM404.835 5.4209H399.835V94.3369H404.835H409.835V5.4209H404.835ZM404.835 94.3369H399.835C399.835 96.9946 399.903 99.2659 400.053 101.112C400.192 102.833 400.429 104.608 400.946 106.019L405.641 104.298L410.335 102.577C410.348 102.612 410.293 102.463 410.219 102.021C410.149 101.606 410.08 101.041 410.02 100.306C409.901 98.8317 409.835 96.855 409.835 94.3369H404.835ZM405.641 104.298L401.021 106.21C401.658 107.751 402.727 109.166 404.315 110.146C405.864 111.102 407.547 111.422 409.083 111.422V106.422V101.422C408.91 101.422 409.165 101.388 409.566 101.636C409.761 101.756 409.93 101.907 410.059 102.066C410.185 102.22 410.242 102.342 410.261 102.386L405.641 104.298ZM409.083 106.422V111.422C410.698 111.422 412.499 111.101 414.139 110.071C415.85 108.998 416.955 107.424 417.547 105.704L412.818 104.078L408.09 102.453C408.108 102.4 408.166 102.257 408.303 102.077C408.444 101.891 408.625 101.726 408.824 101.601C409.22 101.353 409.421 101.422 409.083 101.422V106.422ZM412.818 104.078L417.517 105.787C418.06 104.294 418.312 102.363 418.462 100.438C418.623 98.3783 418.697 95.8189 418.697 92.7988H413.697H408.697C408.697 95.6869 408.625 97.9615 408.493 99.6614C408.427 100.51 408.349 101.168 408.269 101.659C408.183 102.18 408.116 102.377 408.119 102.369L412.818 104.078ZM413.697 92.7988H418.697V5.4209H413.697H408.697V92.7988H413.697ZM413.697 5.4209V10.4209H444.532V5.4209V0.420898H413.697V5.4209ZM551.612 5.4209H556.612V0.420898H551.612V5.4209ZM551.612 124V129H556.612V124H551.612ZM524.659 124H519.659V129H524.659V124ZM524.659 43.9463H529.659L519.704 43.2798L524.659 43.9463ZM513.893 124V129H518.265L518.848 124.666L513.893 124ZM494.776 124L489.828 124.718L490.45 129H494.776V124ZM483.424 45.7773L488.372 45.0592L478.424 45.7773H483.424ZM483.424 124V129H488.424V124H483.424ZM456.471 124H451.471V129H456.471V124ZM456.471 5.4209V0.420898H451.471V5.4209H456.471ZM496.388 5.4209L501.321 4.60987L500.633 0.420898H496.388V5.4209ZM500.123 30.6162L495.169 31.2918L495.17 31.3025L495.172 31.3132L500.123 30.6162ZM504.371 60.792L499.42 61.489L509.331 61.4219L504.371 60.792ZM511.402 5.4209V0.420898H506.997L506.442 4.79104L511.402 5.4209ZM551.612 5.4209H546.612V124H551.612H556.612V5.4209H551.612ZM551.612 124V119H524.659V124V129H551.612V124ZM524.659 124H529.659V43.9463H524.659H519.659V124H524.659ZM524.659 43.9463L519.704 43.2798L508.937 123.334L513.893 124L518.848 124.666L529.615 44.6127L524.659 43.9463ZM513.893 124V119H494.776V124V129H513.893V124ZM494.776 124L499.725 123.282L488.372 45.0592L483.424 45.7773L478.476 46.4955L489.828 124.718L494.776 124ZM483.424 45.7773H478.424V124H483.424H488.424V45.7773H483.424ZM483.424 124V119H456.471V124V129H483.424V124ZM456.471 124H461.471V5.4209H456.471H451.471V124H456.471ZM456.471 5.4209V10.4209H496.388V5.4209V0.420898H456.471V5.4209ZM496.388 5.4209L491.454 6.23193C492.616 13.3033 493.855 21.6545 495.169 31.2918L500.123 30.6162L505.077 29.9406C503.755 20.2419 502.503 11.7963 501.321 4.60987L496.388 5.4209ZM500.123 30.6162L495.172 31.3132L499.42 61.489L504.371 60.792L509.322 60.095L505.074 29.9192L500.123 30.6162ZM504.371 60.792L509.331 61.4219L516.363 6.05076L511.402 5.4209L506.442 4.79104L499.411 60.1621L504.371 60.792ZM511.402 5.4209V10.4209H551.612V5.4209V0.420898H511.402V5.4209ZM590.504 5.4209V0.420898H585.504V5.4209H590.504ZM640.895 7.39844L639.487 12.1961L639.493 12.1981L639.5 12.2002L640.895 7.39844ZM651.075 13.1113L647.362 16.4602L647.38 16.48L647.398 16.4997L651.075 13.1113ZM655.689 22.1934L650.805 23.2638L650.814 23.3032L650.823 23.3423L655.689 22.1934ZM645.948 73.4629L643.927 68.8895L643.917 68.8938L643.908 68.8983L645.948 73.4629ZM621.339 76.2461V71.2461H616.339V76.2461H621.339ZM621.339 124V129H626.339V124H621.339ZM590.504 124H585.504V129H590.504V124ZM621.339 25.709V20.709H616.339V25.709H621.339ZM621.339 55.8848H616.339V60.6147L621.062 60.8771L621.339 55.8848ZM629.469 53.9072L625.551 50.8003L625.544 50.8092L625.537 50.8181L629.469 53.9072ZM590.504 5.4209V10.4209H621.559V5.4209V0.420898H590.504V5.4209ZM621.559 5.4209V10.4209C629.794 10.4209 635.678 11.0783 639.487 12.1961L640.895 7.39844L642.303 2.60078C637.127 1.08182 630.12 0.420898 621.559 0.420898V5.4209ZM640.895 7.39844L639.5 12.2002C643.498 13.3606 645.944 14.8881 647.362 16.4602L651.075 13.1113L654.788 9.76248C651.714 6.35409 647.373 4.07296 642.289 2.59671L640.895 7.39844ZM651.075 13.1113L647.398 16.4997C649.046 18.2877 650.199 20.4959 650.805 23.2638L655.689 22.1934L660.574 21.1229C659.618 16.7619 657.694 12.9155 654.752 9.72292L651.075 13.1113ZM655.689 22.1934L650.823 23.3423C651.513 26.2643 651.935 31.2484 651.935 38.5996H656.935H661.935C661.935 31.107 661.526 25.1537 660.556 21.0444L655.689 22.1934ZM656.935 38.5996H651.935V48.9268H656.935H661.935V38.5996H656.935ZM656.935 48.9268H651.935C651.935 56.351 651.138 60.9724 650.032 63.425L654.591 65.4795L659.149 67.534C661.169 63.053 661.935 56.6393 661.935 48.9268H656.935ZM654.591 65.4795L650.032 63.425C649.077 65.5452 647.245 67.4236 643.927 68.8895L645.948 73.4629L647.969 78.0363C653.05 75.7912 656.98 72.3474 659.149 67.534L654.591 65.4795ZM645.948 73.4629L643.908 68.8983C640.632 70.3627 635.96 71.2461 629.615 71.2461V76.2461V81.2461C636.747 81.2461 642.964 80.274 647.989 78.0275L645.948 73.4629ZM629.615 76.2461V71.2461H621.339V76.2461V81.2461H629.615V76.2461ZM621.339 76.2461H616.339V124H621.339H626.339V76.2461H621.339ZM621.339 124V119H590.504V124V129H621.339V124ZM590.504 124H595.504V5.4209H590.504H585.504V124H590.504ZM621.339 25.709H616.339V55.8848H621.339H626.339V25.709H621.339ZM621.339 55.8848L621.062 60.8771C622 60.9292 622.855 60.958 623.609 60.958V55.958V50.958C623.095 50.958 622.435 50.938 621.616 50.8925L621.339 55.8848ZM623.609 55.958V60.958C627.018 60.958 630.912 60.1628 633.4 56.9963L629.469 53.9072L625.537 50.8181C625.693 50.6197 625.797 50.6385 625.546 50.726C625.256 50.8275 624.656 50.958 623.609 50.958V55.958ZM629.469 53.9072L633.386 57.0142C634.668 55.398 635.294 53.4109 635.641 51.6151C636.004 49.7389 636.153 47.5697 636.153 45.1914H631.153H626.153C626.153 47.2076 626.022 48.6884 625.823 49.7174C625.609 50.8269 625.393 51.0004 625.551 50.8003L629.469 53.9072ZM631.153 45.1914H636.153V35.4502H631.153H626.153V45.1914H631.153ZM631.153 35.4502H636.153C636.153 33.2031 635.981 31.1027 635.538 29.2628C635.109 27.4798 634.315 25.4745 632.715 23.9359L629.249 27.54L625.783 31.1442C625.453 30.8262 625.611 30.7497 625.816 31.6034C626.008 32.4002 626.153 33.6445 626.153 35.4502H631.153ZM629.249 27.54L632.715 23.9359C631.169 22.4501 629.211 21.7038 627.447 21.2956C625.628 20.8746 623.558 20.709 621.339 20.709V25.709V30.709C623.124 30.709 624.374 30.8485 625.192 31.0379C626.065 31.24 626.059 31.4092 625.783 31.1442L629.249 27.54ZM665.797 5.4209V0.420898H660.797V5.4209H665.797ZM717.14 7.10547L716.07 11.9897L716.079 11.9918L717.14 7.10547ZM729.737 15.748L725.631 18.6008L725.648 18.6256L725.666 18.6501L729.737 15.748ZM717.652 62.1104L717.183 57.1324L716.449 66.9633L717.652 62.1104ZM733.839 75.2207L728.963 76.3288L728.978 76.3946L728.995 76.4599L733.839 75.2207ZM734.645 124V129H739.645V124H734.645ZM706.007 124H701.007V129H706.007V124ZM704.469 72.8037L700.267 75.5143L700.298 75.5615L700.329 75.608L704.469 72.8037ZM696.632 70.5332V65.5332H691.632V70.5332H696.632ZM696.632 124V129H701.632V124H696.632ZM665.797 124H660.797V129H665.797V124ZM696.632 25.709V20.709H691.632V25.709H696.632ZM696.632 52.0762H691.632V57.0762H696.632V52.0762ZM703.883 50.6846L706.69 54.8219L706.706 54.8114L706.721 54.8006L703.883 50.6846ZM703.956 27.4668L700.634 31.2038L700.668 31.2338L700.702 31.2631L703.956 27.4668ZM665.797 5.4209V10.4209H687.623V5.4209V0.420898H665.797V5.4209ZM687.623 5.4209V10.4209C702.235 10.4209 711.549 10.9994 716.07 11.9897L717.14 7.10547L718.21 2.22127C712.477 0.965483 702.113 0.420898 687.623 0.420898V5.4209ZM717.14 7.10547L716.079 11.9918C719.932 12.8277 723.077 14.9252 725.631 18.6008L729.737 15.748L733.844 12.8953C729.952 7.29358 724.699 3.62933 718.2 2.21917L717.14 7.10547ZM729.737 15.748L725.666 18.6501C728.018 21.9501 729.645 28.0039 729.645 37.7939H734.645H739.645C739.645 27.3692 738 18.7256 733.809 12.846L729.737 15.748ZM734.645 37.7939H729.645C729.645 42.2294 729.367 45.7588 728.867 48.4565C728.356 51.2225 727.677 52.7389 727.15 53.4677L731.202 56.3975L735.254 59.3272C737.022 56.8822 738.065 53.7111 738.7 50.276C739.349 46.7724 739.645 42.587 739.645 37.7939H734.645ZM731.202 56.3975L727.15 53.4677C726.145 54.8575 723.479 56.5393 717.183 57.1324L717.652 62.1104L718.121 67.0883C725.302 66.4119 731.669 64.2851 735.254 59.3272L731.202 56.3975ZM717.652 62.1104L716.449 66.9633C722.32 68.4194 725.073 70.1293 726.104 71.3758L729.957 68.1895L733.81 65.0031C730.642 61.1715 725.192 58.8287 718.856 57.2574L717.652 62.1104ZM729.957 68.1895L726.104 71.3758C727.931 73.5858 728.713 75.2278 728.963 76.3288L733.839 75.2207L738.715 74.1126C737.988 70.9167 736.182 67.8713 733.81 65.0031L729.957 68.1895ZM733.839 75.2207L728.995 76.4599C729.119 76.944 729.312 78.4379 729.448 81.4015C729.578 84.2098 729.645 87.9755 729.645 92.7256H734.645H739.645C739.645 87.9054 739.577 83.9684 739.438 80.9417C739.306 78.0704 739.096 75.597 738.683 73.9815L733.839 75.2207ZM734.645 92.7256H729.645V124H734.645H739.645V92.7256H734.645ZM734.645 124V119H706.007V124V129H734.645V124ZM706.007 124H711.007V84.5957H706.007H701.007V124H706.007ZM706.007 84.5957H711.007C711.007 81.3175 710.876 78.508 710.58 76.2403C710.315 74.2025 709.831 71.8051 708.608 69.9995L704.469 72.8037L700.329 75.608C700.131 75.316 700.417 75.6408 700.664 77.5337C700.881 79.1966 701.007 81.5262 701.007 84.5957H706.007ZM704.469 72.8037L708.67 70.0931C707.265 67.9157 705.062 66.8471 703.168 66.2983C701.231 65.737 698.994 65.5332 696.632 65.5332V70.5332V75.5332C698.518 75.5332 699.711 75.7078 700.386 75.9033C701.104 76.1114 700.695 76.178 700.267 75.5143L704.469 72.8037ZM696.632 70.5332H691.632V124H696.632H701.632V70.5332H696.632ZM696.632 124V119H665.797V124V129H696.632V124ZM665.797 124H670.797V5.4209H665.797H660.797V124H665.797ZM696.632 25.709H691.632V52.0762H696.632H701.632V25.709H696.632ZM696.632 52.0762V57.0762C700.211 57.0762 703.98 56.6609 706.69 54.8219L703.883 50.6846L701.075 46.5472C701.16 46.4897 700.94 46.657 700.102 46.8179C699.301 46.9716 698.166 47.0762 696.632 47.0762V52.0762ZM703.883 50.6846L706.721 54.8006C709.038 53.203 709.928 50.5875 710.35 48.7398C710.824 46.6669 711.007 44.1635 711.007 41.3828H706.007H701.007C701.007 43.8268 700.836 45.4859 700.601 46.5136C700.546 46.7554 700.493 46.9349 700.45 47.0616C700.406 47.1895 700.378 47.244 700.378 47.2438C700.378 47.2424 700.389 47.223 700.41 47.1896C700.432 47.1561 700.467 47.1059 700.518 47.0441C700.62 46.92 700.79 46.7437 701.044 46.5685L703.883 50.6846ZM706.007 41.3828H711.007V34.8643H706.007H701.007V41.3828H706.007ZM706.007 34.8643H711.007C711.007 32.7234 710.817 30.6789 710.312 28.8593C709.812 27.0554 708.904 25.1222 707.21 23.6705L703.956 27.4668L700.702 31.2631C700.376 30.9832 700.492 30.8689 700.676 31.5308C700.855 32.1771 701.007 33.2453 701.007 34.8643H706.007ZM703.956 27.4668L707.278 23.7298C704.479 21.2421 700.359 20.709 696.632 20.709V25.709V30.709C698.171 30.709 699.253 30.8385 699.969 31.0104C700.708 31.1876 700.795 31.3467 700.634 31.2038L703.956 27.4668ZM746.656 5.4209V0.420898H741.656V5.4209H746.656ZM798.072 5.4209H803.072V0.420898H798.072V5.4209ZM798.072 29.1514V34.1514H803.072V29.1514H798.072ZM777.491 29.1514V24.1514H772.491V29.1514H777.491ZM777.491 51.6367H772.491V56.6367H777.491V51.6367ZM796.754 51.6367H801.754V46.6367H796.754V51.6367ZM796.754 74.1953V79.1953H801.754V74.1953H796.754ZM777.491 74.1953V69.1953H772.491V74.1953H777.491ZM777.491 100.27H772.491V105.27H777.491V100.27ZM800.123 100.27H805.123V95.2695H800.123V100.27ZM800.123 124V129H805.123V124H800.123ZM746.656 124H741.656V129H746.656V124ZM746.656 5.4209V10.4209H798.072V5.4209V0.420898H746.656V5.4209ZM798.072 5.4209H793.072V29.1514H798.072H803.072V5.4209H798.072ZM798.072 29.1514V24.1514H777.491V29.1514V34.1514H798.072V29.1514ZM777.491 29.1514H772.491V51.6367H777.491H782.491V29.1514H777.491ZM777.491 51.6367V56.6367H796.754V51.6367V46.6367H777.491V51.6367ZM796.754 51.6367H791.754V74.1953H796.754H801.754V51.6367H796.754ZM796.754 74.1953V69.1953H777.491V74.1953V79.1953H796.754V74.1953ZM777.491 74.1953H772.491V100.27H777.491H782.491V74.1953H777.491ZM777.491 100.27V105.27H800.123V100.27V95.2695H777.491V100.27ZM800.123 100.27H795.123V124H800.123H805.123V100.27H800.123ZM800.123 124V119H746.656V124V129H800.123V124ZM746.656 124H751.656V5.4209H746.656H741.656V124H746.656ZM904.2 5.4209H909.2V0.420898H904.2V5.4209ZM904.2 124V129H909.2V124H904.2ZM877.247 124H872.247V129H877.247V124ZM877.247 43.9463H882.247L872.292 43.2798L877.247 43.9463ZM866.48 124V129H870.853L871.436 124.666L866.48 124ZM847.364 124L842.416 124.718L843.038 129H847.364V124ZM836.012 45.7773L840.96 45.0592L831.012 45.7773H836.012ZM836.012 124V129H841.012V124H836.012ZM809.059 124H804.059V129H809.059V124ZM809.059 5.4209V0.420898H804.059V5.4209H809.059ZM848.976 5.4209L853.909 4.60987L853.221 0.420898H848.976V5.4209ZM852.711 30.6162L847.757 31.2918L847.758 31.3025L847.76 31.3132L852.711 30.6162ZM856.959 60.792L852.008 61.489L861.919 61.4219L856.959 60.792ZM863.99 5.4209V0.420898H859.585L859.03 4.79104L863.99 5.4209ZM904.2 5.4209H899.2V124H904.2H909.2V5.4209H904.2ZM904.2 124V119H877.247V124V129H904.2V124ZM877.247 124H882.247V43.9463H877.247H872.247V124H877.247ZM877.247 43.9463L872.292 43.2798L861.525 123.334L866.48 124L871.436 124.666L882.202 44.6127L877.247 43.9463ZM866.48 124V119H847.364V124V129H866.48V124ZM847.364 124L852.312 123.282L840.96 45.0592L836.012 45.7773L831.064 46.4955L842.416 124.718L847.364 124ZM836.012 45.7773H831.012V124H836.012H841.012V45.7773H836.012ZM836.012 124V119H809.059V124V129H836.012V124ZM809.059 124H814.059V5.4209H809.059H804.059V124H809.059ZM809.059 5.4209V10.4209H848.976V5.4209V0.420898H809.059V5.4209ZM848.976 5.4209L844.042 6.23193C845.204 13.3033 846.443 21.6545 847.757 31.2918L852.711 30.6162L857.665 29.9406C856.343 20.2419 855.091 11.7963 853.909 4.60987L848.976 5.4209ZM852.711 30.6162L847.76 31.3132L852.008 61.489L856.959 60.792L861.91 60.095L857.662 29.9192L852.711 30.6162ZM856.959 60.792L861.919 61.4219L868.95 6.05076L863.99 5.4209L859.03 4.79104L851.999 60.1621L856.959 60.792ZM863.99 5.4209V10.4209H904.2V5.4209V0.420898H863.99V5.4209ZM947.413 5.4209H952.413V0.420898H947.413V5.4209ZM947.413 124V129H952.413V124H947.413ZM916.578 124H911.578V129H916.578V124ZM916.578 5.4209V0.420898H911.578V5.4209H916.578ZM947.413 5.4209H942.413V124H947.413H952.413V5.4209H947.413ZM947.413 124V119H916.578V124V129H947.413V124ZM916.578 124H921.578V5.4209H916.578H911.578V124H916.578ZM916.578 5.4209V10.4209H947.413V5.4209V0.420898H916.578V5.4209ZM1029.88 5.4209H1034.88V0.420898H1029.88V5.4209ZM1029 103.639L1033.94 104.439L1033.94 104.429L1029 103.639ZM1023.8 114.845L1027.79 117.861L1027.8 117.849L1027.81 117.837L1023.8 114.845ZM1012.38 123.561L1014.3 128.176L1014.31 128.171L1014.33 128.166L1012.38 123.561ZM960.084 101.954L955.117 102.532L955.118 102.538L960.084 101.954ZM959.352 5.4209V0.420898H954.352V5.4209H959.352ZM990.187 5.4209H995.187V0.420898H990.187V5.4209ZM990.992 104.298L986.298 106.019L986.333 106.115L986.372 106.21L990.992 104.298ZM998.17 104.078L993.471 102.369L993.456 102.411L993.441 102.453L998.17 104.078ZM999.049 5.4209V0.420898H994.049V5.4209H999.049ZM1029.88 5.4209H1024.88V84.6689H1029.88H1034.88V5.4209H1029.88ZM1029.88 84.6689H1024.88C1024.88 93.6555 1024.58 99.6206 1024.07 102.849L1029 103.639L1033.94 104.429C1034.6 100.333 1034.88 93.6512 1034.88 84.6689H1029.88ZM1029 103.639L1024.07 102.838C1023.65 105.446 1022.34 108.445 1019.8 111.853L1023.8 114.845L1027.81 117.837C1031.03 113.53 1033.19 109.058 1033.94 104.439L1029 103.639ZM1023.8 114.845L1019.82 111.828C1017.51 114.884 1014.42 117.268 1010.43 118.955L1012.38 123.561L1014.33 128.166C1019.81 125.85 1024.34 122.423 1027.79 117.861L1023.8 114.845ZM1012.38 123.561L1010.46 118.945C1006.51 120.588 1001.65 121.49 995.753 121.49V126.49V131.49C1002.64 131.49 1008.87 130.44 1014.3 128.176L1012.38 123.561ZM995.753 126.49V121.49C989.222 121.49 983.669 120.41 978.987 118.385L977.003 122.975L975.018 127.564C981.177 130.227 988.123 131.49 995.753 131.49V126.49ZM977.003 122.975L978.987 118.385C974.174 116.304 970.942 113.753 968.913 110.913L964.845 113.819L960.776 116.726C964.118 121.405 968.992 124.958 975.018 127.564L977.003 122.975ZM964.845 113.819L968.913 110.913C966.665 107.765 965.429 104.597 965.05 101.37L960.084 101.954L955.118 102.538C955.715 107.612 957.653 112.354 960.776 116.726L964.845 113.819ZM960.084 101.954L965.051 101.377C964.602 97.5169 964.352 89.0261 964.352 75.5869H959.352H954.352C954.352 88.9055 954.59 97.9929 955.117 102.532L960.084 101.954ZM959.352 75.5869H964.352V5.4209H959.352H954.352V75.5869H959.352ZM959.352 5.4209V10.4209H990.187V5.4209V0.420898H959.352V5.4209ZM990.187 5.4209H985.187V94.3369H990.187H995.187V5.4209H990.187ZM990.187 94.3369H985.187C985.187 96.9946 985.255 99.2659 985.404 101.112C985.543 102.833 985.78 104.608 986.298 106.019L990.992 104.298L995.687 102.577C995.7 102.612 995.645 102.463 995.57 102.021C995.5 101.606 995.431 101.041 995.372 100.306C995.252 98.8317 995.187 96.855 995.187 94.3369H990.187ZM990.992 104.298L986.372 106.21C987.01 107.751 988.079 109.166 989.667 110.146C991.215 111.102 992.898 111.422 994.435 111.422V106.422V101.422C994.262 101.422 994.517 101.388 994.918 101.636C995.113 101.756 995.281 101.907 995.411 102.066C995.536 102.22 995.594 102.342 995.612 102.386L990.992 104.298ZM994.435 106.422V111.422C996.05 111.422 997.85 111.101 999.491 110.071C1001.2 108.998 1002.31 107.424 1002.9 105.704L998.17 104.078L993.441 102.453C993.459 102.4 993.518 102.257 993.654 102.077C993.795 101.891 993.976 101.726 994.176 101.601C994.571 101.353 994.772 101.422 994.435 101.422V106.422ZM998.17 104.078L1002.87 105.787C1003.41 104.294 1003.66 102.363 1003.81 100.438C1003.97 98.3783 1004.05 95.8189 1004.05 92.7988H999.049H994.049C994.049 95.6869 993.977 97.9615 993.844 99.6614C993.778 100.51 993.7 101.168 993.62 101.659C993.535 102.18 993.468 102.377 993.471 102.369L998.17 104.078ZM999.049 92.7988H1004.05V5.4209H999.049H994.049V92.7988H999.049ZM999.049 5.4209V10.4209H1029.88V5.4209V0.420898H999.049V5.4209ZM1136.96 5.4209H1141.96V0.420898H1136.96V5.4209ZM1136.96 124V129H1141.96V124H1136.96ZM1110.01 124H1105.01V129H1110.01V124ZM1110.01 43.9463H1115.01L1105.06 43.2798L1110.01 43.9463ZM1099.24 124V129H1103.62L1104.2 124.666L1099.24 124ZM1080.13 124L1075.18 124.718L1075.8 129H1080.13V124ZM1068.78 45.7773L1073.72 45.0592L1063.78 45.7773H1068.78ZM1068.78 124V129H1073.78V124H1068.78ZM1041.82 124H1036.82V129H1041.82V124ZM1041.82 5.4209V0.420898H1036.82V5.4209H1041.82ZM1081.74 5.4209L1086.67 4.60987L1085.98 0.420898H1081.74V5.4209ZM1085.47 30.6162L1080.52 31.2918L1080.52 31.3025L1080.52 31.3132L1085.47 30.6162ZM1089.72 60.792L1084.77 61.489L1094.68 61.4219L1089.72 60.792ZM1096.75 5.4209V0.420898H1092.35L1091.79 4.79104L1096.75 5.4209ZM1136.96 5.4209H1131.96V124H1136.96H1141.96V5.4209H1136.96ZM1136.96 124V119H1110.01V124V129H1136.96V124ZM1110.01 124H1115.01V43.9463H1110.01H1105.01V124H1110.01ZM1110.01 43.9463L1105.06 43.2798L1094.29 123.334L1099.24 124L1104.2 124.666L1114.97 44.6127L1110.01 43.9463ZM1099.24 124V119H1080.13V124V129H1099.24V124ZM1080.13 124L1085.08 123.282L1073.72 45.0592L1068.78 45.7773L1063.83 46.4955L1075.18 124.718L1080.13 124ZM1068.78 45.7773H1063.78V124H1068.78H1073.78V45.7773H1068.78ZM1068.78 124V119H1041.82V124V129H1068.78V124ZM1041.82 124H1046.82V5.4209H1041.82H1036.82V124H1041.82ZM1041.82 5.4209V10.4209H1081.74V5.4209V0.420898H1041.82V5.4209ZM1081.74 5.4209L1076.81 6.23193C1077.97 13.3033 1079.21 21.6545 1080.52 31.2918L1085.47 30.6162L1090.43 29.9406C1089.11 20.2419 1087.85 11.7963 1086.67 4.60987L1081.74 5.4209ZM1085.47 30.6162L1080.52 31.3132L1084.77 61.489L1089.72 60.792L1094.67 60.095L1090.43 29.9192L1085.47 30.6162ZM1089.72 60.792L1094.68 61.4219L1101.71 6.05076L1096.75 5.4209L1091.79 4.79104L1084.76 60.1621L1089.72 60.792ZM1096.75 5.4209V10.4209H1136.96V5.4209V0.420898H1096.75V5.4209ZM1175.86 5.4209V0.420898H1170.86V5.4209H1175.86ZM1226.25 7.39844L1224.84 12.1961L1224.85 12.1981L1224.85 12.2002L1226.25 7.39844ZM1236.43 13.1113L1232.71 16.4602L1232.73 16.48L1232.75 16.4997L1236.43 13.1113ZM1241.04 22.1934L1236.16 23.2638L1236.17 23.3032L1236.17 23.3423L1241.04 22.1934ZM1231.3 73.4629L1229.28 68.8895L1229.27 68.8938L1229.26 68.8983L1231.3 73.4629ZM1206.69 76.2461V71.2461H1201.69V76.2461H1206.69ZM1206.69 124V129H1211.69V124H1206.69ZM1175.86 124H1170.86V129H1175.86V124ZM1206.69 25.709V20.709H1201.69V25.709H1206.69ZM1206.69 55.8848H1201.69V60.6147L1206.41 60.8771L1206.69 55.8848ZM1214.82 53.9072L1210.9 50.8003L1210.9 50.8092L1210.89 50.8181L1214.82 53.9072ZM1175.86 5.4209V10.4209H1206.91V5.4209V0.420898H1175.86V5.4209ZM1206.91 5.4209V10.4209C1215.15 10.4209 1221.03 11.0783 1224.84 12.1961L1226.25 7.39844L1227.65 2.60078C1222.48 1.08182 1215.47 0.420898 1206.91 0.420898V5.4209ZM1226.25 7.39844L1224.85 12.2002C1228.85 13.3606 1231.3 14.8881 1232.71 16.4602L1236.43 13.1113L1240.14 9.76248C1237.07 6.35409 1232.73 4.07296 1227.64 2.59671L1226.25 7.39844ZM1236.43 13.1113L1232.75 16.4997C1234.4 18.2877 1235.55 20.4959 1236.16 23.2638L1241.04 22.1934L1245.93 21.1229C1244.97 16.7619 1243.05 12.9155 1240.1 9.72292L1236.43 13.1113ZM1241.04 22.1934L1236.17 23.3423C1236.86 26.2643 1237.29 31.2484 1237.29 38.5996H1242.29H1247.29C1247.29 31.107 1246.88 25.1537 1245.91 21.0444L1241.04 22.1934ZM1242.29 38.5996H1237.29V48.9268H1242.29H1247.29V38.5996H1242.29ZM1242.29 48.9268H1237.29C1237.29 56.351 1236.49 60.9724 1235.38 63.425L1239.94 65.4795L1244.5 67.534C1246.52 63.053 1247.29 56.6393 1247.29 48.9268H1242.29ZM1239.94 65.4795L1235.38 63.425C1234.43 65.5452 1232.6 67.4236 1229.28 68.8895L1231.3 73.4629L1233.32 78.0363C1238.4 75.7912 1242.33 72.3474 1244.5 67.534L1239.94 65.4795ZM1231.3 73.4629L1229.26 68.8983C1225.98 70.3627 1221.31 71.2461 1214.97 71.2461V76.2461V81.2461C1222.1 81.2461 1228.32 80.274 1233.34 78.0275L1231.3 73.4629ZM1214.97 76.2461V71.2461H1206.69V76.2461V81.2461H1214.97V76.2461ZM1206.69 76.2461H1201.69V124H1206.69H1211.69V76.2461H1206.69ZM1206.69 124V119H1175.86V124V129H1206.69V124ZM1175.86 124H1180.86V5.4209H1175.86H1170.86V124H1175.86ZM1206.69 25.709H1201.69V55.8848H1206.69H1211.69V25.709H1206.69ZM1206.69 55.8848L1206.41 60.8771C1207.35 60.9292 1208.21 60.958 1208.96 60.958V55.958V50.958C1208.45 50.958 1207.79 50.938 1206.97 50.8925L1206.69 55.8848ZM1208.96 55.958V60.958C1212.37 60.958 1216.26 60.1628 1218.75 56.9963L1214.82 53.9072L1210.89 50.8181C1211.04 50.6197 1211.15 50.6385 1210.9 50.726C1210.61 50.8275 1210.01 50.958 1208.96 50.958V55.958ZM1214.82 53.9072L1218.74 57.0142C1220.02 55.398 1220.65 53.4109 1220.99 51.6151C1221.36 49.7389 1221.5 47.5697 1221.5 45.1914H1216.5H1211.5C1211.5 47.2076 1211.37 48.6884 1211.17 49.7174C1210.96 50.8269 1210.74 51.0004 1210.9 50.8003L1214.82 53.9072ZM1216.5 45.1914H1221.5V35.4502H1216.5H1211.5V45.1914H1216.5ZM1216.5 35.4502H1221.5C1221.5 33.2031 1221.33 31.1027 1220.89 29.2628C1220.46 27.4798 1219.67 25.4745 1218.07 23.9359L1214.6 27.54L1211.14 31.1442C1210.8 30.8262 1210.96 30.7497 1211.17 31.6034C1211.36 32.4002 1211.5 33.6445 1211.5 35.4502H1216.5ZM1214.6 27.54L1218.07 23.9359C1216.52 22.4501 1214.56 21.7038 1212.8 21.2956C1210.98 20.8746 1208.91 20.709 1206.69 20.709V25.709V30.709C1208.48 30.709 1209.73 30.8485 1210.54 31.0379C1211.42 31.24 1211.41 31.4092 1211.14 31.1442L1214.6 27.54ZM1251.15 5.4209V0.420898H1246.15V5.4209H1251.15ZM1302.49 7.10547L1301.42 11.9897L1301.43 11.9918L1302.49 7.10547ZM1315.09 15.748L1310.98 18.6008L1311 18.6256L1311.02 18.6501L1315.09 15.748ZM1303 62.1104L1302.53 57.1324L1301.8 66.9633L1303 62.1104ZM1319.19 75.2207L1314.31 76.3288L1314.33 76.3946L1314.35 76.4599L1319.19 75.2207ZM1320 124V129H1325V124H1320ZM1291.36 124H1286.36V129H1291.36V124ZM1289.82 72.8037L1285.62 75.5143L1285.65 75.5615L1285.68 75.608L1289.82 72.8037ZM1281.98 70.5332V65.5332H1276.98V70.5332H1281.98ZM1281.98 124V129H1286.98V124H1281.98ZM1251.15 124H1246.15V129H1251.15V124ZM1281.98 25.709V20.709H1276.98V25.709H1281.98ZM1281.98 52.0762H1276.98V57.0762H1281.98V52.0762ZM1289.23 50.6846L1292.04 54.8219L1292.06 54.8114L1292.07 54.8006L1289.23 50.6846ZM1289.31 27.4668L1285.99 31.2038L1286.02 31.2338L1286.05 31.2631L1289.31 27.4668ZM1251.15 5.4209V10.4209H1272.97V5.4209V0.420898H1251.15V5.4209ZM1272.97 5.4209V10.4209C1287.59 10.4209 1296.9 10.9994 1301.42 11.9897L1302.49 7.10547L1303.56 2.22127C1297.83 0.965483 1287.46 0.420898 1272.97 0.420898V5.4209ZM1302.49 7.10547L1301.43 11.9918C1305.28 12.8277 1308.43 14.9252 1310.98 18.6008L1315.09 15.748L1319.2 12.8953C1315.3 7.29358 1310.05 3.62933 1303.55 2.21917L1302.49 7.10547ZM1315.09 15.748L1311.02 18.6501C1313.37 21.9501 1315 28.0039 1315 37.7939H1320H1325C1325 27.3692 1323.35 18.7256 1319.16 12.846L1315.09 15.748ZM1320 37.7939H1315C1315 42.2294 1314.72 45.7588 1314.22 48.4565C1313.71 51.2225 1313.03 52.7389 1312.5 53.4677L1316.55 56.3975L1320.61 59.3272C1322.37 56.8822 1323.42 53.7111 1324.05 50.276C1324.7 46.7724 1325 42.587 1325 37.7939H1320ZM1316.55 56.3975L1312.5 53.4677C1311.5 54.8575 1308.83 56.5393 1302.53 57.1324L1303 62.1104L1303.47 67.0883C1310.65 66.4119 1317.02 64.2851 1320.61 59.3272L1316.55 56.3975ZM1303 62.1104L1301.8 66.9633C1307.67 68.4194 1310.42 70.1293 1311.46 71.3758L1315.31 68.1895L1319.16 65.0031C1315.99 61.1715 1310.54 58.8287 1304.21 57.2574L1303 62.1104ZM1315.31 68.1895L1311.46 71.3758C1313.28 73.5858 1314.06 75.2278 1314.31 76.3288L1319.19 75.2207L1324.07 74.1126C1323.34 70.9167 1321.53 67.8713 1319.16 65.0031L1315.31 68.1895ZM1319.19 75.2207L1314.35 76.4599C1314.47 76.944 1314.66 78.4379 1314.8 81.4015C1314.93 84.2098 1315 87.9755 1315 92.7256H1320H1325C1325 87.9054 1324.93 83.9684 1324.79 80.9417C1324.66 78.0704 1324.45 75.597 1324.03 73.9815L1319.19 75.2207ZM1320 92.7256H1315V124H1320H1325V92.7256H1320ZM1320 124V119H1291.36V124V129H1320V124ZM1291.36 124H1296.36V84.5957H1291.36H1286.36V124H1291.36ZM1291.36 84.5957H1296.36C1296.36 81.3175 1296.23 78.508 1295.93 76.2403C1295.67 74.2025 1295.18 71.8051 1293.96 69.9995L1289.82 72.8037L1285.68 75.608C1285.48 75.316 1285.77 75.6408 1286.02 77.5337C1286.23 79.1966 1286.36 81.5262 1286.36 84.5957H1291.36ZM1289.82 72.8037L1294.02 70.0931C1292.62 67.9157 1290.41 66.8471 1288.52 66.2983C1286.58 65.737 1284.35 65.5332 1281.98 65.5332V70.5332V75.5332C1283.87 75.5332 1285.06 75.7078 1285.74 75.9033C1286.46 76.1114 1286.05 76.178 1285.62 75.5143L1289.82 72.8037ZM1281.98 70.5332H1276.98V124H1281.98H1286.98V70.5332H1281.98ZM1281.98 124V119H1251.15V124V129H1281.98V124ZM1251.15 124H1256.15V5.4209H1251.15H1246.15V124H1251.15ZM1281.98 25.709H1276.98V52.0762H1281.98H1286.98V25.709H1281.98ZM1281.98 52.0762V57.0762C1285.56 57.0762 1289.33 56.6609 1292.04 54.8219L1289.23 50.6846L1286.43 46.5472C1286.51 46.4897 1286.29 46.657 1285.45 46.8179C1284.65 46.9716 1283.52 47.0762 1281.98 47.0762V52.0762ZM1289.23 50.6846L1292.07 54.8006C1294.39 53.203 1295.28 50.5875 1295.7 48.7398C1296.18 46.6669 1296.36 44.1635 1296.36 41.3828H1291.36H1286.36C1286.36 43.8268 1286.19 45.4859 1285.95 46.5136C1285.9 46.7554 1285.84 46.9349 1285.8 47.0616C1285.76 47.1895 1285.73 47.244 1285.73 47.2438C1285.73 47.2424 1285.74 47.223 1285.76 47.1896C1285.78 47.1561 1285.82 47.1059 1285.87 47.0441C1285.97 46.92 1286.14 46.7437 1286.4 46.5685L1289.23 50.6846ZM1291.36 41.3828H1296.36V34.8643H1291.36H1286.36V41.3828H1291.36ZM1291.36 34.8643H1296.36C1296.36 32.7234 1296.17 30.6789 1295.66 28.8593C1295.16 27.0554 1294.26 25.1222 1292.56 23.6705L1289.31 27.4668L1286.05 31.2631C1285.73 30.9832 1285.84 30.8689 1286.03 31.5308C1286.21 32.1771 1286.36 33.2453 1286.36 34.8643H1291.36ZM1289.31 27.4668L1292.63 23.7298C1289.83 21.2421 1285.71 20.709 1281.98 20.709V25.709V30.709C1283.52 30.709 1284.6 30.8385 1285.32 31.0104C1286.06 31.1876 1286.15 31.3467 1285.99 31.2038L1289.31 27.4668ZM1332.01 5.4209V0.420898H1327.01V5.4209H1332.01ZM1383.42 5.4209H1388.42V0.420898H1383.42V5.4209ZM1383.42 29.1514V34.1514H1388.42V29.1514H1383.42ZM1362.84 29.1514V24.1514H1357.84V29.1514H1362.84ZM1362.84 51.6367H1357.84V56.6367H1362.84V51.6367ZM1382.11 51.6367H1387.11V46.6367H1382.11V51.6367ZM1382.11 74.1953V79.1953H1387.11V74.1953H1382.11ZM1362.84 74.1953V69.1953H1357.84V74.1953H1362.84ZM1362.84 100.27H1357.84V105.27H1362.84V100.27ZM1385.47 100.27H1390.47V95.2695H1385.47V100.27ZM1385.47 124V129H1390.47V124H1385.47ZM1332.01 124H1327.01V129H1332.01V124ZM1332.01 5.4209V10.4209H1383.42V5.4209V0.420898H1332.01V5.4209ZM1383.42 5.4209H1378.42V29.1514H1383.42H1388.42V5.4209H1383.42ZM1383.42 29.1514V24.1514H1362.84V29.1514V34.1514H1383.42V29.1514ZM1362.84 29.1514H1357.84V51.6367H1362.84H1367.84V29.1514H1362.84ZM1362.84 51.6367V56.6367H1382.11V51.6367V46.6367H1362.84V51.6367ZM1382.11 51.6367H1377.11V74.1953H1382.11H1387.11V51.6367H1382.11ZM1382.11 74.1953V69.1953H1362.84V74.1953V79.1953H1382.11V74.1953ZM1362.84 74.1953H1357.84V100.27H1362.84H1367.84V74.1953H1362.84ZM1362.84 100.27V105.27H1385.47V100.27V95.2695H1362.84V100.27ZM1385.47 100.27H1380.47V124H1385.47H1390.47V100.27H1385.47ZM1385.47 124V119H1332.01V124V129H1385.47V124ZM1332.01 124H1337.01V5.4209H1332.01H1327.01V124H1332.01ZM1489.55 5.4209H1494.55V0.420898H1489.55V5.4209ZM1489.55 124V129H1494.55V124H1489.55ZM1462.6 124H1457.6V129H1462.6V124ZM1462.6 43.9463H1467.6L1457.64 43.2798L1462.6 43.9463ZM1451.83 124V129H1456.2L1456.79 124.666L1451.83 124ZM1432.72 124L1427.77 124.718L1428.39 129H1432.72V124ZM1421.36 45.7773L1426.31 45.0592L1416.36 45.7773H1421.36ZM1421.36 124V129H1426.36V124H1421.36ZM1394.41 124H1389.41V129H1394.41V124ZM1394.41 5.4209V0.420898H1389.41V5.4209H1394.41ZM1434.33 5.4209L1439.26 4.60987L1438.57 0.420898H1434.33V5.4209ZM1438.06 30.6162L1433.11 31.2918L1433.11 31.3025L1433.11 31.3132L1438.06 30.6162ZM1442.31 60.792L1437.36 61.489L1447.27 61.4219L1442.31 60.792ZM1449.34 5.4209V0.420898H1444.94L1444.38 4.79104L1449.34 5.4209ZM1489.55 5.4209H1484.55V124H1489.55H1494.55V5.4209H1489.55ZM1489.55 124V119H1462.6V124V129H1489.55V124ZM1462.6 124H1467.6V43.9463H1462.6H1457.6V124H1462.6ZM1462.6 43.9463L1457.64 43.2798L1446.88 123.334L1451.83 124L1456.79 124.666L1467.55 44.6127L1462.6 43.9463ZM1451.83 124V119H1432.72V124V129H1451.83V124ZM1432.72 124L1437.66 123.282L1426.31 45.0592L1421.36 45.7773L1416.42 46.4955L1427.77 124.718L1432.72 124ZM1421.36 45.7773H1416.36V124H1421.36H1426.36V45.7773H1421.36ZM1421.36 124V119H1394.41V124V129H1421.36V124ZM1394.41 124H1399.41V5.4209H1394.41H1389.41V124H1394.41ZM1394.41 5.4209V10.4209H1434.33V5.4209V0.420898H1394.41V5.4209ZM1434.33 5.4209L1429.39 6.23193C1430.56 13.3033 1431.79 21.6545 1433.11 31.2918L1438.06 30.6162L1443.02 29.9406C1441.69 20.2419 1440.44 11.7963 1439.26 4.60987L1434.33 5.4209ZM1438.06 30.6162L1433.11 31.3132L1437.36 61.489L1442.31 60.792L1447.26 60.095L1443.01 29.9192L1438.06 30.6162ZM1442.31 60.792L1447.27 61.4219L1454.3 6.05076L1449.34 5.4209L1444.38 4.79104L1437.35 60.1621L1442.31 60.792ZM1449.34 5.4209V10.4209H1489.55V5.4209V0.420898H1449.34V5.4209ZM1532.76 5.4209H1537.76V0.420898H1532.76V5.4209ZM1532.76 124V129H1537.76V124H1532.76ZM1501.93 124H1496.93V129H1501.93V124ZM1501.93 5.4209V0.420898H1496.93V5.4209H1501.93ZM1532.76 5.4209H1527.76V124H1532.76H1537.76V5.4209H1532.76ZM1532.76 124V119H1501.93V124V129H1532.76V124ZM1501.93 124H1506.93V5.4209H1501.93H1496.93V124H1501.93ZM1501.93 5.4209V10.4209H1532.76V5.4209V0.420898H1501.93V5.4209ZM1615.24 5.4209H1620.24V0.420898H1615.24V5.4209ZM1614.36 103.639L1619.29 104.439L1619.29 104.429L1614.36 103.639ZM1609.16 114.845L1613.14 117.861L1613.15 117.849L1613.16 117.837L1609.16 114.845ZM1597.73 123.561L1599.65 128.176L1599.67 128.171L1599.68 128.166L1597.73 123.561ZM1545.44 101.954L1540.47 102.532L1540.47 102.538L1545.44 101.954ZM1544.7 5.4209V0.420898H1539.7V5.4209H1544.7ZM1575.54 5.4209H1580.54V0.420898H1575.54V5.4209ZM1576.34 104.298L1571.65 106.019L1571.68 106.115L1571.72 106.21L1576.34 104.298ZM1583.52 104.078L1578.82 102.369L1578.81 102.411L1578.79 102.453L1583.52 104.078ZM1584.4 5.4209V0.420898H1579.4V5.4209H1584.4ZM1615.24 5.4209H1610.24V84.6689H1615.24H1620.24V5.4209H1615.24ZM1615.24 84.6689H1610.24C1610.24 93.6555 1609.94 99.6206 1609.42 102.849L1614.36 103.639L1619.29 104.429C1619.95 100.333 1620.24 93.6512 1620.24 84.6689H1615.24ZM1614.36 103.639L1609.42 102.838C1609 105.446 1607.7 108.445 1605.15 111.853L1609.16 114.845L1613.16 117.837C1616.38 113.53 1618.54 109.058 1619.29 104.439L1614.36 103.639ZM1609.16 114.845L1605.17 111.828C1602.86 114.884 1599.78 117.268 1595.78 118.955L1597.73 123.561L1599.68 128.166C1605.16 125.85 1609.69 122.423 1613.14 117.861L1609.16 114.845ZM1597.73 123.561L1595.81 118.945C1591.87 120.588 1587.01 121.49 1581.1 121.49V126.49V131.49C1588 131.49 1594.22 130.44 1599.65 128.176L1597.73 123.561ZM1581.1 126.49V121.49C1574.57 121.49 1569.02 120.41 1564.34 118.385L1562.35 122.975L1560.37 127.564C1566.53 130.227 1573.48 131.49 1581.1 131.49V126.49ZM1562.35 122.975L1564.34 118.385C1559.53 116.304 1556.29 113.753 1554.26 110.913L1550.2 113.819L1546.13 116.726C1549.47 121.405 1554.34 124.958 1560.37 127.564L1562.35 122.975ZM1550.2 113.819L1554.26 110.913C1552.02 107.765 1550.78 104.597 1550.4 101.37L1545.44 101.954L1540.47 102.538C1541.07 107.612 1543 112.354 1546.13 116.726L1550.2 113.819ZM1545.44 101.954L1550.4 101.377C1549.95 97.5169 1549.7 89.0261 1549.7 75.5869H1544.7H1539.7C1539.7 88.9055 1539.94 97.9929 1540.47 102.532L1545.44 101.954ZM1544.7 75.5869H1549.7V5.4209H1544.7H1539.7V75.5869H1544.7ZM1544.7 5.4209V10.4209H1575.54V5.4209V0.420898H1544.7V5.4209ZM1575.54 5.4209H1570.54V94.3369H1575.54H1580.54V5.4209H1575.54ZM1575.54 94.3369H1570.54C1570.54 96.9946 1570.61 99.2659 1570.76 101.112C1570.89 102.833 1571.13 104.608 1571.65 106.019L1576.34 104.298L1581.04 102.577C1581.05 102.612 1581 102.463 1580.92 102.021C1580.85 101.606 1580.78 101.041 1580.72 100.306C1580.6 98.8317 1580.54 96.855 1580.54 94.3369H1575.54ZM1576.34 104.298L1571.72 106.21C1572.36 107.751 1573.43 109.166 1575.02 110.146C1576.57 111.102 1578.25 111.422 1579.79 111.422V106.422V101.422C1579.61 101.422 1579.87 101.388 1580.27 101.636C1580.46 101.756 1580.63 101.907 1580.76 102.066C1580.89 102.22 1580.95 102.342 1580.96 102.386L1576.34 104.298ZM1579.79 106.422V111.422C1581.4 111.422 1583.2 111.101 1584.84 110.071C1586.55 108.998 1587.66 107.424 1588.25 105.704L1583.52 104.078L1578.79 102.453C1578.81 102.4 1578.87 102.257 1579.01 102.077C1579.15 101.891 1579.33 101.726 1579.53 101.601C1579.92 101.353 1580.12 101.422 1579.79 101.422V106.422ZM1583.52 104.078L1588.22 105.787C1588.76 104.294 1589.02 102.363 1589.17 100.438C1589.33 98.3783 1589.4 95.8189 1589.4 92.7988H1584.4H1579.4C1579.4 95.6869 1579.33 97.9615 1579.2 99.6614C1579.13 100.51 1579.05 101.168 1578.97 101.659C1578.89 102.18 1578.82 102.377 1578.82 102.369L1583.52 104.078ZM1584.4 92.7988H1589.4V5.4209H1584.4H1579.4V92.7988H1584.4ZM1584.4 5.4209V10.4209H1615.24V5.4209V0.420898H1584.4V5.4209ZM1722.32 5.4209H1727.32V0.420898H1722.32V5.4209ZM1722.32 124V129H1727.32V124H1722.32ZM1695.36 124H1690.36V129H1695.36V124ZM1695.36 43.9463H1700.36L1690.41 43.2798L1695.36 43.9463ZM1684.6 124V129H1688.97L1689.55 124.666L1684.6 124ZM1665.48 124L1660.53 124.718L1661.15 129H1665.48V124ZM1654.13 45.7773L1659.08 45.0592L1649.13 45.7773H1654.13ZM1654.13 124V129H1659.13V124H1654.13ZM1627.17 124H1622.17V129H1627.17V124ZM1627.17 5.4209V0.420898H1622.17V5.4209H1627.17ZM1667.09 5.4209L1672.02 4.60987L1671.34 0.420898H1667.09V5.4209ZM1670.83 30.6162L1665.87 31.2918L1665.87 31.3025L1665.87 31.3132L1670.83 30.6162ZM1675.07 60.792L1670.12 61.489L1680.03 61.4219L1675.07 60.792ZM1682.11 5.4209V0.420898H1677.7L1677.15 4.79104L1682.11 5.4209ZM1722.32 5.4209H1717.32V124H1722.32H1727.32V5.4209H1722.32ZM1722.32 124V119H1695.36V124V129H1722.32V124ZM1695.36 124H1700.36V43.9463H1695.36H1690.36V124H1695.36ZM1695.36 43.9463L1690.41 43.2798L1679.64 123.334L1684.6 124L1689.55 124.666L1700.32 44.6127L1695.36 43.9463ZM1684.6 124V119H1665.48V124V129H1684.6V124ZM1665.48 124L1670.43 123.282L1659.08 45.0592L1654.13 45.7773L1649.18 46.4955L1660.53 124.718L1665.48 124ZM1654.13 45.7773H1649.13V124H1654.13H1659.13V45.7773H1654.13ZM1654.13 124V119H1627.17V124V129H1654.13V124ZM1627.17 124H1632.17V5.4209H1627.17H1622.17V124H1627.17ZM1627.17 5.4209V10.4209H1667.09V5.4209V0.420898H1627.17V5.4209ZM1667.09 5.4209L1662.16 6.23193C1663.32 13.3033 1664.56 21.6545 1665.87 31.2918L1670.83 30.6162L1675.78 29.9406C1674.46 20.2419 1673.21 11.7963 1672.02 4.60987L1667.09 5.4209ZM1670.83 30.6162L1665.87 31.3132L1670.12 61.489L1675.07 60.792L1680.03 60.095L1675.78 29.9192L1670.83 30.6162ZM1675.07 60.792L1680.03 61.4219L1687.07 6.05076L1682.11 5.4209L1677.15 4.79104L1670.11 60.1621L1675.07 60.792ZM1682.11 5.4209V10.4209H1722.32V5.4209V0.420898H1682.11V5.4209ZM1761.21 5.4209V0.420898H1756.21V5.4209H1761.21ZM1811.6 7.39844L1810.19 12.1961L1810.2 12.1981L1810.2 12.2002L1811.6 7.39844ZM1821.78 13.1113L1818.07 16.4602L1818.08 16.48L1818.1 16.4997L1821.78 13.1113ZM1826.39 22.1934L1821.51 23.2638L1821.52 23.3032L1821.53 23.3423L1826.39 22.1934ZM1816.65 73.4629L1814.63 68.8895L1814.62 68.8938L1814.61 68.8983L1816.65 73.4629ZM1792.04 76.2461V71.2461H1787.04V76.2461H1792.04ZM1792.04 124V129H1797.04V124H1792.04ZM1761.21 124H1756.21V129H1761.21V124ZM1792.04 25.709V20.709H1787.04V25.709H1792.04ZM1792.04 55.8848H1787.04V60.6147L1791.76 60.8771L1792.04 55.8848ZM1800.17 53.9072L1796.25 50.8003L1796.25 50.8092L1796.24 50.8181L1800.17 53.9072ZM1761.21 5.4209V10.4209H1792.26V5.4209V0.420898H1761.21V5.4209ZM1792.26 5.4209V10.4209C1800.5 10.4209 1806.38 11.0783 1810.19 12.1961L1811.6 7.39844L1813.01 2.60078C1807.83 1.08182 1800.82 0.420898 1792.26 0.420898V5.4209ZM1811.6 7.39844L1810.2 12.2002C1814.2 13.3606 1816.65 14.8881 1818.07 16.4602L1821.78 13.1113L1825.49 9.76248C1822.42 6.35409 1818.08 4.07296 1812.99 2.59671L1811.6 7.39844ZM1821.78 13.1113L1818.1 16.4997C1819.75 18.2877 1820.9 20.4959 1821.51 23.2638L1826.39 22.1934L1831.28 21.1229C1830.32 16.7619 1828.4 12.9155 1825.46 9.72292L1821.78 13.1113ZM1826.39 22.1934L1821.53 23.3423C1822.22 26.2643 1822.64 31.2484 1822.64 38.5996H1827.64H1832.64C1832.64 31.107 1832.23 25.1537 1831.26 21.0444L1826.39 22.1934ZM1827.64 38.5996H1822.64V48.9268H1827.64H1832.64V38.5996H1827.64ZM1827.64 48.9268H1822.64C1822.64 56.351 1821.84 60.9724 1820.74 63.425L1825.29 65.4795L1829.85 67.534C1831.87 63.053 1832.64 56.6393 1832.64 48.9268H1827.64ZM1825.29 65.4795L1820.74 63.425C1819.78 65.5452 1817.95 67.4236 1814.63 68.8895L1816.65 73.4629L1818.67 78.0363C1823.75 75.7912 1827.68 72.3474 1829.85 67.534L1825.29 65.4795ZM1816.65 73.4629L1814.61 68.8983C1811.34 70.3627 1806.66 71.2461 1800.32 71.2461V76.2461V81.2461C1807.45 81.2461 1813.67 80.274 1818.69 78.0275L1816.65 73.4629ZM1800.32 76.2461V71.2461H1792.04V76.2461V81.2461H1800.32V76.2461ZM1792.04 76.2461H1787.04V124H1792.04H1797.04V76.2461H1792.04ZM1792.04 124V119H1761.21V124V129H1792.04V124ZM1761.21 124H1766.21V5.4209H1761.21H1756.21V124H1761.21ZM1792.04 25.709H1787.04V55.8848H1792.04H1797.04V25.709H1792.04ZM1792.04 55.8848L1791.76 60.8771C1792.7 60.9292 1793.56 60.958 1794.31 60.958V55.958V50.958C1793.8 50.958 1793.14 50.938 1792.32 50.8925L1792.04 55.8848ZM1794.31 55.958V60.958C1797.72 60.958 1801.62 60.1628 1804.1 56.9963L1800.17 53.9072L1796.24 50.8181C1796.4 50.6197 1796.5 50.6385 1796.25 50.726C1795.96 50.8275 1795.36 50.958 1794.31 50.958V55.958ZM1800.17 53.9072L1804.09 57.0142C1805.37 55.398 1806 53.4109 1806.34 51.6151C1806.71 49.7389 1806.86 47.5697 1806.86 45.1914H1801.86H1796.86C1796.86 47.2076 1796.73 48.6884 1796.53 49.7174C1796.31 50.8269 1796.1 51.0004 1796.25 50.8003L1800.17 53.9072ZM1801.86 45.1914H1806.86V35.4502H1801.86H1796.86V45.1914H1801.86ZM1801.86 35.4502H1806.86C1806.86 33.2031 1806.68 31.1027 1806.24 29.2628C1805.81 27.4798 1805.02 25.4745 1803.42 23.9359L1799.95 27.54L1796.49 31.1442C1796.16 30.8262 1796.31 30.7497 1796.52 31.6034C1796.71 32.4002 1796.86 33.6445 1796.86 35.4502H1801.86ZM1799.95 27.54L1803.42 23.9359C1801.87 22.4501 1799.91 21.7038 1798.15 21.2956C1796.33 20.8746 1794.26 20.709 1792.04 20.709V25.709V30.709C1793.83 30.709 1795.08 30.8485 1795.89 31.0379C1796.77 31.24 1796.76 31.4092 1796.49 31.1442L1799.95 27.54ZM1836.5 5.4209V0.420898H1831.5V5.4209H1836.5ZM1887.84 7.10547L1886.77 11.9897L1886.78 11.9918L1887.84 7.10547ZM1900.44 15.748L1896.33 18.6008L1896.35 18.6256L1896.37 18.6501L1900.44 15.748ZM1888.36 62.1104L1887.89 57.1324L1887.15 66.9633L1888.36 62.1104ZM1904.54 75.2207L1899.67 76.3288L1899.68 76.3946L1899.7 76.4599L1904.54 75.2207ZM1905.35 124V129H1910.35V124H1905.35ZM1876.71 124H1871.71V129H1876.71V124ZM1875.17 72.8037L1870.97 75.5143L1871 75.5615L1871.03 75.608L1875.17 72.8037ZM1867.33 70.5332V65.5332H1862.33V70.5332H1867.33ZM1867.33 124V129H1872.33V124H1867.33ZM1836.5 124H1831.5V129H1836.5V124ZM1867.33 25.709V20.709H1862.33V25.709H1867.33ZM1867.33 52.0762H1862.33V57.0762H1867.33V52.0762ZM1874.59 50.6846L1877.39 54.8219L1877.41 54.8114L1877.42 54.8006L1874.59 50.6846ZM1874.66 27.4668L1871.34 31.2038L1871.37 31.2338L1871.41 31.2631L1874.66 27.4668ZM1836.5 5.4209V10.4209H1858.33V5.4209V0.420898H1836.5V5.4209ZM1858.33 5.4209V10.4209C1872.94 10.4209 1882.25 10.9994 1886.77 11.9897L1887.84 7.10547L1888.91 2.22127C1883.18 0.965483 1872.82 0.420898 1858.33 0.420898V5.4209ZM1887.84 7.10547L1886.78 11.9918C1890.64 12.8277 1893.78 14.9252 1896.33 18.6008L1900.44 15.748L1904.55 12.8953C1900.66 7.29358 1895.4 3.62933 1888.9 2.21917L1887.84 7.10547ZM1900.44 15.748L1896.37 18.6501C1898.72 21.9501 1900.35 28.0039 1900.35 37.7939H1905.35H1910.35C1910.35 27.3692 1908.7 18.7256 1904.51 12.846L1900.44 15.748ZM1905.35 37.7939H1900.35C1900.35 42.2294 1900.07 45.7588 1899.57 48.4565C1899.06 51.2225 1898.38 52.7389 1897.85 53.4677L1901.91 56.3975L1905.96 59.3272C1907.72 56.8822 1908.77 53.7111 1909.4 50.276C1910.05 46.7724 1910.35 42.587 1910.35 37.7939H1905.35ZM1901.91 56.3975L1897.85 53.4677C1896.85 54.8575 1894.18 56.5393 1887.89 57.1324L1888.36 62.1104L1888.82 67.0883C1896.01 66.4119 1902.37 64.2851 1905.96 59.3272L1901.91 56.3975ZM1888.36 62.1104L1887.15 66.9633C1893.02 68.4194 1895.78 70.1293 1896.81 71.3758L1900.66 68.1895L1904.51 65.0031C1901.34 61.1715 1895.89 58.8287 1889.56 57.2574L1888.36 62.1104ZM1900.66 68.1895L1896.81 71.3758C1898.63 73.5858 1899.42 75.2278 1899.67 76.3288L1904.54 75.2207L1909.42 74.1126C1908.69 70.9167 1906.89 67.8713 1904.51 65.0031L1900.66 68.1895ZM1904.54 75.2207L1899.7 76.4599C1899.82 76.944 1900.02 78.4379 1900.15 81.4015C1900.28 84.2098 1900.35 87.9755 1900.35 92.7256H1905.35H1910.35C1910.35 87.9054 1910.28 83.9684 1910.14 80.9417C1910.01 78.0704 1909.8 75.597 1909.39 73.9815L1904.54 75.2207ZM1905.35 92.7256H1900.35V124H1905.35H1910.35V92.7256H1905.35ZM1905.35 124V119H1876.71V124V129H1905.35V124ZM1876.71 124H1881.71V84.5957H1876.71H1871.71V124H1876.71ZM1876.71 84.5957H1881.71C1881.71 81.3175 1881.58 78.508 1881.28 76.2403C1881.02 74.2025 1880.53 71.8051 1879.31 69.9995L1875.17 72.8037L1871.03 75.608C1870.83 75.316 1871.12 75.6408 1871.37 77.5337C1871.58 79.1966 1871.71 81.5262 1871.71 84.5957H1876.71ZM1875.17 72.8037L1879.37 70.0931C1877.97 67.9157 1875.77 66.8471 1873.87 66.2983C1871.93 65.737 1869.7 65.5332 1867.33 65.5332V70.5332V75.5332C1869.22 75.5332 1870.41 75.7078 1871.09 75.9033C1871.81 76.1114 1871.4 76.178 1870.97 75.5143L1875.17 72.8037ZM1867.33 70.5332H1862.33V124H1867.33H1872.33V70.5332H1867.33ZM1867.33 124V119H1836.5V124V129H1867.33V124ZM1836.5 124H1841.5V5.4209H1836.5H1831.5V124H1836.5ZM1867.33 25.709H1862.33V52.0762H1867.33H1872.33V25.709H1867.33ZM1867.33 52.0762V57.0762C1870.91 57.0762 1874.68 56.6609 1877.39 54.8219L1874.59 50.6846L1871.78 46.5472C1871.86 46.4897 1871.64 46.657 1870.81 46.8179C1870 46.9716 1868.87 47.0762 1867.33 47.0762V52.0762ZM1874.59 50.6846L1877.42 54.8006C1879.74 53.203 1880.63 50.5875 1881.05 48.7398C1881.53 46.6669 1881.71 44.1635 1881.71 41.3828H1876.71H1871.71C1871.71 43.8268 1871.54 45.4859 1871.3 46.5136C1871.25 46.7554 1871.2 46.9349 1871.15 47.0616C1871.11 47.1895 1871.08 47.244 1871.08 47.2438C1871.08 47.2424 1871.09 47.223 1871.11 47.1896C1871.14 47.1561 1871.17 47.1059 1871.22 47.0441C1871.32 46.92 1871.49 46.7437 1871.75 46.5685L1874.59 50.6846ZM1876.71 41.3828H1881.71V34.8643H1876.71H1871.71V41.3828H1876.71ZM1876.71 34.8643H1881.71C1881.71 32.7234 1881.52 30.6789 1881.02 28.8593C1880.52 27.0554 1879.61 25.1222 1877.91 23.6705L1874.66 27.4668L1871.41 31.2631C1871.08 30.9832 1871.2 30.8689 1871.38 31.5308C1871.56 32.1771 1871.71 33.2453 1871.71 34.8643H1876.71ZM1874.66 27.4668L1877.98 23.7298C1875.18 21.2421 1871.06 20.709 1867.33 20.709V25.709V30.709C1868.87 30.709 1869.96 30.8385 1870.67 31.0104C1871.41 31.1876 1871.5 31.3467 1871.34 31.2038L1874.66 27.4668ZM1917.36 5.4209V0.420898H1912.36V5.4209H1917.36ZM1968.78 5.4209H1973.78V0.420898H1968.78V5.4209ZM1968.78 29.1514V34.1514H1973.78V29.1514H1968.78ZM1948.19 29.1514V24.1514H1943.19V29.1514H1948.19ZM1948.19 51.6367H1943.19V56.6367H1948.19V51.6367ZM1967.46 51.6367H1972.46V46.6367H1967.46V51.6367ZM1967.46 74.1953V79.1953H1972.46V74.1953H1967.46ZM1948.19 74.1953V69.1953H1943.19V74.1953H1948.19ZM1948.19 100.27H1943.19V105.27H1948.19V100.27ZM1970.83 100.27H1975.83V95.2695H1970.83V100.27ZM1970.83 124V129H1975.83V124H1970.83ZM1917.36 124H1912.36V129H1917.36V124ZM1917.36 5.4209V10.4209H1968.78V5.4209V0.420898H1917.36V5.4209ZM1968.78 5.4209H1963.78V29.1514H1968.78H1973.78V5.4209H1968.78ZM1968.78 29.1514V24.1514H1948.19V29.1514V34.1514H1968.78V29.1514ZM1948.19 29.1514H1943.19V51.6367H1948.19H1953.19V29.1514H1948.19ZM1948.19 51.6367V56.6367H1967.46V51.6367V46.6367H1948.19V51.6367ZM1967.46 51.6367H1962.46V74.1953H1967.46H1972.46V51.6367H1967.46ZM1967.46 74.1953V69.1953H1948.19V74.1953V79.1953H1967.46V74.1953ZM1948.19 74.1953H1943.19V100.27H1948.19H1953.19V74.1953H1948.19ZM1948.19 100.27V105.27H1970.83V100.27V95.2695H1948.19V100.27ZM1970.83 100.27H1965.83V124H1970.83H1975.83V100.27H1970.83ZM1970.83 124V119H1917.36V124V129H1970.83V124ZM1917.36 124H1922.36V5.4209H1917.36H1912.36V124H1917.36ZM2074.9 5.4209H2079.9V0.420898H2074.9V5.4209ZM2074.9 124V129H2079.9V124H2074.9ZM2047.95 124H2042.95V129H2047.95V124ZM2047.95 43.9463H2052.95L2042.99 43.2798L2047.95 43.9463ZM2037.18 124V129H2041.56L2042.14 124.666L2037.18 124ZM2018.07 124L2013.12 124.718L2013.74 129H2018.07V124ZM2006.71 45.7773L2011.66 45.0592L2001.71 45.7773H2006.71ZM2006.71 124V129H2011.71V124H2006.71ZM1979.76 124H1974.76V129H1979.76V124ZM1979.76 5.4209V0.420898H1974.76V5.4209H1979.76ZM2019.68 5.4209L2024.61 4.60987L2023.92 0.420898H2019.68V5.4209ZM2023.41 30.6162L2018.46 31.2918L2018.46 31.3025L2018.46 31.3132L2023.41 30.6162ZM2027.66 60.792L2022.71 61.489L2032.62 61.4219L2027.66 60.792ZM2034.69 5.4209V0.420898H2030.29L2029.73 4.79104L2034.69 5.4209ZM2074.9 5.4209H2069.9V124H2074.9H2079.9V5.4209H2074.9ZM2074.9 124V119H2047.95V124V129H2074.9V124ZM2047.95 124H2052.95V43.9463H2047.95H2042.95V124H2047.95ZM2047.95 43.9463L2042.99 43.2798L2032.23 123.334L2037.18 124L2042.14 124.666L2052.91 44.6127L2047.95 43.9463ZM2037.18 124V119H2018.07V124V129H2037.18V124ZM2018.07 124L2023.02 123.282L2011.66 45.0592L2006.71 45.7773L2001.77 46.4955L2013.12 124.718L2018.07 124ZM2006.71 45.7773H2001.71V124H2006.71H2011.71V45.7773H2006.71ZM2006.71 124V119H1979.76V124V129H2006.71V124ZM1979.76 124H1984.76V5.4209H1979.76H1974.76V124H1979.76ZM1979.76 5.4209V10.4209H2019.68V5.4209V0.420898H1979.76V5.4209ZM2019.68 5.4209L2014.74 6.23193C2015.91 13.3033 2017.15 21.6545 2018.46 31.2918L2023.41 30.6162L2028.37 29.9406C2027.05 20.2419 2025.79 11.7963 2024.61 4.60987L2019.68 5.4209ZM2023.41 30.6162L2018.46 31.3132L2022.71 61.489L2027.66 60.792L2032.61 60.095L2028.37 29.9192L2023.41 30.6162ZM2027.66 60.792L2032.62 61.4219L2039.65 6.05076L2034.69 5.4209L2029.73 4.79104L2022.7 60.1621L2027.66 60.792ZM2034.69 5.4209V10.4209H2074.9V5.4209V0.420898H2034.69V5.4209ZM2118.12 5.4209H2123.12V0.420898H2118.12V5.4209ZM2118.12 124V129H2123.12V124H2118.12ZM2087.28 124H2082.28V129H2087.28V124ZM2087.28 5.4209V0.420898H2082.28V5.4209H2087.28ZM2118.12 5.4209H2113.12V124H2118.12H2123.12V5.4209H2118.12ZM2118.12 124V119H2087.28V124V129H2118.12V124ZM2087.28 124H2092.28V5.4209H2087.28H2082.28V124H2087.28ZM2087.28 5.4209V10.4209H2118.12V5.4209V0.420898H2087.28V5.4209ZM2200.59 5.4209H2205.59V0.420898H2200.59V5.4209ZM2199.71 103.639L2204.64 104.439L2204.65 104.429L2199.71 103.639ZM2194.51 114.845L2198.5 117.861L2198.5 117.849L2198.51 117.837L2194.51 114.845ZM2183.08 123.561L2185.01 128.176L2185.02 128.171L2185.03 128.166L2183.08 123.561ZM2130.79 101.954L2125.82 102.532L2125.82 102.538L2130.79 101.954ZM2130.05 5.4209V0.420898H2125.05V5.4209H2130.05ZM2160.89 5.4209H2165.89V0.420898H2160.89V5.4209ZM2161.7 104.298L2157 106.019L2157.04 106.115L2157.08 106.21L2161.7 104.298ZM2168.87 104.078L2164.17 102.369L2164.16 102.411L2164.14 102.453L2168.87 104.078ZM2169.75 5.4209V0.420898H2164.75V5.4209H2169.75ZM2200.59 5.4209H2195.59V84.6689H2200.59H2205.59V5.4209H2200.59ZM2200.59 84.6689H2195.59C2195.59 93.6555 2195.29 99.6206 2194.77 102.849L2199.71 103.639L2204.65 104.429C2205.3 100.333 2205.59 93.6512 2205.59 84.6689H2200.59ZM2199.71 103.639L2194.77 102.838C2194.35 105.446 2193.05 108.445 2190.5 111.853L2194.51 114.845L2198.51 117.837C2201.73 113.53 2203.89 109.058 2204.64 104.439L2199.71 103.639ZM2194.51 114.845L2190.52 111.828C2188.21 114.884 2185.13 117.268 2181.14 118.955L2183.08 123.561L2185.03 128.166C2190.51 125.85 2195.05 122.423 2198.5 117.861L2194.51 114.845ZM2183.08 123.561L2181.16 118.945C2177.22 120.588 2172.36 121.49 2166.46 121.49V126.49V131.49C2173.35 131.49 2179.57 130.44 2185.01 128.176L2183.08 123.561ZM2166.46 126.49V121.49C2159.93 121.49 2154.37 120.41 2149.69 118.385L2147.71 122.975L2145.72 127.564C2151.88 130.227 2158.83 131.49 2166.46 131.49V126.49ZM2147.71 122.975L2149.69 118.385C2144.88 116.304 2141.65 113.753 2139.62 110.913L2135.55 113.819L2131.48 116.726C2134.82 121.405 2139.7 124.958 2145.72 127.564L2147.71 122.975ZM2135.55 113.819L2139.62 110.913C2137.37 107.765 2136.13 104.597 2135.75 101.37L2130.79 101.954L2125.82 102.538C2126.42 107.612 2128.36 112.354 2131.48 116.726L2135.55 113.819ZM2130.79 101.954L2135.75 101.377C2135.3 97.5169 2135.05 89.0261 2135.05 75.5869H2130.05H2125.05C2125.05 88.9055 2125.29 97.9929 2125.82 102.532L2130.79 101.954ZM2130.05 75.5869H2135.05V5.4209H2130.05H2125.05V75.5869H2130.05ZM2130.05 5.4209V10.4209H2160.89V5.4209V0.420898H2130.05V5.4209ZM2160.89 5.4209H2155.89V94.3369H2160.89H2165.89V5.4209H2160.89ZM2160.89 94.3369H2155.89C2155.89 96.9946 2155.96 99.2659 2156.11 101.112C2156.25 102.833 2156.48 104.608 2157 106.019L2161.7 104.298L2166.39 102.577C2166.4 102.612 2166.35 102.463 2166.27 102.021C2166.2 101.606 2166.13 101.041 2166.07 100.306C2165.96 98.8317 2165.89 96.855 2165.89 94.3369H2160.89ZM2161.7 104.298L2157.08 106.21C2157.71 107.751 2158.78 109.166 2160.37 110.146C2161.92 111.102 2163.6 111.422 2165.14 111.422V106.422V101.422C2164.97 101.422 2165.22 101.388 2165.62 101.636C2165.82 101.756 2165.98 101.907 2166.11 102.066C2166.24 102.22 2166.3 102.342 2166.32 102.386L2161.7 104.298ZM2165.14 106.422V111.422C2166.75 111.422 2168.55 111.101 2170.19 110.071C2171.9 108.998 2173.01 107.424 2173.6 105.704L2168.87 104.078L2164.14 102.453C2164.16 102.4 2164.22 102.257 2164.36 102.077C2164.5 101.891 2164.68 101.726 2164.88 101.601C2165.27 101.353 2165.48 101.422 2165.14 101.422V106.422ZM2168.87 104.078L2173.57 105.787C2174.11 104.294 2174.37 102.363 2174.52 100.438C2174.68 98.3783 2174.75 95.8189 2174.75 92.7988H2169.75H2164.75C2164.75 95.6869 2164.68 97.9615 2164.55 99.6614C2164.48 100.51 2164.4 101.168 2164.32 101.659C2164.24 102.18 2164.17 102.377 2164.17 102.369L2168.87 104.078ZM2169.75 92.7988H2174.75V5.4209H2169.75H2164.75V92.7988H2169.75ZM2169.75 5.4209V10.4209H2200.59V5.4209V0.420898H2169.75V5.4209ZM2307.67 5.4209H2312.67V0.420898H2307.67V5.4209ZM2307.67 124V129H2312.67V124H2307.67ZM2280.71 124H2275.71V129H2280.71V124ZM2280.71 43.9463H2285.71L2275.76 43.2798L2280.71 43.9463ZM2269.95 124V129H2274.32L2274.9 124.666L2269.95 124ZM2250.83 124L2245.88 124.718L2246.5 129H2250.83V124ZM2239.48 45.7773L2244.43 45.0592L2234.48 45.7773H2239.48ZM2239.48 124V129H2244.48V124H2239.48ZM2212.53 124H2207.53V129H2212.53V124ZM2212.53 5.4209V0.420898H2207.53V5.4209H2212.53ZM2252.44 5.4209L2257.38 4.60987L2256.69 0.420898H2252.44V5.4209ZM2256.18 30.6162L2251.22 31.2918L2251.23 31.3025L2251.23 31.3132L2256.18 30.6162ZM2260.43 60.792L2255.47 61.489L2265.39 61.4219L2260.43 60.792ZM2267.46 5.4209V0.420898H2263.05L2262.5 4.79104L2267.46 5.4209ZM2307.67 5.4209H2302.67V124H2307.67H2312.67V5.4209H2307.67ZM2307.67 124V119H2280.71V124V129H2307.67V124ZM2280.71 124H2285.71V43.9463H2280.71H2275.71V124H2280.71ZM2280.71 43.9463L2275.76 43.2798L2264.99 123.334L2269.95 124L2274.9 124.666L2285.67 44.6127L2280.71 43.9463ZM2269.95 124V119H2250.83V124V129H2269.95V124ZM2250.83 124L2255.78 123.282L2244.43 45.0592L2239.48 45.7773L2234.53 46.4955L2245.88 124.718L2250.83 124ZM2239.48 45.7773H2234.48V124H2239.48H2244.48V45.7773H2239.48ZM2239.48 124V119H2212.53V124V129H2239.48V124ZM2212.53 124H2217.53V5.4209H2212.53H2207.53V124H2212.53ZM2212.53 5.4209V10.4209H2252.44V5.4209V0.420898H2212.53V5.4209ZM2252.44 5.4209L2247.51 6.23193C2248.67 13.3033 2249.91 21.6545 2251.22 31.2918L2256.18 30.6162L2261.13 29.9406C2259.81 20.2419 2258.56 11.7963 2257.38 4.60987L2252.44 5.4209ZM2256.18 30.6162L2251.23 31.3132L2255.47 61.489L2260.43 60.792L2265.38 60.095L2261.13 29.9192L2256.18 30.6162ZM2260.43 60.792L2265.39 61.4219L2272.42 6.05076L2267.46 5.4209L2262.5 4.79104L2255.47 60.1621L2260.43 60.792ZM2267.46 5.4209V10.4209H2307.67V5.4209V0.420898H2267.46V5.4209Z" fill="url(#paint0_linear_2026_391)" mask="url(#path-1-outside-1_2026_391)"/>
<defs>
<linearGradient id="paint0_linear_2026_391" x1="1157" y1="257.5" x2="1157" y2="-94.5" gradientUnits="userSpaceOnUse">
<stop stop-color="#591700"/>
<stop offset="1" stop-color="#CB3400" stop-opacity="0.8"/>
</linearGradient>
</defs>
</svg>
