<svg width="143" height="29" viewBox="0 0 143 29" fill="none" xmlns="http://www.w3.org/2000/svg">
<path d="M8.60701 21.9147C4.4036 21.9147 1.2894 18.9693 1.2894 13.8454C1.2894 8.7062 4.4573 5.77609 8.60701 5.77609C12.2428 5.77609 14.9888 7.86245 15.426 11.4906H12.0664C11.8133 9.76472 10.5016 8.71387 8.68372 8.71387C6.25218 8.71387 4.65673 10.5778 4.65673 13.8454C4.65673 17.2051 6.27519 18.9769 8.66071 18.9769C10.4326 18.9769 11.7519 18.0105 12.0664 16.3306L15.426 16.346C15.0655 19.2377 12.634 21.9147 8.60701 21.9147ZM17.7464 21.7V9.91813H22.7705C25.6776 9.91813 27.4802 11.061 27.4802 13.1014C27.4802 14.3747 26.4753 15.2644 24.7878 15.5559C26.9049 15.7093 28.1322 16.9366 28.1322 18.486C28.1322 20.4957 26.4907 21.7 23.5452 21.7H17.7464ZM20.7915 16.6835V19.2531H23.5452C24.4503 19.2531 25.0026 18.7928 25.0026 18.0335C25.0026 17.1974 24.4503 16.6835 23.5452 16.6835H20.7915ZM22.7705 12.4187H20.7915V14.7659H22.8395C23.8137 14.7659 24.4043 14.321 24.4043 13.5769C24.4043 12.8559 23.783 12.4187 22.7705 12.4187ZM35.561 21.9301C31.9329 21.9301 29.7161 19.5982 29.7161 15.8627C29.7161 12.2269 31.9635 9.76472 35.4306 9.76472C38.5448 9.76472 40.9687 11.7437 40.9687 15.7477V16.6451H32.9454V16.6528C32.9454 18.4093 33.9809 19.4909 35.6147 19.4909C36.7039 19.4909 37.5476 19.023 37.8775 18.1255L40.4164 19.5906C39.5803 21.0403 37.8698 21.9301 35.561 21.9301ZM35.4843 12.2039C34.0346 12.2039 33.0144 13.2778 32.9454 14.6201H37.8928C37.8851 13.2164 36.9033 12.2039 35.4843 12.2039ZM43.101 9.91813H46.3226V11.8971H46.4684C46.9056 10.9383 47.8491 9.76472 49.8204 9.76472C52.4053 9.76472 54.5914 11.7744 54.5914 15.8244C54.5914 19.767 52.4973 21.8917 49.8127 21.8917C47.9104 21.8917 46.9209 20.7948 46.4684 19.813H46.3687V26.1181H43.101V9.91813ZM48.7772 12.365C47.1894 12.365 46.2996 13.7073 46.2996 15.809C46.2996 17.9107 47.2047 19.2914 48.7772 19.2914C50.3803 19.2914 51.2547 17.8647 51.2547 15.809C51.2547 13.7687 50.3956 12.365 48.7772 12.365ZM56.7698 21.7V9.91813H59.8917V14.5051H63.9187V10.8232L67.0175 9.03603V21.7H63.9187V17.0747H59.8917V21.7H56.7698ZM74.6074 26.9159H71.1404L72.8432 22.0375L68.6168 9.91813H72.0532L74.4924 18.5704H74.6151L77.0773 9.91813L80.5367 9.93347L74.6074 26.9159ZM81.5952 9.91813H92.2725L90.7921 12.4877H88.4756V21.7H85.3614V12.4877H81.5952V9.91813ZM99.8221 21.7H94.2534V9.91813H97.3753V13.5386H99.8221C102.944 13.5386 104.777 15.1571 104.785 17.6346C104.777 20.0661 102.944 21.7 99.8221 21.7ZM99.8221 16.1082H97.3753V19.1303H99.8221C100.919 19.1303 101.694 18.5167 101.709 17.6576C101.694 16.7525 100.919 16.1082 99.8221 16.1082Z" fill="url(#paint0_linear_2017_443)"/>
<path d="M121.334 7.34941C121.29 6.92946 121.432 6.54258 121.73 6.27384C122.027 6.0051 122.455 5.87652 122.919 5.91635L134.069 6.87401C134.533 6.91397 134.996 7.11909 135.356 7.44426C135.716 7.76943 135.943 8.18802 135.987 8.60799L137.046 18.687C137.082 19.1015 136.936 19.4811 136.638 19.744C136.341 20.007 135.918 20.1322 135.458 20.0927C134.999 20.0533 134.541 19.8523 134.182 19.5331C133.824 19.2139 133.595 18.8019 133.543 18.386L132.789 12.2175L122.138 21.8456C121.841 22.1144 121.413 22.243 120.948 22.2031C120.484 22.1631 120.021 21.958 119.661 21.6328C119.301 21.3075 119.074 20.8889 119.03 20.4688C118.986 20.0488 119.128 19.6618 119.425 19.393L130.076 9.76494L123.252 9.08339C122.788 9.04343 122.325 8.83831 121.965 8.51314C121.605 8.18797 121.378 7.76938 121.334 7.34941Z" fill="url(#paint1_linear_2017_443)"/>
<defs>
<linearGradient id="paint0_linear_2017_443" x1="0.200195" y1="13.7" x2="112.2" y2="13.7" gradientUnits="userSpaceOnUse">
<stop stop-color="#F5B325"/>
<stop offset="0.5" stop-color="#E65A13"/>
<stop offset="1" stop-color="#D70000"/>
</linearGradient>
<linearGradient id="paint1_linear_2017_443" x1="119.653" y1="21.6254" x2="133.769" y2="6.00963" gradientUnits="userSpaceOnUse">
<stop stop-color="#F5B325"/>
<stop offset="0.5" stop-color="#E65A13"/>
<stop offset="1" stop-color="#D70000"/>
</linearGradient>
</defs>
</svg>
