<svg width="321" height="75" viewBox="0 0 321 75" fill="none" xmlns="http://www.w3.org/2000/svg">
<rect width="321" height="75" rx="24" fill="url(#paint0_linear_264_493)"/>
<rect x="4.45898" y="3.29395" width="310.81" height="68.4122" rx="24" fill="black"/>
<rect x="9.55371" y="7.0946" width="301.893" height="60.8108" rx="24" fill="url(#paint1_linear_264_493)"/>
<path d="M25.6091 43.8636H26.8727C28.1545 42.9364 29.2 41.1273 29.5182 36.2545L30.0455 28.3818H42.3636V43.8636H44.4V51.4727H40.6182V47H29.3909V51.4909H25.6091V43.8636ZM31.4182 43.8636H38.5818V31.6273H33.5909L33.3 36.2545C33.0545 39.9364 32.3545 42.3273 31.4182 43.8636ZM45.7841 47L52.2114 28.3818H57.2841L63.7023 47H59.4841L58.1023 42.7545H51.3841L50.0023 47H45.7841ZM54.675 32.6364L52.3841 39.6818H57.1114L54.8205 32.6364H54.675ZM65.7523 51.5455C66.0159 50.4818 66.725 47.9455 66.8341 45.4727L66.8795 44.4545H70.0795L69.9795 45.4545C69.7341 47.8636 68.6977 50.4455 68.2614 51.5455H65.7523ZM83.4364 47H79.6182V28.3818H84.4727L89.6 40.8909H89.8182L94.9455 28.3818H99.8V47H95.9818V34.8818H95.8273L91.0091 46.9091H88.4091L83.5909 34.8364H83.4364V47ZM103.043 28.3818H106.98V36.0636H114.97V29.5091L118.898 27.2455V47H114.97V39.3091H106.98V47H103.043V28.3818ZM122.143 28.3818H134.689V31.6273H126.08V36.0636H134.043L132.17 39.3091H126.08V43.7545H134.725V47H122.143V28.3818ZM149.416 41.7818L142.652 28.3818H146.725L151.107 37.5455L154.77 28.3818H158.789L150.298 48.1818H146.67L149.416 41.7818ZM160.036 47L165.873 37.1818L160.282 28.3818H165.127L169.309 36.0455H171.282V29.4818L175.1 27.2818V36.0455H177.173L181.245 28.3818H186.073L180.618 37.1545L186.345 47H181.645L177.709 39.6818H175.1V47H171.282V39.6818H168.736L164.7 47H160.036ZM188.693 28.3818H201.239V31.6273H192.63V36.0636H200.593L198.72 39.3091H192.63V43.7545H201.275V47H188.693V28.3818ZM209.975 36.9182V33.1818L218.284 28.3818V47H214.348V34.3909L209.975 36.9182ZM222.436 41.9909C222.427 39.6636 224.2 37.7636 226.473 37.3909V37.2636C224.491 36.8636 223.118 35.1727 223.127 33.1364C223.118 30.2545 225.882 28.1273 229.655 28.1273C233.418 28.1273 236.182 30.2545 236.191 33.1364C236.182 35.1818 234.791 36.8636 232.845 37.2636V37.3909C235.082 37.7636 236.873 39.6636 236.882 41.9909C236.873 45.0091 233.855 47.2545 229.655 47.2545C225.455 47.2545 222.427 45.0091 222.436 41.9909ZM226.527 41.6818C226.527 43.2545 227.782 44.3636 229.655 44.3636C231.518 44.3636 232.782 43.2636 232.782 41.6818C232.782 40.0727 231.455 38.9091 229.655 38.9091C227.845 38.9091 226.527 40.0727 226.527 41.6818ZM229.655 31.0909C228.064 31.0909 226.964 32.0909 226.964 33.5455C226.964 35.0182 228.082 36.0455 229.655 36.0455C231.218 36.0455 232.345 35.0182 232.345 33.5455C232.345 32.1 231.236 31.0909 229.655 31.0909ZM244.659 43.8364L245.186 43.7909C247.232 43.6182 247.995 41.8545 248.177 36.6636L248.486 28.3818H261.123V47H257.295V31.5364H252.141L251.85 38.0182C251.559 44.2636 250.159 47 245.677 47H244.659V43.8364ZM264.368 28.3818H276.914V31.6273H268.305V36.0636H276.268L274.395 39.3091H268.305V43.7545H276.95V47H264.368V28.3818ZM279.334 28.3818H294.625L292.752 31.6273H288.925V47H285.034V31.6273H279.334V28.3818Z" fill="black"/>
<defs>
<linearGradient id="paint0_linear_264_493" x1="0" y1="37.5" x2="321" y2="37.5" gradientUnits="userSpaceOnUse">
<stop stop-color="#F5B325"/>
<stop offset="0.5" stop-color="#E65A13"/>
<stop offset="1" stop-color="#D70000"/>
</linearGradient>
<linearGradient id="paint1_linear_264_493" x1="9.55371" y1="37.5" x2="311.447" y2="37.5" gradientUnits="userSpaceOnUse">
<stop stop-color="#F5B325"/>
<stop offset="0.5" stop-color="#E65A13"/>
<stop offset="1" stop-color="#D70000"/>
</linearGradient>
</defs>
</svg>
