<svg width="891" height="513" viewBox="0 0 891 513" fill="none" xmlns="http://www.w3.org/2000/svg" xmlns:xlink="http://www.w3.org/1999/xlink">
<rect width="891" height="513" rx="30" fill="url(#paint0_linear_2055_437)"/>
<rect width="891" height="513" rx="30"/>
<path d="M112.009 70.054V74.8551H98.7415V70.054H112.009ZM98.4148 114.929L104.466 111.435V121.648H106.17L112.108 113.182H119.21L111.497 124.006L119.295 135H112.108L106.724 127.259H104.466V135H98.4148V114.929ZM120.83 128.906C120.83 124.034 124.707 122.585 129.026 122.188C132.818 121.818 134.31 121.634 134.31 120.227V120.142C134.31 118.352 133.131 117.315 131.071 117.315C128.898 117.315 127.605 118.381 127.193 119.83L122.449 117.102C123.94 114.46 126.952 112.898 131.099 112.898C135.957 112.898 140.361 115.085 140.361 120.284V135H134.622V131.974H134.452C133.386 134.006 131.298 135.412 128.074 135.412C123.912 135.412 120.83 133.224 120.83 128.906ZM130.148 125.866C128.017 126.165 126.611 127.003 126.611 128.707C126.611 130.369 127.946 131.236 129.807 131.236C132.463 131.236 134.352 129.489 134.352 127.202V124.886C133.628 125.369 131.469 125.682 130.148 125.866ZM145.055 111.506L150.766 114.801V120.597C150.766 123.125 151.945 123.977 155.155 123.977C156.206 123.977 157.214 123.864 158.251 123.622V113.182H163.99V135H158.251V128.409C157.214 128.608 156.107 128.736 155.155 128.736C148.876 128.736 145.055 126.278 145.055 120.597V111.506ZM178.631 135.426C171.913 135.426 167.808 131.108 167.808 124.19C167.808 117.457 171.969 112.898 178.39 112.898C184.157 112.898 188.646 116.562 188.646 123.977V125.639H173.788V125.653C173.788 128.906 175.705 130.909 178.731 130.909C180.748 130.909 182.31 130.043 182.921 128.381L187.623 131.094C186.075 133.778 182.907 135.426 178.631 135.426ZM178.489 117.415C175.805 117.415 173.915 119.403 173.788 121.889H182.95C182.935 119.29 181.117 117.415 178.489 117.415ZM202.452 135.426C195.734 135.426 191.714 130.81 191.714 124.176C191.714 117.486 195.805 112.898 202.424 112.898C206.927 112.898 210.251 114.957 211.572 118.31L206.487 121.25C206.16 119.077 204.739 117.614 202.523 117.614C199.711 117.614 197.864 119.972 197.864 124.091C197.864 128.267 199.697 130.639 202.523 130.639C204.597 130.639 206.131 129.332 206.487 127.003L211.586 129.943C210.279 133.31 207.04 135.426 202.452 135.426ZM214.935 113.182H234.707L231.966 117.94H227.676V135H221.909V117.94H214.935V113.182ZM238.376 135V113.182H247.68C253.063 113.182 256.401 115.298 256.401 119.077C256.401 121.435 254.54 123.082 251.415 123.622C255.336 123.906 257.609 126.179 257.609 129.048C257.609 132.77 254.569 135 249.114 135H238.376ZM244.015 125.71V130.469H249.114C250.79 130.469 251.813 129.616 251.813 128.21C251.813 126.662 250.79 125.71 249.114 125.71H244.015ZM247.68 117.812H244.015V122.159H247.808C249.612 122.159 250.705 121.335 250.705 119.957C250.705 118.622 249.555 117.812 247.68 117.812ZM271.366 135.426C264.647 135.426 260.542 131.108 260.542 124.19C260.542 117.457 264.704 112.898 271.124 112.898C276.891 112.898 281.38 116.562 281.38 123.977V125.639H266.522V125.653C266.522 128.906 268.44 130.909 271.465 130.909C273.482 130.909 275.045 130.043 275.656 128.381L280.357 131.094C278.809 133.778 275.641 135.426 271.366 135.426ZM271.224 117.415C268.539 117.415 266.65 119.403 266.522 121.889H275.684C275.67 119.29 273.852 117.415 271.224 117.415ZM285.329 135V113.182H291.11V121.676H298.567V114.858L304.306 111.548V135H298.567V126.435H291.11V135H285.329ZM309.001 135V113.182H314.782V121.676H322.239V114.858L327.978 111.548V135H322.239V126.435H314.782V135H309.001ZM332.673 135V113.182H338.454V119.886H342.985C348.766 119.886 352.161 122.884 352.175 127.472C352.161 131.974 348.766 135 342.985 135H332.673ZM354.519 135V114.929L360.57 111.435V135H354.519ZM342.985 124.645H338.454V130.241H342.985C345.016 130.241 346.451 129.105 346.479 127.514C346.451 125.838 345.016 124.645 342.985 124.645ZM365.407 111.52L371.188 114.858V127.017L379.043 113.182H385.009V135H379.242V121.122L371.415 135H365.407V111.52ZM375.194 111.307C370.89 111.307 368.177 109.006 368.177 105.568H372.367C372.353 106.875 373.12 108.111 375.194 108.111C377.211 108.111 378.006 106.903 378.006 105.568H382.225C382.211 109.006 379.498 111.307 375.194 111.307ZM399.118 113.182H418.195V135H412.413V117.94H404.828V135H399.118V113.182ZM423.024 113.182H428.99V116.847H429.26C430.07 115.071 431.817 112.898 435.467 112.898C440.254 112.898 444.303 116.619 444.303 124.119C444.303 131.42 440.425 135.355 435.453 135.355C431.93 135.355 430.098 133.324 429.26 131.506H429.075V143.182H423.024V113.182ZM433.536 117.713C430.595 117.713 428.947 120.199 428.947 124.091C428.947 127.983 430.624 130.54 433.536 130.54C436.504 130.54 438.124 127.898 438.124 124.091C438.124 120.312 436.533 117.713 433.536 117.713ZM458.28 135.426C451.561 135.426 447.456 131.108 447.456 124.19C447.456 117.457 451.618 112.898 458.038 112.898C463.805 112.898 468.294 116.562 468.294 123.977V125.639H453.436V125.653C453.436 128.906 455.354 130.909 458.379 130.909C460.396 130.909 461.959 130.043 462.57 128.381L467.271 131.094C465.723 133.778 462.555 135.426 458.28 135.426ZM458.138 117.415C455.453 117.415 453.564 119.403 453.436 121.889H462.598C462.584 119.29 460.766 117.415 458.138 117.415ZM472.243 135V113.182H479.402L485.141 128.31L491.05 113.182H498.266V135H492.555V121.122L487.143 135H483.124L478.024 121.605V135H472.243ZM508.955 135H502.946V111.52L508.727 114.858V127.017L516.582 113.182H522.548V135H516.781V121.122L508.955 135ZM526.376 128.906C526.376 124.034 530.254 122.585 534.572 122.188C538.365 121.818 539.857 121.634 539.857 120.227V120.142C539.857 118.352 538.678 117.315 536.618 117.315C534.445 117.315 533.152 118.381 532.74 119.83L527.996 117.102C529.487 114.46 532.499 112.898 536.646 112.898C541.504 112.898 545.908 115.085 545.908 120.284V135H540.169V131.974H539.999C538.933 134.006 536.845 135.412 533.621 135.412C529.459 135.412 526.376 133.224 526.376 128.906ZM535.695 125.866C533.564 126.165 532.158 127.003 532.158 128.707C532.158 130.369 533.493 131.236 535.354 131.236C538.01 131.236 539.899 129.489 539.899 127.202V124.886C539.175 125.369 537.016 125.682 535.695 125.866ZM549.295 130.199H550.02C552.08 130.199 552.932 128.366 553.145 122.841L553.5 113.182H570.091V135H564.324V117.94H558.94L558.599 124.602C558.23 131.932 555.773 135 551.142 135H549.324L549.295 130.199ZM585.094 135H574.782V113.182H580.563V119.886H585.094C590.876 119.886 594.271 122.884 594.285 127.472C594.271 131.974 590.876 135 585.094 135ZM585.094 124.645H580.563V130.241H585.094C587.126 130.241 588.56 129.105 588.589 127.514C588.56 125.838 587.126 124.645 585.094 124.645ZM598.298 135V113.182H604.079V121.676H611.536V114.858L617.275 111.548V135H611.536V126.435H604.079V135H598.298ZM621.969 135V113.182H627.751V119.886H632.282C638.063 119.886 641.458 122.884 641.472 127.472C641.458 131.974 638.063 135 632.282 135H621.969ZM643.816 135V114.929L649.867 111.435V135H643.816ZM632.282 124.645H627.751V130.241H632.282C634.313 130.241 635.748 129.105 635.776 127.514C635.748 125.838 634.313 124.645 632.282 124.645ZM654.704 111.52L660.485 114.858V127.017L668.34 113.182H674.306V135H668.539V121.122L660.712 135H654.704V111.52ZM664.491 111.307C660.187 111.307 657.474 109.006 657.474 105.568H661.664C661.65 106.875 662.417 108.111 664.491 108.111C666.508 108.111 667.303 106.903 667.303 105.568H671.522C671.508 109.006 668.795 111.307 664.491 111.307ZM112.009 262.054V266.855H98.7415V262.054H112.009ZM112.009 406.054V410.855H98.7415V406.054H112.009Z" fill="url(#paint1_linear_2055_437)"/>
<path d="M132.502 87H126.536V57.9091H134.121L142.133 77.4545H142.474L150.485 57.9091H158.07V87H152.104V68.0653H151.863L144.335 86.858H140.272L132.744 67.9943H132.502V87ZM163.024 87V65.1818H168.805V71.8864H173.337C179.118 71.8864 182.513 74.8835 182.527 79.4716C182.513 83.9744 179.118 87 173.337 87H163.024ZM184.871 87V66.929L190.922 63.4347V87H184.871ZM173.337 76.6449H168.805V82.2415H173.337C175.368 82.2415 176.803 81.1051 176.831 79.5142C176.803 77.8381 175.368 76.6449 173.337 76.6449ZM205.016 87V65.1818H214.32C219.704 65.1818 223.042 67.2983 223.042 71.0767C223.042 73.4347 221.181 75.0824 218.056 75.6222C221.977 75.9062 224.249 78.179 224.249 81.0483C224.249 84.7699 221.21 87 215.755 87H205.016ZM210.656 77.7102V82.4688H215.755C217.431 82.4688 218.454 81.6165 218.454 80.2102C218.454 78.6619 217.431 77.7102 215.755 77.7102H210.656ZM214.32 69.8125H210.656V74.1591H214.448C216.252 74.1591 217.346 73.3352 217.346 71.9574C217.346 70.6222 216.195 69.8125 214.32 69.8125ZM237.921 87.4261C231.202 87.4261 227.183 82.8097 227.183 76.1761C227.183 69.4858 231.273 64.8977 237.893 64.8977C242.396 64.8977 245.719 66.9574 247.04 70.3097L241.955 73.25C241.629 71.0767 240.208 69.6136 237.992 69.6136C235.18 69.6136 233.333 71.9716 233.333 76.0909C233.333 80.267 235.165 82.6392 237.992 82.6392C240.066 82.6392 241.6 81.3324 241.955 79.0028L247.055 81.9432C245.748 85.3097 242.509 87.4261 237.921 87.4261ZM261.483 87.4261C254.764 87.4261 250.659 83.108 250.659 76.1903C250.659 69.4574 254.821 64.8977 261.241 64.8977C267.009 64.8977 271.497 68.5625 271.497 75.9773V77.6392H256.639V77.6534C256.639 80.9062 258.557 82.9091 261.582 82.9091C263.599 82.9091 265.162 82.0426 265.773 80.3807L270.474 83.0938C268.926 85.7784 265.759 87.4261 261.483 87.4261ZM261.341 69.4148C258.656 69.4148 256.767 71.4034 256.639 73.8892H265.801C265.787 71.2898 263.969 69.4148 261.341 69.4148ZM290.389 65.1818L287.648 69.9403H281.327V87H275.446V65.1818H290.389ZM292.374 82.1989H294.05C295.954 80.9915 296.366 76.6023 296.707 72.3125L297.275 65.1818H314.008V82.1989H317.388V93.392H311.621V87H298.283V93.392H292.374V82.1989ZM300.073 82.1989H308.298V69.8409H302.417L302.19 72.3125C301.863 76.9716 301.366 80.1676 300.073 82.1989ZM319.892 80.9062C319.892 76.0341 323.77 74.5852 328.088 74.1875C331.881 73.8182 333.372 73.6335 333.372 72.2273V72.142C333.372 70.3523 332.193 69.3153 330.134 69.3153C327.96 69.3153 326.668 70.3807 326.256 71.8295L321.511 69.1023C323.003 66.4602 326.014 64.8977 330.162 64.8977C335.02 64.8977 339.423 67.0852 339.423 72.2841V87H333.685V83.9744H333.514C332.449 86.0057 330.361 87.4119 327.136 87.4119C322.974 87.4119 319.892 85.2244 319.892 80.9062ZM329.21 77.8665C327.08 78.1648 325.673 79.0028 325.673 80.7074C325.673 82.3693 327.009 83.2358 328.869 83.2358C331.526 83.2358 333.415 81.4886 333.415 79.2017V76.8864C332.69 77.3693 330.531 77.6818 329.21 77.8665ZM351.671 82.1989H353.347C355.251 80.9915 355.663 76.6023 356.004 72.3125L356.572 65.1818H373.305V82.1989H376.685V93.392H370.918V87H357.58V93.392H351.671V82.1989ZM359.37 82.1989H367.594V69.8409H361.714L361.487 72.3125C361.16 76.9716 360.663 80.1676 359.37 82.1989ZM390.155 87.4261C383.436 87.4261 379.331 83.108 379.331 76.1903C379.331 69.4574 383.493 64.8977 389.913 64.8977C395.68 64.8977 400.169 68.5625 400.169 75.9773V77.6392H385.311V77.6534C385.311 80.9062 387.229 82.9091 390.254 82.9091C392.271 82.9091 393.834 82.0426 394.445 80.3807L399.146 83.0938C397.598 85.7784 394.43 87.4261 390.155 87.4261ZM390.013 69.4148C387.328 69.4148 385.439 71.4034 385.311 73.8892H394.473C394.459 71.2898 392.641 69.4148 390.013 69.4148ZM402.811 82.1989H403.536C405.595 82.1989 406.447 80.3665 406.661 74.8409L407.016 65.1818H423.607V87H417.839V69.9403H412.456L412.115 76.6023C411.746 83.9318 409.288 87 404.658 87H402.839L402.811 82.1989ZM427.275 80.9062C427.275 76.0341 431.153 74.5852 435.471 74.1875C439.263 73.8182 440.755 73.6335 440.755 72.2273V72.142C440.755 70.3523 439.576 69.3153 437.516 69.3153C435.343 69.3153 434.05 70.3807 433.638 71.8295L428.894 69.1023C430.386 66.4602 433.397 64.8977 437.545 64.8977C442.403 64.8977 446.806 67.0852 446.806 72.2841V87H441.067V83.9744H440.897C439.832 86.0057 437.744 87.4119 434.519 87.4119C430.357 87.4119 427.275 85.2244 427.275 80.9062ZM436.593 77.8665C434.462 78.1648 433.056 79.0028 433.056 80.7074C433.056 82.3693 434.391 83.2358 436.252 83.2358C438.908 83.2358 440.798 81.4886 440.798 79.2017V76.8864C440.073 77.3693 437.914 77.6818 436.593 77.8665ZM450.194 82.1989H450.918C452.978 82.1989 453.83 80.3665 454.043 74.8409L454.398 65.1818H470.989V87H465.222V69.9403H459.839L459.498 76.6023C459.129 83.9318 456.671 87 452.04 87H450.222L450.194 82.1989ZM481.689 87H475.68V63.5199L481.462 66.858V79.017L489.317 65.1818H495.283V87H489.516V73.1222L481.689 87ZM98.4148 161.182H117.491V183H111.71V165.94H104.125V183H98.4148V161.182ZM122.321 161.182H128.287V164.847H128.557C129.366 163.071 131.114 160.898 134.764 160.898C139.551 160.898 143.599 164.619 143.599 172.119C143.599 179.42 139.722 183.355 134.75 183.355C131.227 183.355 129.395 181.324 128.557 179.506H128.372V191.182H122.321V161.182ZM132.832 165.713C129.892 165.713 128.244 168.199 128.244 172.091C128.244 175.983 129.92 178.54 132.832 178.54C135.801 178.54 137.42 175.898 137.42 172.091C137.42 168.312 135.83 165.713 132.832 165.713ZM146.753 172.176C146.753 165.415 150.872 160.898 157.491 160.898C164.111 160.898 168.23 165.415 168.23 172.176C168.23 178.895 164.111 183.426 157.491 183.426C150.872 183.426 146.753 178.895 146.753 172.176ZM152.903 172.134C152.903 175.94 154.466 178.739 157.52 178.739C160.517 178.739 162.08 175.94 162.08 172.134C162.08 168.327 160.517 165.514 157.52 165.514C154.466 165.514 152.903 168.327 152.903 172.134ZM170.46 178.199H172.136C174.04 176.991 174.452 172.602 174.793 168.312L175.361 161.182H192.094V178.199H195.474V189.392H189.707V183H176.369V189.392H170.46V178.199ZM178.159 178.199H186.384V165.841H180.503L180.276 168.312C179.949 172.972 179.452 176.168 178.159 178.199ZM208.362 192.659H201.941L205.094 183.625L197.268 161.182H203.631L208.148 177.205H208.376L212.935 161.182L219.342 161.21L208.362 192.659ZM222.438 162.929L228.489 159.435V169.648H230.194L236.131 161.182H243.234L235.521 172.006L243.319 183H236.131L230.748 175.259H228.489V183H222.438V162.929ZM244.739 161.182H264.512L261.771 165.94H257.481V183H251.714V165.94H244.739V161.182Z" fill="white"/>
<path d="M131.863 279H126.55V248.148L132.673 251.685V268.205H132.928L145.485 249.909H150.883V279H144.732V260.69H144.519L131.863 279ZM164.384 275.733L169.427 272.821C169.484 274.27 170.833 275.151 172.779 275.151C174.754 275.151 176.273 274.213 176.273 272.48C176.273 270.903 175.009 269.824 173.12 269.824H169.981V265.861H173.12C174.995 265.861 176.046 264.895 176.046 263.574C176.046 262.111 174.924 261.116 173.134 261.116C171.33 261.116 170.023 262.011 169.981 263.29L164.981 260.406C166.359 258.19 169.327 256.898 172.864 256.898C178.205 256.898 181.501 259.241 181.501 263.048C181.501 265.364 179.896 266.955 177.183 267.608V267.835C179.853 268.006 182.026 269.909 182.026 272.949C182.026 277.011 178.177 279.426 172.808 279.426C168.915 279.426 165.79 278.134 164.384 275.733ZM184.736 272.906C184.736 268.034 188.614 266.585 192.932 266.188C196.724 265.818 198.216 265.634 198.216 264.227V264.142C198.216 262.352 197.037 261.315 194.977 261.315C192.804 261.315 191.511 262.381 191.099 263.83L186.355 261.102C187.847 258.46 190.858 256.898 195.006 256.898C199.864 256.898 204.267 259.085 204.267 264.284V279H198.528V275.974H198.358C197.293 278.006 195.205 279.412 191.98 279.412C187.818 279.412 184.736 277.224 184.736 272.906ZM194.054 269.866C191.923 270.165 190.517 271.003 190.517 272.707C190.517 274.369 191.852 275.236 193.713 275.236C196.369 275.236 198.259 273.489 198.259 271.202V268.886C197.534 269.369 195.375 269.682 194.054 269.866ZM218.887 265.25L220.265 249.909H238.049L235.151 254.938H225.336L224.583 262.224H224.754C225.776 260.79 227.978 259.724 230.535 259.724C235.776 259.724 239.668 263.73 239.654 269.298C239.668 275.179 235.265 279.398 228.788 279.398C224.072 279.398 220.364 277.196 218.915 273.83L224.228 270.776C224.37 273.034 226.344 274.568 228.788 274.568C231.671 274.568 233.731 272.48 233.731 269.455C233.731 266.401 231.629 264.284 228.702 264.27C226.984 264.27 225.251 265.023 224.356 266.23L218.887 265.25ZM251.952 274.199H252.676C254.736 274.199 255.588 272.366 255.801 266.841L256.156 257.182H272.747V279H266.98V261.94H261.597L261.256 268.602C260.886 275.932 258.429 279 253.798 279H251.98L251.952 274.199ZM287.381 279.426C280.663 279.426 276.558 275.108 276.558 268.19C276.558 261.457 280.719 256.898 287.14 256.898C292.907 256.898 297.396 260.562 297.396 267.977V269.639H282.538V269.653C282.538 272.906 284.455 274.909 287.481 274.909C289.498 274.909 291.06 274.043 291.671 272.381L296.373 275.094C294.825 277.778 291.657 279.426 287.381 279.426ZM287.239 261.415C284.555 261.415 282.665 263.403 282.538 265.889H291.7C291.685 263.29 289.867 261.415 287.239 261.415ZM300.208 257.182H319.981L317.239 261.94H312.95V279H307.183V261.94H300.208V257.182ZM332.907 257.182H338.873V260.847H339.143C339.952 259.071 341.7 256.898 345.35 256.898C350.137 256.898 354.185 260.619 354.185 268.119C354.185 275.42 350.308 279.355 345.336 279.355C341.813 279.355 339.981 277.324 339.143 275.506H338.958V287.182H332.907V257.182ZM343.418 261.713C340.478 261.713 338.83 264.199 338.83 268.091C338.83 271.983 340.506 274.54 343.418 274.54C346.387 274.54 348.006 271.898 348.006 268.091C348.006 264.312 346.415 261.713 343.418 261.713ZM357.197 272.906C357.197 268.034 361.075 266.585 365.393 266.188C369.185 265.818 370.677 265.634 370.677 264.227V264.142C370.677 262.352 369.498 261.315 367.438 261.315C365.265 261.315 363.972 262.381 363.56 263.83L358.816 261.102C360.308 258.46 363.319 256.898 367.467 256.898C372.325 256.898 376.728 259.085 376.728 264.284V279H370.989V275.974H370.819C369.754 278.006 367.665 279.412 364.441 279.412C360.279 279.412 357.197 277.224 357.197 272.906ZM366.515 269.866C364.384 270.165 362.978 271.003 362.978 272.707C362.978 274.369 364.313 275.236 366.174 275.236C368.83 275.236 370.719 273.489 370.719 271.202V268.886C369.995 269.369 367.836 269.682 366.515 269.866ZM391.309 279.426C384.704 279.426 380.613 275.179 380.613 267.253V265.463C380.613 254.952 384.761 249.98 392.701 249.909C393.326 249.895 393.908 249.909 394.462 249.909C396.792 249.909 398.496 249.923 399.562 249.17L401.408 253.119C399.548 254.653 397.374 254.81 392.9 254.881C387.843 254.938 385.798 257.139 385.286 262.494H385.499C386.806 259.824 389.164 258.304 392.673 258.304C398.241 258.304 401.977 262.125 401.977 268.517C401.977 275.179 397.9 279.426 391.309 279.426ZM391.309 262.892C388.496 262.892 386.792 264.994 386.763 268.716C386.763 272.438 388.482 274.739 391.337 274.739C394.107 274.739 395.826 272.452 395.826 268.716C395.826 264.994 394.107 262.892 391.309 262.892ZM405.112 268.176C405.112 261.415 409.232 256.898 415.851 256.898C422.47 256.898 426.589 261.415 426.589 268.176C426.589 274.895 422.47 279.426 415.851 279.426C409.232 279.426 405.112 274.895 405.112 268.176ZM411.263 268.134C411.263 271.94 412.825 274.739 415.879 274.739C418.876 274.739 420.439 271.94 420.439 268.134C420.439 264.327 418.876 261.514 415.879 261.514C412.825 261.514 411.263 264.327 411.263 268.134ZM429.388 257.182H449.161L446.419 261.94H442.129V279H436.362V261.94H429.388V257.182ZM452.829 279V257.182H458.61V263.886H463.141C468.923 263.886 472.317 266.884 472.332 271.472C472.317 275.974 468.923 279 463.141 279H452.829ZM474.675 279V258.929L480.727 255.435V279H474.675ZM463.141 268.645H458.61V274.241H463.141C465.173 274.241 466.607 273.105 466.636 271.514C466.607 269.838 465.173 268.645 463.141 268.645ZM494.636 286.102C495.048 284.44 496.156 280.477 496.327 276.614L496.398 275.023H501.398L501.241 276.585C500.858 280.349 499.239 284.384 498.557 286.102H494.636ZM526.075 279.426C519.469 279.426 515.379 275.179 515.379 267.253V265.463C515.379 254.952 519.526 249.98 527.467 249.909C528.092 249.895 528.674 249.909 529.228 249.909C531.558 249.909 533.262 249.923 534.327 249.17L536.174 253.119C534.313 254.653 532.14 254.81 527.665 254.881C522.609 254.938 520.563 257.139 520.052 262.494H520.265C521.572 259.824 523.93 258.304 527.438 258.304C533.006 258.304 536.742 262.125 536.742 268.517C536.742 275.179 532.665 279.426 526.075 279.426ZM526.075 262.892C523.262 262.892 521.558 264.994 521.529 268.716C521.529 272.438 523.248 274.739 526.103 274.739C528.873 274.739 530.592 272.452 530.592 268.716C530.592 264.994 528.873 262.892 526.075 262.892ZM539.452 274.199H540.176C542.236 274.199 543.088 272.366 543.301 266.841L543.656 257.182H560.247V279H554.48V261.94H549.097L548.756 268.602C548.386 275.932 545.929 279 541.298 279H539.48L539.452 274.199ZM563.915 272.906C563.915 268.034 567.793 266.585 572.112 266.188C575.904 265.818 577.396 265.634 577.396 264.227V264.142C577.396 262.352 576.217 261.315 574.157 261.315C571.984 261.315 570.691 262.381 570.279 263.83L565.535 261.102C567.026 258.46 570.038 256.898 574.185 256.898C579.043 256.898 583.447 259.085 583.447 264.284V279H577.708V275.974H577.538C576.472 278.006 574.384 279.412 571.16 279.412C566.998 279.412 563.915 277.224 563.915 272.906ZM573.234 269.866C571.103 270.165 569.697 271.003 569.697 272.707C569.697 274.369 571.032 275.236 572.893 275.236C575.549 275.236 577.438 273.489 577.438 271.202V268.886C576.714 269.369 574.555 269.682 573.234 269.866ZM603.085 257.182L600.343 261.94H594.022V279H588.141V257.182H603.085ZM605.893 268.176C605.893 261.415 610.013 256.898 616.632 256.898C623.251 256.898 627.371 261.415 627.371 268.176C627.371 274.895 623.251 279.426 616.632 279.426C610.013 279.426 605.893 274.895 605.893 268.176ZM612.044 268.134C612.044 271.94 613.607 274.739 616.661 274.739C619.658 274.739 621.22 271.94 621.22 268.134C621.22 264.327 619.658 261.514 616.661 261.514C613.607 261.514 612.044 264.327 612.044 268.134ZM629.601 274.199H631.277C633.18 272.991 633.592 268.602 633.933 264.312L634.501 257.182H651.234V274.199H654.615V285.392H648.848V279H635.51V285.392H629.601V274.199ZM637.3 274.199H645.524V261.841H639.643L639.416 264.312C639.089 268.972 638.592 272.168 637.3 274.199ZM657.119 272.906C657.119 268.034 660.996 266.585 665.315 266.188C669.107 265.818 670.599 265.634 670.599 264.227V264.142C670.599 262.352 669.42 261.315 667.36 261.315C665.187 261.315 663.894 262.381 663.482 263.83L658.738 261.102C660.229 258.46 663.241 256.898 667.388 256.898C672.246 256.898 676.65 259.085 676.65 264.284V279H670.911V275.974H670.741C669.675 278.006 667.587 279.412 664.363 279.412C660.201 279.412 657.119 277.224 657.119 272.906ZM666.437 269.866C664.306 270.165 662.9 271.003 662.9 272.707C662.9 274.369 664.235 275.236 666.096 275.236C668.752 275.236 670.641 273.489 670.641 271.202V268.886C669.917 269.369 667.758 269.682 666.437 269.866ZM681.344 257.182H687.31V260.847H687.58C688.39 259.071 690.137 256.898 693.788 256.898C698.575 256.898 702.623 260.619 702.623 268.119C702.623 275.42 698.745 279.355 693.773 279.355C690.251 279.355 688.418 277.324 687.58 275.506H687.396V287.182H681.344V257.182ZM691.856 261.713C688.915 261.713 687.268 264.199 687.268 268.091C687.268 271.983 688.944 274.54 691.856 274.54C694.825 274.54 696.444 271.898 696.444 268.091C696.444 264.312 694.853 261.713 691.856 261.713ZM711.373 279H705.577L710.279 270.207C707.68 269.071 706.188 266.997 706.202 264.341C706.174 260.08 709.697 257.182 715.35 257.182H725.08V279H719.441V271.131H715.563L711.373 279ZM711.969 264.511C711.941 265.932 713.092 267.04 715.293 267.04H719.441V261.926H715.35C713.12 261.926 711.941 263.119 711.969 264.511ZM98.4148 327V305.182H107.719C113.102 305.182 116.44 307.298 116.44 311.077C116.44 313.435 114.58 315.082 111.455 315.622C115.375 315.906 117.648 318.179 117.648 321.048C117.648 324.77 114.608 327 109.153 327H98.4148ZM104.054 317.71V322.469H109.153C110.83 322.469 111.852 321.616 111.852 320.21C111.852 318.662 110.83 317.71 109.153 317.71H104.054ZM107.719 309.812H104.054V314.159H107.847C109.651 314.159 110.744 313.335 110.744 311.957C110.744 310.622 109.594 309.812 107.719 309.812ZM120.439 320.906C120.439 316.034 124.317 314.585 128.635 314.188C132.428 313.818 133.919 313.634 133.919 312.227V312.142C133.919 310.352 132.74 309.315 130.68 309.315C128.507 309.315 127.214 310.381 126.803 311.83L122.058 309.102C123.55 306.46 126.561 304.898 130.709 304.898C135.567 304.898 139.97 307.085 139.97 312.284V327H134.232V323.974H134.061C132.996 326.006 130.908 327.412 127.683 327.412C123.521 327.412 120.439 325.224 120.439 320.906ZM129.757 317.866C127.626 318.165 126.22 319.003 126.22 320.707C126.22 322.369 127.555 323.236 129.416 323.236C132.072 323.236 133.962 321.489 133.962 319.202V316.886C133.237 317.369 131.078 317.682 129.757 317.866ZM144.665 327V305.182H151.824L157.562 320.31L163.472 305.182H170.688V327H164.977V313.122L159.565 327H155.545L150.446 313.605V327H144.665ZM190.634 327H184.626V303.52L190.407 306.858V319.017L198.262 305.182H204.228V327H198.461V313.122L190.634 327ZM217.456 316.176C217.456 309.415 221.575 304.898 228.195 304.898C234.814 304.898 238.933 309.415 238.933 316.176C238.933 322.895 234.814 327.426 228.195 327.426C221.575 327.426 217.456 322.895 217.456 316.176ZM223.607 316.134C223.607 319.94 225.169 322.739 228.223 322.739C231.22 322.739 232.783 319.94 232.783 316.134C232.783 312.327 231.22 309.514 228.223 309.514C225.169 309.514 223.607 312.327 223.607 316.134ZM252.754 327.426C246.149 327.426 242.058 323.179 242.058 315.253V313.463C242.058 302.952 246.206 297.98 254.146 297.909C254.771 297.895 255.354 297.909 255.908 297.909C258.237 297.909 259.942 297.923 261.007 297.17L262.854 301.119C260.993 302.653 258.82 302.81 254.345 302.881C249.288 302.938 247.243 305.139 246.732 310.494H246.945C248.251 307.824 250.609 306.304 254.118 306.304C259.686 306.304 263.422 310.125 263.422 316.517C263.422 323.179 259.345 327.426 252.754 327.426ZM252.754 310.892C249.942 310.892 248.237 312.994 248.209 316.716C248.209 320.438 249.928 322.739 252.783 322.739C255.553 322.739 257.271 320.452 257.271 316.716C257.271 312.994 255.553 310.892 252.754 310.892ZM267.438 305.182H273.404V308.847H273.674C274.484 307.071 276.231 304.898 279.881 304.898C284.668 304.898 288.717 308.619 288.717 316.119C288.717 323.42 284.839 327.355 279.867 327.355C276.344 327.355 274.512 325.324 273.674 323.506H273.489V335.182H267.438V305.182ZM277.95 309.713C275.009 309.713 273.362 312.199 273.362 316.091C273.362 319.983 275.038 322.54 277.95 322.54C280.918 322.54 282.538 319.898 282.538 316.091C282.538 312.312 280.947 309.713 277.95 309.713ZM291.728 320.906C291.728 316.034 295.606 314.585 299.924 314.188C303.717 313.818 305.208 313.634 305.208 312.227V312.142C305.208 310.352 304.029 309.315 301.969 309.315C299.796 309.315 298.504 310.381 298.092 311.83L293.347 309.102C294.839 306.46 297.85 304.898 301.998 304.898C306.856 304.898 311.259 307.085 311.259 312.284V327H305.521V323.974H305.35C304.285 326.006 302.197 327.412 298.972 327.412C294.81 327.412 291.728 325.224 291.728 320.906ZM301.046 317.866C298.915 318.165 297.509 319.003 297.509 320.707C297.509 322.369 298.844 323.236 300.705 323.236C303.362 323.236 305.251 321.489 305.251 319.202V316.886C304.526 317.369 302.367 317.682 301.046 317.866ZM314.817 305.182H334.59L331.849 309.94H327.559V327H321.792V309.94H314.817V305.182ZM338.259 327V305.182H344.04V313.676H351.497V306.858L357.236 303.548V327H351.497V318.435H344.04V327H338.259ZM361.05 316.176C361.05 309.415 365.169 304.898 371.788 304.898C378.408 304.898 382.527 309.415 382.527 316.176C382.527 322.895 378.408 327.426 371.788 327.426C365.169 327.426 361.05 322.895 361.05 316.176ZM367.2 316.134C367.2 319.94 368.763 322.739 371.817 322.739C374.814 322.739 376.376 319.94 376.376 316.134C376.376 312.327 374.814 309.514 371.817 309.514C368.763 309.514 367.2 312.327 367.2 316.134ZM386.462 303.52L392.243 306.858V319.017L400.098 305.182H406.064V327H400.297V313.122L392.47 327H386.462V303.52ZM396.249 303.307C391.945 303.307 389.232 301.006 389.232 297.568H393.422C393.408 298.875 394.175 300.111 396.249 300.111C398.266 300.111 399.061 298.903 399.061 297.568H403.28C403.266 301.006 400.553 303.307 396.249 303.307ZM439.288 327.426C432.57 327.426 428.55 322.81 428.55 316.176C428.55 309.486 432.641 304.898 439.26 304.898C443.763 304.898 447.087 306.957 448.408 310.31L443.322 313.25C442.996 311.077 441.575 309.614 439.359 309.614C436.547 309.614 434.7 311.972 434.7 316.091C434.7 320.267 436.533 322.639 439.359 322.639C441.433 322.639 442.967 321.332 443.322 319.003L448.422 321.943C447.115 325.31 443.876 327.426 439.288 327.426ZM452.907 327V305.182H462.211C467.594 305.182 470.933 307.298 470.933 311.077C470.933 313.435 469.072 315.082 465.947 315.622C469.867 315.906 472.14 318.179 472.14 321.048C472.14 324.77 469.1 327 463.646 327H452.907ZM458.546 317.71V322.469H463.646C465.322 322.469 466.344 321.616 466.344 320.21C466.344 318.662 465.322 317.71 463.646 317.71H458.546ZM462.211 309.812H458.546V314.159H462.339C464.143 314.159 465.237 313.335 465.237 311.957C465.237 310.622 464.086 309.812 462.211 309.812ZM480.67 327H474.874L479.576 318.207C476.977 317.071 475.485 314.997 475.499 312.341C475.471 308.08 478.994 305.182 484.647 305.182H494.377V327H488.738V319.131H484.86L480.67 327ZM481.266 312.511C481.238 313.932 482.388 315.04 484.59 315.04H488.738V309.926H484.647C482.417 309.926 481.238 311.119 481.266 312.511ZM498.369 323.733L503.411 320.821C503.468 322.27 504.817 323.151 506.763 323.151C508.738 323.151 510.258 322.213 510.258 320.48C510.258 318.903 508.994 317.824 507.104 317.824H503.965V313.861H507.104C508.979 313.861 510.031 312.895 510.031 311.574C510.031 310.111 508.908 309.116 507.119 309.116C505.315 309.116 504.008 310.011 503.965 311.29L498.965 308.406C500.343 306.19 503.312 304.898 506.849 304.898C512.19 304.898 515.485 307.241 515.485 311.048C515.485 313.364 513.88 314.955 511.167 315.608V315.835C513.837 316.006 516.011 317.909 516.011 320.949C516.011 325.011 512.161 327.426 506.792 327.426C502.9 327.426 499.775 326.134 498.369 323.733ZM525.751 327H519.743V303.52L525.524 306.858V319.017L533.379 305.182H539.345V327H533.578V313.122L525.751 327Z" fill="white" fill-opacity="0.9"/>
<path d="M132.502 423H126.536V393.909H134.121L142.133 413.455H142.474L150.485 393.909H158.07V423H152.104V404.065H151.863L144.335 422.858H140.272L132.744 403.994H132.502V423ZM163.024 423V401.182H168.805V407.886H173.337C179.118 407.886 182.513 410.884 182.527 415.472C182.513 419.974 179.118 423 173.337 423H163.024ZM184.871 423V402.929L190.922 399.435V423H184.871ZM173.337 412.645H168.805V418.241H173.337C175.368 418.241 176.803 417.105 176.831 415.514C176.803 413.838 175.368 412.645 173.337 412.645ZM214.874 423.426C208.156 423.426 204.136 418.81 204.136 412.176C204.136 405.486 208.227 400.898 214.846 400.898C219.349 400.898 222.673 402.957 223.994 406.31L218.908 409.25C218.582 407.077 217.161 405.614 214.945 405.614C212.133 405.614 210.286 407.972 210.286 412.091C210.286 416.267 212.119 418.639 214.945 418.639C217.019 418.639 218.553 417.332 218.908 415.003L224.008 417.943C222.701 421.31 219.462 423.426 214.874 423.426ZM227.612 412.176C227.612 405.415 231.732 400.898 238.351 400.898C244.97 400.898 249.089 405.415 249.089 412.176C249.089 418.895 244.97 423.426 238.351 423.426C231.732 423.426 227.612 418.895 227.612 412.176ZM233.763 412.134C233.763 415.94 235.325 418.739 238.379 418.739C241.376 418.739 242.939 415.94 242.939 412.134C242.939 408.327 241.376 405.514 238.379 405.514C235.325 405.514 233.763 408.327 233.763 412.134ZM252.314 419.733L257.357 416.821C257.413 418.27 258.763 419.151 260.709 419.151C262.683 419.151 264.203 418.213 264.203 416.48C264.203 414.903 262.939 413.824 261.05 413.824H257.911V409.861H261.05C262.925 409.861 263.976 408.895 263.976 407.574C263.976 406.111 262.854 405.116 261.064 405.116C259.26 405.116 257.953 406.011 257.911 407.29L252.911 404.406C254.288 402.19 257.257 400.898 260.794 400.898C266.135 400.898 269.43 403.241 269.43 407.048C269.43 409.364 267.825 410.955 265.112 411.608V411.835C267.783 412.006 269.956 413.909 269.956 416.949C269.956 421.011 266.107 423.426 260.737 423.426C256.845 423.426 253.72 422.134 252.314 419.733ZM271.984 418.199H273.66C275.563 416.991 275.975 412.602 276.316 408.312L276.884 401.182H293.617V418.199H296.998V429.392H291.231V423H277.893V429.392H271.984V418.199ZM279.683 418.199H287.907V405.841H282.026L281.799 408.312C281.472 412.972 280.975 416.168 279.683 418.199ZM299.501 416.906C299.501 412.034 303.379 410.585 307.697 410.188C311.49 409.818 312.982 409.634 312.982 408.227V408.142C312.982 406.352 311.803 405.315 309.743 405.315C307.57 405.315 306.277 406.381 305.865 407.83L301.121 405.102C302.612 402.46 305.624 400.898 309.771 400.898C314.629 400.898 319.033 403.085 319.033 408.284V423H313.294V419.974H313.124C312.058 422.006 309.97 423.412 306.746 423.412C302.584 423.412 299.501 421.224 299.501 416.906ZM308.82 413.866C306.689 414.165 305.283 415.003 305.283 416.707C305.283 418.369 306.618 419.236 308.479 419.236C311.135 419.236 313.024 417.489 313.024 415.202V412.886C312.3 413.369 310.141 413.682 308.82 413.866ZM322.42 418.199H323.145C325.205 418.199 326.057 416.366 326.27 410.841L326.625 401.182H343.216V423H337.449V405.94H332.065L331.724 412.602C331.355 419.932 328.898 423 324.267 423H322.449L322.42 418.199ZM353.915 423H347.907V399.52L353.688 402.858V415.017L361.543 401.182H367.509V423H361.742V409.122L353.915 423ZM379.913 418.199H381.589C383.493 416.991 383.905 412.602 384.246 408.312L384.814 401.182H401.547V418.199H404.928V429.392H399.161V423H385.822V429.392H379.913V418.199ZM387.612 418.199H395.837V405.841H389.956L389.729 408.312C389.402 412.972 388.905 416.168 387.612 418.199ZM418.397 423.426C411.678 423.426 407.573 419.108 407.573 412.19C407.573 405.457 411.735 400.898 418.156 400.898C423.923 400.898 428.411 404.562 428.411 411.977V413.639H413.553V413.653C413.553 416.906 415.471 418.909 418.496 418.909C420.513 418.909 422.076 418.043 422.687 416.381L427.388 419.094C425.84 421.778 422.673 423.426 418.397 423.426ZM418.255 405.415C415.57 405.415 413.681 407.403 413.553 409.889H422.715C422.701 407.29 420.883 405.415 418.255 405.415ZM432.36 399.52L438.141 402.858V415.017L445.996 401.182H451.962V423H446.195V409.122L438.369 423H432.36V399.52ZM442.147 399.307C437.843 399.307 435.13 397.006 435.13 393.568H439.32C439.306 394.875 440.073 396.111 442.147 396.111C444.164 396.111 444.96 394.903 444.96 393.568H449.178C449.164 397.006 446.451 399.307 442.147 399.307ZM466.671 423.426C459.952 423.426 455.933 418.81 455.933 412.176C455.933 405.486 460.023 400.898 466.643 400.898C471.146 400.898 474.469 402.957 475.79 406.31L470.705 409.25C470.379 407.077 468.958 405.614 466.742 405.614C463.93 405.614 462.083 407.972 462.083 412.091C462.083 416.267 463.915 418.639 466.742 418.639C468.816 418.639 470.35 417.332 470.705 415.003L475.805 417.943C474.498 421.31 471.259 423.426 466.671 423.426ZM479.153 401.182H498.926L496.185 405.94H491.895V423H486.128V405.94H479.153V401.182ZM502.594 423V401.182H511.898C517.282 401.182 520.62 403.298 520.62 407.077C520.62 409.435 518.759 411.082 515.634 411.622C519.555 411.906 521.827 414.179 521.827 417.048C521.827 420.77 518.788 423 513.333 423H502.594ZM508.234 413.71V418.469H513.333C515.009 418.469 516.032 417.616 516.032 416.21C516.032 414.662 515.009 413.71 513.333 413.71H508.234ZM511.898 405.812H508.234V410.159H512.026C513.83 410.159 514.924 409.335 514.924 407.957C514.924 406.622 513.773 405.812 511.898 405.812ZM531.65 423H525.641V399.52L531.423 402.858V415.017L539.278 401.182H545.244V423H539.477V409.122L531.65 423ZM548.958 401.182H568.731L565.989 405.94H561.7V423H555.933V405.94H548.958V401.182ZM582.342 423.426C575.624 423.426 571.518 419.108 571.518 412.19C571.518 405.457 575.68 400.898 582.101 400.898C587.868 400.898 592.357 404.562 592.357 411.977V413.639H577.499V413.653C577.499 416.906 579.416 418.909 582.442 418.909C584.459 418.909 586.021 418.043 586.632 416.381L591.334 419.094C589.786 421.778 586.618 423.426 582.342 423.426ZM582.2 405.415C579.516 405.415 577.626 407.403 577.499 409.889H586.661C586.646 407.29 584.828 405.415 582.2 405.415ZM594.999 418.199H595.723C597.783 418.199 598.635 416.366 598.848 410.841L599.203 401.182H615.794V423H610.027V405.94H604.643L604.303 412.602C603.933 419.932 601.476 423 596.845 423H595.027L594.999 418.199ZM630.798 423H620.485V401.182H626.266V407.886H630.798C636.579 407.886 639.974 410.884 639.988 415.472C639.974 419.974 636.579 423 630.798 423ZM630.798 412.645H626.266V418.241H630.798C632.829 418.241 634.263 417.105 634.292 415.514C634.263 413.838 632.829 412.645 630.798 412.645ZM644.001 423V401.182H649.782V409.676H657.239V402.858L662.978 399.548V423H657.239V414.435H649.782V423H644.001ZM666.792 412.176C666.792 405.415 670.911 400.898 677.531 400.898C684.15 400.898 688.269 405.415 688.269 412.176C688.269 418.895 684.15 423.426 677.531 423.426C670.911 423.426 666.792 418.895 666.792 412.176ZM672.942 412.134C672.942 415.94 674.505 418.739 677.559 418.739C680.556 418.739 682.119 415.94 682.119 412.134C682.119 408.327 680.556 405.514 677.559 405.514C674.505 405.514 672.942 408.327 672.942 412.134ZM98.4148 449.182H117.491V471H111.71V453.94H104.125V471H98.4148V449.182ZM122.321 449.182H128.287V452.847H128.557C129.366 451.071 131.114 448.898 134.764 448.898C139.551 448.898 143.599 452.619 143.599 460.119C143.599 467.42 139.722 471.355 134.75 471.355C131.227 471.355 129.395 469.324 128.557 467.506H128.372V479.182H122.321V449.182ZM132.832 453.713C129.892 453.713 128.244 456.199 128.244 460.091C128.244 463.983 129.92 466.54 132.832 466.54C135.801 466.54 137.42 463.898 137.42 460.091C137.42 456.312 135.83 453.713 132.832 453.713ZM157.577 471.426C150.858 471.426 146.753 467.108 146.753 460.19C146.753 453.457 150.915 448.898 157.335 448.898C163.102 448.898 167.591 452.562 167.591 459.977V461.639H152.733V461.653C152.733 464.906 154.651 466.909 157.676 466.909C159.693 466.909 161.256 466.043 161.866 464.381L166.568 467.094C165.02 469.778 161.852 471.426 157.577 471.426ZM157.435 453.415C154.75 453.415 152.861 455.403 152.733 457.889H161.895C161.881 455.29 160.062 453.415 157.435 453.415ZM171.54 471V449.182H178.699L184.438 464.31L190.347 449.182H197.562V471H191.852V457.122L186.44 471H182.42L177.321 457.605V471H171.54ZM208.251 471H202.243V447.52L208.024 450.858V463.017L215.879 449.182H221.845V471H216.078V457.122L208.251 471ZM225.673 464.906C225.673 460.034 229.551 458.585 233.869 458.188C237.662 457.818 239.153 457.634 239.153 456.227V456.142C239.153 454.352 237.974 453.315 235.915 453.315C233.741 453.315 232.449 454.381 232.037 455.83L227.293 453.102C228.784 450.46 231.795 448.898 235.943 448.898C240.801 448.898 245.205 451.085 245.205 456.284V471H239.466V467.974H239.295C238.23 470.006 236.142 471.412 232.918 471.412C228.756 471.412 225.673 469.224 225.673 464.906ZM234.991 461.866C232.861 462.165 231.455 463.003 231.455 464.707C231.455 466.369 232.79 467.236 234.651 467.236C237.307 467.236 239.196 465.489 239.196 463.202V460.886C238.472 461.369 236.312 461.682 234.991 461.866ZM248.592 466.199H249.317C251.376 466.199 252.229 464.366 252.442 458.841L252.797 449.182H269.388V471H263.621V453.94H258.237L257.896 460.602C257.527 467.932 255.07 471 250.439 471H248.621L248.592 466.199ZM284.391 471H274.079V449.182H279.86V455.886H284.391C290.173 455.886 293.567 458.884 293.582 463.472C293.567 467.974 290.173 471 284.391 471ZM284.391 460.645H279.86V466.241H284.391C286.423 466.241 287.857 465.105 287.886 463.514C287.857 461.838 286.423 460.645 284.391 460.645ZM297.594 471V449.182H303.376V457.676H310.833V450.858L316.572 447.548V471H310.833V462.435H303.376V471H297.594ZM321.266 471V449.182H327.048V455.886H331.579C337.36 455.886 340.755 458.884 340.769 463.472C340.755 467.974 337.36 471 331.579 471H321.266ZM343.113 471V450.929L349.164 447.435V471H343.113ZM331.579 460.645H327.048V466.241H331.579C333.61 466.241 335.045 465.105 335.073 463.514C335.045 461.838 333.61 460.645 331.579 460.645ZM354.001 447.52L359.782 450.858V463.017L367.637 449.182H373.603V471H367.836V457.122L360.009 471H354.001V447.52ZM363.788 447.307C359.484 447.307 356.771 445.006 356.771 441.568H360.961C360.947 442.875 361.714 444.111 363.788 444.111C365.805 444.111 366.6 442.903 366.6 441.568H370.819C370.805 445.006 368.092 447.307 363.788 447.307ZM387.712 449.182H406.788V471H401.007V453.94H393.422V471H387.712V449.182ZM411.618 449.182H417.584V452.847H417.854C418.663 451.071 420.411 448.898 424.061 448.898C428.848 448.898 432.896 452.619 432.896 460.119C432.896 467.42 429.018 471.355 424.047 471.355C420.524 471.355 418.692 469.324 417.854 467.506H417.669V479.182H411.618V449.182ZM422.129 453.713C419.189 453.713 417.541 456.199 417.541 460.091C417.541 463.983 419.217 466.54 422.129 466.54C425.098 466.54 426.717 463.898 426.717 460.091C426.717 456.312 425.126 453.713 422.129 453.713ZM436.05 460.176C436.05 453.415 440.169 448.898 446.788 448.898C453.408 448.898 457.527 453.415 457.527 460.176C457.527 466.895 453.408 471.426 446.788 471.426C440.169 471.426 436.05 466.895 436.05 460.176ZM442.2 460.134C442.2 463.94 443.763 466.739 446.817 466.739C449.814 466.739 451.376 463.94 451.376 460.134C451.376 456.327 449.814 453.514 446.817 453.514C443.763 453.514 442.2 456.327 442.2 460.134ZM459.757 466.199H461.433C463.337 464.991 463.749 460.602 464.089 456.312L464.658 449.182H481.391V466.199H484.771V477.392H479.004V471H465.666V477.392H459.757V466.199ZM467.456 466.199H475.68V453.841H469.8L469.572 456.312C469.246 460.972 468.749 464.168 467.456 466.199ZM497.658 480.659H491.238L494.391 471.625L486.565 449.182H492.928L497.445 465.205H497.673L502.232 449.182L508.638 449.21L497.658 480.659ZM511.735 450.929L517.786 447.435V457.648H519.491L525.428 449.182H532.531L524.817 460.006L532.616 471H525.428L520.045 463.259H517.786V471H511.735V450.929ZM534.036 449.182H553.809L551.067 453.94H546.778V471H541.011V453.94H534.036V449.182ZM566.863 467.96C566.849 466.099 568.397 464.58 570.272 464.58C572.09 464.58 573.667 466.099 573.681 467.96C573.667 469.849 572.09 471.369 570.272 471.369C568.397 471.369 566.849 469.849 566.863 467.96ZM570.272 456.099C568.397 456.099 566.849 454.58 566.863 452.69C566.849 450.83 568.397 449.31 570.272 449.31C572.09 449.31 573.667 450.83 573.681 452.69C573.667 454.58 572.09 456.099 570.272 456.099Z" fill="white" fill-opacity="0.8"/>
<defs>
<linearGradient id="paint0_linear_2055_437" x1="445.5" y1="0" x2="445.5" y2="513" gradientUnits="userSpaceOnUse">
<stop stop-color="#141414"/>
<stop offset="0.61328" stop-color="#0A0A0A" stop-opacity="0.9"/>
<stop offset="1" stop-opacity="0.8"/>
</linearGradient>
<linearGradient id="paint1_linear_2055_437" x1="96" y1="240" x2="775" y2="240" gradientUnits="userSpaceOnUse">
<stop stop-color="#F5B325"/>
<stop offset="0.5" stop-color="#E65A13"/>
<stop offset="1" stop-color="#D70000"/>
</linearGradient>
</defs>
</svg>
