<svg width="549" height="400" viewBox="0 0 549 400" fill="none" xmlns="http://www.w3.org/2000/svg" xmlns:xlink="http://www.w3.org/1999/xlink">
<rect width="549" height="400" rx="21" fill="url(#paint0_linear_2041_438)"/>
<rect width="549" height="400" rx="21"/>
<path d="M53.206 45.1378V48.4986H43.919V45.1378H53.206ZM58.1676 91H43.6506V87.8977L50.8991 81.1861C52.7486 79.4062 53.7429 78.2926 53.7429 76.6719C53.7429 74.8821 52.4105 73.7685 50.6207 73.7685C48.7614 73.7685 47.5284 74.9616 47.5384 76.9105L43.7699 74.7429C44.6449 72.0085 47.2102 70.358 50.6506 70.358C55.0156 70.358 57.8991 72.8537 57.8991 76.3835C57.8991 78.7003 56.7756 80.6094 52.5895 84.4276L49.6165 87.3409V87.4801H56.1392L58.1676 91ZM69.2717 91.4474C64.141 91.4375 61.0288 87.5298 61.0487 80.8381C61.0586 74.1662 64.1609 70.358 69.2717 70.358C74.3725 70.358 77.5046 74.1761 77.4947 80.8381C77.4847 87.5497 74.3924 91.4474 69.2717 91.4474ZM65.4336 80.8381C65.4237 85.5312 66.935 87.8778 69.2717 87.8778C71.5984 87.8778 73.1097 85.5312 73.0998 80.8381C73.0998 76.2145 71.5884 73.8878 69.2717 73.8878C66.945 73.8878 65.4435 76.2145 65.4336 80.8381ZM95.0817 91H80.5646V87.8977L87.8132 81.1861C89.6626 79.4062 90.657 78.2926 90.657 76.6719C90.657 74.8821 89.3246 73.7685 87.5348 73.7685C85.6754 73.7685 84.4425 74.9616 84.4524 76.9105L80.6839 74.7429C81.5589 72.0085 84.1243 70.358 87.5646 70.358C91.9297 70.358 94.8132 72.8537 94.8132 76.3835C94.8132 78.7003 93.6896 80.6094 89.5036 84.4276L86.5305 87.3409V87.4801H93.0533L95.0817 91ZM106.186 91.4474C101.055 91.4375 97.9428 87.5298 97.9627 80.8381C97.9727 74.1662 101.075 70.358 106.186 70.358C111.287 70.358 114.419 74.1761 114.409 80.8381C114.399 87.5497 111.306 91.4474 106.186 91.4474ZM102.348 80.8381C102.338 85.5312 103.849 87.8778 106.186 87.8778C108.512 87.8778 110.024 85.5312 110.014 80.8381C110.014 76.2145 108.502 73.8878 106.186 73.8878C103.859 73.8878 102.358 76.2145 102.348 80.8381ZM134.459 75.7273L132.54 79.0582H128.115V91H123.999V75.7273H134.459ZM136.425 83.4233C136.425 78.6903 139.309 75.5284 143.942 75.5284C148.576 75.5284 151.46 78.6903 151.46 83.4233C151.46 88.1264 148.576 91.2983 143.942 91.2983C139.309 91.2983 136.425 88.1264 136.425 83.4233ZM140.731 83.3935C140.731 86.0582 141.825 88.017 143.962 88.017C146.06 88.017 147.154 86.0582 147.154 83.3935C147.154 80.7287 146.06 78.7599 143.962 78.7599C141.825 78.7599 140.731 80.7287 140.731 83.3935ZM153.021 87.6392H154.194C155.526 86.794 155.815 83.7216 156.053 80.7188L156.451 75.7273H168.164V87.6392H170.531V95.4744H166.494V91H157.157V95.4744H153.021V87.6392ZM158.41 87.6392H164.167V78.9886H160.05L159.891 80.7188C159.663 83.9801 159.315 86.2173 158.41 87.6392ZM179.551 97.7614H175.057L177.265 91.4375L171.786 75.7273H176.24L179.402 86.9432H179.561L182.753 75.7273L187.238 75.7472L179.551 97.7614ZM53.206 147.138V150.499H43.919V147.138H53.206ZM281.044 189.639H282.217C283.55 188.794 283.838 185.722 284.077 182.719L284.474 177.727H296.188V189.639H298.554V197.474H294.517V193H285.18V197.474H281.044V189.639ZM286.433 189.639H292.19V180.989H288.074L287.915 182.719C287.686 185.98 287.338 188.217 286.433 189.639ZM305.228 193H301.022V176.564L305.069 178.901V187.412L310.568 177.727H314.744V193H310.707V183.286L305.228 193ZM317.642 190.713L321.172 188.675C321.212 189.689 322.157 190.305 323.519 190.305C324.901 190.305 325.965 189.649 325.965 188.436C325.965 187.332 325.08 186.577 323.757 186.577H321.56V183.803H323.757C325.07 183.803 325.806 183.126 325.806 182.202C325.806 181.178 325.02 180.482 323.767 180.482C322.505 180.482 321.59 181.108 321.56 182.003L318.06 179.984C319.025 178.433 321.103 177.528 323.578 177.528C327.317 177.528 329.624 179.169 329.624 181.834C329.624 183.455 328.5 184.568 326.601 185.026V185.185C328.471 185.304 329.992 186.636 329.992 188.764C329.992 191.608 327.297 193.298 323.539 193.298C320.814 193.298 318.627 192.393 317.642 190.713ZM331.888 188.734C331.888 185.324 334.603 184.31 337.626 184.031C340.281 183.773 341.325 183.643 341.325 182.659V182.599C341.325 181.347 340.499 180.621 339.058 180.621C337.536 180.621 336.631 181.366 336.343 182.381L333.022 180.472C334.066 178.622 336.174 177.528 339.077 177.528C342.478 177.528 345.56 179.06 345.56 182.699V193H341.543V190.882H341.424C340.678 192.304 339.217 193.288 336.96 193.288C334.046 193.288 331.888 191.757 331.888 188.734ZM338.411 186.607C336.92 186.815 335.935 187.402 335.935 188.595C335.935 189.759 336.87 190.365 338.173 190.365C340.032 190.365 341.354 189.142 341.354 187.541V185.92C340.847 186.259 339.336 186.477 338.411 186.607ZM348.847 176.564L352.893 178.901V187.412L358.392 177.727H362.568V193H358.531V183.286L353.053 193H348.847V176.564ZM355.697 176.415C352.685 176.415 350.786 174.804 350.786 172.398H353.719C353.709 173.312 354.246 174.178 355.697 174.178C357.109 174.178 357.666 173.332 357.666 172.398H360.619C360.609 174.804 358.71 176.415 355.697 176.415ZM365.964 193V177.727H370.011V183.673H375.231V178.901L379.248 176.584V193H375.231V187.004H370.011V193H365.964ZM389.494 193.298C384.791 193.298 381.918 190.276 381.918 185.433C381.918 180.72 384.831 177.528 389.325 177.528C393.362 177.528 396.504 180.094 396.504 185.284V186.447H386.104V186.457C386.104 188.734 387.446 190.136 389.564 190.136C390.976 190.136 392.07 189.53 392.497 188.366L395.788 190.266C394.705 192.145 392.487 193.298 389.494 193.298ZM389.395 180.69C387.516 180.69 386.193 182.082 386.104 183.822H392.517C392.507 182.003 391.234 180.69 389.395 180.69ZM43.6903 227V211.727H50.2031C53.9716 211.727 56.3082 213.209 56.3082 215.854C56.3082 217.504 55.0057 218.658 52.8182 219.036C55.5625 219.234 57.1534 220.825 57.1534 222.834C57.1534 225.439 55.0256 227 51.2074 227H43.6903ZM47.6378 220.497V223.828H51.2074C52.3807 223.828 53.0966 223.232 53.0966 222.247C53.0966 221.163 52.3807 220.497 51.2074 220.497H47.6378ZM50.2031 214.969H47.6378V218.011H50.2926C51.5554 218.011 52.321 217.435 52.321 216.47C52.321 215.536 51.5156 214.969 50.2031 214.969ZM59.8232 227V211.727H63.87V217.673H69.0902V212.901L73.1072 210.584V227H69.0902V221.004H63.87V227H59.8232ZM82.946 233.761H78.4517L80.6591 227.438L75.1804 211.727H79.6349L82.7969 222.943H82.956L86.1477 211.727L90.6321 211.747L82.946 233.761ZM92.0043 211.727H105.845L103.926 215.058H100.923V227H96.8864V215.058H92.0043V211.727ZM108.413 211.727H112.589V214.293H112.778C113.345 213.05 114.568 211.528 117.123 211.528C120.474 211.528 123.308 214.134 123.308 219.384C123.308 224.494 120.593 227.249 117.113 227.249C114.647 227.249 113.365 225.827 112.778 224.554H112.649V232.727H108.413V211.727ZM115.771 214.899C113.713 214.899 112.559 216.639 112.559 219.364C112.559 222.088 113.733 223.878 115.771 223.878C117.849 223.878 118.983 222.028 118.983 219.364C118.983 216.719 117.869 214.899 115.771 214.899ZM130.338 227H126.132V210.564L130.179 212.901V221.412L135.677 211.727H139.853V227H135.816V217.286L130.338 227ZM149.729 212.95L153.965 210.504V217.653H155.158L159.315 211.727H164.286L158.887 219.304L164.346 227H159.315L155.546 221.581H153.965V227H149.729V212.95ZM165.519 219.423C165.519 214.69 168.403 211.528 173.036 211.528C177.67 211.528 180.553 214.69 180.553 219.423C180.553 224.126 177.67 227.298 173.036 227.298C168.403 227.298 165.519 224.126 165.519 219.423ZM169.825 219.393C169.825 222.058 170.918 224.017 173.056 224.017C175.154 224.017 176.248 222.058 176.248 219.393C176.248 216.729 175.154 214.76 173.056 214.76C170.918 214.76 169.825 216.729 169.825 219.393ZM183.308 227V211.727H188.319L192.336 222.317L196.472 211.727H201.523V227H197.526V217.286L193.738 227H190.924L187.354 217.624V227H183.308ZM204.8 211.727H218.153V227H214.107V215.058H208.797V227H204.8V211.727ZM220.818 222.734C220.818 219.324 223.533 218.31 226.555 218.031C229.21 217.773 230.254 217.643 230.254 216.659V216.599C230.254 215.347 229.429 214.621 227.987 214.621C226.466 214.621 225.561 215.366 225.273 216.381L221.952 214.472C222.996 212.622 225.104 211.528 228.007 211.528C231.408 211.528 234.49 213.06 234.49 216.699V227H230.473V224.882H230.354C229.608 226.304 228.146 227.288 225.889 227.288C222.976 227.288 220.818 225.757 220.818 222.734ZM227.341 220.607C225.849 220.815 224.865 221.402 224.865 222.595C224.865 223.759 225.8 224.365 227.102 224.365C228.962 224.365 230.284 223.142 230.284 221.541V219.92C229.777 220.259 228.266 220.477 227.341 220.607ZM237.776 227V211.727H241.823V217.673H247.043V212.901L251.06 210.584V227H247.043V221.004H241.823V227H237.776ZM258.553 227H254.347V210.564L258.393 212.901V221.412L263.892 211.727H268.068V227H264.031V217.286L258.553 227ZM275.67 227H271.464V210.564L275.511 212.901V221.412L281.009 211.727H285.185V227H281.148V217.286L275.67 227ZM53.206 283.138V286.499H43.919V283.138H53.206ZM44.1577 353.375L45.1222 342.636H57.571L55.5426 346.156H48.6719L48.1449 351.257H48.2642C48.9801 350.253 50.5213 349.507 52.3111 349.507C55.9801 349.507 58.7045 352.311 58.6946 356.209C58.7045 360.325 55.6222 363.278 51.0881 363.278C47.7869 363.278 45.1918 361.737 44.1776 359.381L47.8963 357.243C47.9957 358.824 49.3778 359.898 51.0881 359.898C53.1065 359.898 54.5483 358.436 54.5483 356.318C54.5483 354.18 53.0767 352.699 51.0284 352.689C49.8253 352.689 48.6122 353.216 47.9858 354.061L44.1577 353.375ZM68.2177 347.727H72.3938V350.293H72.5827C73.1495 349.05 74.3725 347.528 76.9279 347.528C80.2788 347.528 83.1126 350.134 83.1126 355.384C83.1126 360.494 80.3981 363.249 76.918 363.249C74.4521 363.249 73.1694 361.827 72.5827 360.554H72.4535V368.727H68.2177V347.727ZM75.5756 350.899C73.5174 350.899 72.364 352.639 72.364 355.364C72.364 358.088 73.5373 359.878 75.5756 359.878C77.6538 359.878 78.7873 358.028 78.7873 355.364C78.7873 352.719 77.6737 350.899 75.5756 350.899ZM92.8967 363.298C88.1935 363.298 85.32 360.276 85.32 355.433C85.32 350.72 88.2333 347.528 92.7276 347.528C96.7646 347.528 99.9066 350.094 99.9066 355.284V356.447H89.506V356.457C89.506 358.734 90.8484 360.136 92.9663 360.136C94.3782 360.136 95.4719 359.53 95.8995 358.366L99.1907 360.266C98.1069 362.145 95.8896 363.298 92.8967 363.298ZM92.7972 350.69C90.918 350.69 89.5955 352.082 89.506 353.822H95.9194C95.9094 352.003 94.6367 350.69 92.7972 350.69ZM109.591 363.298C104.968 363.298 102.104 360.325 102.104 354.777V353.524C102.104 346.166 105.007 342.686 110.566 342.636C111.003 342.626 111.411 342.636 111.799 342.636C113.429 342.636 114.623 342.646 115.368 342.119L116.661 344.884C115.358 345.957 113.837 346.067 110.705 346.116C107.165 346.156 105.733 347.697 105.375 351.446H105.525C106.439 349.577 108.09 348.513 110.546 348.513C114.444 348.513 117.059 351.188 117.059 355.662C117.059 360.325 114.205 363.298 109.591 363.298ZM109.591 351.724C107.623 351.724 106.429 353.196 106.409 355.801C106.409 358.406 107.613 360.017 109.611 360.017C111.55 360.017 112.753 358.416 112.753 355.801C112.753 353.196 111.55 351.724 109.591 351.724ZM119.87 347.727H124.046V350.293H124.235C124.802 349.05 126.025 347.528 128.58 347.528C131.931 347.528 134.765 350.134 134.765 355.384C134.765 360.494 132.05 363.249 128.57 363.249C126.104 363.249 124.822 361.827 124.235 360.554H124.106V368.727H119.87V347.727ZM127.228 350.899C125.17 350.899 124.016 352.639 124.016 355.364C124.016 358.088 125.19 359.878 127.228 359.878C129.306 359.878 130.44 358.028 130.44 355.364C130.44 352.719 129.326 350.899 127.228 350.899ZM144.549 363.298C139.846 363.298 136.972 360.276 136.972 355.433C136.972 350.72 139.886 347.528 144.38 347.528C148.417 347.528 151.559 350.094 151.559 355.284V356.447H141.158V356.457C141.158 358.734 142.501 360.136 144.619 360.136C146.031 360.136 147.124 359.53 147.552 358.366L150.843 360.266C149.759 362.145 147.542 363.298 144.549 363.298ZM144.45 350.69C142.57 350.69 141.248 352.082 141.158 353.822H147.572C147.562 352.003 146.289 350.69 144.45 350.69ZM154.323 363V347.727H158.37V353.673H163.59V348.901L167.607 346.584V363H163.59V357.004H158.37V363H154.323ZM169.7 359.639H170.874C172.206 358.794 172.494 355.722 172.733 352.719L173.131 347.727H184.844V359.639H187.21V367.474H183.173V363H173.837V367.474H169.7V359.639ZM175.089 359.639H180.847V350.989H176.73L176.571 352.719C176.342 355.98 175.994 358.217 175.089 359.639ZM193.885 363H189.679V346.564L193.725 348.901V357.412L199.224 347.727H203.4V363H199.363V353.286L193.885 363ZM206.796 363V347.727H210.843V353.673H216.063V348.901L220.08 346.584V363H216.063V357.004H210.843V363H206.796ZM233.826 347.727L231.907 351.058H227.483V363H223.366V347.727H233.826ZM235.793 355.423C235.793 350.69 238.676 347.528 243.31 347.528C247.943 347.528 250.827 350.69 250.827 355.423C250.827 360.126 247.943 363.298 243.31 363.298C238.676 363.298 235.793 360.126 235.793 355.423ZM240.098 355.393C240.098 358.058 241.192 360.017 243.33 360.017C245.428 360.017 246.521 358.058 246.521 355.393C246.521 352.729 245.428 350.76 243.33 350.76C241.192 350.76 240.098 352.729 240.098 355.393ZM253.581 363V347.727H260.094C263.862 347.727 266.199 349.209 266.199 351.854C266.199 353.504 264.896 354.658 262.709 355.036C265.453 355.234 267.044 356.825 267.044 358.834C267.044 361.439 264.916 363 261.098 363H253.581ZM257.528 356.497V359.828H261.098C262.271 359.828 262.987 359.232 262.987 358.247C262.987 357.163 262.271 356.497 261.098 356.497H257.528ZM260.094 350.969H257.528V354.011H260.183C261.446 354.011 262.212 353.435 262.212 352.47C262.212 351.536 261.406 350.969 260.094 350.969Z" fill="url(#paint1_linear_2041_438)"/>
<path d="M63.9421 57V36.6364H80.6864V57H76.4308V40.1364H68.1978V57H63.9421ZM91.6662 57.2983C86.9631 57.2983 84.0895 54.2756 84.0895 49.4332C84.0895 44.7202 87.0028 41.5284 91.4972 41.5284C95.5341 41.5284 98.6761 44.0938 98.6761 49.2841V50.4474H88.2756V50.4574C88.2756 52.7344 89.6179 54.1364 91.7358 54.1364C93.1477 54.1364 94.2415 53.5298 94.669 52.3665L97.9602 54.2656C96.8764 56.1449 94.6591 57.2983 91.6662 57.2983ZM91.5668 44.6903C89.6875 44.6903 88.3651 46.0824 88.2756 47.8224H94.6889C94.679 46.0028 93.4062 44.6903 91.5668 44.6903ZM101.44 41.7273H105.616V44.2926H105.805C106.372 43.0497 107.595 41.5284 110.151 41.5284C113.501 41.5284 116.335 44.1335 116.335 49.3835C116.335 54.4943 113.621 57.2486 110.141 57.2486C107.675 57.2486 106.392 55.8267 105.805 54.554H105.676V62.7273H101.44V41.7273ZM108.798 44.8991C106.74 44.8991 105.587 46.6392 105.587 49.3636C105.587 52.0881 106.76 53.8778 108.798 53.8778C110.876 53.8778 112.01 52.0284 112.01 49.3636C112.01 46.7188 110.896 44.8991 108.798 44.8991ZM119.159 57V41.7273H125.672C129.44 41.7273 131.777 43.2088 131.777 45.8537C131.777 47.5043 130.474 48.6577 128.287 49.0355C131.031 49.2344 132.622 50.8253 132.622 52.8338C132.622 55.4389 130.494 57 126.676 57H119.159ZM123.107 50.4972V53.8281H126.676C127.849 53.8281 128.565 53.2315 128.565 52.2472C128.565 51.1634 127.849 50.4972 126.676 50.4972H123.107ZM125.672 44.9688H123.107V48.0114H125.761C127.024 48.0114 127.79 47.4347 127.79 46.4702C127.79 45.5355 126.984 44.9688 125.672 44.9688ZM135.292 57V41.7273H139.339V46.4205H142.511C146.558 46.4205 148.934 48.5185 148.944 51.7301C148.934 54.8821 146.558 57 142.511 57H135.292ZM150.585 57V42.9503L154.82 40.5043V57H150.585ZM142.511 49.7514H139.339V53.669H142.511C143.933 53.669 144.937 52.8736 144.957 51.7599C144.937 50.5866 143.933 49.7514 142.511 49.7514ZM158.206 40.5639L162.253 42.9006V51.4119L167.751 41.7273H171.928V57H167.891V47.2855L162.412 57H158.206V40.5639ZM165.057 40.4148C162.044 40.4148 160.145 38.804 160.145 36.3977H163.078C163.068 37.3125 163.605 38.1776 165.057 38.1776C166.469 38.1776 167.026 37.3324 167.026 36.3977H169.979C169.969 38.804 168.07 40.4148 165.057 40.4148ZM181.804 57V41.7273H188.316C192.085 41.7273 194.422 43.2088 194.422 45.8537C194.422 47.5043 193.119 48.6577 190.931 49.0355C193.676 49.2344 195.267 50.8253 195.267 52.8338C195.267 55.4389 193.139 57 189.321 57H181.804ZM185.751 50.4972V53.8281H189.321C190.494 53.8281 191.21 53.2315 191.21 52.2472C191.21 51.1634 190.494 50.4972 189.321 50.4972H185.751ZM188.316 44.9688H185.751V48.0114H188.406C189.669 48.0114 190.434 47.4347 190.434 46.4702C190.434 45.5355 189.629 44.9688 188.316 44.9688ZM197.936 57V41.7273H201.983V46.4205H205.155C209.202 46.4205 211.578 48.5185 211.588 51.7301C211.578 54.8821 209.202 57 205.155 57H197.936ZM213.229 57V42.9503L217.465 40.5043V57H213.229ZM205.155 49.7514H201.983V53.669H205.155C206.577 53.669 207.581 52.8736 207.601 51.7599C207.581 50.5866 206.577 49.7514 205.155 49.7514ZM224.231 57H219.856L224.39 49.3636L220.015 41.7273H224.39L227.194 47.0668L230.068 41.7273H234.413L229.988 49.3636L234.532 57H230.207L227.194 51.7202L224.231 57ZM236.312 49.4233C236.312 44.6903 239.196 41.5284 243.829 41.5284C248.463 41.5284 251.346 44.6903 251.346 49.4233C251.346 54.1264 248.463 57.2983 243.829 57.2983C239.196 57.2983 236.312 54.1264 236.312 49.4233ZM240.618 49.3935C240.618 52.0582 241.711 54.017 243.849 54.017C245.947 54.017 247.041 52.0582 247.041 49.3935C247.041 46.7287 245.947 44.7599 243.849 44.7599C241.711 44.7599 240.618 46.7287 240.618 49.3935ZM252.907 53.6392H254.081C255.413 52.794 255.701 49.7216 255.94 46.7188L256.338 41.7273H268.051V53.6392H270.417V61.4744H266.38V57H257.044V61.4744H252.907V53.6392ZM258.297 53.6392H264.054V44.9886H259.937L259.778 46.7188C259.549 49.9801 259.201 52.2173 258.297 53.6392ZM286.287 57.2983C281.663 57.2983 278.799 54.3253 278.799 48.777V47.5241C278.799 40.1662 281.703 36.6861 287.261 36.6364C287.699 36.6264 288.106 36.6364 288.494 36.6364C290.125 36.6364 291.318 36.6463 292.064 36.1193L293.356 38.8835C292.054 39.9574 290.532 40.0668 287.4 40.1165C283.86 40.1562 282.429 41.6974 282.071 45.446H282.22C283.135 43.5767 284.785 42.5128 287.241 42.5128C291.139 42.5128 293.754 45.1875 293.754 49.6619C293.754 54.3253 290.9 57.2983 286.287 57.2983ZM286.287 45.7244C284.318 45.7244 283.125 47.196 283.105 49.8011C283.105 52.4062 284.308 54.017 286.306 54.017C288.245 54.017 289.449 52.4162 289.449 49.8011C289.449 47.196 288.245 45.7244 286.287 45.7244ZM296.565 57V41.7273H300.612V46.4205H303.784C307.831 46.4205 310.207 48.5185 310.217 51.7301C310.207 54.8821 307.831 57 303.784 57H296.565ZM311.858 57V42.9503L316.094 40.5043V57H311.858ZM303.784 49.7514H300.612V53.669H303.784C305.206 53.669 306.21 52.8736 306.23 51.7599C306.21 50.5866 305.206 49.7514 303.784 49.7514ZM318.565 53.6392H319.072C320.513 53.6392 321.11 52.3565 321.259 48.4886L321.508 41.7273H333.121V57H329.085V45.0582H325.316L325.077 49.7216C324.819 54.8523 323.099 57 319.857 57H318.585L318.565 53.6392ZM342.886 57V41.7273H349.398C353.167 41.7273 355.504 43.2088 355.504 45.8537C355.504 47.5043 354.201 48.6577 352.013 49.0355C354.758 49.2344 356.349 50.8253 356.349 52.8338C356.349 55.4389 354.221 57 350.403 57H342.886ZM346.833 50.4972V53.8281H350.403C351.576 53.8281 352.292 53.2315 352.292 52.2472C352.292 51.1634 351.576 50.4972 350.403 50.4972H346.833ZM349.398 44.9688H346.833V48.0114H349.488C350.751 48.0114 351.516 47.4347 351.516 46.4702C351.516 45.5355 350.711 44.9688 349.398 44.9688ZM364.306 53.6392H365.479C366.811 52.794 367.1 49.7216 367.338 46.7188L367.736 41.7273H379.449V53.6392H381.816V61.4744H377.779V57H368.442V61.4744H364.306V53.6392ZM369.695 53.6392H375.452V44.9886H371.336L371.176 46.7188C370.948 49.9801 370.6 52.2173 369.695 53.6392ZM383.568 52.7344C383.568 49.3239 386.283 48.3097 389.305 48.0312C391.96 47.7727 393.004 47.6435 393.004 46.6591V46.5994C393.004 45.3466 392.179 44.6207 390.737 44.6207C389.216 44.6207 388.311 45.3665 388.023 46.3807L384.702 44.4716C385.746 42.6222 387.854 41.5284 390.757 41.5284C394.158 41.5284 397.24 43.0597 397.24 46.6989V57H393.223V54.8821H393.104C392.358 56.304 390.896 57.2884 388.639 57.2884C385.726 57.2884 383.568 55.7571 383.568 52.7344ZM390.091 50.6065C388.599 50.8153 387.615 51.402 387.615 52.5952C387.615 53.7585 388.55 54.3651 389.852 54.3651C391.712 54.3651 393.034 53.142 393.034 51.5412V49.9205C392.527 50.2585 391.016 50.4773 390.091 50.6065ZM399.612 53.6392H400.119C401.56 53.6392 402.157 52.3565 402.306 48.4886L402.555 41.7273H414.168V57H410.131V45.0582H406.363L406.124 49.7216C405.866 54.8523 404.146 57 400.904 57H399.631L399.612 53.6392ZM424.412 57.2983C419.709 57.2983 416.836 54.2756 416.836 49.4332C416.836 44.7202 419.749 41.5284 424.243 41.5284C428.28 41.5284 431.422 44.0938 431.422 49.2841V50.4474H421.022V50.4574C421.022 52.7344 422.364 54.1364 424.482 54.1364C425.894 54.1364 426.988 53.5298 427.415 52.3665L430.706 54.2656C429.623 56.1449 427.405 57.2983 424.412 57.2983ZM424.313 44.6903C422.434 44.6903 421.111 46.0824 421.022 47.8224H427.435C427.425 46.0028 426.152 44.6903 424.313 44.6903ZM434.186 42.9503L438.422 40.5043V47.6534H439.615L443.772 41.7273H448.743L443.344 49.304L448.803 57H443.772L440.003 51.581H438.422V57H434.186V42.9503ZM449.976 49.4233C449.976 44.6903 452.86 41.5284 457.493 41.5284C462.127 41.5284 465.01 44.6903 465.01 49.4233C465.01 54.1264 462.127 57.2983 457.493 57.2983C452.86 57.2983 449.976 54.1264 449.976 49.4233ZM454.282 49.3935C454.282 52.0582 455.375 54.017 457.513 54.017C459.611 54.017 460.705 52.0582 460.705 49.3935C460.705 46.7287 459.611 44.7599 457.513 44.7599C455.375 44.7599 454.282 46.7287 454.282 49.3935ZM467.765 57V41.7273H472.776L476.793 52.3168L480.929 41.7273H485.98V57H481.983V47.2855L478.195 57H475.381L471.811 47.6236V57H467.765ZM72.5032 159.278C67.0543 159.278 63.0174 155.46 63.0174 148.818C63.0174 142.156 67.1239 138.358 72.5032 138.358C77.2163 138.358 80.7759 141.062 81.3427 145.766H76.9876C76.6594 143.528 74.9592 142.166 72.6026 142.166C69.4506 142.166 67.3825 144.582 67.3825 148.818C67.3825 153.173 69.4805 155.47 72.5728 155.47C74.8697 155.47 76.5799 154.217 76.9876 152.04L81.3427 152.06C80.8754 155.808 77.7234 159.278 72.5032 159.278ZM96.4787 159.278C93.5057 159.278 91.2685 157.807 90.5028 155.301L94.0227 153.263C94.0227 154.675 94.9574 155.838 96.4787 155.848C98.4276 155.838 99.223 154.277 99.4418 152.616H96.777L95.3352 150.111H99.4418C99.223 148.371 98.4077 146.899 96.4787 146.889C95.0369 146.899 94.0227 147.764 94.0227 149.097L90.5824 147.108C91.4375 144.901 93.7145 143.479 96.4787 143.479C101.092 143.479 103.558 146.869 103.558 151.195V151.562C103.558 155.918 101.112 159.278 96.4787 159.278ZM105.539 143.727H119.38L117.461 147.058H114.458V159H110.422V147.058H105.539V143.727ZM121.332 151.423C121.332 146.69 124.215 143.528 128.849 143.528C133.482 143.528 136.366 146.69 136.366 151.423C136.366 156.126 133.482 159.298 128.849 159.298C124.215 159.298 121.332 156.126 121.332 151.423ZM125.637 151.393C125.637 154.058 126.731 156.017 128.869 156.017C130.967 156.017 132.06 154.058 132.06 151.393C132.06 148.729 130.967 146.76 128.869 146.76C126.731 146.76 125.637 148.729 125.637 151.393ZM149.58 143.727L147.661 147.058H143.237V159H139.12V143.727H149.58ZM151.547 151.423C151.547 146.69 154.43 143.528 159.064 143.528C163.697 143.528 166.581 146.69 166.581 151.423C166.581 156.126 163.697 159.298 159.064 159.298C154.43 159.298 151.547 156.126 151.547 151.423ZM155.852 151.393C155.852 154.058 156.946 156.017 159.083 156.017C161.181 156.017 162.275 154.058 162.275 151.393C162.275 148.729 161.181 146.76 159.083 146.76C156.946 146.76 155.852 148.729 155.852 151.393ZM175.815 159V143.727H182.328C186.097 143.727 188.433 145.209 188.433 147.854C188.433 149.504 187.131 150.658 184.943 151.036C187.688 151.234 189.278 152.825 189.278 154.834C189.278 157.439 187.151 159 183.332 159H175.815ZM179.763 152.497V155.828H183.332C184.506 155.828 185.222 155.232 185.222 154.247C185.222 153.163 184.506 152.497 183.332 152.497H179.763ZM182.328 146.969H179.763V150.011H182.418C183.68 150.011 184.446 149.435 184.446 148.47C184.446 147.536 183.641 146.969 182.328 146.969ZM191.948 143.727H196.124V146.293H196.313C196.88 145.05 198.103 143.528 200.658 143.528C204.009 143.528 206.843 146.134 206.843 151.384C206.843 156.494 204.129 159.249 200.648 159.249C198.183 159.249 196.9 157.827 196.313 156.554H196.184V164.727H191.948V143.727ZM199.306 146.899C197.248 146.899 196.094 148.639 196.094 151.364C196.094 154.088 197.268 155.878 199.306 155.878C201.384 155.878 202.518 154.028 202.518 151.364C202.518 148.719 201.404 146.899 199.306 146.899ZM216.627 159.298C211.924 159.298 209.05 156.276 209.05 151.433C209.05 146.72 211.964 143.528 216.458 143.528C220.495 143.528 223.637 146.094 223.637 151.284V152.447H213.237V152.457C213.237 154.734 214.579 156.136 216.697 156.136C218.109 156.136 219.202 155.53 219.63 154.366L222.921 156.266C221.837 158.145 219.62 159.298 216.627 159.298ZM216.528 146.69C214.648 146.69 213.326 148.082 213.237 149.822H219.65C219.64 148.003 218.367 146.69 216.528 146.69ZM226.401 159V143.727H231.413L235.43 154.317L239.566 143.727H244.617V159H240.62V149.286L236.832 159H234.018L230.448 149.624V159H226.401ZM254.854 159.298C250.151 159.298 247.277 156.276 247.277 151.433C247.277 146.72 250.19 143.528 254.685 143.528C258.722 143.528 261.864 146.094 261.864 151.284V152.447H251.463V152.457C251.463 154.734 252.805 156.136 254.923 156.136C256.335 156.136 257.429 155.53 257.857 154.366L261.148 156.266C260.064 158.145 257.847 159.298 254.854 159.298ZM254.754 146.69C252.875 146.69 251.553 148.082 251.463 149.822H257.876C257.866 148.003 256.594 146.69 254.754 146.69ZM264.628 159V143.727H268.675V149.673H273.895V144.901L277.912 142.584V159H273.895V153.004H268.675V159H264.628ZM285.404 159H281.198V142.564L285.245 144.901V153.412L290.744 143.727H294.92V159H290.883V149.286L285.404 159ZM311.716 159.298C307.093 159.298 304.229 156.325 304.229 150.777V149.524C304.229 142.166 307.132 138.686 312.691 138.636C313.128 138.626 313.536 138.636 313.924 138.636C315.554 138.636 316.748 138.646 317.493 138.119L318.786 140.884C317.483 141.957 315.962 142.067 312.83 142.116C309.29 142.156 307.858 143.697 307.5 147.446H307.65C308.564 145.577 310.215 144.513 312.671 144.513C316.569 144.513 319.184 147.188 319.184 151.662C319.184 156.325 316.33 159.298 311.716 159.298ZM311.716 147.724C309.748 147.724 308.554 149.196 308.534 151.801C308.534 154.406 309.738 156.017 311.736 156.017C313.675 156.017 314.878 154.416 314.878 151.801C314.878 149.196 313.675 147.724 311.716 147.724ZM321.995 159V143.727H326.042V148.42H329.214C333.261 148.42 335.637 150.518 335.647 153.73C335.637 156.882 333.261 159 329.214 159H321.995ZM337.288 159V144.95L341.523 142.504V159H337.288ZM329.214 151.751H326.042V155.669H329.214C330.636 155.669 331.64 154.874 331.66 153.76C331.64 152.587 330.636 151.751 329.214 151.751ZM343.994 155.639H344.501C345.943 155.639 346.54 154.357 346.689 150.489L346.938 143.727H358.551V159H354.514V147.058H350.746L350.507 151.722C350.249 156.852 348.528 159 345.287 159H344.014L343.994 155.639ZM361.218 151.423C361.218 146.69 364.102 143.528 368.735 143.528C373.369 143.528 376.252 146.69 376.252 151.423C376.252 156.126 373.369 159.298 368.735 159.298C364.102 159.298 361.218 156.126 361.218 151.423ZM365.524 151.393C365.524 154.058 366.618 156.017 368.755 156.017C370.853 156.017 371.947 154.058 371.947 151.393C371.947 148.729 370.853 146.76 368.755 146.76C366.618 146.76 365.524 148.729 365.524 151.393ZM385.487 159V143.727H390.499L394.516 154.317L398.652 143.727H403.703V159H399.706V149.286L395.918 159H393.104L389.534 149.624V159H385.487ZM406.979 159V143.727H411.026V149.673H416.246V144.901L420.263 142.584V159H416.246V153.004H411.026V159H406.979ZM422.933 151.423C422.933 146.69 425.817 143.528 430.45 143.528C435.084 143.528 437.967 146.69 437.967 151.423C437.967 156.126 435.084 159.298 430.45 159.298C425.817 159.298 422.933 156.126 422.933 151.423ZM427.239 151.393C427.239 154.058 428.332 156.017 430.47 156.017C432.568 156.017 433.662 154.058 433.662 151.393C433.662 148.729 432.568 146.76 430.47 146.76C428.332 146.76 427.239 148.729 427.239 151.393ZM451.182 143.727L449.263 147.058H444.838V159H440.722V143.727H451.182ZM453.148 151.423C453.148 146.69 456.032 143.528 460.665 143.528C465.299 143.528 468.182 146.69 468.182 151.423C468.182 156.126 465.299 159.298 460.665 159.298C456.032 159.298 453.148 156.126 453.148 151.423ZM457.453 151.393C457.453 154.058 458.547 156.017 460.685 156.017C462.783 156.017 463.877 154.058 463.877 151.393C463.877 148.729 462.783 146.76 460.685 146.76C458.547 146.76 457.453 148.729 457.453 151.393ZM47.8963 193H43.6903V176.564L47.7372 178.901V187.412L53.2358 177.727H57.4119V193H53.375V183.286L47.8963 193ZM60.3104 190.713L63.8402 188.675C63.88 189.689 64.8246 190.305 66.1868 190.305C67.5689 190.305 68.6328 189.649 68.6328 188.436C68.6328 187.332 67.7479 186.577 66.4254 186.577H64.228V183.803H66.4254C67.7379 183.803 68.4737 183.126 68.4737 182.202C68.4737 181.178 67.6882 180.482 66.4354 180.482C65.1726 180.482 64.2578 181.108 64.228 182.003L60.728 179.984C61.6925 178.433 63.7706 177.528 66.2464 177.528C69.9851 177.528 72.2919 179.169 72.2919 181.834C72.2919 183.455 71.1683 184.568 69.2692 185.026V185.185C71.1385 185.304 72.6598 186.636 72.6598 188.764C72.6598 191.608 69.9652 193.298 66.2067 193.298C63.4822 193.298 61.2947 192.393 60.3104 190.713ZM75.2724 193V177.727H80.2837L84.3008 188.317L88.4371 177.727H93.4883V193H89.4911V183.286L85.7028 193H82.8888L79.3192 183.624V193H75.2724ZM103.725 193.298C99.0217 193.298 96.1481 190.276 96.1481 185.433C96.1481 180.72 99.0614 177.528 103.556 177.528C107.593 177.528 110.735 180.094 110.735 185.284V186.447H100.334V186.457C100.334 188.734 101.676 190.136 103.794 190.136C105.206 190.136 106.3 189.53 106.728 188.366L110.019 190.266C108.935 192.145 106.718 193.298 103.725 193.298ZM103.625 180.69C101.746 180.69 100.424 182.082 100.334 183.822H106.748C106.738 182.003 105.465 180.69 103.625 180.69ZM113.499 193V177.727H117.546V183.673H122.766V178.901L126.783 176.584V193H122.766V187.004H117.546V193H113.499ZM137.029 193.298C132.326 193.298 129.453 190.276 129.453 185.433C129.453 180.72 132.366 177.528 136.86 177.528C140.897 177.528 144.039 180.094 144.039 185.284V186.447H133.639V186.457C133.639 188.734 134.981 190.136 137.099 190.136C138.511 190.136 139.605 189.53 140.032 188.366L143.324 190.266C142.24 192.145 140.022 193.298 137.029 193.298ZM136.93 180.69C135.051 180.69 133.728 182.082 133.639 183.822H140.052C140.042 182.003 138.77 180.69 136.93 180.69ZM146.804 193V177.727H150.85V183.673H156.071V178.901L160.088 176.584V193H156.071V187.004H150.85V193H146.804ZM167.58 193H163.374V176.564L167.421 178.901V187.412L172.919 177.727H177.096V193H173.059V183.286L167.58 193ZM180.491 176.564L184.538 178.901V187.412L190.037 177.727H194.213V193H190.176V183.286L184.697 193H180.491V176.564ZM187.342 176.415C184.329 176.415 182.43 174.804 182.43 172.398H185.363C185.353 173.312 185.89 174.178 187.342 174.178C188.754 174.178 189.311 173.332 189.311 172.398H192.264C192.254 174.804 190.355 176.415 187.342 176.415ZM204.089 178.95L208.325 176.504V183.653H209.518L213.674 177.727H218.646L213.246 185.304L218.705 193H213.674L209.906 187.581H208.325V193H204.089V178.95ZM219.779 188.734C219.779 185.324 222.494 184.31 225.516 184.031C228.171 183.773 229.215 183.643 229.215 182.659V182.599C229.215 181.347 228.39 180.621 226.948 180.621C225.427 180.621 224.522 181.366 224.234 182.381L220.913 180.472C221.957 178.622 224.065 177.528 226.968 177.528C230.369 177.528 233.451 179.06 233.451 182.699V193H229.434V190.882H229.315C228.569 192.304 227.107 193.288 224.85 193.288C221.937 193.288 219.779 191.757 219.779 188.734ZM226.302 186.607C224.81 186.815 223.826 187.402 223.826 188.595C223.826 189.759 224.761 190.365 226.063 190.365C227.923 190.365 229.245 189.142 229.245 187.541V185.92C228.738 186.259 227.227 186.477 226.302 186.607ZM236.737 178.95L240.973 176.504V183.653H242.166L246.322 177.727H251.294L245.895 185.304L251.354 193H246.322L242.554 187.581H240.973V193H236.737V178.95ZM259.624 193V177.727H266.137C269.905 177.727 272.242 179.209 272.242 181.854C272.242 183.504 270.939 184.658 268.752 185.036C271.496 185.234 273.087 186.825 273.087 188.834C273.087 191.439 270.959 193 267.141 193H259.624ZM263.571 186.497V189.828H267.141C268.314 189.828 269.03 189.232 269.03 188.247C269.03 187.163 268.314 186.497 267.141 186.497H263.571ZM266.137 180.969H263.571V184.011H266.226C267.489 184.011 268.255 183.435 268.255 182.47C268.255 181.536 267.449 180.969 266.137 180.969ZM404.953 177.727H418.794L416.875 181.058H413.873V193H409.836V181.058H404.953V177.727ZM420.646 188.734C420.646 185.324 423.361 184.31 426.384 184.031C429.038 183.773 430.082 183.643 430.082 182.659V182.599C430.082 181.347 429.257 180.621 427.815 180.621C426.294 180.621 425.389 181.366 425.101 182.381L421.78 180.472C422.824 178.622 424.932 177.528 427.835 177.528C431.236 177.528 434.318 179.06 434.318 182.699V193H430.301V190.882H430.182C429.436 192.304 427.974 193.288 425.717 193.288C422.804 193.288 420.646 191.757 420.646 188.734ZM427.169 186.607C425.678 186.815 424.693 187.402 424.693 188.595C424.693 189.759 425.628 190.365 426.93 190.365C428.79 190.365 430.112 189.142 430.112 187.541V185.92C429.605 186.259 428.094 186.477 427.169 186.607ZM437.604 178.95L441.84 176.504V183.653H443.033L447.19 177.727H452.161L446.762 185.304L452.221 193H447.19L443.421 187.581H441.84V193H437.604V178.95ZM464.697 193H460.491V176.564L464.538 178.901V187.412L470.037 177.727H474.213V193H470.176V183.286L464.697 193Z" fill="white" fill-opacity="0.9"/>
<path d="M63.3754 295V275.879L67.6808 273.393V282.77H68.5458L75.3072 274.636H80.6665L72.7219 284.082L81.0344 295H75.695L69.1523 286.32H67.6808V295H63.3754ZM82.3246 279.727H96.1655L94.2464 283.058H91.2436V295H87.2067V283.058H82.3246V279.727ZM98.1168 287.423C98.1168 282.69 101 279.528 105.634 279.528C110.267 279.528 113.151 282.69 113.151 287.423C113.151 292.126 110.267 295.298 105.634 295.298C101 295.298 98.1168 292.126 98.1168 287.423ZM102.422 287.393C102.422 290.058 103.516 292.017 105.654 292.017C107.752 292.017 108.846 290.058 108.846 287.393C108.846 284.729 107.752 282.76 105.654 282.76C103.516 282.76 102.422 284.729 102.422 287.393ZM122.386 295V279.727H126.433V285.673H131.653V280.901L135.67 278.584V295H131.653V289.004H126.433V295H122.386ZM138.24 290.734C138.24 287.324 140.955 286.31 143.977 286.031C146.632 285.773 147.676 285.643 147.676 284.659V284.599C147.676 283.347 146.851 282.621 145.409 282.621C143.888 282.621 142.983 283.366 142.695 284.381L139.374 282.472C140.418 280.622 142.526 279.528 145.429 279.528C148.83 279.528 151.912 281.06 151.912 284.699V295H147.895V292.882H147.776C147.03 294.304 145.568 295.288 143.311 295.288C140.398 295.288 138.24 293.757 138.24 290.734ZM144.763 288.607C143.271 288.815 142.287 289.402 142.287 290.595C142.287 291.759 143.222 292.365 144.524 292.365C146.384 292.365 147.706 291.142 147.706 289.541V287.92C147.199 288.259 145.688 288.477 144.763 288.607ZM162.099 295.298C157.396 295.298 154.582 292.067 154.582 287.423C154.582 282.74 157.445 279.528 162.079 279.528C165.231 279.528 167.558 280.97 168.482 283.317L164.923 285.375C164.694 283.854 163.7 282.83 162.148 282.83C160.18 282.83 158.887 284.48 158.887 287.364C158.887 290.287 160.17 291.947 162.148 291.947C163.6 291.947 164.674 291.033 164.923 289.402L168.492 291.46C167.577 293.817 165.31 295.298 162.099 295.298ZM178.112 279.727H191.466V295H187.419V283.058H182.109V295H178.112V279.727ZM194.23 287.423C194.23 282.69 197.114 279.528 201.747 279.528C206.381 279.528 209.264 282.69 209.264 287.423C209.264 292.126 206.381 295.298 201.747 295.298C197.114 295.298 194.23 292.126 194.23 287.423ZM198.536 287.393C198.536 290.058 199.629 292.017 201.767 292.017C203.865 292.017 204.959 290.058 204.959 287.393C204.959 284.729 203.865 282.76 201.767 282.76C199.629 282.76 198.536 284.729 198.536 287.393ZM212.018 295V279.727H217.03L221.047 290.317L225.183 279.727H230.234V295H226.237V285.286L222.449 295H219.635L216.065 285.624V295H212.018ZM233.511 295V279.727H237.558V285.673H242.778V280.901L246.795 278.584V295H242.778V289.004H237.558V295H233.511ZM254.287 295H250.081V278.564L254.128 280.901V289.412L259.626 279.727H263.803V295H259.766V285.286L254.287 295ZM266.403 279.727H280.244L278.325 283.058H275.322V295H271.285V283.058H266.403V279.727ZM296.192 295.298C291.489 295.298 288.675 292.067 288.675 287.423C288.675 282.74 291.539 279.528 296.173 279.528C299.325 279.528 301.651 280.97 302.576 283.317L299.016 285.375C298.788 283.854 297.793 282.83 296.242 282.83C294.273 282.83 292.981 284.48 292.981 287.364C292.981 290.287 294.263 291.947 296.242 291.947C297.694 291.947 298.768 291.033 299.016 289.402L302.586 291.46C301.671 293.817 299.404 295.298 296.192 295.298ZM319.107 295.298C314.403 295.298 311.589 292.067 311.589 287.423C311.589 282.74 314.453 279.528 319.087 279.528C322.239 279.528 324.565 280.97 325.49 283.317L321.93 285.375C321.702 283.854 320.707 282.83 319.156 282.83C317.188 282.83 315.895 284.48 315.895 287.364C315.895 290.287 317.178 291.947 319.156 291.947C320.608 291.947 321.682 291.033 321.93 289.402L325.5 291.46C324.585 293.817 322.318 295.298 319.107 295.298ZM327.924 290.734C327.924 287.324 330.638 286.31 333.661 286.031C336.316 285.773 337.36 285.643 337.36 284.659V284.599C337.36 283.347 336.534 282.621 335.093 282.621C333.571 282.621 332.667 283.366 332.378 284.381L329.057 282.472C330.101 280.622 332.209 279.528 335.113 279.528C338.513 279.528 341.596 281.06 341.596 284.699V295H337.578V292.882H337.459C336.713 294.304 335.252 295.288 332.995 295.288C330.081 295.288 327.924 293.757 327.924 290.734ZM334.446 288.607C332.955 288.815 331.971 289.402 331.971 290.595C331.971 291.759 332.905 292.365 334.208 292.365C336.067 292.365 337.39 291.142 337.39 289.541V287.92C336.882 288.259 335.371 288.477 334.446 288.607ZM344.882 295V279.727H349.893L353.91 290.317L358.047 279.727H363.098V295H359.1V285.286L355.312 295H352.498L348.929 285.624V295H344.882ZM365.757 287.423C365.757 282.69 368.641 279.528 373.275 279.528C377.908 279.528 380.792 282.69 380.792 287.423C380.792 292.126 377.908 295.298 373.275 295.298C368.641 295.298 365.757 292.126 365.757 287.423ZM370.063 287.393C370.063 290.058 371.157 292.017 373.294 292.017C375.392 292.017 376.486 290.058 376.486 287.393C376.486 284.729 375.392 282.76 373.294 282.76C371.157 282.76 370.063 284.729 370.063 287.393ZM394.006 279.727L392.087 283.058H387.662V295H383.546V279.727H394.006ZM395.972 287.423C395.972 282.69 398.856 279.528 403.489 279.528C408.123 279.528 411.006 282.69 411.006 287.423C411.006 292.126 408.123 295.298 403.489 295.298C398.856 295.298 395.972 292.126 395.972 287.423ZM400.278 287.393C400.278 290.058 401.371 292.017 403.509 292.017C405.607 292.017 406.701 290.058 406.701 287.393C406.701 284.729 405.607 282.76 403.509 282.76C401.371 282.76 400.278 284.729 400.278 287.393ZM420.241 295V279.727H424.288V285.673H429.508V280.901L433.525 278.584V295H429.508V289.004H424.288V295H420.241ZM436.096 290.734C436.096 287.324 438.81 286.31 441.833 286.031C444.488 285.773 445.532 285.643 445.532 284.659V284.599C445.532 283.347 444.706 282.621 443.265 282.621C441.743 282.621 440.838 283.366 440.55 284.381L437.229 282.472C438.273 280.622 440.381 279.528 443.284 279.528C446.685 279.528 449.767 281.06 449.767 284.699V295H445.75V292.882H445.631C444.885 294.304 443.424 295.288 441.167 295.288C438.253 295.288 436.096 293.757 436.096 290.734ZM442.618 288.607C441.127 288.815 440.142 289.402 440.142 290.595C440.142 291.759 441.077 292.365 442.38 292.365C444.239 292.365 445.561 291.142 445.561 289.541V287.92C445.054 288.259 443.543 288.477 442.618 288.607ZM453.054 278.554L457.051 280.861V284.918C457.051 286.688 457.876 287.284 460.123 287.284C460.859 287.284 461.565 287.205 462.291 287.036V279.727H466.308V295H462.291V290.386C461.565 290.526 460.789 290.615 460.123 290.615C455.728 290.615 453.054 288.895 453.054 284.918V278.554ZM468.881 290.734C468.881 287.324 471.595 286.31 474.618 286.031C477.273 285.773 478.317 285.643 478.317 284.659V284.599C478.317 283.347 477.491 282.621 476.05 282.621C474.528 282.621 473.624 283.366 473.335 284.381L470.014 282.472C471.058 280.622 473.166 279.528 476.07 279.528C479.47 279.528 482.553 281.06 482.553 284.699V295H478.536V292.882H478.416C477.67 294.304 476.209 295.288 473.952 295.288C471.038 295.288 468.881 293.757 468.881 290.734ZM475.403 288.607C473.912 288.815 472.928 289.402 472.928 290.595C472.928 291.759 473.862 292.365 475.165 292.365C477.024 292.365 478.347 291.142 478.347 289.541V287.92C477.839 288.259 476.328 288.477 475.403 288.607ZM484.924 291.639H485.431C486.873 291.639 487.469 290.357 487.619 286.489L487.867 279.727H499.481V295H495.444V283.058H491.675L491.437 287.722C491.178 292.852 489.458 295 486.217 295H484.944L484.924 291.639ZM502.049 290.734C502.049 287.324 504.763 286.31 507.786 286.031C510.441 285.773 511.485 285.643 511.485 284.659V284.599C511.485 283.347 510.659 282.621 509.218 282.621C507.696 282.621 506.792 283.366 506.503 284.381L503.182 282.472C504.226 280.622 506.334 279.528 509.238 279.528C512.638 279.528 515.721 281.06 515.721 284.699V295H511.703V292.882H511.584C510.838 294.304 509.377 295.288 507.12 295.288C504.206 295.288 502.049 293.757 502.049 290.734ZM508.571 288.607C507.08 288.815 506.096 289.402 506.096 290.595C506.096 291.759 507.03 292.365 508.333 292.365C510.192 292.365 511.515 291.142 511.515 289.541V287.92C511.007 288.259 509.496 288.477 508.571 288.607ZM50.5909 329.298C45.8878 329.298 43.0739 326.067 43.0739 321.423C43.0739 316.74 45.9375 313.528 50.571 313.528C53.723 313.528 56.0497 314.97 56.9744 317.317L53.4148 319.375C53.1861 317.854 52.1918 316.83 50.6406 316.83C48.6719 316.83 47.3793 318.48 47.3793 321.364C47.3793 324.287 48.6619 325.947 50.6406 325.947C52.0923 325.947 53.1662 325.033 53.4148 323.402L56.9844 325.46C56.0696 327.817 53.8026 329.298 50.5909 329.298ZM59.3285 313.727H73.1694L71.2504 317.058H68.2475V329H64.2106V317.058H59.3285V313.727ZM75.0213 324.734C75.0213 321.324 77.7358 320.31 80.7585 320.031C83.4134 319.773 84.4574 319.643 84.4574 318.659V318.599C84.4574 317.347 83.6321 316.621 82.1903 316.621C80.669 316.621 79.7642 317.366 79.4759 318.381L76.1548 316.472C77.1989 314.622 79.3068 313.528 82.2102 313.528C85.6108 313.528 88.6932 315.06 88.6932 318.699V329H84.6761V326.882H84.5568C83.8111 328.304 82.3494 329.288 80.0923 329.288C77.179 329.288 75.0213 327.757 75.0213 324.734ZM81.544 322.607C80.0526 322.815 79.0682 323.402 79.0682 324.595C79.0682 325.759 80.0028 326.365 81.3054 326.365C83.1648 326.365 84.4872 325.142 84.4872 323.541V321.92C83.9801 322.259 82.4688 322.477 81.544 322.607ZM91.0646 325.639H91.5717C93.0135 325.639 93.6101 324.357 93.7592 320.489L94.0078 313.727H105.621V329H101.585V317.058H97.8161L97.5774 321.722C97.3189 326.852 95.5987 329 92.3572 329H91.0845L91.0646 325.639ZM113.111 329H108.905V312.564L112.952 314.901V323.412L118.451 313.727H122.627V329H118.59V319.286L113.111 329ZM139.403 329.298C134.7 329.298 131.886 326.067 131.886 321.423C131.886 316.74 134.75 313.528 139.384 313.528C142.536 313.528 144.862 314.97 145.787 317.317L142.227 319.375C141.999 317.854 141.004 316.83 139.453 316.83C137.484 316.83 136.192 318.48 136.192 321.364C136.192 324.287 137.474 325.947 139.453 325.947C140.905 325.947 141.979 325.033 142.227 323.402L145.797 325.46C144.882 327.817 142.615 329.298 139.403 329.298ZM148.936 329V313.727H155.449C159.218 313.727 161.554 315.209 161.554 317.854C161.554 319.504 160.252 320.658 158.064 321.036C160.809 321.234 162.4 322.825 162.4 324.834C162.4 327.439 160.272 329 156.453 329H148.936ZM152.884 322.497V325.828H156.453C157.627 325.828 158.343 325.232 158.343 324.247C158.343 323.163 157.627 322.497 156.453 322.497H152.884ZM155.449 316.969H152.884V320.011H155.539C156.801 320.011 157.567 319.435 157.567 318.47C157.567 317.536 156.762 316.969 155.449 316.969ZM169.275 329H165.069V312.564L169.116 314.901V323.412L174.615 313.727H178.791V329H174.754V319.286L169.275 329ZM180.993 325.639H182.167C183.499 324.794 183.787 321.722 184.026 318.719L184.424 313.727H196.137V325.639H198.503V333.474H194.466V329H185.13V333.474H180.993V325.639ZM186.382 325.639H192.14V316.989H188.023L187.864 318.719C187.635 321.98 187.287 324.217 186.382 325.639ZM207.932 329.298C203.229 329.298 200.355 326.276 200.355 321.433C200.355 316.72 203.268 313.528 207.763 313.528C211.8 313.528 214.942 316.094 214.942 321.284V322.447H204.541V322.457C204.541 324.734 205.884 326.136 208.001 326.136C209.413 326.136 210.507 325.53 210.935 324.366L214.226 326.266C213.142 328.145 210.925 329.298 207.932 329.298ZM207.832 316.69C205.953 316.69 204.631 318.082 204.541 319.822H210.955C210.945 318.003 209.672 316.69 207.832 316.69ZM216.911 313.727H230.751L228.832 317.058H225.83V329H221.793V317.058H216.911V313.727ZM240.279 329.298C235.576 329.298 232.703 326.276 232.703 321.433C232.703 316.72 235.616 313.528 240.11 313.528C244.147 313.528 247.289 316.094 247.289 321.284V322.447H236.889V322.457C236.889 324.734 238.231 326.136 240.349 326.136C241.761 326.136 242.855 325.53 243.282 324.366L246.574 326.266C245.49 328.145 243.272 329.298 240.279 329.298ZM240.18 316.69C238.301 316.69 236.978 318.082 236.889 319.822H243.302C243.292 318.003 242.02 316.69 240.18 316.69ZM249.139 325.639H249.646C251.088 325.639 251.684 324.357 251.833 320.489L252.082 313.727H263.696V329H259.659V317.058H255.89L255.652 321.722C255.393 326.852 253.673 329 250.431 329H249.159L249.139 325.639ZM270.281 329H266.224L269.515 322.845C267.695 322.05 266.651 320.598 266.661 318.739C266.641 315.756 269.107 313.727 273.065 313.727H279.876V329H275.928V323.491H273.214L270.281 329ZM270.698 318.858C270.678 319.852 271.484 320.628 273.025 320.628H275.928V317.048H273.065C271.504 317.048 270.678 317.884 270.698 318.858ZM283.167 329V313.727H288.178L292.195 324.317L296.332 313.727H301.383V329H297.386V319.286L293.597 329H290.783L287.214 319.624V329H283.167ZM308.865 329H304.659V312.564L308.706 314.901V323.412L314.205 313.727H318.381V329H314.344V319.286L308.865 329Z" fill="white" fill-opacity="0.8"/>
<defs>
<linearGradient id="paint0_linear_2041_438" x1="274.5" y1="0" x2="274.5" y2="400" gradientUnits="userSpaceOnUse">
<stop stop-color="#141414"/>
<stop offset="0.61328" stop-color="#0A0A0A" stop-opacity="0.9"/>
<stop offset="1" stop-opacity="0.8"/>
</linearGradient>
<linearGradient id="paint1_linear_2041_438" x1="42" y1="200" x2="531" y2="200" gradientUnits="userSpaceOnUse">
<stop stop-color="#F5B325"/>
<stop offset="0.5" stop-color="#E65A13"/>
<stop offset="1" stop-color="#D70000"/>
</linearGradient>
</defs>
</svg>
