<svg width="202" height="48" viewBox="0 0 202 48" fill="none" xmlns="http://www.w3.org/2000/svg">
<rect width="201.6" height="47.36" rx="23.68" fill="url(#paint0_linear_129_2942)"/>
<rect x="2.80005" y="2.08001" width="195.2" height="43.2" rx="21.6" fill="black"/>
<rect x="6" y="4.48" width="189.6" height="38.4" rx="19.2" fill="url(#paint1_linear_129_2942)"/>
<path d="M30.7091 14.5618H46L44.1273 17.8073H40.3V33.18H36.4091V17.8073H30.7091V14.5618ZM48.5182 14.5618H61.0637V17.8073H52.4546V22.2436H60.4182L58.5455 25.4891H52.4546V29.9345H61.1V33.18H48.5182V14.5618ZM64.1932 33.18V13.4255L68.1296 15.6982V29.9345H76.1114V33.18H64.1932ZM78.7182 14.5618H91.2637V17.8073H82.6546V22.2436H90.6182L88.7455 25.4891H82.6546V29.9345H91.3001V33.18H78.7182V14.5618ZM94.066 23.8891C94.066 17.8527 97.8569 14.3073 102.775 14.3073C106.184 14.3073 108.957 16.0073 110.166 18.6073L106.739 20.58C106.239 18.8345 104.866 17.7891 102.839 17.7891C99.9932 17.7891 98.0569 19.98 98.0569 23.8527C98.0569 27.7436 99.9205 29.9527 102.875 29.9527C105.493 29.9527 107.066 28.4891 107.121 26.18H103.121L104.83 23.2164H110.911V25.5618C110.911 30.4618 107.557 33.4345 102.857 33.4345C97.6114 33.4345 94.066 29.78 94.066 23.8891ZM117.805 33.18H113.868V14.5618H121.214C125.441 14.5618 127.886 16.9436 127.886 20.6436C127.886 23.1891 126.714 25.0345 124.596 25.9436L128.55 33.18H124.205L120.677 26.58H117.805V33.18ZM120.459 17.78H117.805V23.4164H120.477C122.732 23.4164 123.832 22.4891 123.832 20.6436C123.832 18.7891 122.732 17.78 120.459 17.78ZM129.659 33.18L136.086 14.5618H141.159L147.577 33.18H143.359L141.977 28.9345H135.259L133.877 33.18H129.659ZM138.55 18.8164L136.259 25.8618H140.986L138.696 18.8164H138.55ZM153.636 33.18H149.818V14.5618H154.673L159.8 27.0709H160.018L165.146 14.5618H170V33.18H166.182V21.0618H166.027L161.209 33.0891H158.609L153.791 21.0164H153.636V33.18Z" fill="black"/>
<defs>
<linearGradient id="paint0_linear_129_2942" x1="0" y1="23.68" x2="201.6" y2="23.68" gradientUnits="userSpaceOnUse">
<stop stop-color="#F5B325"/>
<stop offset="0.5" stop-color="#E65A13"/>
<stop offset="1" stop-color="#D70000"/>
</linearGradient>
<linearGradient id="paint1_linear_129_2942" x1="6" y1="23.68" x2="195.6" y2="23.68" gradientUnits="userSpaceOnUse">
<stop stop-color="#F5B325"/>
<stop offset="0.5" stop-color="#E65A13"/>
<stop offset="1" stop-color="#D70000"/>
</linearGradient>
</defs>
</svg>
