<svg width="297" height="88" viewBox="0 0 297 88" fill="none" xmlns="http://www.w3.org/2000/svg">
<rect width="297" height="88" rx="30" fill="url(#paint0_linear_2047_400)"/>
<rect x="4.125" y="3.86499" width="287.571" height="80.2703" rx="30" fill="black"/>
<rect x="8.83928" y="8.32422" width="279.321" height="71.3513" rx="30" fill="url(#paint1_linear_2047_400)"/>
<path d="M101.048 40.3182C94.821 40.3182 90.2074 35.9545 90.2074 28.3636C90.2074 20.75 94.9006 16.4091 101.048 16.4091C106.435 16.4091 110.503 19.5 111.151 24.875H106.173C105.798 22.3182 103.855 20.7614 101.162 20.7614C97.5597 20.7614 95.196 23.5227 95.196 28.3636C95.196 33.3409 97.5938 35.9659 101.128 35.9659C103.753 35.9659 105.707 34.5341 106.173 32.0455L111.151 32.0682C110.616 36.3523 107.014 40.3182 101.048 40.3182ZM113.793 16.7273H132.906L130.565 20.7841H125.781V40H120.918V20.7841H113.793V16.7273ZM134.793 40L142.827 16.7273H149.168L157.19 40H151.918L150.19 34.6932H141.793L140.065 40H134.793ZM145.906 22.0455L143.043 30.8523H148.952L146.088 22.0455H145.906ZM159.105 16.7273H178.219L175.878 20.7841H171.094V40H166.23V20.7841H159.105V16.7273ZM190.151 40H181.457V16.7273H186.366V25.3295H190.151C195.673 25.3295 199.116 28.1591 199.105 32.5682C199.116 36.9659 195.673 40 190.151 40ZM190.151 29.2159H186.366V36.0455H190.151C192.798 36.0455 194.241 34.4318 194.23 32.5227C194.241 30.6705 192.798 29.2159 190.151 29.2159ZM46.6705 70V46.7273H65.8068V70H60.9432V50.7273H51.5341V70H46.6705ZM69.2301 70L77.2642 46.7273H83.6051L91.6278 70H86.3551L84.6278 64.6932H76.2301L74.5028 70H69.2301ZM80.3438 52.0455L77.4801 60.8523H83.3892L80.5256 52.0455H80.3438ZM94.429 70V46.7273H103.611C108.895 46.7273 111.952 49.9886 111.952 54.6136C111.952 59.2614 108.838 62.4545 103.486 62.4545H99.3494V70H94.429ZM102.668 50.75H99.3494V58.5114H102.69C105.509 58.5114 106.884 56.9205 106.884 54.6136C106.884 52.2955 105.509 50.75 102.668 50.75ZM114.261 46.7273H133.375L131.034 50.7841H126.25V70H121.386V50.7841H114.261V46.7273ZM136.523 46.7273H141.443V56.3295H151.432V48.1364L156.341 45.3068V70H151.432V60.3864H141.443V70H136.523V46.7273ZM160.398 46.7273H176.08V50.7841H165.318V56.3295H175.273L172.932 60.3864H165.318V65.9432H176.125V70H160.398V46.7273ZM179.991 70V46.7273H189.173C194.457 46.7273 197.514 49.9886 197.514 54.6136C197.514 59.2614 194.401 62.4545 189.048 62.4545H184.912V70H179.991ZM188.23 50.75H184.912V58.5114H188.253C191.071 58.5114 192.446 56.9205 192.446 54.6136C192.446 52.2955 191.071 50.75 188.23 50.75ZM211.199 70.3182C204.994 70.3182 200.301 65.9432 200.301 58.3636C200.301 50.75 204.994 46.4091 211.199 46.4091C217.369 46.4091 222.097 50.75 222.097 58.3636C222.097 65.9773 217.369 70.3182 211.199 70.3182ZM211.199 50.7614C207.619 50.7614 205.29 53.4318 205.29 58.3636C205.29 63.2955 207.619 65.9659 211.199 65.9659C214.767 65.9659 217.108 63.2955 217.108 58.3636C217.108 53.4318 214.767 50.7614 211.199 50.7614ZM230.514 70H225.741V46.7273H231.81L238.219 62.3636H238.491L244.901 46.7273H250.969V70H246.196V54.8523H246.003L239.98 69.8864H236.73L230.707 54.7955H230.514V70Z" fill="black"/>
<defs>
<linearGradient id="paint0_linear_2047_400" x1="0" y1="44" x2="297" y2="44" gradientUnits="userSpaceOnUse">
<stop stop-color="#F5B325"/>
<stop offset="0.5" stop-color="#E65A13"/>
<stop offset="1" stop-color="#D70000"/>
</linearGradient>
<linearGradient id="paint1_linear_2047_400" x1="8.83928" y1="43.9999" x2="288.161" y2="43.9999" gradientUnits="userSpaceOnUse">
<stop stop-color="#F5B325"/>
<stop offset="0.5" stop-color="#E65A13"/>
<stop offset="1" stop-color="#D70000"/>
</linearGradient>
</defs>
</svg>
