<svg width="450" height="62" viewBox="0 0 450 62" fill="none" xmlns="http://www.w3.org/2000/svg">
<rect width="449.4" height="61.95" rx="30.975" fill="url(#paint0_linear_127_2806)"/>
<rect x="6.24146" y="2.72095" width="435.133" height="56.5084" rx="28.2542" fill="black"/>
<rect x="13.375" y="5.86011" width="422.65" height="50.2297" rx="25.1149" fill="url(#paint1_linear_127_2806)"/>
<path d="M373.847 32.3069C374.265 32.6632 374.5 33.1464 374.5 33.6502C374.5 34.1541 374.265 34.6373 373.847 34.9936L363.813 43.5437C363.395 43.8999 362.828 44.1 362.237 44.1C361.645 44.1 361.078 43.8999 360.66 43.5437L350.626 34.9936C350.22 34.6352 349.995 34.1553 350 33.6571C350.005 33.1589 350.24 32.6824 350.653 32.3301C351.067 31.9778 351.626 31.778 352.21 31.7736C352.795 31.7693 353.358 31.9608 353.779 32.3069L360.007 37.4503V19.4C360.007 18.8961 360.242 18.4128 360.66 18.0565C361.078 17.7002 361.645 17.5 362.237 17.5C362.828 17.5 363.395 17.7002 363.813 18.0565C364.231 18.4128 364.466 18.8961 364.466 19.4V37.4503L370.694 32.3069C371.112 31.9507 371.679 31.7506 372.271 31.7506C372.862 31.7506 373.429 31.9507 373.847 32.3069Z" fill="black"/>
<path d="M70.0042 44.8999V20.4635H90.0974V44.8999H84.9905V24.6635H75.111V44.8999H70.0042ZM106.029 45.234C99.5145 45.234 94.5867 40.6402 94.5867 32.6817C94.5867 24.6874 99.5145 20.1294 106.029 20.1294C112.508 20.1294 117.472 24.6874 117.472 32.6817C117.472 40.676 112.508 45.234 106.029 45.234ZM106.029 24.6993C102.271 24.6993 99.8248 27.5033 99.8248 32.6817C99.8248 37.8601 102.271 40.6641 106.029 40.6641C109.776 40.6641 112.234 37.8601 112.234 32.6817C112.234 27.5033 109.776 24.6993 106.029 24.6993ZM121.299 44.8999V21.955L126.466 18.9721V30.2238H127.504L135.617 20.4635H142.048L132.515 31.7988L142.49 44.8999H136.083L128.231 34.4834H126.466V44.8999H121.299ZM143.764 44.8999L152.199 20.4635H158.857L167.281 44.8999H161.745L159.931 39.3277H151.114L149.3 44.8999H143.764ZM155.433 26.0476L152.426 35.2948H158.631L155.624 26.0476H155.433ZM170.437 40.6522L175.043 37.9914C175.138 39.7812 176.845 40.9743 179.124 40.9743C181.486 40.9743 183.157 39.638 183.145 37.6931C183.157 35.7243 181.426 34.3402 178.658 34.3402H176.379V30.5459H178.658C181.009 30.5459 182.644 29.2454 182.632 27.3243C182.644 25.4868 181.247 24.2221 179.159 24.2221C177.047 24.2221 175.341 25.4272 175.282 27.2885L170.879 24.7351C172.096 21.9312 175.258 20.1294 179.183 20.1294C184.242 20.1294 187.619 23.1601 187.607 27.0141C187.619 29.7584 185.734 31.6914 183.001 32.1806V32.3715C186.593 32.8249 188.526 34.9965 188.514 38.0391C188.526 42.2152 184.6 45.234 179.112 45.234C174.947 45.234 171.714 43.4442 170.437 40.6522ZM191.046 44.8999L199.482 20.4635H206.14L214.564 44.8999H209.028L207.214 39.3277H198.396L196.583 44.8999H191.046ZM202.716 26.0476L199.709 35.2948H205.914L202.907 26.0476H202.716ZM216.575 20.4635H236.644L234.186 24.7232H229.163V44.8999H224.056V24.7232H216.575V20.4635ZM249.172 44.8999H240.045V20.4635H245.199V29.4959H249.172C254.971 29.4959 258.587 32.4669 258.575 37.0965C258.587 41.7141 254.971 44.8999 249.172 44.8999ZM249.172 33.5766H245.199V40.7476H249.172C251.952 40.7476 253.468 39.0533 253.456 37.0488C253.468 35.1039 251.952 33.5766 249.172 33.5766ZM270.465 44.8999V20.4635H280.249C285.642 20.4635 288.362 23.0647 288.362 26.7277C288.362 29.6033 286.489 31.405 283.948 31.9777V32.2164C286.728 32.3476 289.317 34.5312 289.317 38.1465C289.317 42.0363 286.394 44.8999 280.905 44.8999H270.465ZM279.962 34.1851H275.631V40.676H279.843C282.731 40.676 283.983 39.4709 283.983 37.6334C283.983 35.6169 282.444 34.1851 279.962 34.1851ZM275.631 24.6397V30.6891H279.461C281.573 30.6891 283.148 29.5198 283.148 27.5868C283.148 25.8209 281.848 24.6397 279.557 24.6397H275.631ZM303.632 45.234C297.094 45.234 292.249 40.6522 292.249 32.6817C292.249 24.6874 297.177 20.1294 303.632 20.1294C309.288 20.1294 313.559 23.3749 314.24 29.0187H309.013C308.62 26.334 306.579 24.6993 303.751 24.6993C299.969 24.6993 297.487 27.5988 297.487 32.6817C297.487 37.9079 300.005 40.6641 303.716 40.6641C306.472 40.6641 308.524 39.1607 309.013 36.5476L314.24 36.5715C313.679 41.0698 309.896 45.234 303.632 45.234ZM317.944 20.4635H334.41V24.7232H323.111V30.5459H333.563L331.105 34.8056H323.111V40.6402H334.458V44.8999H317.944V20.4635Z" fill="black"/>
<defs>
<linearGradient id="paint0_linear_127_2806" x1="0" y1="30.975" x2="449.4" y2="30.975" gradientUnits="userSpaceOnUse">
<stop stop-color="#F5B325"/>
<stop offset="0.5" stop-color="#E65A13"/>
<stop offset="1" stop-color="#D70000"/>
</linearGradient>
<linearGradient id="paint1_linear_127_2806" x1="13.375" y1="30.975" x2="436.025" y2="30.975" gradientUnits="userSpaceOnUse">
<stop stop-color="#F5B325"/>
<stop offset="0.5" stop-color="#E65A13"/>
<stop offset="1" stop-color="#D70000"/>
</linearGradient>
</defs>
</svg>
