<svg width="264" height="34" viewBox="0 0 264 34" fill="none" xmlns="http://www.w3.org/2000/svg">
<path d="M8.40682 26.6591C4.20341 26.6591 1.0892 23.7137 1.0892 18.5898C1.0892 13.4506 4.2571 10.5205 8.40682 10.5205C12.0426 10.5205 14.7886 12.6068 15.2259 16.235H11.8662C11.6131 14.5091 10.3014 13.4583 8.48352 13.4583C6.05199 13.4583 4.45653 15.3222 4.45653 18.5898C4.45653 21.9494 6.075 23.7213 8.46051 23.7213C10.2324 23.7213 11.5517 22.7548 11.8662 21.075L15.2259 21.0904C14.8653 23.9821 12.4338 26.6591 8.40682 26.6591ZM17.5462 26.4443V14.6625H21.4121L24.5109 22.8316L27.7018 14.6625H31.5984V26.4443H28.5149V18.9503L25.5925 26.4443H23.4217L20.668 19.2111V26.4443H17.5462ZM33.6503 20.5994C33.6503 16.9483 35.8747 14.5091 39.4491 14.5091C43.0236 14.5091 45.248 16.9483 45.248 20.5994C45.248 24.2276 43.0236 26.6744 39.4491 26.6744C35.8747 26.6744 33.6503 24.2276 33.6503 20.5994ZM36.9716 20.5764C36.9716 22.6321 37.8153 24.1432 39.4645 24.1432C41.083 24.1432 41.9267 22.6321 41.9267 20.5764C41.9267 18.5208 41.083 17.002 39.4645 17.002C37.8153 17.002 36.9716 18.5208 36.9716 20.5764ZM46.7591 14.6625H57.4364L55.956 17.2321H53.6395V26.4443H50.5253V17.2321H46.7591V14.6625ZM59.4173 14.6625H62.6388V16.6415H62.7846C63.2218 15.6827 64.1653 14.5091 66.1366 14.5091C68.7215 14.5091 70.9076 16.5188 70.9076 20.5688C70.9076 24.5114 68.8136 26.6361 66.1289 26.6361C64.2266 26.6361 63.2371 25.5392 62.7846 24.5574H62.6849V30.8625H59.4173V14.6625ZM65.0934 17.1094C63.5056 17.1094 62.6158 18.4517 62.6158 20.5534C62.6158 22.6551 63.5209 24.0358 65.0934 24.0358C66.6965 24.0358 67.5709 22.6091 67.5709 20.5534C67.5709 18.5131 66.7119 17.1094 65.0934 17.1094ZM78.4553 26.6744C74.8272 26.6744 72.6104 24.3426 72.6104 20.6071C72.6104 16.9713 74.8579 14.5091 78.3249 14.5091C81.4391 14.5091 83.863 16.4881 83.863 20.4921V21.3895H75.8397V21.3972C75.8397 23.1537 76.8752 24.2352 78.509 24.2352C79.5982 24.2352 80.442 23.7673 80.7718 22.8699L83.3107 24.335C82.4746 25.7847 80.7641 26.6744 78.4553 26.6744ZM78.3786 16.9483C76.9289 16.9483 75.9087 18.0222 75.8397 19.3645H80.7871C80.7795 17.9608 79.7977 16.9483 78.3786 16.9483ZM85.3817 14.6625H96.059L94.5786 17.2321H92.2621V26.4443H89.1479V17.2321H85.3817V14.6625ZM103.609 26.4443H98.0399V14.6625H101.162V18.283H103.609C106.731 18.283 108.564 19.9014 108.571 22.379C108.564 24.8105 106.731 26.4443 103.609 26.4443ZM103.609 20.8526H101.162V23.8747H103.609C104.706 23.8747 105.48 23.2611 105.496 22.402C105.48 21.4969 104.706 20.8526 103.609 20.8526ZM115.738 14.6625H126.039V26.4443H122.917V17.2321H118.821V26.4443H115.738V14.6625ZM128.171 20.5994C128.171 16.9483 130.396 14.5091 133.97 14.5091C137.545 14.5091 139.769 16.9483 139.769 20.5994C139.769 24.2276 137.545 26.6744 133.97 26.6744C130.396 26.6744 128.171 24.2276 128.171 20.5994ZM131.493 20.5764C131.493 22.6321 132.336 24.1432 133.986 24.1432C135.604 24.1432 136.448 22.6321 136.448 20.5764C136.448 18.5208 135.604 17.002 133.986 17.002C132.336 17.002 131.493 18.5208 131.493 20.5764ZM141.188 23.8517H141.579C142.692 23.8517 143.152 22.8622 143.267 19.8784L143.459 14.6625H152.418V26.4443H149.303V17.2321H146.396L146.212 20.8296C146.013 24.7875 144.686 26.4443 142.185 26.4443H141.203L141.188 23.8517ZM154.951 26.4443V14.6625H158.073V19.2495H162.1V15.5676L165.199 13.7804V26.4443H162.1V21.8191H158.073V26.4443H154.951ZM167.258 20.5994C167.258 16.9483 169.483 14.5091 173.057 14.5091C176.631 14.5091 178.856 16.9483 178.856 20.5994C178.856 24.2276 176.631 26.6744 173.057 26.6744C169.483 26.6744 167.258 24.2276 167.258 20.5994ZM170.579 20.5764C170.579 22.6321 171.423 24.1432 173.072 24.1432C174.691 24.1432 175.535 22.6321 175.535 20.5764C175.535 18.5208 174.691 17.002 173.072 17.002C171.423 17.002 170.579 18.5208 170.579 20.5764ZM186.304 26.6744C182.676 26.6744 180.505 24.1816 180.505 20.5994C180.505 16.9867 182.714 14.5091 186.288 14.5091C188.72 14.5091 190.515 15.6213 191.228 17.4316L188.482 19.0193C188.306 17.8458 187.539 17.0557 186.342 17.0557C184.823 17.0557 183.826 18.329 183.826 20.5534C183.826 22.8085 184.816 24.0895 186.342 24.0895C187.462 24.0895 188.29 23.3838 188.482 22.1259L191.236 23.7137C190.53 25.5316 188.781 26.6744 186.304 26.6744ZM193.044 14.6625H203.722L202.241 17.2321H199.925V26.4443H196.81V17.2321H193.044V14.6625ZM211.271 26.4443H205.702V14.6625H208.824V18.283H211.271C214.393 18.283 216.226 19.9014 216.234 22.379C216.226 24.8105 214.393 26.4443 211.271 26.4443ZM211.271 20.8526H208.824V23.8747H211.271C212.368 23.8747 213.143 23.2611 213.158 22.402C213.143 21.4969 212.368 20.8526 211.271 20.8526ZM217.787 26.4443V15.606L221.047 13.7267V19.3185H222.865C223.31 16.4267 225.358 14.5091 228.441 14.5091C231.939 14.5091 234.11 16.9867 234.11 20.5611C234.11 24.1355 231.939 26.6744 228.441 26.6744C225.396 26.6744 223.356 24.7568 222.88 21.9111H221.047V26.4443H217.787ZM225.872 20.5611C225.864 22.5938 226.624 24.0358 228.441 24.0358C230.252 24.0358 230.988 22.5708 230.996 20.5611C230.988 18.5438 230.252 17.1094 228.441 17.1094C226.624 17.1094 225.864 18.5284 225.872 20.5611Z" fill="url(#paint0_linear_2001_42)"/>
<path d="M242.534 12.9871C242.49 12.5672 242.632 12.1803 242.929 11.9115C243.227 11.6428 243.655 11.5142 244.119 11.554L255.268 12.5117C255.733 12.5517 256.196 12.7568 256.556 13.082C256.915 13.4071 257.142 13.8257 257.187 14.2457L258.246 24.3247C258.282 24.7392 258.135 25.1188 257.838 25.3817C257.541 25.6447 257.117 25.7699 256.658 25.7304C256.198 25.691 255.74 25.49 255.382 25.1708C255.024 24.8516 254.794 24.4396 254.743 24.0237L253.989 17.8552L243.338 27.4833C243.041 27.7521 242.613 27.8807 242.148 27.8407C241.683 27.8008 241.22 27.5957 240.86 27.2705C240.501 26.9452 240.274 26.5265 240.23 26.1065C240.185 25.6865 240.328 25.2995 240.625 25.0307L251.276 15.4026L244.452 14.7211C243.987 14.6811 243.524 14.476 243.165 14.1508C242.805 13.8257 242.578 13.4071 242.534 12.9871Z" fill="url(#paint1_linear_2001_42)"/>
<defs>
<linearGradient id="paint0_linear_2001_42" x1="0" y1="18.5509" x2="263.204" y2="18.5509" gradientUnits="userSpaceOnUse">
<stop stop-color="#F5B325"/>
<stop offset="0.5" stop-color="#E65A13"/>
<stop offset="1" stop-color="#D70000"/>
</linearGradient>
<linearGradient id="paint1_linear_2001_42" x1="240.852" y1="27.2631" x2="254.969" y2="11.6473" gradientUnits="userSpaceOnUse">
<stop stop-color="#F5B325"/>
<stop offset="0.5" stop-color="#E65A13"/>
<stop offset="1" stop-color="#D70000"/>
</linearGradient>
</defs>
</svg>
